M48
;Layer_Color=9474304
;FILE_FORMAT=2:4
METRIC,LZ
;TYPE=PLATED
T1F00S00C0.3000
T3F00S00C0.9000
T4F00S00C1.0000
;TYPE=NON_PLATED
T5F00S00C0.6000
T6F00S00C0.9000
%
T01
X538Y092
X527Y115
X517
X551Y134
X549Y147
X548Y158
X552Y177
X53125Y21375
X53Y226
X521
X531Y236
X601Y23775
X6Y251
Y26
X605Y275
X587Y268
X592Y308
X591Y369
X569625Y369625
X573Y388
X522Y373
X462Y347
X47Y175
X489
X594Y2
X601Y209
Y217
X627Y209
X644Y217
X653Y218
Y226
X661271
X668541
X677
Y236
Y242
X678Y256
X65Y263
Y272
X646Y299
X671Y301
X665Y31
X664Y325
Y341
X646144Y346443
X646Y361
X664Y373
X685Y361
X694Y366
X698Y348
X713Y358
X747Y374
X768Y338
Y329
X792Y302
X787Y219
X78
X73475Y229
X721Y1805
X711
X716Y173
X711Y1655
X721
X689Y172
X691Y197
X7
X757Y173
X769Y147
X778Y146
Y155
X66Y134
X653Y14
X644
X636
X627
X622Y15
Y159
X631Y178
X65Y113
X66
X659Y102
Y095
X67Y097
X611Y112
X604
X586Y1
Y091
X574Y119
X712Y059
X714Y039
Y03
X725Y025
X696Y393
X682
X688Y386
X811Y363
Y356
X836Y3485
Y3375
X847
Y3485
X858
Y3375
X866Y382
X893Y368
X899Y32
X89Y314
X879Y301
X869Y269
X856Y271
X841
X828Y301
X812Y311
X82Y32
X799Y302
X869Y246
X903Y24
Y229
Y218
X892Y192
X855Y214
X841
X821Y155
X807Y062
X802Y048
X845Y057
X835Y024
X885Y029
X876Y412
Y422
X825Y561
X814Y584
X818Y609
X819Y618
X81225Y63225
X801Y661
X815Y708
X836Y709
X8365Y6985
X838Y687
X85Y703
X859Y708
X866Y72
X838Y744
X795Y74
X743
X698Y729
X6795
X661
X629
X617
X623Y757
X575Y76
X577Y771
X582Y743
X568
X561Y707
X596Y699
X587Y655
X566Y653
X57Y62
X547Y619
X54425Y63225
X544Y603
X533Y59
X484Y584
X489Y606
X488Y62
X477Y66
X453
X45Y695
X447Y722
X436Y711
X425Y732
X473Y74
X475424Y752927
X503Y746
X525Y74
X531Y66
X502Y657
X619
X632
X654Y663
X648Y684
X667
X668Y618
X659
Y596
X642Y589
X638Y582
X631Y57
X616
X618Y582
X607Y581
X648Y564
X69Y562
X711Y547
X705Y54
X697Y522
X698Y49
X707Y468
Y443
X711Y423
Y415
X739Y426
X677Y408
X668Y41
X658Y407
X659Y43
X67Y443
Y456
X652576Y451763
X65Y486
X676Y473
X606Y476
X592Y459
X6Y429
X608Y413
X598Y406
X592Y412
X622Y407
X619Y42
X635
X563Y429
X555Y43
X538
X528Y406
X547Y398
X476Y419
Y491
X499Y487
X528Y483
X525Y472
X56Y478
X508Y542
X489Y541
X454Y542
X466Y528
X737Y515
X746Y504
X783Y549
X787Y594
X753
X734Y581
X724Y583
X747Y66
X777
T03
X4592Y2496
Y275
X4846
Y2496
X51
Y275
X7592
Y2496
X7846
Y275
X81
Y2496
X792Y4736
Y499
X7666
Y4736
Y5244
X792
T04
X468Y0245
Y0499
Y0753
Y1007
Y1261
Y1515
X5165Y03925
X5415
X7295
X7545
T05
X606Y0665
X664
T06
X794Y036
X824
X476Y44
Y47
M30
