G04*
G04 #@! TF.GenerationSoftware,Altium Limited,Altium Designer,22.6.1 (34)*
G04*
G04 Layer_Color=65535*
%FSLAX44Y44*%
%MOMM*%
G71*
G04*
G04 #@! TF.SameCoordinates,9900268D-5443-4670-A824-5D7C6AAB4451*
G04*
G04*
G04 #@! TF.FilePolarity,Positive*
G04*
G01*
G75*
%ADD10C,0.5080*%
%ADD11C,0.1250*%
%ADD12C,0.1300*%
%ADD13C,0.2500*%
%ADD14C,0.5000*%
%ADD15C,0.1000*%
%ADD16C,0.3000*%
%ADD17C,0.2000*%
%ADD18C,0.1524*%
%ADD19C,0.4000*%
%ADD20C,0.2540*%
G36*
X395676Y485946D02*
X395811D01*
Y485811D01*
X396081D01*
Y485676D01*
X396351D01*
Y485541D01*
X396487D01*
Y485405D01*
X396757D01*
Y485270D01*
X397027D01*
Y485135D01*
X397162D01*
Y485000D01*
X397432D01*
Y484865D01*
X397703D01*
Y484730D01*
X397973D01*
Y484595D01*
X398108D01*
Y484459D01*
X398378D01*
Y484324D01*
X398649D01*
Y484189D01*
X398784D01*
Y484054D01*
X399054D01*
Y483919D01*
X399324D01*
Y483784D01*
X399595D01*
Y483649D01*
X399730D01*
Y483513D01*
X400000D01*
Y483378D01*
X400270D01*
Y483243D01*
X400405D01*
Y483108D01*
X400676D01*
Y482973D01*
X400946D01*
Y482838D01*
X401216D01*
Y482703D01*
X401351D01*
Y482568D01*
X401622D01*
Y482432D01*
X401892D01*
Y482297D01*
X402027D01*
Y482162D01*
X402297D01*
Y482027D01*
X402568D01*
Y481892D01*
X402838D01*
Y481757D01*
X402973D01*
Y481622D01*
X403243D01*
Y481487D01*
X403378D01*
Y481622D01*
X405000D01*
Y481757D01*
X406757D01*
Y481892D01*
X408378D01*
Y482027D01*
X410135D01*
Y482162D01*
X411622D01*
Y481892D01*
X411757D01*
Y481757D01*
X411892D01*
Y481622D01*
X412027D01*
Y481487D01*
X412162D01*
Y481351D01*
X412297D01*
Y481081D01*
X412432D01*
Y480946D01*
X412568D01*
Y480811D01*
X412703D01*
Y480676D01*
X412838D01*
Y480541D01*
X412973D01*
Y480270D01*
X413108D01*
Y480135D01*
X413243D01*
Y480000D01*
X413378D01*
Y479865D01*
X413513D01*
Y479730D01*
X413649D01*
Y479595D01*
X413784D01*
Y479324D01*
X413919D01*
Y479189D01*
X414054D01*
Y479054D01*
X414189D01*
Y478919D01*
X414324D01*
Y478784D01*
X414459D01*
Y478513D01*
X414595D01*
Y478378D01*
X414730D01*
Y478243D01*
X414865D01*
Y478108D01*
X415000D01*
Y477973D01*
X415135D01*
Y477703D01*
X415270D01*
Y477568D01*
X415405D01*
Y477432D01*
X415541D01*
Y477297D01*
X415676D01*
Y477162D01*
X415811D01*
Y477027D01*
X415946D01*
Y476757D01*
X416081D01*
Y476622D01*
X416216D01*
Y476487D01*
X416351D01*
Y476351D01*
X416487D01*
Y476216D01*
X416622D01*
Y475946D01*
X416757D01*
Y475811D01*
X416892D01*
Y475676D01*
X417027D01*
Y475541D01*
X417162D01*
Y475405D01*
X417297D01*
Y475135D01*
X417432D01*
Y475000D01*
X417568D01*
Y474865D01*
X417703D01*
Y474730D01*
X417838D01*
Y474595D01*
X417973D01*
Y474324D01*
X418108D01*
Y474189D01*
X418243D01*
Y474054D01*
X418378D01*
Y473919D01*
X418513D01*
Y473784D01*
X418649D01*
Y473649D01*
X418784D01*
Y473378D01*
X418919D01*
Y473243D01*
X419054D01*
Y473108D01*
X419189D01*
Y472973D01*
X419324D01*
Y472838D01*
X419459D01*
Y472568D01*
X419595D01*
Y472432D01*
X419730D01*
Y472297D01*
X419865D01*
Y472027D01*
X419730D01*
Y470405D01*
X419595D01*
Y468919D01*
X419459D01*
Y467297D01*
X419324D01*
Y465676D01*
X419189D01*
Y464459D01*
X419324D01*
Y464324D01*
X419459D01*
Y464054D01*
X419595D01*
Y463784D01*
X419730D01*
Y463649D01*
X419865D01*
Y463378D01*
X420000D01*
Y463243D01*
X420135D01*
Y462973D01*
X420270D01*
Y462838D01*
X420405D01*
Y462568D01*
X420541D01*
Y462432D01*
X420676D01*
Y462162D01*
X420811D01*
Y461892D01*
X420946D01*
Y461757D01*
X421081D01*
Y461487D01*
X421216D01*
Y461351D01*
X421351D01*
Y461081D01*
X421487D01*
Y460946D01*
X421622D01*
Y460676D01*
X421757D01*
Y460541D01*
X421892D01*
Y460270D01*
X422027D01*
Y460000D01*
X422162D01*
Y459865D01*
X422297D01*
Y459595D01*
X422432D01*
Y459459D01*
X422568D01*
Y459189D01*
X422703D01*
Y459054D01*
X422838D01*
Y458784D01*
X422973D01*
Y458513D01*
X423108D01*
Y458378D01*
X423243D01*
Y457838D01*
X423108D01*
Y456757D01*
X422973D01*
Y455541D01*
X422838D01*
Y454459D01*
X422703D01*
Y453243D01*
X422568D01*
Y452162D01*
X422432D01*
Y450946D01*
X422297D01*
Y449865D01*
X422162D01*
Y448649D01*
X422027D01*
Y447568D01*
X421892D01*
Y446351D01*
X421757D01*
Y445270D01*
X421622D01*
Y444054D01*
X421487D01*
Y442973D01*
X421351D01*
Y442568D01*
X421216D01*
Y442432D01*
X421081D01*
Y442297D01*
X420946D01*
Y442162D01*
X420811D01*
Y442027D01*
X420541D01*
Y441892D01*
X420405D01*
Y441757D01*
X420270D01*
Y441622D01*
X420135D01*
Y441487D01*
X420000D01*
Y441351D01*
X419865D01*
Y441216D01*
X419730D01*
Y441081D01*
X419595D01*
Y440946D01*
X419459D01*
Y440811D01*
X419324D01*
Y440676D01*
X419189D01*
Y440541D01*
X418919D01*
Y440405D01*
X418784D01*
Y440270D01*
X418649D01*
Y440135D01*
X418513D01*
Y440000D01*
X418378D01*
Y439865D01*
X418243D01*
Y439730D01*
X418108D01*
Y439595D01*
X417973D01*
Y439459D01*
X417838D01*
Y439324D01*
X417703D01*
Y439189D01*
X417568D01*
Y439054D01*
X417432D01*
Y438919D01*
X417162D01*
Y438784D01*
X417027D01*
Y438649D01*
X416892D01*
Y438513D01*
X416757D01*
Y438378D01*
X416622D01*
Y438243D01*
X416487D01*
Y438108D01*
X416351D01*
Y437973D01*
X416216D01*
Y437838D01*
X416081D01*
Y437432D01*
X415946D01*
Y437162D01*
X415811D01*
Y436892D01*
X415676D01*
Y436487D01*
X415541D01*
Y436216D01*
X415405D01*
Y435946D01*
X415270D01*
Y435676D01*
X415135D01*
Y435270D01*
X415000D01*
Y435000D01*
X414865D01*
Y434730D01*
X414730D01*
Y434324D01*
X414595D01*
Y434054D01*
X414459D01*
Y433784D01*
X414324D01*
Y433513D01*
X414189D01*
Y433108D01*
X414054D01*
Y432838D01*
X413919D01*
Y432568D01*
X413784D01*
Y432297D01*
X413649D01*
Y431892D01*
X413513D01*
Y431622D01*
X413378D01*
Y431351D01*
X413243D01*
Y430946D01*
X413108D01*
Y430676D01*
X412973D01*
Y430405D01*
X412838D01*
Y430135D01*
X412703D01*
Y429730D01*
X412568D01*
Y429459D01*
X412432D01*
Y429189D01*
X412297D01*
Y428784D01*
X412162D01*
Y428513D01*
X412027D01*
Y428243D01*
X411892D01*
Y427973D01*
X411757D01*
Y427568D01*
X411622D01*
Y427297D01*
X411487D01*
Y427027D01*
X411351D01*
Y426757D01*
X411216D01*
Y426351D01*
X411081D01*
Y426081D01*
X410946D01*
Y425946D01*
X410811D01*
Y425811D01*
X410270D01*
Y425676D01*
X409730D01*
Y425541D01*
X409324D01*
Y425405D01*
X408784D01*
Y425270D01*
X408378D01*
Y425135D01*
X407838D01*
Y425000D01*
X407297D01*
Y424865D01*
X406892D01*
Y424730D01*
X406351D01*
Y424595D01*
X405946D01*
Y424459D01*
X405405D01*
Y424324D01*
X404865D01*
Y424189D01*
X404459D01*
Y424054D01*
X403919D01*
Y423919D01*
X403513D01*
Y423784D01*
X402973D01*
Y423649D01*
X402568D01*
Y423513D01*
X402432D01*
Y423378D01*
X402297D01*
Y423243D01*
X402162D01*
Y423108D01*
X402027D01*
Y422973D01*
X401757D01*
Y422838D01*
X401622D01*
Y422703D01*
X401487D01*
Y422568D01*
X401351D01*
Y422432D01*
X401216D01*
Y422297D01*
X401081D01*
Y422162D01*
X400946D01*
Y422027D01*
X400676D01*
Y421892D01*
X400541D01*
Y421757D01*
X400405D01*
Y421622D01*
X400270D01*
Y421487D01*
X400135D01*
Y421351D01*
X400000D01*
Y421216D01*
X399730D01*
Y421081D01*
X399595D01*
Y420946D01*
X399459D01*
Y420811D01*
X399324D01*
Y420676D01*
X399189D01*
Y420541D01*
X399054D01*
Y420405D01*
X398784D01*
Y420270D01*
X398649D01*
Y420135D01*
X398513D01*
Y420000D01*
X398378D01*
Y419865D01*
X398243D01*
Y419730D01*
X398108D01*
Y419595D01*
X397838D01*
Y419459D01*
X397703D01*
Y419324D01*
X397568D01*
Y419189D01*
X397432D01*
Y419054D01*
X397297D01*
Y418919D01*
X397162D01*
Y418784D01*
X397027D01*
Y418649D01*
X396757D01*
Y418513D01*
X396622D01*
Y418378D01*
X396487D01*
Y418243D01*
X396351D01*
Y418108D01*
X396216D01*
Y417973D01*
X396081D01*
Y417838D01*
X395811D01*
Y417703D01*
X395676D01*
Y417568D01*
X395541D01*
Y417432D01*
X395135D01*
Y417568D01*
X395000D01*
Y417703D01*
X394865D01*
Y417838D01*
X394730D01*
Y417973D01*
X394595D01*
Y418108D01*
X394459D01*
Y418243D01*
X394189D01*
Y418378D01*
X394054D01*
Y418513D01*
X393919D01*
Y418649D01*
X393784D01*
Y418784D01*
X393649D01*
Y418919D01*
X393513D01*
Y419054D01*
X393243D01*
Y419189D01*
X393108D01*
Y419324D01*
X392973D01*
Y419459D01*
X392838D01*
Y419595D01*
X392703D01*
Y419730D01*
X392568D01*
Y419865D01*
X392432D01*
Y420000D01*
X392162D01*
Y420135D01*
X392027D01*
Y420270D01*
X391892D01*
Y420405D01*
X391757D01*
Y420541D01*
X391622D01*
Y420676D01*
X391487D01*
Y420811D01*
X391216D01*
Y420946D01*
X391081D01*
Y421081D01*
X390946D01*
Y421216D01*
X390811D01*
Y421351D01*
X390676D01*
Y421487D01*
X390541D01*
Y421622D01*
X390405D01*
Y421757D01*
X390135D01*
Y421892D01*
X390000D01*
Y422027D01*
X389865D01*
Y422162D01*
X389730D01*
Y422297D01*
X389595D01*
Y422432D01*
X389459D01*
Y422568D01*
X389189D01*
Y422703D01*
X389054D01*
Y422838D01*
X388919D01*
Y422973D01*
X388784D01*
Y423108D01*
X388649D01*
Y423243D01*
X388513D01*
Y423378D01*
X388243D01*
Y423513D01*
X388108D01*
Y423649D01*
X387838D01*
Y423784D01*
X387297D01*
Y423919D01*
X386757D01*
Y424054D01*
X386351D01*
Y424189D01*
X385811D01*
Y424324D01*
X385405D01*
Y424459D01*
X384865D01*
Y424595D01*
X384324D01*
Y424730D01*
X383919D01*
Y424865D01*
X383378D01*
Y425000D01*
X382973D01*
Y425135D01*
X382432D01*
Y425270D01*
X381892D01*
Y425405D01*
X381487D01*
Y425541D01*
X380946D01*
Y425676D01*
X380541D01*
Y425811D01*
X380000D01*
Y425946D01*
X379730D01*
Y426216D01*
X379595D01*
Y426622D01*
X379459D01*
Y426892D01*
X379324D01*
Y427162D01*
X379189D01*
Y427568D01*
X379054D01*
Y427838D01*
X378919D01*
Y428108D01*
X378784D01*
Y428378D01*
X378649D01*
Y428784D01*
X378513D01*
Y429054D01*
X378378D01*
Y429324D01*
X378243D01*
Y429595D01*
X378108D01*
Y430000D01*
X377973D01*
Y430270D01*
X377838D01*
Y430541D01*
X377703D01*
Y430946D01*
X377568D01*
Y431216D01*
X377432D01*
Y431487D01*
X377297D01*
Y431757D01*
X377162D01*
Y432162D01*
X377027D01*
Y432432D01*
X376892D01*
Y432703D01*
X376757D01*
Y432973D01*
X376622D01*
Y433378D01*
X376487D01*
Y433649D01*
X376351D01*
Y433919D01*
X376216D01*
Y434324D01*
X376081D01*
Y434595D01*
X375946D01*
Y434865D01*
X375811D01*
Y435135D01*
X375676D01*
Y435541D01*
X375541D01*
Y435811D01*
X375405D01*
Y436081D01*
X375270D01*
Y436487D01*
X375135D01*
Y436757D01*
X375000D01*
Y437027D01*
X374865D01*
Y437297D01*
X374730D01*
Y437703D01*
X374595D01*
Y437973D01*
X374459D01*
Y438108D01*
X374324D01*
Y438243D01*
X374189D01*
Y438378D01*
X373919D01*
Y438513D01*
X373784D01*
Y438649D01*
X373649D01*
Y438784D01*
X373513D01*
Y438919D01*
X373378D01*
Y439054D01*
X373243D01*
Y439189D01*
X373108D01*
Y439324D01*
X372973D01*
Y439459D01*
X372838D01*
Y439595D01*
X372703D01*
Y439730D01*
X372568D01*
Y439865D01*
X372432D01*
Y440000D01*
X372162D01*
Y440135D01*
X372027D01*
Y440270D01*
X371892D01*
Y440405D01*
X371757D01*
Y440541D01*
X371622D01*
Y440676D01*
X371487D01*
Y440811D01*
X371351D01*
Y440946D01*
X371216D01*
Y441081D01*
X371081D01*
Y441216D01*
X370946D01*
Y441351D01*
X370811D01*
Y441487D01*
X370541D01*
Y441622D01*
X370405D01*
Y441757D01*
X370270D01*
Y441892D01*
X370135D01*
Y442027D01*
X370000D01*
Y442162D01*
X369865D01*
Y442297D01*
X369730D01*
Y442432D01*
X369595D01*
Y442568D01*
X369459D01*
Y442703D01*
X369324D01*
Y443649D01*
X369189D01*
Y444865D01*
X369054D01*
Y445946D01*
X368919D01*
Y447162D01*
X368784D01*
Y448243D01*
X368649D01*
Y449459D01*
X368513D01*
Y450541D01*
X368378D01*
Y451757D01*
X368243D01*
Y452838D01*
X368108D01*
Y454054D01*
X367973D01*
Y455135D01*
X367838D01*
Y456351D01*
X367703D01*
Y457432D01*
X367568D01*
Y458513D01*
X367703D01*
Y458649D01*
X367838D01*
Y458919D01*
X367973D01*
Y459054D01*
X368108D01*
Y459324D01*
X368243D01*
Y459459D01*
X368378D01*
Y459730D01*
X368513D01*
Y459865D01*
X368649D01*
Y460135D01*
X368784D01*
Y460405D01*
X368919D01*
Y460541D01*
X369054D01*
Y460811D01*
X369189D01*
Y460946D01*
X369324D01*
Y461216D01*
X369459D01*
Y461351D01*
X369595D01*
Y461622D01*
X369730D01*
Y461757D01*
X369865D01*
Y462027D01*
X370000D01*
Y462297D01*
X370135D01*
Y462432D01*
X370270D01*
Y462703D01*
X370405D01*
Y462838D01*
X370541D01*
Y463108D01*
X370676D01*
Y463243D01*
X370811D01*
Y463513D01*
X370946D01*
Y463649D01*
X371081D01*
Y463919D01*
X371216D01*
Y464189D01*
X371351D01*
Y464324D01*
X371487D01*
Y464595D01*
X371622D01*
Y465135D01*
X371487D01*
Y466757D01*
X371351D01*
Y468243D01*
X371216D01*
Y469865D01*
X371081D01*
Y471487D01*
X370946D01*
Y472297D01*
X371081D01*
Y472568D01*
X371216D01*
Y472703D01*
X371351D01*
Y472838D01*
X371487D01*
Y472973D01*
X371622D01*
Y473108D01*
X371757D01*
Y473378D01*
X371892D01*
Y473513D01*
X372027D01*
Y473649D01*
X372162D01*
Y473784D01*
X372297D01*
Y473919D01*
X372432D01*
Y474189D01*
X372568D01*
Y474324D01*
X372703D01*
Y474459D01*
X372838D01*
Y474595D01*
X372973D01*
Y474730D01*
X373108D01*
Y474865D01*
X373243D01*
Y475135D01*
X373378D01*
Y475270D01*
X373513D01*
Y475405D01*
X373649D01*
Y475541D01*
X373784D01*
Y475676D01*
X373919D01*
Y475946D01*
X374054D01*
Y476081D01*
X374189D01*
Y476216D01*
X374324D01*
Y476351D01*
X374459D01*
Y476487D01*
X374595D01*
Y476757D01*
X374730D01*
Y476892D01*
X374865D01*
Y477027D01*
X375000D01*
Y477162D01*
X375135D01*
Y477297D01*
X375270D01*
Y477568D01*
X375405D01*
Y477703D01*
X375541D01*
Y477838D01*
X375676D01*
Y477973D01*
X375811D01*
Y478108D01*
X375946D01*
Y478243D01*
X376081D01*
Y478513D01*
X376216D01*
Y478649D01*
X376351D01*
Y478784D01*
X376487D01*
Y478919D01*
X376622D01*
Y479054D01*
X376757D01*
Y479324D01*
X376892D01*
Y479459D01*
X377027D01*
Y479595D01*
X377162D01*
Y479730D01*
X377297D01*
Y479865D01*
X377432D01*
Y480135D01*
X377568D01*
Y480270D01*
X377703D01*
Y480405D01*
X377838D01*
Y480541D01*
X377973D01*
Y480676D01*
X378108D01*
Y480811D01*
X378243D01*
Y481081D01*
X378378D01*
Y481216D01*
X378513D01*
Y481351D01*
X378649D01*
Y481487D01*
X378784D01*
Y481622D01*
X378919D01*
Y481892D01*
X379054D01*
Y482027D01*
X379189D01*
Y482162D01*
X380676D01*
Y482027D01*
X382432D01*
Y481892D01*
X384054D01*
Y481757D01*
X385811D01*
Y481622D01*
X387703D01*
Y481757D01*
X387973D01*
Y481892D01*
X388243D01*
Y482027D01*
X388513D01*
Y482162D01*
X388649D01*
Y482297D01*
X388919D01*
Y482432D01*
X389189D01*
Y482568D01*
X389324D01*
Y482703D01*
X389595D01*
Y482838D01*
X389865D01*
Y482973D01*
X390000D01*
Y483108D01*
X390270D01*
Y483243D01*
X390541D01*
Y483378D01*
X390811D01*
Y483513D01*
X390946D01*
Y483649D01*
X391216D01*
Y483784D01*
X391487D01*
Y483919D01*
X391622D01*
Y484054D01*
X391892D01*
Y484189D01*
X392162D01*
Y484324D01*
X392432D01*
Y484459D01*
X392568D01*
Y484595D01*
X392838D01*
Y484730D01*
X393108D01*
Y484865D01*
X393243D01*
Y485000D01*
X393513D01*
Y485135D01*
X393784D01*
Y485270D01*
X394054D01*
Y485405D01*
X394189D01*
Y485541D01*
X394459D01*
Y485676D01*
X394730D01*
Y485811D01*
X394865D01*
Y485946D01*
X395135D01*
Y486081D01*
X395676D01*
Y485946D01*
D02*
G37*
G36*
X443295Y235681D02*
X426705D01*
Y246081D01*
X443295D01*
Y235681D01*
D02*
G37*
G36*
X735199Y530609D02*
X734363D01*
X733682Y534441D01*
X734463D01*
X734945Y531545D01*
X736534Y534441D01*
X737315D01*
X735199Y530609D01*
D02*
G37*
G36*
X738649Y534457D02*
X738693Y534452D01*
X738743Y534446D01*
X738859Y534424D01*
X738987Y534391D01*
X739120Y534336D01*
X739186Y534302D01*
X739247Y534264D01*
X739308Y534219D01*
X739363Y534164D01*
X739369Y534158D01*
X739374Y534153D01*
X739391Y534136D01*
X739408Y534114D01*
X739430Y534081D01*
X739452Y534048D01*
X739502Y533965D01*
X739552Y533865D01*
X739596Y533743D01*
X739629Y533610D01*
X739635Y533538D01*
X739640Y533461D01*
Y533455D01*
Y533450D01*
Y533433D01*
Y533411D01*
X739629Y533355D01*
X739618Y533284D01*
X739596Y533195D01*
X739568Y533106D01*
X739524Y533012D01*
X739463Y532918D01*
X739457Y532907D01*
X739430Y532879D01*
X739391Y532835D01*
X739336Y532785D01*
X739269Y532724D01*
X739186Y532663D01*
X739092Y532613D01*
X738981Y532564D01*
X738987D01*
X738992Y532558D01*
X739020Y532542D01*
X739064Y532514D01*
X739120Y532475D01*
X739175Y532425D01*
X739236Y532370D01*
X739291Y532303D01*
X739341Y532231D01*
X739347Y532220D01*
X739358Y532198D01*
X739380Y532154D01*
X739402Y532104D01*
X739419Y532038D01*
X739441Y531966D01*
X739452Y531888D01*
X739457Y531805D01*
Y531800D01*
Y531788D01*
Y531766D01*
X739452Y531733D01*
X739446Y531694D01*
X739441Y531650D01*
X739430Y531600D01*
X739419Y531550D01*
X739386Y531428D01*
X739330Y531296D01*
X739297Y531229D01*
X739253Y531157D01*
X739208Y531091D01*
X739153Y531024D01*
X739147Y531019D01*
X739136Y531002D01*
X739109Y530980D01*
X739081Y530947D01*
X739037Y530914D01*
X738987Y530869D01*
X738931Y530825D01*
X738865Y530781D01*
X738793Y530736D01*
X738716Y530692D01*
X738627Y530648D01*
X738533Y530615D01*
X738433Y530581D01*
X738328Y530559D01*
X738212Y530543D01*
X738095Y530537D01*
X738051D01*
X738012Y530543D01*
X737973Y530548D01*
X737924Y530554D01*
X737868Y530559D01*
X737813Y530570D01*
X737685Y530603D01*
X737553Y530653D01*
X737486Y530686D01*
X737420Y530725D01*
X737353Y530764D01*
X737292Y530814D01*
X737287Y530819D01*
X737281Y530825D01*
X737265Y530842D01*
X737243Y530864D01*
X737215Y530891D01*
X737187Y530930D01*
X737160Y530969D01*
X737126Y531019D01*
X737093Y531069D01*
X737060Y531129D01*
X737027Y531190D01*
X736999Y531262D01*
X736971Y531340D01*
X736944Y531423D01*
X736927Y531506D01*
X736910Y531600D01*
X737630Y531689D01*
Y531683D01*
Y531678D01*
X737636Y531661D01*
X737641Y531639D01*
X737652Y531584D01*
X737669Y531517D01*
X737691Y531451D01*
X737719Y531379D01*
X737752Y531312D01*
X737791Y531262D01*
X737796Y531257D01*
X737813Y531246D01*
X737841Y531224D01*
X737874Y531207D01*
X737918Y531185D01*
X737973Y531163D01*
X738034Y531152D01*
X738101Y531146D01*
X738112D01*
X738145Y531152D01*
X738189Y531157D01*
X738250Y531168D01*
X738317Y531190D01*
X738389Y531218D01*
X738461Y531262D01*
X738527Y531318D01*
X738533Y531323D01*
X738555Y531351D01*
X738583Y531384D01*
X738616Y531440D01*
X738643Y531501D01*
X738671Y531578D01*
X738693Y531667D01*
X738699Y531761D01*
Y531766D01*
Y531772D01*
Y531800D01*
X738693Y531844D01*
X738682Y531899D01*
X738666Y531960D01*
X738638Y532021D01*
X738605Y532082D01*
X738560Y532137D01*
X738555Y532143D01*
X738533Y532159D01*
X738505Y532182D01*
X738461Y532209D01*
X738411Y532231D01*
X738344Y532254D01*
X738272Y532270D01*
X738189Y532276D01*
X738156D01*
X738117Y532270D01*
X738073Y532265D01*
X738201Y532885D01*
X738328D01*
X738383Y532890D01*
X738450Y532901D01*
X738522Y532924D01*
X738594Y532946D01*
X738666Y532985D01*
X738732Y533034D01*
X738738Y533040D01*
X738760Y533062D01*
X738782Y533095D01*
X738815Y533145D01*
X738843Y533206D01*
X738870Y533278D01*
X738887Y533361D01*
X738893Y533455D01*
Y533466D01*
Y533488D01*
X738887Y533522D01*
X738882Y533566D01*
X738865Y533610D01*
X738848Y533660D01*
X738821Y533710D01*
X738782Y533754D01*
X738776Y533760D01*
X738765Y533771D01*
X738738Y533787D01*
X738710Y533810D01*
X738666Y533832D01*
X738621Y533848D01*
X738566Y533859D01*
X738505Y533865D01*
X738477D01*
X738450Y533859D01*
X738411Y533848D01*
X738367Y533837D01*
X738317Y533815D01*
X738267Y533782D01*
X738217Y533743D01*
X738212Y533737D01*
X738195Y533721D01*
X738173Y533688D01*
X738145Y533649D01*
X738112Y533594D01*
X738079Y533522D01*
X738046Y533438D01*
X738018Y533339D01*
X737331Y533472D01*
Y533477D01*
X737337Y533488D01*
X737342Y533511D01*
X737353Y533544D01*
X737370Y533577D01*
X737386Y533616D01*
X737425Y533710D01*
X737475Y533815D01*
X737536Y533920D01*
X737608Y534025D01*
X737691Y534120D01*
X737697Y534125D01*
X737708Y534136D01*
X737730Y534153D01*
X737752Y534175D01*
X737791Y534197D01*
X737830Y534230D01*
X737879Y534258D01*
X737935Y534291D01*
X737996Y534324D01*
X738056Y534352D01*
X738206Y534408D01*
X738289Y534430D01*
X738378Y534446D01*
X738466Y534457D01*
X738560Y534463D01*
X738610D01*
X738649Y534457D01*
D02*
G37*
G36*
X732098D02*
X732143Y534452D01*
X732193Y534446D01*
X732309Y534424D01*
X732436Y534391D01*
X732569Y534336D01*
X732636Y534302D01*
X732697Y534264D01*
X732757Y534219D01*
X732813Y534164D01*
X732818Y534158D01*
X732824Y534153D01*
X732840Y534136D01*
X732857Y534114D01*
X732879Y534081D01*
X732901Y534048D01*
X732951Y533965D01*
X733001Y533865D01*
X733045Y533743D01*
X733079Y533610D01*
X733084Y533538D01*
X733090Y533461D01*
Y533455D01*
Y533450D01*
Y533433D01*
Y533411D01*
X733079Y533355D01*
X733067Y533284D01*
X733045Y533195D01*
X733018Y533106D01*
X732973Y533012D01*
X732913Y532918D01*
X732907Y532907D01*
X732879Y532879D01*
X732840Y532835D01*
X732785Y532785D01*
X732719Y532724D01*
X732636Y532663D01*
X732542Y532613D01*
X732431Y532564D01*
X732436D01*
X732442Y532558D01*
X732469Y532542D01*
X732514Y532514D01*
X732569Y532475D01*
X732625Y532425D01*
X732685Y532370D01*
X732741Y532303D01*
X732791Y532231D01*
X732796Y532220D01*
X732807Y532198D01*
X732829Y532154D01*
X732852Y532104D01*
X732868Y532038D01*
X732890Y531966D01*
X732901Y531888D01*
X732907Y531805D01*
Y531800D01*
Y531788D01*
Y531766D01*
X732901Y531733D01*
X732896Y531694D01*
X732890Y531650D01*
X732879Y531600D01*
X732868Y531550D01*
X732835Y531428D01*
X732780Y531296D01*
X732746Y531229D01*
X732702Y531157D01*
X732658Y531091D01*
X732602Y531024D01*
X732597Y531019D01*
X732586Y531002D01*
X732558Y530980D01*
X732530Y530947D01*
X732486Y530914D01*
X732436Y530869D01*
X732381Y530825D01*
X732315Y530781D01*
X732243Y530736D01*
X732165Y530692D01*
X732076Y530648D01*
X731982Y530615D01*
X731883Y530581D01*
X731777Y530559D01*
X731661Y530543D01*
X731545Y530537D01*
X731500D01*
X731462Y530543D01*
X731423Y530548D01*
X731373Y530554D01*
X731318Y530559D01*
X731262Y530570D01*
X731135Y530603D01*
X731002Y530653D01*
X730936Y530686D01*
X730869Y530725D01*
X730803Y530764D01*
X730742Y530814D01*
X730736Y530819D01*
X730731Y530825D01*
X730714Y530842D01*
X730692Y530864D01*
X730664Y530891D01*
X730637Y530930D01*
X730609Y530969D01*
X730576Y531019D01*
X730543Y531069D01*
X730509Y531129D01*
X730476Y531190D01*
X730448Y531262D01*
X730421Y531340D01*
X730393Y531423D01*
X730376Y531506D01*
X730360Y531600D01*
X731080Y531689D01*
Y531683D01*
Y531678D01*
X731085Y531661D01*
X731091Y531639D01*
X731102Y531584D01*
X731118Y531517D01*
X731141Y531451D01*
X731168Y531379D01*
X731201Y531312D01*
X731240Y531262D01*
X731246Y531257D01*
X731262Y531246D01*
X731290Y531224D01*
X731323Y531207D01*
X731368Y531185D01*
X731423Y531163D01*
X731484Y531152D01*
X731550Y531146D01*
X731561D01*
X731595Y531152D01*
X731639Y531157D01*
X731700Y531168D01*
X731766Y531190D01*
X731838Y531218D01*
X731910Y531262D01*
X731977Y531318D01*
X731982Y531323D01*
X732004Y531351D01*
X732032Y531384D01*
X732065Y531440D01*
X732093Y531501D01*
X732121Y531578D01*
X732143Y531667D01*
X732148Y531761D01*
Y531766D01*
Y531772D01*
Y531800D01*
X732143Y531844D01*
X732132Y531899D01*
X732115Y531960D01*
X732087Y532021D01*
X732054Y532082D01*
X732010Y532137D01*
X732004Y532143D01*
X731982Y532159D01*
X731954Y532182D01*
X731910Y532209D01*
X731860Y532231D01*
X731794Y532254D01*
X731722Y532270D01*
X731639Y532276D01*
X731606D01*
X731567Y532270D01*
X731523Y532265D01*
X731650Y532885D01*
X731777D01*
X731833Y532890D01*
X731899Y532901D01*
X731971Y532924D01*
X732043Y532946D01*
X732115Y532985D01*
X732182Y533034D01*
X732187Y533040D01*
X732209Y533062D01*
X732231Y533095D01*
X732265Y533145D01*
X732292Y533206D01*
X732320Y533278D01*
X732337Y533361D01*
X732342Y533455D01*
Y533466D01*
Y533488D01*
X732337Y533522D01*
X732331Y533566D01*
X732315Y533610D01*
X732298Y533660D01*
X732270Y533710D01*
X732231Y533754D01*
X732226Y533760D01*
X732215Y533771D01*
X732187Y533787D01*
X732159Y533810D01*
X732115Y533832D01*
X732071Y533848D01*
X732016Y533859D01*
X731954Y533865D01*
X731927D01*
X731899Y533859D01*
X731860Y533848D01*
X731816Y533837D01*
X731766Y533815D01*
X731716Y533782D01*
X731667Y533743D01*
X731661Y533737D01*
X731645Y533721D01*
X731622Y533688D01*
X731595Y533649D01*
X731561Y533594D01*
X731528Y533522D01*
X731495Y533438D01*
X731467Y533339D01*
X730781Y533472D01*
Y533477D01*
X730786Y533488D01*
X730792Y533511D01*
X730803Y533544D01*
X730819Y533577D01*
X730836Y533616D01*
X730875Y533710D01*
X730925Y533815D01*
X730985Y533920D01*
X731058Y534025D01*
X731141Y534120D01*
X731146Y534125D01*
X731157Y534136D01*
X731179Y534153D01*
X731201Y534175D01*
X731240Y534197D01*
X731279Y534230D01*
X731329Y534258D01*
X731384Y534291D01*
X731445Y534324D01*
X731506Y534352D01*
X731656Y534408D01*
X731739Y534430D01*
X731827Y534446D01*
X731916Y534457D01*
X732010Y534463D01*
X732060D01*
X732098Y534457D01*
D02*
G37*
G36*
X702093Y534482D02*
X702148Y534477D01*
X702215Y534471D01*
X702287Y534460D01*
X702364Y534449D01*
X702536Y534410D01*
X702625Y534383D01*
X702708Y534355D01*
X702796Y534316D01*
X702879Y534272D01*
X702957Y534222D01*
X703029Y534167D01*
X703034Y534161D01*
X703045Y534150D01*
X703062Y534133D01*
X703090Y534111D01*
X703117Y534078D01*
X703150Y534039D01*
X703184Y533995D01*
X703217Y533945D01*
X703256Y533884D01*
X703295Y533823D01*
X703328Y533751D01*
X703361Y533679D01*
X703389Y533596D01*
X703411Y533513D01*
X703427Y533419D01*
X703438Y533325D01*
X702685Y533292D01*
Y533297D01*
Y533303D01*
X702680Y533336D01*
X702663Y533386D01*
X702647Y533447D01*
X702619Y533513D01*
X702586Y533585D01*
X702541Y533652D01*
X702480Y533713D01*
X702475Y533718D01*
X702447Y533735D01*
X702409Y533763D01*
X702353Y533790D01*
X702287Y533812D01*
X702198Y533840D01*
X702093Y533857D01*
X701977Y533862D01*
X701921D01*
X701866Y533857D01*
X701794Y533845D01*
X701722Y533834D01*
X701644Y533812D01*
X701572Y533785D01*
X701512Y533746D01*
X701506Y533740D01*
X701489Y533724D01*
X701467Y533702D01*
X701445Y533668D01*
X701417Y533624D01*
X701395Y533574D01*
X701379Y533513D01*
X701373Y533452D01*
Y533447D01*
Y533425D01*
X701379Y533397D01*
X701390Y533358D01*
X701406Y533314D01*
X701428Y533270D01*
X701456Y533225D01*
X701500Y533181D01*
X701506Y533176D01*
X701528Y533159D01*
X701561Y533137D01*
X701617Y533103D01*
X701655Y533081D01*
X701694Y533059D01*
X701739Y533032D01*
X701794Y533004D01*
X701849Y532976D01*
X701916Y532943D01*
X701988Y532910D01*
X702065Y532877D01*
X702071Y532871D01*
X702093Y532865D01*
X702126Y532849D01*
X702170Y532832D01*
X702226Y532804D01*
X702287Y532777D01*
X702420Y532710D01*
X702563Y532638D01*
X702702Y532561D01*
X702768Y532522D01*
X702824Y532483D01*
X702874Y532445D01*
X702912Y532411D01*
X702918Y532406D01*
X702924Y532400D01*
X702940Y532384D01*
X702957Y532367D01*
X703001Y532306D01*
X703051Y532229D01*
X703101Y532135D01*
X703139Y532018D01*
X703173Y531885D01*
X703178Y531819D01*
X703184Y531741D01*
Y531736D01*
Y531719D01*
Y531692D01*
X703178Y531658D01*
X703173Y531614D01*
X703162Y531559D01*
X703150Y531503D01*
X703134Y531442D01*
X703112Y531376D01*
X703084Y531304D01*
X703051Y531232D01*
X703012Y531160D01*
X702968Y531088D01*
X702912Y531011D01*
X702851Y530944D01*
X702779Y530872D01*
X702774Y530867D01*
X702763Y530855D01*
X702735Y530839D01*
X702708Y530817D01*
X702663Y530789D01*
X702613Y530756D01*
X702558Y530728D01*
X702486Y530695D01*
X702414Y530656D01*
X702331Y530628D01*
X702237Y530595D01*
X702137Y530568D01*
X702032Y530545D01*
X701916Y530529D01*
X701794Y530518D01*
X701661Y530512D01*
X701578D01*
X701534Y530518D01*
X701484Y530523D01*
X701428D01*
X701367Y530534D01*
X701235Y530551D01*
X701091Y530579D01*
X700941Y530617D01*
X700803Y530673D01*
X700797D01*
X700786Y530678D01*
X700770Y530689D01*
X700742Y530706D01*
X700681Y530739D01*
X700603Y530794D01*
X700520Y530855D01*
X700437Y530938D01*
X700360Y531027D01*
X700293Y531132D01*
Y531138D01*
X700288Y531143D01*
X700282Y531160D01*
X700271Y531188D01*
X700260Y531215D01*
X700249Y531249D01*
X700221Y531332D01*
X700194Y531431D01*
X700172Y531548D01*
X700160Y531675D01*
X700155Y531813D01*
X700908Y531858D01*
Y531852D01*
Y531841D01*
Y531824D01*
X700913Y531802D01*
X700919Y531736D01*
X700930Y531664D01*
X700941Y531581D01*
X700963Y531498D01*
X700991Y531426D01*
X701030Y531370D01*
X701041Y531359D01*
X701063Y531337D01*
X701107Y531310D01*
X701174Y531271D01*
X701212Y531254D01*
X701262Y531232D01*
X701312Y531215D01*
X701373Y531204D01*
X701434Y531188D01*
X701506Y531182D01*
X701583Y531171D01*
X701727D01*
X701761Y531177D01*
X701799D01*
X701882Y531188D01*
X701971Y531204D01*
X702065Y531232D01*
X702154Y531265D01*
X702226Y531310D01*
X702231Y531315D01*
X702253Y531332D01*
X702281Y531365D01*
X702314Y531404D01*
X702348Y531453D01*
X702375Y531509D01*
X702397Y531570D01*
X702403Y531642D01*
Y531647D01*
Y531669D01*
X702397Y531703D01*
X702386Y531741D01*
X702370Y531786D01*
X702342Y531836D01*
X702309Y531885D01*
X702259Y531930D01*
X702253Y531935D01*
X702237Y531946D01*
X702204Y531968D01*
X702154Y531996D01*
X702121Y532018D01*
X702082Y532040D01*
X702038Y532062D01*
X701988Y532085D01*
X701927Y532112D01*
X701866Y532146D01*
X701788Y532179D01*
X701711Y532212D01*
X701705D01*
X701689Y532223D01*
X701666Y532229D01*
X701639Y532245D01*
X701600Y532262D01*
X701556Y532279D01*
X701462Y532323D01*
X701356Y532378D01*
X701246Y532428D01*
X701146Y532483D01*
X701096Y532511D01*
X701057Y532533D01*
X701046Y532539D01*
X701024Y532555D01*
X700985Y532589D01*
X700941Y532627D01*
X700891Y532672D01*
X700836Y532733D01*
X700786Y532799D01*
X700736Y532871D01*
X700731Y532882D01*
X700720Y532910D01*
X700697Y532954D01*
X700681Y533009D01*
X700659Y533081D01*
X700637Y533164D01*
X700626Y533259D01*
X700620Y533358D01*
Y533364D01*
Y533380D01*
Y533408D01*
X700626Y533441D01*
X700631Y533480D01*
X700637Y533530D01*
X700648Y533585D01*
X700664Y533641D01*
X700703Y533768D01*
X700736Y533834D01*
X700770Y533906D01*
X700808Y533973D01*
X700853Y534039D01*
X700908Y534106D01*
X700969Y534167D01*
X700974Y534172D01*
X700985Y534183D01*
X701008Y534194D01*
X701035Y534216D01*
X701068Y534239D01*
X701113Y534266D01*
X701168Y534300D01*
X701229Y534327D01*
X701295Y534355D01*
X701367Y534388D01*
X701451Y534416D01*
X701545Y534438D01*
X701644Y534460D01*
X701750Y534477D01*
X701860Y534482D01*
X701982Y534488D01*
X702049D01*
X702093Y534482D01*
D02*
G37*
G36*
X711080D02*
X711130Y534477D01*
X711190Y534471D01*
X711263Y534460D01*
X711335Y534444D01*
X711495Y534405D01*
X711578Y534377D01*
X711661Y534344D01*
X711750Y534305D01*
X711827Y534261D01*
X711910Y534211D01*
X711982Y534150D01*
X711988Y534145D01*
X711999Y534133D01*
X712016Y534117D01*
X712043Y534089D01*
X712071Y534056D01*
X712110Y534017D01*
X712143Y533967D01*
X712182Y533912D01*
X712220Y533851D01*
X712259Y533785D01*
X712298Y533707D01*
X712337Y533630D01*
X712370Y533541D01*
X712398Y533447D01*
X712420Y533347D01*
X712436Y533242D01*
X711683Y533170D01*
Y533176D01*
X711678Y533187D01*
Y533203D01*
X711672Y533225D01*
X711656Y533281D01*
X711628Y533353D01*
X711595Y533436D01*
X711550Y533513D01*
X711501Y533591D01*
X711440Y533652D01*
X711434Y533657D01*
X711406Y533674D01*
X711368Y533702D01*
X711312Y533729D01*
X711246Y533757D01*
X711163Y533785D01*
X711069Y533801D01*
X710964Y533807D01*
X710930D01*
X710908Y533801D01*
X710847Y533796D01*
X710764Y533779D01*
X710670Y533757D01*
X710570Y533718D01*
X710460Y533668D01*
X710354Y533602D01*
X710349D01*
X710343Y533591D01*
X710310Y533563D01*
X710255Y533519D01*
X710194Y533447D01*
X710122Y533364D01*
X710044Y533253D01*
X709967Y533126D01*
X709900Y532976D01*
Y532971D01*
X709895Y532960D01*
X709884Y532937D01*
X709873Y532904D01*
X709862Y532865D01*
X709850Y532821D01*
X709834Y532771D01*
X709817Y532716D01*
X709790Y532589D01*
X709762Y532445D01*
X709740Y532290D01*
X709734Y532135D01*
Y532129D01*
Y532112D01*
Y532090D01*
X709740Y532057D01*
Y532018D01*
X709745Y531974D01*
X709762Y531874D01*
X709790Y531758D01*
X709823Y531642D01*
X709878Y531525D01*
X709950Y531420D01*
X709961Y531409D01*
X709989Y531381D01*
X710039Y531343D01*
X710100Y531298D01*
X710183Y531249D01*
X710277Y531210D01*
X710382Y531182D01*
X710437Y531177D01*
X710498Y531171D01*
X710526D01*
X710548Y531177D01*
X710609Y531182D01*
X710681Y531193D01*
X710770Y531221D01*
X710864Y531254D01*
X710958Y531298D01*
X711058Y531365D01*
X711063D01*
X711069Y531376D01*
X711102Y531404D01*
X711146Y531448D01*
X711202Y531514D01*
X711263Y531597D01*
X711329Y531697D01*
X711384Y531819D01*
X711440Y531957D01*
X712237Y531836D01*
Y531830D01*
X712226Y531808D01*
X712215Y531775D01*
X712193Y531730D01*
X712165Y531675D01*
X712137Y531614D01*
X712104Y531542D01*
X712060Y531470D01*
X711960Y531310D01*
X711838Y531149D01*
X711700Y530988D01*
X711617Y530916D01*
X711534Y530850D01*
X711528Y530844D01*
X711512Y530833D01*
X711489Y530817D01*
X711451Y530800D01*
X711406Y530772D01*
X711357Y530745D01*
X711290Y530712D01*
X711224Y530684D01*
X711146Y530651D01*
X711063Y530617D01*
X710975Y530590D01*
X710880Y530568D01*
X710781Y530545D01*
X710676Y530529D01*
X710565Y530518D01*
X710449Y530512D01*
X710415D01*
X710382Y530518D01*
X710332D01*
X710271Y530523D01*
X710205Y530534D01*
X710127Y530545D01*
X710050Y530568D01*
X709961Y530590D01*
X709873Y530617D01*
X709779Y530651D01*
X709690Y530689D01*
X709596Y530739D01*
X709507Y530794D01*
X709424Y530861D01*
X709347Y530933D01*
X709341Y530938D01*
X709330Y530955D01*
X709308Y530977D01*
X709286Y531011D01*
X709258Y531055D01*
X709225Y531110D01*
X709186Y531177D01*
X709153Y531249D01*
X709114Y531332D01*
X709075Y531420D01*
X709042Y531525D01*
X709014Y531636D01*
X708992Y531753D01*
X708970Y531885D01*
X708959Y532018D01*
X708953Y532168D01*
Y532173D01*
Y532195D01*
Y532234D01*
X708959Y532279D01*
Y532334D01*
X708970Y532406D01*
X708976Y532478D01*
X708987Y532561D01*
X708998Y532649D01*
X709020Y532749D01*
X709064Y532948D01*
X709131Y533159D01*
X709169Y533259D01*
X709214Y533364D01*
X709219Y533369D01*
X709225Y533386D01*
X709241Y533414D01*
X709264Y533452D01*
X709291Y533497D01*
X709324Y533552D01*
X709363Y533607D01*
X709408Y533674D01*
X709513Y533807D01*
X709634Y533945D01*
X709784Y534078D01*
X709867Y534139D01*
X709950Y534194D01*
X709956Y534200D01*
X709972Y534205D01*
X710000Y534222D01*
X710033Y534239D01*
X710078Y534261D01*
X710127Y534288D01*
X710188Y534316D01*
X710255Y534344D01*
X710327Y534366D01*
X710410Y534394D01*
X710581Y534444D01*
X710770Y534477D01*
X710869Y534482D01*
X710975Y534488D01*
X711036D01*
X711080Y534482D01*
D02*
G37*
G36*
X718145Y532910D02*
X719408Y530584D01*
X718516D01*
X717569Y532406D01*
X716822Y531747D01*
X716573Y530584D01*
X715792D01*
X716595Y534416D01*
X717381D01*
X717038Y532782D01*
X718810Y534416D01*
X719867D01*
X718145Y532910D01*
D02*
G37*
G36*
X707254Y530584D02*
X706456D01*
X706368Y533386D01*
X704972Y530584D01*
X704158D01*
X704014Y534416D01*
X704784D01*
X704817Y531730D01*
X706141Y534416D01*
X706993D01*
X707082Y531758D01*
X708344Y534416D01*
X709109D01*
X707254Y530584D01*
D02*
G37*
G36*
X713466Y531226D02*
X715426D01*
X715294Y530584D01*
X712547D01*
X713350Y534416D01*
X714136D01*
X713466Y531226D01*
D02*
G37*
G36*
X706301Y554482D02*
X706357Y554477D01*
X706423Y554471D01*
X706495Y554460D01*
X706572Y554449D01*
X706744Y554410D01*
X706833Y554383D01*
X706916Y554355D01*
X707004Y554316D01*
X707087Y554272D01*
X707165Y554222D01*
X707237Y554167D01*
X707243Y554161D01*
X707254Y554150D01*
X707270Y554133D01*
X707298Y554111D01*
X707326Y554078D01*
X707359Y554039D01*
X707392Y553995D01*
X707425Y553945D01*
X707464Y553884D01*
X707503Y553823D01*
X707536Y553751D01*
X707569Y553679D01*
X707597Y553596D01*
X707619Y553513D01*
X707636Y553419D01*
X707647Y553325D01*
X706894Y553292D01*
Y553297D01*
Y553303D01*
X706888Y553336D01*
X706871Y553386D01*
X706855Y553447D01*
X706827Y553513D01*
X706794Y553585D01*
X706750Y553652D01*
X706689Y553713D01*
X706683Y553718D01*
X706656Y553735D01*
X706617Y553763D01*
X706561Y553790D01*
X706495Y553812D01*
X706406Y553840D01*
X706301Y553857D01*
X706185Y553862D01*
X706130D01*
X706074Y553857D01*
X706002Y553845D01*
X705930Y553834D01*
X705853Y553812D01*
X705781Y553785D01*
X705720Y553746D01*
X705714Y553740D01*
X705698Y553724D01*
X705675Y553702D01*
X705653Y553668D01*
X705626Y553624D01*
X705603Y553574D01*
X705587Y553513D01*
X705581Y553452D01*
Y553447D01*
Y553425D01*
X705587Y553397D01*
X705598Y553358D01*
X705614Y553314D01*
X705637Y553270D01*
X705664Y553225D01*
X705709Y553181D01*
X705714Y553176D01*
X705736Y553159D01*
X705770Y553137D01*
X705825Y553103D01*
X705864Y553081D01*
X705902Y553059D01*
X705947Y553032D01*
X706002Y553004D01*
X706058Y552976D01*
X706124Y552943D01*
X706196Y552910D01*
X706273Y552877D01*
X706279Y552871D01*
X706301Y552865D01*
X706334Y552849D01*
X706379Y552832D01*
X706434Y552804D01*
X706495Y552777D01*
X706628Y552710D01*
X706772Y552638D01*
X706910Y552561D01*
X706977Y552522D01*
X707032Y552483D01*
X707082Y552445D01*
X707121Y552411D01*
X707126Y552406D01*
X707132Y552400D01*
X707148Y552384D01*
X707165Y552367D01*
X707209Y552306D01*
X707259Y552229D01*
X707309Y552135D01*
X707348Y552018D01*
X707381Y551885D01*
X707386Y551819D01*
X707392Y551741D01*
Y551736D01*
Y551719D01*
Y551692D01*
X707386Y551658D01*
X707381Y551614D01*
X707370Y551559D01*
X707359Y551503D01*
X707342Y551442D01*
X707320Y551376D01*
X707292Y551304D01*
X707259Y551232D01*
X707220Y551160D01*
X707176Y551088D01*
X707121Y551011D01*
X707060Y550944D01*
X706988Y550872D01*
X706982Y550867D01*
X706971Y550855D01*
X706944Y550839D01*
X706916Y550817D01*
X706871Y550789D01*
X706822Y550756D01*
X706766Y550728D01*
X706694Y550695D01*
X706622Y550656D01*
X706539Y550628D01*
X706445Y550595D01*
X706346Y550568D01*
X706240Y550545D01*
X706124Y550529D01*
X706002Y550518D01*
X705869Y550512D01*
X705786D01*
X705742Y550518D01*
X705692Y550523D01*
X705637D01*
X705576Y550534D01*
X705443Y550551D01*
X705299Y550579D01*
X705149Y550617D01*
X705011Y550673D01*
X705005D01*
X704994Y550678D01*
X704978Y550689D01*
X704950Y550706D01*
X704889Y550739D01*
X704812Y550794D01*
X704729Y550855D01*
X704645Y550938D01*
X704568Y551027D01*
X704502Y551132D01*
Y551138D01*
X704496Y551143D01*
X704491Y551160D01*
X704479Y551188D01*
X704468Y551215D01*
X704457Y551249D01*
X704430Y551332D01*
X704402Y551431D01*
X704380Y551548D01*
X704369Y551675D01*
X704363Y551813D01*
X705116Y551858D01*
Y551852D01*
Y551841D01*
Y551824D01*
X705122Y551802D01*
X705127Y551736D01*
X705138Y551664D01*
X705149Y551581D01*
X705172Y551498D01*
X705199Y551426D01*
X705238Y551370D01*
X705249Y551359D01*
X705271Y551337D01*
X705315Y551310D01*
X705382Y551271D01*
X705421Y551254D01*
X705471Y551232D01*
X705520Y551215D01*
X705581Y551204D01*
X705642Y551188D01*
X705714Y551182D01*
X705792Y551171D01*
X705936D01*
X705969Y551177D01*
X706008D01*
X706091Y551188D01*
X706179Y551204D01*
X706273Y551232D01*
X706362Y551265D01*
X706434Y551310D01*
X706440Y551315D01*
X706462Y551332D01*
X706489Y551365D01*
X706523Y551404D01*
X706556Y551454D01*
X706583Y551509D01*
X706606Y551570D01*
X706611Y551642D01*
Y551647D01*
Y551669D01*
X706606Y551703D01*
X706595Y551741D01*
X706578Y551786D01*
X706550Y551836D01*
X706517Y551885D01*
X706467Y551930D01*
X706462Y551935D01*
X706445Y551946D01*
X706412Y551968D01*
X706362Y551996D01*
X706329Y552018D01*
X706290Y552040D01*
X706246Y552062D01*
X706196Y552085D01*
X706135Y552112D01*
X706074Y552146D01*
X705997Y552179D01*
X705919Y552212D01*
X705913D01*
X705897Y552223D01*
X705875Y552229D01*
X705847Y552245D01*
X705808Y552262D01*
X705764Y552279D01*
X705670Y552323D01*
X705565Y552378D01*
X705454Y552428D01*
X705354Y552483D01*
X705304Y552511D01*
X705266Y552533D01*
X705255Y552539D01*
X705232Y552555D01*
X705194Y552589D01*
X705149Y552627D01*
X705100Y552672D01*
X705044Y552733D01*
X704994Y552799D01*
X704945Y552871D01*
X704939Y552882D01*
X704928Y552910D01*
X704906Y552954D01*
X704889Y553009D01*
X704867Y553081D01*
X704845Y553164D01*
X704834Y553259D01*
X704828Y553358D01*
Y553364D01*
Y553380D01*
Y553408D01*
X704834Y553441D01*
X704839Y553480D01*
X704845Y553530D01*
X704856Y553585D01*
X704873Y553641D01*
X704911Y553768D01*
X704945Y553834D01*
X704978Y553906D01*
X705016Y553973D01*
X705061Y554039D01*
X705116Y554106D01*
X705177Y554167D01*
X705183Y554172D01*
X705194Y554183D01*
X705216Y554194D01*
X705244Y554216D01*
X705277Y554239D01*
X705321Y554266D01*
X705376Y554300D01*
X705437Y554327D01*
X705504Y554355D01*
X705576Y554388D01*
X705659Y554416D01*
X705753Y554438D01*
X705853Y554460D01*
X705958Y554477D01*
X706069Y554482D01*
X706190Y554488D01*
X706257D01*
X706301Y554482D01*
D02*
G37*
G36*
X709983Y554410D02*
X710078D01*
X710155Y554405D01*
X710183D01*
X710210Y554399D01*
X710221D01*
X710249Y554394D01*
X710294Y554388D01*
X710354Y554377D01*
X710421Y554366D01*
X710493Y554349D01*
X710637Y554300D01*
X710648Y554294D01*
X710670Y554288D01*
X710703Y554272D01*
X710753Y554250D01*
X710803Y554216D01*
X710864Y554183D01*
X710919Y554145D01*
X710980Y554095D01*
X710986Y554089D01*
X711008Y554073D01*
X711036Y554045D01*
X711074Y554006D01*
X711113Y553962D01*
X711157Y553906D01*
X711202Y553845D01*
X711246Y553779D01*
X711251Y553773D01*
X711263Y553746D01*
X711285Y553707D01*
X711307Y553657D01*
X711335Y553596D01*
X711368Y553524D01*
X711395Y553441D01*
X711417Y553353D01*
X711423Y553342D01*
X711429Y553308D01*
X711440Y553259D01*
X711451Y553198D01*
X711462Y553120D01*
X711467Y553026D01*
X711478Y552932D01*
Y552827D01*
Y552821D01*
Y552799D01*
Y552766D01*
X711473Y552721D01*
Y552666D01*
X711467Y552605D01*
X711456Y552533D01*
X711451Y552456D01*
X711434Y552373D01*
X711423Y552284D01*
X711379Y552101D01*
X711318Y551913D01*
X711285Y551819D01*
X711240Y551725D01*
Y551719D01*
X711229Y551703D01*
X711218Y551680D01*
X711196Y551647D01*
X711174Y551603D01*
X711146Y551559D01*
X711074Y551448D01*
X710991Y551326D01*
X710886Y551199D01*
X710770Y551077D01*
X710642Y550961D01*
X710637D01*
X710631Y550950D01*
X710615Y550938D01*
X710592Y550927D01*
X710565Y550905D01*
X710532Y550889D01*
X710449Y550839D01*
X710349Y550789D01*
X710227Y550734D01*
X710089Y550684D01*
X709934Y550639D01*
X709922D01*
X709906Y550634D01*
X709889Y550628D01*
X709862D01*
X709828Y550623D01*
X709790Y550617D01*
X709745Y550612D01*
X709696Y550606D01*
X709640Y550601D01*
X709579Y550595D01*
X709507D01*
X709435Y550590D01*
X709352Y550584D01*
X707824D01*
X708627Y554416D01*
X709889D01*
X709983Y554410D01*
D02*
G37*
G36*
X714186Y554482D02*
X714247Y554477D01*
X714319Y554466D01*
X714397Y554449D01*
X714480Y554432D01*
X714574Y554410D01*
X714668Y554383D01*
X714762Y554344D01*
X714856Y554300D01*
X714956Y554250D01*
X715044Y554189D01*
X715138Y554122D01*
X715222Y554045D01*
X715227Y554039D01*
X715238Y554023D01*
X715260Y554001D01*
X715288Y553962D01*
X715321Y553918D01*
X715360Y553868D01*
X715399Y553801D01*
X715443Y553729D01*
X715482Y553652D01*
X715521Y553563D01*
X715559Y553464D01*
X715593Y553358D01*
X715620Y553247D01*
X715642Y553126D01*
X715654Y552998D01*
X715659Y552865D01*
Y552860D01*
Y552838D01*
Y552804D01*
X715654Y552760D01*
X715648Y552710D01*
X715642Y552644D01*
X715637Y552572D01*
X715626Y552494D01*
X715609Y552406D01*
X715587Y552312D01*
X715537Y552118D01*
X715504Y552013D01*
X715465Y551908D01*
X715421Y551797D01*
X715371Y551692D01*
X715366Y551686D01*
X715360Y551664D01*
X715343Y551636D01*
X715321Y551597D01*
X715288Y551548D01*
X715255Y551498D01*
X715216Y551437D01*
X715166Y551370D01*
X715116Y551298D01*
X715055Y551226D01*
X714995Y551154D01*
X714923Y551082D01*
X714773Y550944D01*
X714685Y550878D01*
X714596Y550817D01*
X714590Y550811D01*
X714574Y550806D01*
X714546Y550789D01*
X714513Y550767D01*
X714463Y550745D01*
X714408Y550723D01*
X714347Y550695D01*
X714275Y550667D01*
X714197Y550634D01*
X714114Y550606D01*
X714020Y550584D01*
X713926Y550562D01*
X713716Y550523D01*
X713610Y550518D01*
X713494Y550512D01*
X713444D01*
X713405Y550518D01*
X713361D01*
X713306Y550523D01*
X713245Y550534D01*
X713178Y550545D01*
X713040Y550573D01*
X712885Y550617D01*
X712735Y550678D01*
X712663Y550712D01*
X712591Y550756D01*
X712586Y550761D01*
X712575Y550767D01*
X712558Y550784D01*
X712531Y550800D01*
X712470Y550850D01*
X712392Y550922D01*
X712309Y551011D01*
X712226Y551116D01*
X712148Y551232D01*
X712082Y551359D01*
Y551365D01*
X712076Y551376D01*
X712071Y551393D01*
X712060Y551420D01*
X712049Y551454D01*
X712032Y551492D01*
X712010Y551586D01*
X711982Y551697D01*
X711955Y551819D01*
X711938Y551946D01*
X711933Y552085D01*
Y552090D01*
Y552101D01*
Y552118D01*
Y552146D01*
X711938Y552173D01*
Y552212D01*
X711944Y552301D01*
X711955Y552411D01*
X711977Y552533D01*
X711999Y552666D01*
X712032Y552804D01*
Y552810D01*
X712038Y552827D01*
X712049Y552854D01*
X712060Y552888D01*
X712071Y552932D01*
X712087Y552982D01*
X712110Y553043D01*
X712132Y553103D01*
X712187Y553242D01*
X712259Y553386D01*
X712342Y553535D01*
X712436Y553679D01*
X712442Y553685D01*
X712447Y553696D01*
X712464Y553713D01*
X712486Y553740D01*
X712514Y553773D01*
X712547Y553807D01*
X712625Y553890D01*
X712724Y553984D01*
X712841Y554084D01*
X712973Y554178D01*
X713123Y554266D01*
X713129D01*
X713140Y554277D01*
X713167Y554288D01*
X713195Y554300D01*
X713234Y554316D01*
X713284Y554338D01*
X713339Y554355D01*
X713400Y554377D01*
X713466Y554399D01*
X713538Y554416D01*
X713699Y554455D01*
X713876Y554477D01*
X714070Y554488D01*
X714136D01*
X714186Y554482D01*
D02*
G37*
G36*
X495250Y9000D02*
X484751D01*
Y53468D01*
X495250D01*
Y9000D01*
D02*
G37*
G36*
X763848Y15760D02*
Y5842D01*
X730152D01*
Y15760D01*
Y24158D01*
X763848D01*
Y15760D01*
D02*
G37*
G36*
X842296Y260199D02*
Y249801D01*
X825704D01*
Y260199D01*
X842296D01*
D02*
G37*
G36*
X447848Y408681D02*
X414152D01*
Y419319D01*
X447848D01*
Y408681D01*
D02*
G37*
G36*
X731523Y544482D02*
X731578Y544477D01*
X731645Y544471D01*
X731716Y544460D01*
X731794Y544449D01*
X731966Y544410D01*
X732143Y544355D01*
X732231Y544322D01*
X732315Y544283D01*
X732398Y544233D01*
X732475Y544178D01*
X732481Y544172D01*
X732492Y544161D01*
X732514Y544145D01*
X732542Y544122D01*
X732575Y544089D01*
X732608Y544050D01*
X732652Y544001D01*
X732697Y543951D01*
X732741Y543890D01*
X732785Y543823D01*
X732829Y543751D01*
X732874Y543668D01*
X732913Y543580D01*
X732951Y543486D01*
X732984Y543386D01*
X733012Y543281D01*
X732276Y543198D01*
Y543203D01*
X732270Y543214D01*
X732265Y543231D01*
X732259Y543253D01*
X732231Y543308D01*
X732198Y543380D01*
X732154Y543458D01*
X732098Y543541D01*
X732038Y543619D01*
X731960Y543685D01*
X731949Y543690D01*
X731921Y543713D01*
X731877Y543740D01*
X731811Y543768D01*
X731733Y543801D01*
X731639Y543823D01*
X731534Y543845D01*
X731417Y543851D01*
X731379D01*
X731357Y543845D01*
X731318D01*
X731279Y543840D01*
X731190Y543823D01*
X731080Y543801D01*
X730963Y543763D01*
X730842Y543713D01*
X730720Y543646D01*
X730714D01*
X730709Y543635D01*
X730692Y543624D01*
X730670Y543607D01*
X730609Y543563D01*
X730537Y543497D01*
X730460Y543408D01*
X730376Y543303D01*
X730293Y543176D01*
X730221Y543026D01*
Y543021D01*
X730216Y543009D01*
X730205Y542987D01*
X730194Y542954D01*
X730183Y542915D01*
X730166Y542871D01*
X730149Y542816D01*
X730133Y542755D01*
X730116Y542694D01*
X730100Y542622D01*
X730072Y542467D01*
X730050Y542301D01*
X730044Y542118D01*
Y542112D01*
Y542096D01*
Y542074D01*
X730050Y542040D01*
Y541996D01*
X730055Y541952D01*
X730072Y541847D01*
X730100Y541730D01*
X730133Y541609D01*
X730188Y541498D01*
X730221Y541442D01*
X730260Y541398D01*
X730271Y541387D01*
X730299Y541365D01*
X730354Y541326D01*
X730426Y541287D01*
X730515Y541243D01*
X730626Y541204D01*
X730759Y541182D01*
X730908Y541171D01*
X730952D01*
X731002Y541177D01*
X731069Y541182D01*
X731146Y541188D01*
X731235Y541204D01*
X731329Y541221D01*
X731429Y541243D01*
X731434D01*
X731440Y541249D01*
X731473Y541254D01*
X731523Y541271D01*
X731584Y541293D01*
X731656Y541315D01*
X731733Y541348D01*
X731811Y541381D01*
X731888Y541415D01*
X732010Y541991D01*
X731030D01*
X731163Y542633D01*
X732874D01*
X732530Y540977D01*
X732525D01*
X732519Y540966D01*
X732497Y540961D01*
X732475Y540944D01*
X732447Y540927D01*
X732409Y540911D01*
X732370Y540889D01*
X732326Y540861D01*
X732215Y540811D01*
X732087Y540756D01*
X731944Y540700D01*
X731783Y540645D01*
X731777D01*
X731761Y540639D01*
X731739Y540634D01*
X731705Y540623D01*
X731667Y540612D01*
X731622Y540601D01*
X731567Y540590D01*
X731506Y540579D01*
X731373Y540556D01*
X731218Y540534D01*
X731058Y540518D01*
X730886Y540512D01*
X730819D01*
X730770Y540518D01*
X730709Y540523D01*
X730642Y540529D01*
X730565Y540540D01*
X730482Y540551D01*
X730310Y540590D01*
X730216Y540617D01*
X730127Y540651D01*
X730039Y540684D01*
X729950Y540728D01*
X729873Y540778D01*
X729795Y540833D01*
X729790Y540839D01*
X729773Y540855D01*
X729745Y540878D01*
X729717Y540916D01*
X729673Y540961D01*
X729634Y541016D01*
X729585Y541082D01*
X729540Y541154D01*
X729491Y541243D01*
X729441Y541337D01*
X729402Y541442D01*
X729363Y541553D01*
X729330Y541680D01*
X729302Y541813D01*
X729286Y541957D01*
X729280Y542107D01*
Y542112D01*
Y542135D01*
Y542162D01*
X729286Y542201D01*
Y542256D01*
X729291Y542312D01*
X729297Y542378D01*
X729308Y542456D01*
X729319Y542533D01*
X729335Y542616D01*
X729374Y542799D01*
X729430Y542993D01*
X729502Y543187D01*
X729507Y543192D01*
X729513Y543214D01*
X729529Y543247D01*
X729551Y543286D01*
X729579Y543342D01*
X729612Y543397D01*
X729651Y543464D01*
X729695Y543535D01*
X729745Y543613D01*
X729801Y543690D01*
X729862Y543768D01*
X729933Y543851D01*
X730083Y544006D01*
X730166Y544078D01*
X730255Y544145D01*
X730260Y544150D01*
X730277Y544161D01*
X730304Y544178D01*
X730343Y544200D01*
X730387Y544222D01*
X730448Y544255D01*
X730509Y544283D01*
X730587Y544316D01*
X730664Y544349D01*
X730753Y544377D01*
X730847Y544410D01*
X730952Y544432D01*
X731058Y544455D01*
X731174Y544471D01*
X731290Y544482D01*
X731412Y544488D01*
X731478D01*
X731523Y544482D01*
D02*
G37*
G36*
X736246Y540584D02*
X735520D01*
X734480Y543159D01*
X733937Y540584D01*
X733212D01*
X734014Y544416D01*
X734740D01*
X735781Y541852D01*
X736323Y544416D01*
X737049D01*
X736246Y540584D01*
D02*
G37*
G36*
X739225Y544410D02*
X739319D01*
X739397Y544405D01*
X739424D01*
X739452Y544399D01*
X739463D01*
X739491Y544394D01*
X739535Y544388D01*
X739596Y544377D01*
X739662Y544366D01*
X739734Y544349D01*
X739878Y544300D01*
X739889Y544294D01*
X739911Y544288D01*
X739945Y544272D01*
X739995Y544250D01*
X740044Y544216D01*
X740105Y544183D01*
X740161Y544145D01*
X740222Y544095D01*
X740227Y544089D01*
X740249Y544072D01*
X740277Y544045D01*
X740316Y544006D01*
X740355Y543962D01*
X740399Y543906D01*
X740443Y543845D01*
X740487Y543779D01*
X740493Y543773D01*
X740504Y543746D01*
X740526Y543707D01*
X740548Y543657D01*
X740576Y543596D01*
X740609Y543524D01*
X740637Y543441D01*
X740659Y543353D01*
X740665Y543342D01*
X740670Y543308D01*
X740681Y543259D01*
X740692Y543198D01*
X740703Y543120D01*
X740709Y543026D01*
X740720Y542932D01*
Y542827D01*
Y542821D01*
Y542799D01*
Y542766D01*
X740714Y542721D01*
Y542666D01*
X740709Y542605D01*
X740698Y542533D01*
X740692Y542456D01*
X740676Y542373D01*
X740665Y542284D01*
X740620Y542101D01*
X740559Y541913D01*
X740526Y541819D01*
X740482Y541725D01*
Y541719D01*
X740471Y541703D01*
X740460Y541680D01*
X740437Y541647D01*
X740415Y541603D01*
X740388Y541559D01*
X740316Y541448D01*
X740233Y541326D01*
X740127Y541199D01*
X740011Y541077D01*
X739884Y540961D01*
X739878D01*
X739873Y540950D01*
X739856Y540938D01*
X739834Y540927D01*
X739806Y540905D01*
X739773Y540889D01*
X739690Y540839D01*
X739590Y540789D01*
X739469Y540734D01*
X739330Y540684D01*
X739175Y540639D01*
X739164D01*
X739147Y540634D01*
X739131Y540628D01*
X739103D01*
X739070Y540623D01*
X739031Y540617D01*
X738987Y540612D01*
X738937Y540606D01*
X738882Y540601D01*
X738821Y540595D01*
X738749D01*
X738677Y540590D01*
X738594Y540584D01*
X737065D01*
X737868Y544416D01*
X739131D01*
X739225Y544410D01*
D02*
G37*
G36*
X832050Y459681D02*
X807950D01*
Y470319D01*
X832050D01*
Y459681D01*
D02*
G37*
G36*
X703029Y544482D02*
X703084Y544477D01*
X703150Y544471D01*
X703223Y544460D01*
X703300Y544449D01*
X703472Y544410D01*
X703560Y544383D01*
X703643Y544355D01*
X703732Y544316D01*
X703815Y544272D01*
X703893Y544222D01*
X703964Y544167D01*
X703970Y544161D01*
X703981Y544150D01*
X703998Y544133D01*
X704025Y544111D01*
X704053Y544078D01*
X704086Y544039D01*
X704119Y543995D01*
X704153Y543945D01*
X704192Y543884D01*
X704230Y543823D01*
X704264Y543751D01*
X704297Y543679D01*
X704324Y543596D01*
X704346Y543513D01*
X704363Y543419D01*
X704374Y543325D01*
X703621Y543292D01*
Y543297D01*
Y543303D01*
X703616Y543336D01*
X703599Y543386D01*
X703582Y543447D01*
X703555Y543513D01*
X703521Y543585D01*
X703477Y543652D01*
X703416Y543713D01*
X703411Y543718D01*
X703383Y543735D01*
X703344Y543763D01*
X703289Y543790D01*
X703223Y543812D01*
X703134Y543840D01*
X703029Y543857D01*
X702912Y543862D01*
X702857D01*
X702802Y543857D01*
X702730Y543845D01*
X702658Y543834D01*
X702580Y543812D01*
X702508Y543785D01*
X702447Y543746D01*
X702442Y543740D01*
X702425Y543724D01*
X702403Y543702D01*
X702381Y543668D01*
X702353Y543624D01*
X702331Y543574D01*
X702314Y543513D01*
X702309Y543452D01*
Y543447D01*
Y543425D01*
X702314Y543397D01*
X702325Y543358D01*
X702342Y543314D01*
X702364Y543270D01*
X702392Y543225D01*
X702436Y543181D01*
X702442Y543176D01*
X702464Y543159D01*
X702497Y543137D01*
X702552Y543103D01*
X702591Y543081D01*
X702630Y543059D01*
X702674Y543032D01*
X702730Y543004D01*
X702785Y542976D01*
X702851Y542943D01*
X702924Y542910D01*
X703001Y542877D01*
X703007Y542871D01*
X703029Y542865D01*
X703062Y542849D01*
X703106Y542832D01*
X703162Y542804D01*
X703223Y542777D01*
X703355Y542710D01*
X703499Y542638D01*
X703638Y542561D01*
X703704Y542522D01*
X703760Y542483D01*
X703809Y542445D01*
X703848Y542411D01*
X703854Y542406D01*
X703859Y542400D01*
X703876Y542384D01*
X703893Y542367D01*
X703937Y542306D01*
X703987Y542229D01*
X704036Y542135D01*
X704075Y542018D01*
X704108Y541885D01*
X704114Y541819D01*
X704119Y541741D01*
Y541736D01*
Y541719D01*
Y541692D01*
X704114Y541658D01*
X704108Y541614D01*
X704097Y541559D01*
X704086Y541503D01*
X704070Y541442D01*
X704047Y541376D01*
X704020Y541304D01*
X703987Y541232D01*
X703948Y541160D01*
X703904Y541088D01*
X703848Y541011D01*
X703787Y540944D01*
X703715Y540872D01*
X703710Y540867D01*
X703699Y540855D01*
X703671Y540839D01*
X703643Y540817D01*
X703599Y540789D01*
X703549Y540756D01*
X703494Y540728D01*
X703422Y540695D01*
X703350Y540656D01*
X703267Y540628D01*
X703173Y540595D01*
X703073Y540568D01*
X702968Y540545D01*
X702851Y540529D01*
X702730Y540518D01*
X702597Y540512D01*
X702514D01*
X702469Y540518D01*
X702420Y540523D01*
X702364D01*
X702303Y540534D01*
X702170Y540551D01*
X702026Y540579D01*
X701877Y540617D01*
X701739Y540673D01*
X701733D01*
X701722Y540678D01*
X701705Y540689D01*
X701678Y540706D01*
X701617Y540739D01*
X701539Y540794D01*
X701456Y540855D01*
X701373Y540938D01*
X701295Y541027D01*
X701229Y541132D01*
Y541138D01*
X701224Y541143D01*
X701218Y541160D01*
X701207Y541188D01*
X701196Y541215D01*
X701185Y541249D01*
X701157Y541332D01*
X701129Y541431D01*
X701107Y541548D01*
X701096Y541675D01*
X701091Y541813D01*
X701844Y541858D01*
Y541852D01*
Y541841D01*
Y541824D01*
X701849Y541802D01*
X701855Y541736D01*
X701866Y541664D01*
X701877Y541581D01*
X701899Y541498D01*
X701927Y541426D01*
X701965Y541370D01*
X701977Y541359D01*
X701999Y541337D01*
X702043Y541310D01*
X702110Y541271D01*
X702148Y541254D01*
X702198Y541232D01*
X702248Y541215D01*
X702309Y541204D01*
X702370Y541188D01*
X702442Y541182D01*
X702519Y541171D01*
X702663D01*
X702696Y541177D01*
X702735D01*
X702818Y541188D01*
X702907Y541204D01*
X703001Y541232D01*
X703090Y541265D01*
X703162Y541310D01*
X703167Y541315D01*
X703189Y541332D01*
X703217Y541365D01*
X703250Y541404D01*
X703283Y541454D01*
X703311Y541509D01*
X703333Y541570D01*
X703339Y541642D01*
Y541647D01*
Y541669D01*
X703333Y541703D01*
X703322Y541741D01*
X703306Y541786D01*
X703278Y541836D01*
X703245Y541885D01*
X703195Y541930D01*
X703189Y541935D01*
X703173Y541946D01*
X703139Y541968D01*
X703090Y541996D01*
X703056Y542018D01*
X703018Y542040D01*
X702973Y542062D01*
X702924Y542085D01*
X702863Y542112D01*
X702802Y542146D01*
X702724Y542179D01*
X702647Y542212D01*
X702641D01*
X702625Y542223D01*
X702602Y542229D01*
X702575Y542245D01*
X702536Y542262D01*
X702492Y542279D01*
X702397Y542323D01*
X702292Y542378D01*
X702181Y542428D01*
X702082Y542483D01*
X702032Y542511D01*
X701993Y542533D01*
X701982Y542539D01*
X701960Y542555D01*
X701921Y542589D01*
X701877Y542627D01*
X701827Y542672D01*
X701772Y542733D01*
X701722Y542799D01*
X701672Y542871D01*
X701666Y542882D01*
X701655Y542910D01*
X701633Y542954D01*
X701617Y543009D01*
X701594Y543081D01*
X701572Y543164D01*
X701561Y543259D01*
X701556Y543358D01*
Y543364D01*
Y543380D01*
Y543408D01*
X701561Y543441D01*
X701567Y543480D01*
X701572Y543530D01*
X701583Y543585D01*
X701600Y543641D01*
X701639Y543768D01*
X701672Y543834D01*
X701705Y543906D01*
X701744Y543973D01*
X701788Y544039D01*
X701844Y544106D01*
X701905Y544167D01*
X701910Y544172D01*
X701921Y544183D01*
X701943Y544194D01*
X701971Y544216D01*
X702004Y544239D01*
X702049Y544266D01*
X702104Y544300D01*
X702165Y544327D01*
X702231Y544355D01*
X702303Y544388D01*
X702386Y544416D01*
X702480Y544438D01*
X702580Y544460D01*
X702685Y544477D01*
X702796Y544482D01*
X702918Y544488D01*
X702984D01*
X703029Y544482D01*
D02*
G37*
G36*
X708189Y540584D02*
X707392D01*
X707303Y543386D01*
X705908Y540584D01*
X705094D01*
X704950Y544416D01*
X705720D01*
X705753Y541730D01*
X707076Y544416D01*
X707929D01*
X708018Y541758D01*
X709280Y544416D01*
X710044D01*
X708189Y540584D01*
D02*
G37*
G36*
X714214D02*
X713433D01*
X714236Y544416D01*
X715022D01*
X714214Y540584D01*
D02*
G37*
G36*
X711766Y544410D02*
X711861D01*
X711938Y544405D01*
X711966D01*
X711993Y544399D01*
X712004D01*
X712032Y544394D01*
X712076Y544388D01*
X712137Y544377D01*
X712204Y544366D01*
X712276Y544349D01*
X712420Y544300D01*
X712431Y544294D01*
X712453Y544288D01*
X712486Y544272D01*
X712536Y544250D01*
X712586Y544216D01*
X712647Y544183D01*
X712702Y544145D01*
X712763Y544095D01*
X712769Y544089D01*
X712791Y544072D01*
X712818Y544045D01*
X712857Y544006D01*
X712896Y543962D01*
X712940Y543906D01*
X712985Y543845D01*
X713029Y543779D01*
X713034Y543773D01*
X713046Y543746D01*
X713068Y543707D01*
X713090Y543657D01*
X713117Y543596D01*
X713151Y543524D01*
X713178Y543441D01*
X713201Y543353D01*
X713206Y543342D01*
X713212Y543308D01*
X713223Y543259D01*
X713234Y543198D01*
X713245Y543120D01*
X713250Y543026D01*
X713261Y542932D01*
Y542827D01*
Y542821D01*
Y542799D01*
Y542766D01*
X713256Y542721D01*
Y542666D01*
X713250Y542605D01*
X713239Y542533D01*
X713234Y542456D01*
X713217Y542373D01*
X713206Y542284D01*
X713162Y542101D01*
X713101Y541913D01*
X713068Y541819D01*
X713023Y541725D01*
Y541719D01*
X713012Y541703D01*
X713001Y541680D01*
X712979Y541647D01*
X712957Y541603D01*
X712929Y541559D01*
X712857Y541448D01*
X712774Y541326D01*
X712669Y541199D01*
X712553Y541077D01*
X712425Y540961D01*
X712420D01*
X712414Y540950D01*
X712398Y540938D01*
X712375Y540927D01*
X712348Y540905D01*
X712315Y540889D01*
X712232Y540839D01*
X712132Y540789D01*
X712010Y540734D01*
X711872Y540684D01*
X711717Y540639D01*
X711705D01*
X711689Y540634D01*
X711672Y540628D01*
X711645D01*
X711611Y540623D01*
X711573Y540617D01*
X711528Y540612D01*
X711478Y540606D01*
X711423Y540601D01*
X711362Y540595D01*
X711290D01*
X711218Y540590D01*
X711135Y540584D01*
X709607D01*
X710410Y544416D01*
X711672D01*
X711766Y544410D01*
D02*
G37*
G36*
X717459Y544482D02*
X717520Y544477D01*
X717591Y544466D01*
X717669Y544449D01*
X717752Y544432D01*
X717846Y544410D01*
X717940Y544383D01*
X718035Y544344D01*
X718129Y544300D01*
X718228Y544250D01*
X718317Y544189D01*
X718411Y544122D01*
X718494Y544045D01*
X718500Y544039D01*
X718511Y544023D01*
X718533Y544001D01*
X718560Y543962D01*
X718594Y543918D01*
X718633Y543868D01*
X718671Y543801D01*
X718716Y543729D01*
X718754Y543652D01*
X718793Y543563D01*
X718832Y543464D01*
X718865Y543358D01*
X718893Y543247D01*
X718915Y543126D01*
X718926Y542998D01*
X718932Y542865D01*
Y542860D01*
Y542838D01*
Y542804D01*
X718926Y542760D01*
X718920Y542710D01*
X718915Y542644D01*
X718909Y542572D01*
X718898Y542494D01*
X718882Y542406D01*
X718859Y542312D01*
X718810Y542118D01*
X718776Y542013D01*
X718738Y541908D01*
X718693Y541797D01*
X718644Y541692D01*
X718638Y541686D01*
X718633Y541664D01*
X718616Y541636D01*
X718594Y541597D01*
X718560Y541548D01*
X718527Y541498D01*
X718488Y541437D01*
X718439Y541370D01*
X718389Y541298D01*
X718328Y541226D01*
X718267Y541154D01*
X718195Y541082D01*
X718046Y540944D01*
X717957Y540878D01*
X717868Y540817D01*
X717863Y540811D01*
X717846Y540806D01*
X717819Y540789D01*
X717785Y540767D01*
X717736Y540745D01*
X717680Y540723D01*
X717619Y540695D01*
X717547Y540667D01*
X717470Y540634D01*
X717387Y540606D01*
X717292Y540584D01*
X717198Y540562D01*
X716988Y540523D01*
X716883Y540518D01*
X716767Y540512D01*
X716717D01*
X716678Y540518D01*
X716634D01*
X716578Y540523D01*
X716517Y540534D01*
X716451Y540545D01*
X716312Y540573D01*
X716157Y540617D01*
X716008Y540678D01*
X715936Y540712D01*
X715864Y540756D01*
X715858Y540761D01*
X715847Y540767D01*
X715831Y540783D01*
X715803Y540800D01*
X715742Y540850D01*
X715665Y540922D01*
X715582Y541011D01*
X715498Y541116D01*
X715421Y541232D01*
X715355Y541359D01*
Y541365D01*
X715349Y541376D01*
X715343Y541393D01*
X715332Y541420D01*
X715321Y541454D01*
X715305Y541492D01*
X715283Y541586D01*
X715255Y541697D01*
X715227Y541819D01*
X715210Y541946D01*
X715205Y542085D01*
Y542090D01*
Y542101D01*
Y542118D01*
Y542146D01*
X715210Y542173D01*
Y542212D01*
X715216Y542301D01*
X715227Y542411D01*
X715249Y542533D01*
X715271Y542666D01*
X715305Y542804D01*
Y542810D01*
X715310Y542827D01*
X715321Y542854D01*
X715332Y542888D01*
X715343Y542932D01*
X715360Y542982D01*
X715382Y543043D01*
X715404Y543103D01*
X715460Y543242D01*
X715532Y543386D01*
X715615Y543535D01*
X715709Y543679D01*
X715714Y543685D01*
X715720Y543696D01*
X715736Y543713D01*
X715759Y543740D01*
X715786Y543773D01*
X715820Y543807D01*
X715897Y543890D01*
X715997Y543984D01*
X716113Y544084D01*
X716246Y544178D01*
X716395Y544266D01*
X716401D01*
X716412Y544277D01*
X716440Y544288D01*
X716468Y544300D01*
X716506Y544316D01*
X716556Y544338D01*
X716611Y544355D01*
X716672Y544377D01*
X716739Y544399D01*
X716811Y544416D01*
X716971Y544455D01*
X717149Y544477D01*
X717342Y544488D01*
X717409D01*
X717459Y544482D01*
D02*
G37*
G36*
X737339Y554482D02*
X737395Y554477D01*
X737461Y554471D01*
X737533Y554460D01*
X737611Y554449D01*
X737782Y554410D01*
X737871Y554383D01*
X737954Y554355D01*
X738043Y554316D01*
X738126Y554272D01*
X738203Y554222D01*
X738275Y554167D01*
X738281Y554161D01*
X738292Y554150D01*
X738308Y554133D01*
X738336Y554111D01*
X738364Y554078D01*
X738397Y554039D01*
X738430Y553995D01*
X738464Y553945D01*
X738502Y553884D01*
X738541Y553823D01*
X738574Y553751D01*
X738607Y553679D01*
X738635Y553596D01*
X738657Y553513D01*
X738674Y553419D01*
X738685Y553325D01*
X737932Y553292D01*
Y553297D01*
Y553303D01*
X737926Y553336D01*
X737910Y553386D01*
X737893Y553447D01*
X737866Y553513D01*
X737832Y553585D01*
X737788Y553652D01*
X737727Y553713D01*
X737721Y553718D01*
X737694Y553735D01*
X737655Y553763D01*
X737600Y553790D01*
X737533Y553812D01*
X737445Y553840D01*
X737339Y553857D01*
X737223Y553862D01*
X737168D01*
X737112Y553857D01*
X737040Y553845D01*
X736969Y553834D01*
X736891Y553812D01*
X736819Y553785D01*
X736758Y553746D01*
X736752Y553740D01*
X736736Y553724D01*
X736714Y553702D01*
X736692Y553668D01*
X736664Y553624D01*
X736642Y553574D01*
X736625Y553513D01*
X736620Y553452D01*
Y553447D01*
Y553425D01*
X736625Y553397D01*
X736636Y553358D01*
X736653Y553314D01*
X736675Y553270D01*
X736703Y553225D01*
X736747Y553181D01*
X736752Y553176D01*
X736775Y553159D01*
X736808Y553137D01*
X736863Y553103D01*
X736902Y553081D01*
X736941Y553059D01*
X736985Y553032D01*
X737040Y553004D01*
X737096Y552976D01*
X737162Y552943D01*
X737234Y552910D01*
X737312Y552877D01*
X737317Y552871D01*
X737339Y552865D01*
X737373Y552849D01*
X737417Y552832D01*
X737472Y552804D01*
X737533Y552777D01*
X737666Y552710D01*
X737810Y552638D01*
X737949Y552561D01*
X738015Y552522D01*
X738070Y552483D01*
X738120Y552445D01*
X738159Y552411D01*
X738165Y552406D01*
X738170Y552400D01*
X738187Y552384D01*
X738203Y552367D01*
X738248Y552306D01*
X738297Y552229D01*
X738347Y552135D01*
X738386Y552018D01*
X738419Y551885D01*
X738425Y551819D01*
X738430Y551741D01*
Y551736D01*
Y551719D01*
Y551692D01*
X738425Y551658D01*
X738419Y551614D01*
X738408Y551559D01*
X738397Y551503D01*
X738381Y551442D01*
X738358Y551376D01*
X738331Y551304D01*
X738297Y551232D01*
X738259Y551160D01*
X738214Y551088D01*
X738159Y551011D01*
X738098Y550944D01*
X738026Y550872D01*
X738020Y550867D01*
X738009Y550855D01*
X737982Y550839D01*
X737954Y550817D01*
X737910Y550789D01*
X737860Y550756D01*
X737805Y550728D01*
X737733Y550695D01*
X737661Y550656D01*
X737578Y550628D01*
X737483Y550595D01*
X737384Y550568D01*
X737279Y550545D01*
X737162Y550529D01*
X737040Y550518D01*
X736908Y550512D01*
X736824D01*
X736780Y550518D01*
X736730Y550523D01*
X736675D01*
X736614Y550534D01*
X736481Y550551D01*
X736337Y550579D01*
X736188Y550617D01*
X736049Y550673D01*
X736044D01*
X736033Y550678D01*
X736016Y550689D01*
X735988Y550706D01*
X735928Y550739D01*
X735850Y550794D01*
X735767Y550855D01*
X735684Y550938D01*
X735606Y551027D01*
X735540Y551132D01*
Y551138D01*
X735534Y551143D01*
X735529Y551160D01*
X735518Y551188D01*
X735507Y551215D01*
X735496Y551249D01*
X735468Y551332D01*
X735440Y551431D01*
X735418Y551548D01*
X735407Y551675D01*
X735402Y551813D01*
X736154Y551858D01*
Y551852D01*
Y551841D01*
Y551824D01*
X736160Y551802D01*
X736166Y551736D01*
X736177Y551664D01*
X736188Y551581D01*
X736210Y551498D01*
X736238Y551426D01*
X736276Y551370D01*
X736287Y551359D01*
X736310Y551337D01*
X736354Y551310D01*
X736420Y551271D01*
X736459Y551254D01*
X736509Y551232D01*
X736559Y551215D01*
X736620Y551204D01*
X736681Y551188D01*
X736752Y551182D01*
X736830Y551171D01*
X736974D01*
X737007Y551177D01*
X737046D01*
X737129Y551188D01*
X737218Y551204D01*
X737312Y551232D01*
X737400Y551265D01*
X737472Y551310D01*
X737478Y551315D01*
X737500Y551332D01*
X737528Y551365D01*
X737561Y551404D01*
X737594Y551454D01*
X737622Y551509D01*
X737644Y551570D01*
X737650Y551642D01*
Y551647D01*
Y551669D01*
X737644Y551703D01*
X737633Y551741D01*
X737616Y551786D01*
X737589Y551836D01*
X737555Y551885D01*
X737506Y551930D01*
X737500Y551935D01*
X737483Y551946D01*
X737450Y551968D01*
X737400Y551996D01*
X737367Y552018D01*
X737328Y552040D01*
X737284Y552062D01*
X737234Y552085D01*
X737173Y552112D01*
X737112Y552146D01*
X737035Y552179D01*
X736957Y552212D01*
X736952D01*
X736935Y552223D01*
X736913Y552229D01*
X736885Y552245D01*
X736847Y552262D01*
X736802Y552279D01*
X736708Y552323D01*
X736603Y552378D01*
X736492Y552428D01*
X736393Y552483D01*
X736343Y552511D01*
X736304Y552533D01*
X736293Y552539D01*
X736271Y552555D01*
X736232Y552589D01*
X736188Y552627D01*
X736138Y552672D01*
X736083Y552733D01*
X736033Y552799D01*
X735983Y552871D01*
X735977Y552882D01*
X735966Y552910D01*
X735944Y552954D01*
X735928Y553009D01*
X735905Y553081D01*
X735883Y553164D01*
X735872Y553259D01*
X735867Y553358D01*
Y553364D01*
Y553380D01*
Y553408D01*
X735872Y553441D01*
X735878Y553480D01*
X735883Y553530D01*
X735894Y553585D01*
X735911Y553641D01*
X735950Y553768D01*
X735983Y553834D01*
X736016Y553906D01*
X736055Y553973D01*
X736099Y554039D01*
X736154Y554106D01*
X736215Y554167D01*
X736221Y554172D01*
X736232Y554183D01*
X736254Y554194D01*
X736282Y554216D01*
X736315Y554239D01*
X736359Y554266D01*
X736415Y554300D01*
X736476Y554327D01*
X736542Y554355D01*
X736614Y554388D01*
X736697Y554416D01*
X736791Y554438D01*
X736891Y554460D01*
X736996Y554477D01*
X737107Y554482D01*
X737229Y554488D01*
X737295D01*
X737339Y554482D01*
D02*
G37*
G36*
X730606Y550584D02*
X729881D01*
X728840Y553159D01*
X728297Y550584D01*
X727572D01*
X728375Y554416D01*
X729100D01*
X730141Y551852D01*
X730684Y554416D01*
X731409D01*
X730606Y550584D01*
D02*
G37*
G36*
X742301Y553773D02*
X741182D01*
X740518Y550584D01*
X739732D01*
X740396Y553773D01*
X739277D01*
X739405Y554416D01*
X742428D01*
X742301Y553773D01*
D02*
G37*
G36*
X734084Y554410D02*
X734183Y554405D01*
X734294Y554394D01*
X734405Y554377D01*
X734516Y554355D01*
X734615Y554322D01*
X734621D01*
X734626Y554316D01*
X734654Y554305D01*
X734698Y554283D01*
X734754Y554250D01*
X734820Y554200D01*
X734886Y554145D01*
X734947Y554073D01*
X735008Y553989D01*
X735014Y553978D01*
X735031Y553945D01*
X735058Y553895D01*
X735086Y553829D01*
X735114Y553746D01*
X735141Y553646D01*
X735158Y553530D01*
X735163Y553408D01*
Y553403D01*
Y553386D01*
Y553364D01*
X735158Y553325D01*
X735152Y553286D01*
X735147Y553236D01*
X735141Y553181D01*
X735125Y553126D01*
X735091Y552998D01*
X735042Y552860D01*
X735008Y552794D01*
X734969Y552727D01*
X734920Y552661D01*
X734870Y552600D01*
X734864Y552594D01*
X734859Y552589D01*
X734837Y552572D01*
X734815Y552550D01*
X734781Y552522D01*
X734748Y552494D01*
X734704Y552467D01*
X734648Y552434D01*
X734593Y552400D01*
X734527Y552367D01*
X734455Y552334D01*
X734371Y552301D01*
X734288Y552273D01*
X734194Y552251D01*
X734089Y552229D01*
X733984Y552212D01*
X733989Y552206D01*
X734012Y552190D01*
X734039Y552157D01*
X734078Y552118D01*
X734117Y552062D01*
X734167Y552002D01*
X734217Y551930D01*
X734266Y551852D01*
X734272Y551847D01*
X734277Y551830D01*
X734294Y551808D01*
X734311Y551769D01*
X734338Y551725D01*
X734366Y551669D01*
X734399Y551603D01*
X734438Y551525D01*
X734482Y551442D01*
X734527Y551348D01*
X734576Y551243D01*
X734626Y551127D01*
X734682Y551005D01*
X734737Y550872D01*
X734798Y550734D01*
X734859Y550584D01*
X734012D01*
Y550590D01*
X734006Y550601D01*
X734000Y550617D01*
X733989Y550645D01*
X733978Y550678D01*
X733962Y550723D01*
X733945Y550772D01*
X733923Y550833D01*
X733895Y550900D01*
X733868Y550972D01*
X733834Y551055D01*
X733796Y551143D01*
X733757Y551243D01*
X733713Y551354D01*
X733663Y551470D01*
X733607Y551592D01*
Y551597D01*
X733602Y551609D01*
X733591Y551625D01*
X733580Y551653D01*
X733547Y551714D01*
X733502Y551791D01*
X733452Y551874D01*
X733397Y551957D01*
X733331Y552035D01*
X733297Y552062D01*
X733264Y552090D01*
X733259Y552096D01*
X733242Y552101D01*
X733214Y552112D01*
X733176Y552129D01*
X733120Y552146D01*
X733054Y552157D01*
X732971Y552162D01*
X732871Y552168D01*
X732550D01*
X732218Y550584D01*
X731437D01*
X732240Y554416D01*
X734045D01*
X734084Y554410D01*
D02*
G37*
%LPC*%
G36*
X405270Y470405D02*
X385541D01*
Y470135D01*
X385405D01*
Y469730D01*
X385270D01*
Y469324D01*
X385135D01*
Y468784D01*
X385000D01*
Y468378D01*
X384865D01*
Y467973D01*
X384730D01*
Y467568D01*
X384595D01*
Y467027D01*
X384459D01*
Y466622D01*
X384324D01*
Y466216D01*
X384189D01*
Y465811D01*
X384054D01*
Y465270D01*
X383919D01*
Y465000D01*
X392703D01*
Y464865D01*
X392838D01*
Y457432D01*
Y457297D01*
Y456757D01*
X397973D01*
Y464865D01*
X398108D01*
Y465000D01*
X406892D01*
Y465135D01*
X406757D01*
Y465541D01*
X406622D01*
Y466081D01*
X406487D01*
Y466487D01*
X406351D01*
Y466892D01*
X406216D01*
Y467297D01*
X406081D01*
Y467838D01*
X405946D01*
Y468243D01*
X405811D01*
Y468649D01*
X405676D01*
Y469054D01*
X405541D01*
Y469595D01*
X405405D01*
Y470000D01*
X405270D01*
Y470405D01*
D02*
G37*
G36*
X411216Y459595D02*
X400000D01*
Y452162D01*
X399865D01*
Y452027D01*
X396351D01*
Y446622D01*
X401487D01*
Y441622D01*
X408919D01*
Y447027D01*
X403378D01*
Y454189D01*
X411216D01*
Y459595D01*
D02*
G37*
G36*
X390811D02*
X379595D01*
Y454189D01*
X387432D01*
Y447027D01*
X381892D01*
Y441622D01*
X389189D01*
Y446487D01*
X389324D01*
Y446622D01*
X394324D01*
Y452027D01*
X390811D01*
Y459595D01*
D02*
G37*
G36*
X400000Y442703D02*
X390811D01*
Y442432D01*
X390946D01*
Y442027D01*
X391081D01*
Y441757D01*
X391216D01*
Y441351D01*
X391351D01*
Y440946D01*
X391487D01*
Y440541D01*
X391622D01*
Y440135D01*
X391757D01*
Y439865D01*
X391892D01*
Y439459D01*
X392027D01*
Y439054D01*
X392162D01*
Y438649D01*
X392297D01*
Y438378D01*
X392432D01*
Y437973D01*
X392568D01*
Y437568D01*
X392703D01*
Y437162D01*
X397973D01*
Y437297D01*
X398108D01*
Y437703D01*
X398243D01*
Y438108D01*
X398378D01*
Y438513D01*
X398513D01*
Y438784D01*
X398649D01*
Y439189D01*
X398784D01*
Y439595D01*
X398919D01*
Y440000D01*
X399054D01*
Y440270D01*
X399189D01*
Y440676D01*
X399324D01*
Y441081D01*
X399459D01*
Y441487D01*
X399595D01*
Y441892D01*
X399730D01*
Y442162D01*
X399865D01*
Y442568D01*
X400000D01*
Y442703D01*
D02*
G37*
G36*
X440788Y244080D02*
X438846D01*
X437709Y239707D01*
X436562Y244080D01*
X434630D01*
Y237682D01*
X435823D01*
D01*
X436086D01*
X435823D01*
Y242712D01*
X437080Y237682D01*
X438328D01*
X439586Y242712D01*
X439595Y237682D01*
X440788D01*
Y244080D01*
D02*
G37*
G36*
X433724Y244034D02*
X429212D01*
Y237682D01*
X433724D01*
Y244034D01*
D02*
G37*
%LPD*%
G36*
Y238764D02*
X430507D01*
Y244034D01*
X433724D01*
Y238764D01*
D02*
G37*
%LPC*%
G36*
X709862Y553785D02*
X709280D01*
X708737Y551199D01*
X709241D01*
X709286Y551204D01*
X709380D01*
X709485Y551210D01*
X709585Y551221D01*
X709684Y551232D01*
X709729Y551237D01*
X709767Y551249D01*
X709779Y551254D01*
X709801Y551260D01*
X709839Y551276D01*
X709889Y551293D01*
X709945Y551321D01*
X710005Y551354D01*
X710066Y551398D01*
X710127Y551448D01*
X710133D01*
X710138Y551459D01*
X710166Y551487D01*
X710210Y551536D01*
X710266Y551597D01*
X710332Y551680D01*
X710399Y551780D01*
X710465Y551891D01*
X710526Y552013D01*
Y552018D01*
X710532Y552029D01*
X710543Y552052D01*
X710554Y552074D01*
X710565Y552112D01*
X710576Y552151D01*
X710592Y552195D01*
X710609Y552251D01*
X710620Y552306D01*
X710637Y552373D01*
X710665Y552517D01*
X710681Y552677D01*
X710687Y552849D01*
Y552854D01*
Y552865D01*
Y552888D01*
Y552915D01*
X710681Y552948D01*
Y552987D01*
X710670Y553081D01*
X710653Y553181D01*
X710631Y553281D01*
X710598Y553380D01*
X710554Y553464D01*
X710548Y553475D01*
X710532Y553497D01*
X710504Y553530D01*
X710465Y553574D01*
X710415Y553619D01*
X710360Y553663D01*
X710294Y553702D01*
X710221Y553735D01*
X710216D01*
X710194Y553740D01*
X710161Y553751D01*
X710111Y553763D01*
X710044Y553768D01*
X709961Y553779D01*
X709862Y553785D01*
D02*
G37*
G36*
X714075Y553829D02*
X713981D01*
X713954Y553823D01*
X713915D01*
X713865Y553812D01*
X713810Y553801D01*
X713743Y553785D01*
X713677Y553763D01*
X713605Y553735D01*
X713527Y553696D01*
X713450Y553652D01*
X713372Y553602D01*
X713295Y553535D01*
X713217Y553464D01*
X713145Y553380D01*
X713073Y553286D01*
X713068Y553281D01*
X713056Y553264D01*
X713040Y553231D01*
X713018Y553192D01*
X712990Y553142D01*
X712957Y553081D01*
X712929Y553009D01*
X712896Y552937D01*
X712857Y552849D01*
X712830Y552760D01*
X712796Y552661D01*
X712769Y552555D01*
X712747Y552450D01*
X712730Y552339D01*
X712719Y552223D01*
X712713Y552101D01*
Y552096D01*
Y552085D01*
Y552062D01*
X712719Y552035D01*
Y552002D01*
X712724Y551963D01*
X712741Y551869D01*
X712774Y551763D01*
X712813Y551653D01*
X712874Y551542D01*
X712907Y551487D01*
X712951Y551437D01*
X712957Y551431D01*
X712962Y551426D01*
X712996Y551398D01*
X713046Y551354D01*
X713117Y551304D01*
X713212Y551254D01*
X713317Y551215D01*
X713444Y551182D01*
X713511Y551177D01*
X713583Y551171D01*
X713616D01*
X713638Y551177D01*
X713699Y551182D01*
X713776Y551199D01*
X713870Y551221D01*
X713970Y551260D01*
X714081Y551310D01*
X714192Y551381D01*
X714197D01*
X714203Y551393D01*
X714219Y551404D01*
X714241Y551420D01*
X714297Y551470D01*
X714363Y551542D01*
X714441Y551631D01*
X714524Y551741D01*
X714601Y551869D01*
X714679Y552018D01*
Y552024D01*
X714690Y552040D01*
X714696Y552062D01*
X714712Y552090D01*
X714723Y552129D01*
X714740Y552179D01*
X714756Y552229D01*
X714779Y552284D01*
X714812Y552411D01*
X714845Y552555D01*
X714867Y552705D01*
X714873Y552854D01*
Y552860D01*
Y552877D01*
Y552899D01*
X714867Y552932D01*
Y552965D01*
X714862Y553009D01*
X714845Y553115D01*
X714812Y553231D01*
X714768Y553347D01*
X714712Y553464D01*
X714673Y553519D01*
X714629Y553569D01*
Y553574D01*
X714618Y553580D01*
X714585Y553607D01*
X714535Y553652D01*
X714463Y553702D01*
X714369Y553746D01*
X714264Y553790D01*
X714142Y553818D01*
X714075Y553829D01*
D02*
G37*
G36*
X493148Y51468D02*
X486750D01*
Y47234D01*
X493148D01*
Y48463D01*
X490828D01*
X490624Y48472D01*
X490449Y48482D01*
X490291Y48500D01*
X490171Y48519D01*
X490070Y48537D01*
X490005Y48556D01*
X489959Y48574D01*
X489949D01*
X489848Y48620D01*
X489755Y48676D01*
X489681Y48731D01*
X489617Y48796D01*
X489570Y48842D01*
X489533Y48889D01*
X489515Y48916D01*
X489506Y48925D01*
X489450Y49018D01*
X489413Y49110D01*
X489385Y49203D01*
X489367Y49286D01*
X489358Y49360D01*
X489348Y49415D01*
Y49471D01*
X489358Y49563D01*
X489367Y49656D01*
X489385Y49730D01*
X489404Y49795D01*
X489432Y49841D01*
X489450Y49887D01*
X489459Y49906D01*
X489469Y49915D01*
X489515Y49980D01*
X489570Y50026D01*
X489672Y50109D01*
X489718Y50127D01*
X489746Y50146D01*
X489774Y50164D01*
X489783D01*
X489829Y50174D01*
X489875Y50192D01*
X490005Y50211D01*
X490162Y50220D01*
X490319Y50229D01*
X490467Y50238D01*
X490532D01*
X490587D01*
X490643D01*
X490680D01*
X490698D01*
X490708D01*
X493148D01*
Y51468D01*
D02*
G37*
G36*
X493250Y46503D02*
X486861D01*
Y43766D01*
D01*
Y45560D01*
X487583Y44330D01*
X488507D01*
Y43766D01*
X489487D01*
Y44330D01*
X491512D01*
X491632D01*
X491734D01*
X491836D01*
X491919Y44340D01*
X492067D01*
X492187Y44349D01*
X492279Y44358D01*
X492335D01*
X492372Y44367D01*
X492381D01*
X492483Y44386D01*
X492575Y44414D01*
X492658Y44441D01*
X492723Y44469D01*
X492779Y44497D01*
X492816Y44515D01*
X492843Y44524D01*
X492853Y44534D01*
X492917Y44589D01*
X492973Y44654D01*
X493065Y44783D01*
X493093Y44839D01*
X493121Y44885D01*
X493130Y44922D01*
X493139Y44931D01*
X493176Y45033D01*
X493204Y45135D01*
X493222Y45237D01*
X493232Y45329D01*
X493241Y45412D01*
X493250Y45477D01*
Y45532D01*
X493241Y45726D01*
X493222Y45911D01*
X493195Y46078D01*
X493158Y46217D01*
X493130Y46337D01*
X493102Y46429D01*
X493084Y46485D01*
X493074Y46494D01*
Y46503D01*
X492122Y46392D01*
X492159Y46281D01*
X492187Y46179D01*
X492205Y46096D01*
X492215Y46022D01*
X492224Y45967D01*
X492233Y45930D01*
Y45893D01*
X492224Y45810D01*
X492205Y45745D01*
X492187Y45708D01*
X492178Y45690D01*
X492122Y45634D01*
X492076Y45606D01*
X492039Y45588D01*
X492020Y45578D01*
X492002D01*
X491965Y45569D01*
X491882D01*
X491771D01*
X491660Y45560D01*
X491549D01*
X491456D01*
X491419D01*
X491392D01*
X491373D01*
X491364D01*
X489487D01*
Y46401D01*
X488507D01*
Y45560D01*
X486861D01*
Y46503D01*
X493250D01*
D01*
D02*
G37*
G36*
Y43313D02*
X488405D01*
Y38524D01*
D01*
Y40910D01*
X488415Y40660D01*
X488452Y40429D01*
X488498Y40216D01*
X488553Y40031D01*
X488590Y39957D01*
X488618Y39883D01*
X488637Y39818D01*
X488664Y39772D01*
X488683Y39726D01*
X488701Y39698D01*
X488711Y39680D01*
Y39671D01*
X488840Y39476D01*
X488979Y39310D01*
X489127Y39162D01*
X489265Y39042D01*
X489395Y38949D01*
X489496Y38876D01*
X489533Y38848D01*
X489561Y38839D01*
X489580Y38820D01*
X489589D01*
X489801Y38718D01*
X490014Y38654D01*
X490208Y38598D01*
X490384Y38561D01*
X490541Y38543D01*
X490606Y38533D01*
X490661D01*
X490698Y38524D01*
X490763D01*
X491050Y38533D01*
X491318Y38570D01*
X491549Y38617D01*
X491651Y38644D01*
X491743Y38672D01*
X491826Y38700D01*
X491900Y38728D01*
X491965Y38755D01*
X492020Y38774D01*
X492067Y38792D01*
X492094Y38811D01*
X492113Y38820D01*
X492122D01*
X492316Y38949D01*
X492483Y39088D01*
X492631Y39236D01*
X492751Y39375D01*
X492843Y39504D01*
X492908Y39606D01*
X492936Y39643D01*
X492954Y39671D01*
X492963Y39689D01*
Y39698D01*
X493056Y39920D01*
X493130Y40133D01*
X493176Y40336D01*
X493213Y40530D01*
X493232Y40688D01*
X493241Y40752D01*
Y40808D01*
X493250Y40854D01*
Y40919D01*
X493241Y41113D01*
X493222Y41289D01*
X493185Y41464D01*
X493139Y41621D01*
X493093Y41779D01*
X493037Y41917D01*
X492973Y42047D01*
X492908Y42167D01*
X492843Y42269D01*
X492779Y42361D01*
X492723Y42444D01*
X492677Y42509D01*
X492631Y42565D01*
X492594Y42601D01*
X492575Y42620D01*
X492566Y42629D01*
X492427Y42749D01*
X492289Y42851D01*
X492150Y42944D01*
X492002Y43027D01*
X491854Y43092D01*
X491706Y43147D01*
X491567Y43193D01*
X491429Y43230D01*
X491309Y43258D01*
X491188Y43276D01*
X491087Y43295D01*
X490994Y43304D01*
X490920Y43313D01*
X493250D01*
D01*
D02*
G37*
G36*
Y37849D02*
X488405D01*
Y33060D01*
D01*
Y35445D01*
X488415Y35196D01*
X488452Y34965D01*
X488498Y34752D01*
X488553Y34567D01*
X488590Y34493D01*
X488618Y34419D01*
X488637Y34354D01*
X488664Y34308D01*
X488683Y34262D01*
X488701Y34234D01*
X488711Y34216D01*
Y34207D01*
X488840Y34012D01*
X488979Y33846D01*
X489127Y33698D01*
X489265Y33578D01*
X489395Y33485D01*
X489496Y33411D01*
X489533Y33384D01*
X489561Y33374D01*
X489580Y33356D01*
X489589D01*
X489801Y33254D01*
X490014Y33189D01*
X490208Y33134D01*
X490384Y33097D01*
X490541Y33078D01*
X490606Y33069D01*
X490661D01*
X490698Y33060D01*
X490763D01*
X491050Y33069D01*
X491318Y33106D01*
X491549Y33152D01*
X491651Y33180D01*
X491743Y33208D01*
X491826Y33236D01*
X491900Y33263D01*
X491965Y33291D01*
X492020Y33310D01*
X492067Y33328D01*
X492094Y33347D01*
X492113Y33356D01*
X492122D01*
X492316Y33485D01*
X492483Y33624D01*
X492631Y33772D01*
X492751Y33911D01*
X492843Y34040D01*
X492908Y34142D01*
X492936Y34179D01*
X492954Y34207D01*
X492963Y34225D01*
Y34234D01*
X493056Y34456D01*
X493130Y34669D01*
X493176Y34872D01*
X493213Y35066D01*
X493232Y35224D01*
X493241Y35288D01*
Y35344D01*
X493250Y35390D01*
Y35455D01*
X493241Y35649D01*
X493222Y35824D01*
X493185Y36000D01*
X493139Y36157D01*
X493093Y36314D01*
X493037Y36453D01*
X492973Y36583D01*
X492908Y36703D01*
X492843Y36804D01*
X492779Y36897D01*
X492723Y36980D01*
X492677Y37045D01*
X492631Y37100D01*
X492594Y37137D01*
X492575Y37156D01*
X492566Y37165D01*
X492427Y37285D01*
X492289Y37387D01*
X492150Y37479D01*
X492002Y37563D01*
X491854Y37627D01*
X491706Y37683D01*
X491567Y37729D01*
X491429Y37766D01*
X491309Y37794D01*
X491188Y37812D01*
X491087Y37831D01*
X490994Y37840D01*
X490920Y37849D01*
X493250D01*
D01*
D02*
G37*
G36*
Y32598D02*
X486861D01*
Y29861D01*
D01*
Y31655D01*
X487583Y30425D01*
X488507D01*
Y29861D01*
X489487D01*
Y30425D01*
X491512D01*
X491632D01*
X491734D01*
X491836D01*
X491919Y30434D01*
X492067D01*
X492187Y30443D01*
X492279Y30453D01*
X492335D01*
X492372Y30462D01*
X492381D01*
X492483Y30480D01*
X492575Y30508D01*
X492658Y30536D01*
X492723Y30564D01*
X492779Y30591D01*
X492816Y30610D01*
X492843Y30619D01*
X492853Y30628D01*
X492917Y30684D01*
X492973Y30749D01*
X493065Y30878D01*
X493093Y30933D01*
X493121Y30980D01*
X493130Y31017D01*
X493139Y31026D01*
X493176Y31128D01*
X493204Y31229D01*
X493222Y31331D01*
X493232Y31423D01*
X493241Y31507D01*
X493250Y31572D01*
Y31627D01*
X493241Y31821D01*
X493222Y32006D01*
X493195Y32172D01*
X493158Y32311D01*
X493130Y32431D01*
X493102Y32524D01*
X493084Y32579D01*
X493074Y32589D01*
Y32598D01*
X492122Y32487D01*
X492159Y32376D01*
X492187Y32274D01*
X492205Y32191D01*
X492215Y32117D01*
X492224Y32062D01*
X492233Y32025D01*
Y31988D01*
X492224Y31904D01*
X492205Y31840D01*
X492187Y31803D01*
X492178Y31784D01*
X492122Y31729D01*
X492076Y31701D01*
X492039Y31682D01*
X492020Y31673D01*
X492002D01*
X491965Y31664D01*
X491882D01*
X491771D01*
X491660Y31655D01*
X491549D01*
X491456D01*
X491419D01*
X491392D01*
X491373D01*
X491364D01*
X489487D01*
Y32496D01*
X488507D01*
Y31655D01*
X486861D01*
Y32598D01*
X493250D01*
D01*
D02*
G37*
G36*
Y29362D02*
X488405D01*
D01*
X490929D01*
X490698Y29343D01*
X490476Y29316D01*
X490273Y29279D01*
X490079Y29232D01*
X489912Y29186D01*
X489755Y29131D01*
X489617Y29075D01*
X489496Y29020D01*
X489385Y28964D01*
X489302Y28918D01*
X489228Y28872D01*
X489173Y28835D01*
X489127Y28807D01*
X489108Y28788D01*
X489099Y28779D01*
X488979Y28668D01*
X488868Y28539D01*
X488775Y28410D01*
X488701Y28280D01*
X488627Y28141D01*
X488572Y28003D01*
X488526Y27873D01*
X488489Y27744D01*
X488461Y27624D01*
X488442Y27513D01*
X488424Y27411D01*
X488415Y27328D01*
X488405Y27254D01*
Y27337D01*
Y27152D01*
X488415Y26986D01*
X488433Y26828D01*
X488470Y26671D01*
X488507Y26533D01*
X488553Y26394D01*
X488609Y26274D01*
X488674Y26154D01*
X488729Y26052D01*
X488794Y25959D01*
X488858Y25876D01*
X488914Y25802D01*
X488960Y25747D01*
X488997Y25701D01*
X489034Y25663D01*
X489053Y25645D01*
X489062Y25636D01*
X489191Y25534D01*
X489330Y25442D01*
X489469Y25358D01*
X489617Y25285D01*
X489774Y25229D01*
X489922Y25183D01*
X490208Y25109D01*
X490347Y25081D01*
X490467Y25063D01*
X490578Y25053D01*
X490671Y25044D01*
X490754Y25035D01*
X490865D01*
X491040Y25044D01*
X491216Y25053D01*
X491373Y25081D01*
X491521Y25109D01*
X491669Y25136D01*
X491799Y25183D01*
X491919Y25220D01*
X492030Y25266D01*
X492131Y25303D01*
X492215Y25349D01*
X492289Y25386D01*
X492353Y25414D01*
X492399Y25451D01*
X492436Y25469D01*
X492455Y25479D01*
X492464Y25488D01*
X492603Y25608D01*
X492723Y25728D01*
X492825Y25867D01*
X492917Y26015D01*
X492991Y26163D01*
X493056Y26311D01*
X493111Y26459D01*
X493148Y26607D01*
X493185Y26736D01*
X493204Y26865D01*
X493222Y26986D01*
X493241Y27087D01*
Y27171D01*
X493250Y27226D01*
Y26052D01*
Y27281D01*
X493232Y27550D01*
X493195Y27799D01*
X493139Y28012D01*
X493074Y28197D01*
X493037Y28280D01*
X493010Y28345D01*
X492982Y28410D01*
X492954Y28456D01*
X492926Y28493D01*
X492917Y28530D01*
X492899Y28539D01*
Y28548D01*
X492751Y28724D01*
X492594Y28881D01*
X492418Y29010D01*
X492252Y29112D01*
X492104Y29195D01*
X492039Y29223D01*
X491983Y29251D01*
X491937Y29269D01*
X491900Y29288D01*
X491882Y29297D01*
X491872D01*
X491669Y28077D01*
X491789Y28030D01*
X491900Y27984D01*
X491983Y27938D01*
X492057Y27882D01*
X492113Y27845D01*
X492150Y27808D01*
X492168Y27781D01*
X492178Y27771D01*
X492233Y27698D01*
X492270Y27614D01*
X492298Y27531D01*
X492316Y27457D01*
X492326Y27392D01*
X492335Y27337D01*
Y27291D01*
X492326Y27143D01*
X492289Y27004D01*
X492242Y26875D01*
X492187Y26773D01*
X492131Y26690D01*
X492085Y26634D01*
X492048Y26588D01*
X492039Y26579D01*
X491919Y26486D01*
X491780Y26422D01*
X491632Y26366D01*
X491503Y26329D01*
X491373Y26311D01*
X491281Y26302D01*
X491244Y26292D01*
X491216D01*
X491198D01*
X491188D01*
Y29362D01*
X493250D01*
D01*
D02*
G37*
G36*
Y24129D02*
X488507D01*
Y19904D01*
X491447D01*
X491678Y19913D01*
X491882Y19931D01*
X492057Y19959D01*
X492205Y19987D01*
X492326Y20015D01*
X492409Y20042D01*
X492455Y20061D01*
X492473Y20070D01*
X492603Y20144D01*
X492723Y20227D01*
X492816Y20310D01*
X492899Y20403D01*
X492963Y20477D01*
X493010Y20551D01*
X493037Y20588D01*
X493047Y20606D01*
X493111Y20745D01*
X493167Y20893D01*
X493204Y21031D01*
X493222Y21170D01*
X493241Y21281D01*
X493250Y21364D01*
Y21448D01*
X493241Y21614D01*
X493222Y21771D01*
X493185Y21919D01*
X493148Y22048D01*
X493111Y22159D01*
X493074Y22243D01*
X493056Y22298D01*
X493047Y22317D01*
X492963Y22464D01*
X492862Y22594D01*
X492769Y22714D01*
X492668Y22807D01*
X492584Y22890D01*
X492520Y22945D01*
X492473Y22982D01*
X492455Y22991D01*
X493148D01*
Y24129D01*
X493250D01*
D01*
D02*
G37*
G36*
X493148Y18665D02*
X486750D01*
Y17435D01*
X493148D01*
Y18665D01*
D02*
G37*
G36*
Y16353D02*
X486750D01*
D01*
X491299D01*
X491096Y16344D01*
X490911Y16307D01*
X490754Y16251D01*
X490606Y16196D01*
X490495Y16141D01*
X490412Y16085D01*
X490356Y16048D01*
X490338Y16039D01*
X490190Y15909D01*
X490070Y15771D01*
X489968Y15614D01*
X489894Y15475D01*
X489829Y15345D01*
X489783Y15235D01*
X489774Y15197D01*
X489765Y15170D01*
X489755Y15151D01*
Y15142D01*
X489672Y15290D01*
X489589Y15419D01*
X489487Y15530D01*
X489404Y15623D01*
X489321Y15688D01*
X489256Y15743D01*
X489210Y15780D01*
X489191Y15789D01*
X489043Y15872D01*
X488905Y15937D01*
X488766Y15974D01*
X488637Y16011D01*
X488526Y16030D01*
X488442Y16039D01*
X488387D01*
X488378D01*
X488368D01*
X488220Y16030D01*
X488073Y16011D01*
X487952Y15974D01*
X487841Y15937D01*
X487749Y15900D01*
X487675Y15863D01*
X487638Y15845D01*
X487620Y15835D01*
X487499Y15761D01*
X487398Y15678D01*
X487305Y15595D01*
X487222Y15521D01*
X487166Y15447D01*
X487120Y15392D01*
X487093Y15355D01*
X487083Y15345D01*
X487009Y15235D01*
X486954Y15114D01*
X486908Y15003D01*
X486871Y14902D01*
X486843Y14809D01*
X486824Y14744D01*
X486815Y14698D01*
Y14680D01*
X486797Y14523D01*
X486778Y14347D01*
X486769Y14162D01*
X486760Y13977D01*
X486750Y13811D01*
Y13857D01*
Y11000D01*
X493148D01*
Y13774D01*
X493139Y13931D01*
Y14208D01*
X493130Y14319D01*
Y14495D01*
X493121Y14560D01*
Y14652D01*
X493111Y14689D01*
Y14726D01*
X493084Y14911D01*
X493037Y15077D01*
X492991Y15225D01*
X492936Y15355D01*
X492890Y15456D01*
X492843Y15530D01*
X492816Y15577D01*
X492806Y15595D01*
X492705Y15725D01*
X492594Y15826D01*
X492492Y15928D01*
X492381Y16002D01*
X492289Y16067D01*
X492215Y16113D01*
X492168Y16141D01*
X492150Y16150D01*
X491993Y16214D01*
X491845Y16270D01*
X491697Y16307D01*
X491567Y16326D01*
X491456Y16344D01*
X491373Y16353D01*
X493148D01*
D01*
D02*
G37*
%LPD*%
G36*
X490023Y51459D02*
X489866Y51449D01*
X489737Y51440D01*
X489644Y51422D01*
X489570Y51413D01*
X489524Y51403D01*
X489515D01*
X489404Y51375D01*
X489302Y51339D01*
X489210Y51302D01*
X489127Y51255D01*
X489062Y51218D01*
X489016Y51191D01*
X488979Y51172D01*
X488969Y51163D01*
X488886Y51089D01*
X488803Y51006D01*
X488738Y50922D01*
X488683Y50839D01*
X488637Y50765D01*
X488600Y50701D01*
X488581Y50664D01*
X488572Y50645D01*
X488516Y50516D01*
X488479Y50377D01*
X488442Y50257D01*
X488424Y50137D01*
X488415Y50035D01*
X488405Y49952D01*
Y49878D01*
X488415Y49730D01*
X488433Y49582D01*
X488470Y49443D01*
X488516Y49314D01*
X488627Y49073D01*
X488692Y48962D01*
X488757Y48861D01*
X488831Y48777D01*
X488895Y48694D01*
X488951Y48630D01*
X489006Y48565D01*
X489053Y48528D01*
X489090Y48491D01*
X489108Y48472D01*
X489117Y48463D01*
X486750D01*
Y51468D01*
X490208D01*
X490023Y51459D01*
D02*
G37*
G36*
X490624Y43304D02*
X490439Y43286D01*
X490273Y43249D01*
X490107Y43212D01*
X489959Y43156D01*
X489811Y43101D01*
X489681Y43036D01*
X489561Y42980D01*
X489459Y42916D01*
X489358Y42851D01*
X489284Y42796D01*
X489210Y42740D01*
X489164Y42703D01*
X489117Y42666D01*
X489099Y42648D01*
X489090Y42638D01*
X488969Y42509D01*
X488868Y42370D01*
X488775Y42232D01*
X488692Y42084D01*
X488627Y41936D01*
X488572Y41797D01*
X488526Y41658D01*
X488489Y41520D01*
X488461Y41399D01*
X488442Y41279D01*
X488424Y41178D01*
X488415Y41085D01*
X488405Y41011D01*
Y43313D01*
X490818D01*
X490624Y43304D01*
D02*
G37*
G36*
X491068Y42038D02*
X491290Y42000D01*
X491466Y41954D01*
X491623Y41890D01*
X491734Y41825D01*
X491826Y41779D01*
X491872Y41742D01*
X491891Y41723D01*
X492011Y41594D01*
X492104Y41464D01*
X492159Y41326D01*
X492205Y41196D01*
X492233Y41085D01*
X492242Y41002D01*
X492252Y40965D01*
Y40919D01*
X492233Y40743D01*
X492196Y40586D01*
X492141Y40447D01*
X492067Y40336D01*
X492002Y40235D01*
X491946Y40161D01*
X491909Y40124D01*
X491891Y40105D01*
X491743Y39994D01*
X491567Y39920D01*
X491392Y39865D01*
X491216Y39818D01*
X491068Y39800D01*
X491003Y39791D01*
X490939D01*
X490892Y39782D01*
X490855D01*
X490837D01*
X490828D01*
X490587Y39800D01*
X490375Y39837D01*
X490190Y39883D01*
X490042Y39948D01*
X489931Y40003D01*
X489838Y40059D01*
X489792Y40096D01*
X489774Y40105D01*
X489654Y40235D01*
X489561Y40373D01*
X489496Y40512D01*
X489450Y40641D01*
X489422Y40752D01*
X489413Y40836D01*
X489404Y40873D01*
Y40919D01*
X489422Y41094D01*
X489459Y41252D01*
X489524Y41381D01*
X489589Y41501D01*
X489654Y41594D01*
X489718Y41668D01*
X489755Y41705D01*
X489774Y41723D01*
X489922Y41834D01*
X490097Y41917D01*
X490273Y41973D01*
X490439Y42019D01*
X490587Y42038D01*
X490661Y42047D01*
X490717D01*
X490763Y42056D01*
X490800D01*
X490818D01*
X490828D01*
X491068Y42038D01*
D02*
G37*
G36*
X490624Y37840D02*
X490439Y37822D01*
X490273Y37785D01*
X490107Y37747D01*
X489959Y37692D01*
X489811Y37637D01*
X489681Y37572D01*
X489561Y37516D01*
X489459Y37452D01*
X489358Y37387D01*
X489284Y37332D01*
X489210Y37276D01*
X489164Y37239D01*
X489117Y37202D01*
X489099Y37183D01*
X489090Y37174D01*
X488969Y37045D01*
X488868Y36906D01*
X488775Y36767D01*
X488692Y36620D01*
X488627Y36472D01*
X488572Y36333D01*
X488526Y36194D01*
X488489Y36056D01*
X488461Y35935D01*
X488442Y35815D01*
X488424Y35714D01*
X488415Y35621D01*
X488405Y35547D01*
Y37849D01*
X490818D01*
X490624Y37840D01*
D02*
G37*
G36*
X491068Y36573D02*
X491290Y36536D01*
X491466Y36490D01*
X491623Y36425D01*
X491734Y36361D01*
X491826Y36314D01*
X491872Y36277D01*
X491891Y36259D01*
X492011Y36130D01*
X492104Y36000D01*
X492159Y35861D01*
X492205Y35732D01*
X492233Y35621D01*
X492242Y35538D01*
X492252Y35501D01*
Y35455D01*
X492233Y35279D01*
X492196Y35122D01*
X492141Y34983D01*
X492067Y34872D01*
X492002Y34770D01*
X491946Y34697D01*
X491909Y34660D01*
X491891Y34641D01*
X491743Y34530D01*
X491567Y34456D01*
X491392Y34401D01*
X491216Y34354D01*
X491068Y34336D01*
X491003Y34327D01*
X490939D01*
X490892Y34317D01*
X490855D01*
X490837D01*
X490828D01*
X490587Y34336D01*
X490375Y34373D01*
X490190Y34419D01*
X490042Y34484D01*
X489931Y34539D01*
X489838Y34595D01*
X489792Y34632D01*
X489774Y34641D01*
X489654Y34770D01*
X489561Y34909D01*
X489496Y35048D01*
X489450Y35177D01*
X489422Y35288D01*
X489413Y35371D01*
X489404Y35408D01*
Y35455D01*
X489422Y35630D01*
X489459Y35787D01*
X489524Y35917D01*
X489589Y36037D01*
X489654Y36130D01*
X489718Y36203D01*
X489755Y36240D01*
X489774Y36259D01*
X489922Y36370D01*
X490097Y36453D01*
X490273Y36509D01*
X490439Y36555D01*
X490587Y36573D01*
X490661Y36583D01*
X490717D01*
X490763Y36592D01*
X490800D01*
X490818D01*
X490828D01*
X491068Y36573D01*
D02*
G37*
G36*
X490439Y26311D02*
X490264Y26320D01*
X490107Y26348D01*
X489968Y26385D01*
X489857Y26440D01*
X489765Y26486D01*
X489700Y26533D01*
X489654Y26560D01*
X489644Y26570D01*
X489543Y26671D01*
X489469Y26782D01*
X489422Y26893D01*
X489385Y26995D01*
X489367Y27087D01*
X489348Y27161D01*
Y27226D01*
X489358Y27365D01*
X489395Y27485D01*
X489441Y27596D01*
X489487Y27688D01*
X489543Y27762D01*
X489589Y27818D01*
X489626Y27855D01*
X489635Y27864D01*
X489746Y27947D01*
X489875Y28021D01*
X490014Y28067D01*
X490144Y28104D01*
X490255Y28123D01*
X490356Y28132D01*
X490393Y28141D01*
X490412D01*
X490430D01*
X490439D01*
Y26311D01*
D02*
G37*
G36*
X490948Y22890D02*
X491077Y22881D01*
X491198D01*
X491299Y22871D01*
X491382Y22862D01*
X491466Y22853D01*
X491530Y22844D01*
X491577Y22834D01*
X491623Y22825D01*
X491660D01*
X491706Y22807D01*
X491715D01*
X491808Y22770D01*
X491891Y22714D01*
X491956Y22659D01*
X492020Y22603D01*
X492076Y22548D01*
X492113Y22501D01*
X492131Y22474D01*
X492141Y22464D01*
X492196Y22372D01*
X492233Y22270D01*
X492270Y22178D01*
X492289Y22085D01*
X492298Y22011D01*
X492307Y21956D01*
Y21901D01*
X492298Y21799D01*
X492289Y21716D01*
X492270Y21632D01*
X492242Y21568D01*
X492224Y21512D01*
X492205Y21475D01*
X492196Y21448D01*
X492187Y21438D01*
X492131Y21374D01*
X492076Y21327D01*
X492020Y21281D01*
X491965Y21253D01*
X491909Y21226D01*
X491872Y21207D01*
X491845Y21198D01*
X491836D01*
X491789Y21189D01*
X491725Y21179D01*
X491641Y21170D01*
X491558Y21161D01*
X491364Y21152D01*
X491151Y21142D01*
X490957Y21133D01*
X490874D01*
X490800D01*
X490735D01*
X490689D01*
X490652D01*
X490643D01*
X488507D01*
Y22899D01*
X490467D01*
X490643D01*
X490800D01*
X490948Y22890D01*
D02*
G37*
G36*
X491355Y15013D02*
X491466Y14994D01*
X491558Y14966D01*
X491632Y14929D01*
X491697Y14892D01*
X491743Y14865D01*
X491771Y14846D01*
X491780Y14837D01*
X491845Y14763D01*
X491900Y14689D01*
X491946Y14606D01*
X491983Y14532D01*
X492002Y14467D01*
X492020Y14412D01*
X492030Y14375D01*
Y14365D01*
X492039Y14328D01*
Y14273D01*
X492048Y14153D01*
X492057Y14005D01*
Y13857D01*
X492067Y13718D01*
Y12294D01*
X490356D01*
Y13635D01*
X490365Y13764D01*
X490375Y13875D01*
Y13986D01*
X490384Y14079D01*
X490393Y14162D01*
X490402Y14227D01*
X490412Y14291D01*
X490421Y14338D01*
X490430Y14412D01*
X490449Y14458D01*
Y14467D01*
X490486Y14560D01*
X490532Y14643D01*
X490578Y14717D01*
X490634Y14772D01*
X490671Y14818D01*
X490708Y14846D01*
X490735Y14865D01*
X490745Y14874D01*
X490828Y14920D01*
X490911Y14957D01*
X490985Y14985D01*
X491068Y15003D01*
X491133Y15013D01*
X491188Y15022D01*
X491225D01*
X491235D01*
X491355Y15013D01*
D02*
G37*
G36*
X488655Y14772D02*
X488757Y14754D01*
X488840Y14717D01*
X488914Y14689D01*
X488979Y14652D01*
X489016Y14615D01*
X489043Y14597D01*
X489053Y14587D01*
X489117Y14513D01*
X489164Y14430D01*
X489201Y14347D01*
X489228Y14264D01*
X489256Y14181D01*
X489265Y14125D01*
X489274Y14088D01*
Y14033D01*
X489284Y13977D01*
Y13691D01*
X489293Y13533D01*
Y12294D01*
X487814D01*
Y13579D01*
X487823Y13681D01*
Y13922D01*
X487832Y13977D01*
Y14079D01*
X487841Y14116D01*
Y14125D01*
X487860Y14236D01*
X487888Y14338D01*
X487925Y14421D01*
X487962Y14495D01*
X487999Y14541D01*
X488036Y14587D01*
X488054Y14606D01*
X488063Y14615D01*
X488137Y14670D01*
X488220Y14707D01*
X488294Y14744D01*
X488368Y14763D01*
X488442Y14772D01*
X488498Y14782D01*
X488535D01*
X488544D01*
X488655Y14772D01*
D02*
G37*
%LPC*%
G36*
X741823Y22158D02*
X739717D01*
X741823D01*
Y20189D01*
X741804Y20457D01*
X741767Y20706D01*
X741702Y20910D01*
X741638Y21095D01*
X741601Y21169D01*
X741564Y21233D01*
X741536Y21289D01*
X741499Y21344D01*
X741480Y21381D01*
X741462Y21409D01*
X741443Y21418D01*
Y21428D01*
X741295Y21594D01*
X741148Y21733D01*
X740990Y21844D01*
X740852Y21927D01*
X740722Y21982D01*
X740620Y22029D01*
X740584Y22038D01*
X740556Y22047D01*
X740537Y22056D01*
X740528D01*
X740454Y22075D01*
X740362Y22093D01*
X740251Y22102D01*
X740140Y22112D01*
X739881Y22130D01*
X739622Y22149D01*
X739382D01*
X739280Y22158D01*
X736922D01*
Y15760D01*
X741823D01*
Y22158D01*
D02*
G37*
G36*
X750652D02*
X749348D01*
X748368Y17683D01*
X747259Y22158D01*
X745706D01*
X744541Y17757D01*
X743579Y22158D01*
X744567D01*
X742257D01*
X743773Y15760D01*
X745179D01*
X746454Y20540D01*
X747712Y15760D01*
X747070D01*
X750652D01*
X749108D01*
X750652Y22158D01*
D02*
G37*
G36*
X754212D02*
X751327D01*
Y15760D01*
X753593D01*
X752621D01*
Y18432D01*
X753037D01*
X753167Y18423D01*
X753278Y18413D01*
X753370Y18395D01*
X753444Y18386D01*
X753490Y18367D01*
X753518Y18358D01*
X753527D01*
X753601Y18321D01*
X753675Y18284D01*
X753740Y18238D01*
X753805Y18201D01*
X753851Y18155D01*
X753888Y18118D01*
X753906Y18099D01*
X753916Y18090D01*
X753953Y18044D01*
X753999Y17997D01*
X754101Y17859D01*
X754212Y17711D01*
X754332Y17544D01*
X754434Y17397D01*
X754480Y17322D01*
X754517Y17267D01*
X754554Y17221D01*
X754581Y17184D01*
X754591Y17156D01*
X754600Y17147D01*
X755524Y15760D01*
X757078D01*
X756292Y17008D01*
X756209Y17138D01*
X756125Y17267D01*
X756051Y17378D01*
X755977Y17480D01*
X755913Y17572D01*
X755857Y17665D01*
X755746Y17803D01*
X755663Y17914D01*
X755608Y17988D01*
X755561Y18034D01*
X755552Y18044D01*
X755451Y18155D01*
X755330Y18256D01*
X755219Y18340D01*
X755108Y18423D01*
X755016Y18487D01*
X754942Y18534D01*
X754886Y18571D01*
X754877Y18580D01*
X754868D01*
X755025Y18608D01*
X755164Y18645D01*
X755293Y18682D01*
X755423Y18728D01*
X755534Y18774D01*
X755635Y18820D01*
X755737Y18866D01*
X755820Y18922D01*
X755894Y18968D01*
X755959Y19014D01*
X756014Y19061D01*
X756051Y19098D01*
X756088Y19125D01*
X756116Y19153D01*
X756125Y19162D01*
X756135Y19172D01*
X756209Y19264D01*
X756273Y19356D01*
X756384Y19560D01*
X756458Y19754D01*
X756505Y19948D01*
X756542Y20115D01*
X756551Y20179D01*
Y20244D01*
X756560Y20290D01*
Y20337D01*
Y20355D01*
Y20364D01*
X756551Y20568D01*
X756514Y20762D01*
X756468Y20928D01*
X756421Y21076D01*
X756366Y21196D01*
X756320Y21289D01*
X756301Y21317D01*
X756283Y21344D01*
X756273Y21354D01*
Y21363D01*
X756162Y21520D01*
X756042Y21649D01*
X755922Y21751D01*
X755802Y21844D01*
X755691Y21899D01*
X755608Y21945D01*
X755552Y21973D01*
X755543Y21982D01*
X755534D01*
X755441Y22010D01*
X755340Y22038D01*
X755108Y22084D01*
X754859Y22112D01*
X754618Y22139D01*
X754498D01*
X754397Y22149D01*
X754295D01*
X754212Y22158D01*
D02*
G37*
G36*
X745169Y14480D02*
X739964D01*
Y7842D01*
D01*
Y14480D01*
X742534D01*
X742266Y14471D01*
X742026Y14443D01*
X741813Y14406D01*
X741628Y14369D01*
X741545Y14342D01*
X741471Y14323D01*
X741416Y14305D01*
X741360Y14286D01*
X741323Y14268D01*
X741295Y14259D01*
X741277Y14249D01*
X741268D01*
X741083Y14157D01*
X740926Y14055D01*
X740787Y13944D01*
X740676Y13842D01*
X740584Y13750D01*
X740528Y13676D01*
X740482Y13621D01*
X740473Y13611D01*
Y13602D01*
X740380Y13445D01*
X740315Y13278D01*
X740269Y13121D01*
X740241Y12983D01*
X740223Y12862D01*
X740204Y12770D01*
Y12733D01*
Y12705D01*
Y12696D01*
Y12687D01*
X740214Y12548D01*
X740232Y12409D01*
X740260Y12289D01*
X740297Y12169D01*
X740389Y11947D01*
X740500Y11753D01*
X740547Y11670D01*
X740602Y11605D01*
X740648Y11540D01*
X740695Y11485D01*
X740732Y11448D01*
X740759Y11420D01*
X740778Y11402D01*
X740787Y11392D01*
X740870Y11328D01*
X740972Y11263D01*
X741074Y11198D01*
X741194Y11143D01*
X741425Y11032D01*
X741665Y10939D01*
X741786Y10902D01*
X741887Y10865D01*
X741989Y10838D01*
X742072Y10810D01*
X742137Y10791D01*
X742192Y10773D01*
X742229Y10764D01*
X742238D01*
X742386Y10727D01*
X742516Y10690D01*
X742636Y10662D01*
X742747Y10634D01*
X742840Y10606D01*
X742923Y10588D01*
X742997Y10560D01*
X743061Y10542D01*
X743117Y10532D01*
X743163Y10514D01*
X743228Y10496D01*
X743265Y10477D01*
X743274D01*
X743394Y10431D01*
X743487Y10385D01*
X743570Y10338D01*
X743635Y10292D01*
X743681Y10255D01*
X743709Y10227D01*
X743727Y10209D01*
X743736Y10200D01*
X743783Y10135D01*
X743820Y10070D01*
X743838Y10006D01*
X743857Y9950D01*
X743866Y9895D01*
X743875Y9848D01*
Y9821D01*
Y9811D01*
X743866Y9682D01*
X743829Y9571D01*
X743773Y9460D01*
X743718Y9368D01*
X743653Y9294D01*
X743607Y9238D01*
X743570Y9201D01*
X743551Y9192D01*
X743422Y9109D01*
X743274Y9044D01*
X743117Y8998D01*
X742969Y8970D01*
X742830Y8952D01*
X742719Y8933D01*
X742618D01*
X742405Y8942D01*
X742220Y8979D01*
X742063Y9025D01*
X741924Y9081D01*
X741813Y9136D01*
X741739Y9183D01*
X741693Y9220D01*
X741674Y9229D01*
X741554Y9358D01*
X741462Y9497D01*
X741379Y9654D01*
X741323Y9811D01*
X741277Y9950D01*
X741240Y10061D01*
X741231Y10098D01*
Y10135D01*
X741221Y10153D01*
Y10163D01*
X739964Y10043D01*
X739992Y9848D01*
X740029Y9663D01*
X740084Y9488D01*
X740130Y9331D01*
X740195Y9183D01*
X740260Y9044D01*
X740325Y8924D01*
X740389Y8813D01*
X740454Y8720D01*
X740519Y8637D01*
X740574Y8563D01*
X740630Y8498D01*
X740667Y8452D01*
X740704Y8425D01*
X740722Y8406D01*
X740732Y8397D01*
X740861Y8295D01*
X741000Y8212D01*
X741148Y8138D01*
X741305Y8073D01*
X741453Y8027D01*
X741610Y7981D01*
X741915Y7916D01*
X742054Y7888D01*
X742183Y7870D01*
X742294Y7861D01*
X742396Y7851D01*
X742479Y7842D01*
X742599D01*
X742895Y7851D01*
X743163Y7879D01*
X743403Y7916D01*
X743505Y7934D01*
X743607Y7962D01*
X743690Y7981D01*
X743764Y7999D01*
X743829Y8018D01*
X743884Y8036D01*
X743931Y8055D01*
X743958Y8064D01*
X743977Y8073D01*
X743986D01*
X744189Y8175D01*
X744356Y8286D01*
X744513Y8397D01*
X744633Y8517D01*
X744726Y8619D01*
X744800Y8711D01*
X744837Y8767D01*
X744855Y8776D01*
Y8785D01*
X744957Y8970D01*
X745040Y9146D01*
X745095Y9321D01*
X745132Y9488D01*
X745151Y9617D01*
X745160Y9682D01*
X745169Y9728D01*
Y9821D01*
X745160Y10043D01*
X745132Y10237D01*
X745086Y10412D01*
X745040Y10560D01*
X744994Y10680D01*
X744948Y10764D01*
X744920Y10819D01*
X744911Y10838D01*
X744809Y10986D01*
X744689Y11115D01*
X744568Y11226D01*
X744457Y11318D01*
X744356Y11392D01*
X744273Y11448D01*
X744217Y11485D01*
X744208Y11494D01*
X744199D01*
X744106Y11540D01*
X744014Y11587D01*
X743792Y11670D01*
X743561Y11744D01*
X743339Y11818D01*
X743237Y11845D01*
X743135Y11873D01*
X743043Y11901D01*
X742969Y11919D01*
X742904Y11938D01*
X742858Y11947D01*
X742821Y11956D01*
X742812D01*
X742645Y12003D01*
X742497Y12040D01*
X742359Y12076D01*
X742229Y12113D01*
X742128Y12150D01*
X742026Y12188D01*
X741943Y12225D01*
X741869Y12252D01*
X741804Y12280D01*
X741758Y12308D01*
X741712Y12326D01*
X741684Y12345D01*
X741638Y12372D01*
X741628Y12382D01*
X741564Y12446D01*
X741517Y12511D01*
X741490Y12576D01*
X741471Y12641D01*
X741453Y12687D01*
X741443Y12733D01*
Y12761D01*
Y12770D01*
X741453Y12862D01*
X741471Y12936D01*
X741508Y13010D01*
X741545Y13066D01*
X741582Y13112D01*
X741619Y13140D01*
X741638Y13158D01*
X741647Y13168D01*
X741776Y13251D01*
X741915Y13306D01*
X742063Y13352D01*
X742202Y13380D01*
X742322Y13399D01*
X742423Y13408D01*
X742516D01*
X742710Y13399D01*
X742877Y13371D01*
X743015Y13334D01*
X743126Y13297D01*
X743219Y13260D01*
X743283Y13223D01*
X743320Y13195D01*
X743329Y13186D01*
X743422Y13094D01*
X743505Y12983D01*
X743570Y12872D01*
X743616Y12751D01*
X743653Y12650D01*
X743672Y12566D01*
X743690Y12502D01*
Y12493D01*
Y12483D01*
X744985Y12530D01*
X744975Y12696D01*
X744948Y12844D01*
X744911Y12992D01*
X744864Y13121D01*
X744818Y13251D01*
X744763Y13371D01*
X744707Y13473D01*
X744652Y13574D01*
X744587Y13657D01*
X744531Y13731D01*
X744476Y13796D01*
X744430Y13852D01*
X744393Y13889D01*
X744365Y13916D01*
X744346Y13935D01*
X744337Y13944D01*
X744217Y14037D01*
X744088Y14120D01*
X743949Y14194D01*
X743801Y14259D01*
X743653Y14305D01*
X743505Y14351D01*
X743209Y14416D01*
X743071Y14434D01*
X742950Y14453D01*
X742830Y14462D01*
X742729Y14471D01*
X742645Y14480D01*
X745169D01*
D02*
G37*
G36*
X754036Y14360D02*
X752732D01*
X751752Y9885D01*
X750643Y14360D01*
X749090D01*
X747925Y9959D01*
X746963Y14360D01*
X745641D01*
Y7962D01*
X752492D01*
X754036Y14360D01*
D01*
D02*
G37*
%LPD*%
G36*
X739271Y21067D02*
X739354D01*
X739437Y21058D01*
X739557D01*
X739650Y21049D01*
X739715Y21039D01*
X739752Y21030D01*
X739761D01*
X739872Y21002D01*
X739973Y20965D01*
X740066Y20919D01*
X740140Y20864D01*
X740195Y20817D01*
X740241Y20780D01*
X740269Y20753D01*
X740278Y20743D01*
X740352Y20651D01*
X740399Y20559D01*
X740436Y20457D01*
X740463Y20364D01*
X740482Y20281D01*
X740491Y20216D01*
Y20179D01*
Y20161D01*
X740482Y20059D01*
X740473Y19967D01*
X740445Y19884D01*
X740417Y19810D01*
X740389Y19745D01*
X740371Y19699D01*
X740352Y19671D01*
X740343Y19662D01*
X740288Y19588D01*
X740214Y19523D01*
X740149Y19468D01*
X740084Y19421D01*
X740029Y19394D01*
X739983Y19366D01*
X739946Y19356D01*
X739936Y19347D01*
X739881Y19329D01*
X739816Y19319D01*
X739668Y19292D01*
X739502Y19273D01*
X739335Y19264D01*
X739169D01*
X739104Y19255D01*
X738217D01*
Y21076D01*
X739178D01*
X739271Y21067D01*
D02*
G37*
G36*
X741823Y15760D02*
X738217D01*
Y18173D01*
X739363D01*
X739502Y18182D01*
X739631D01*
X739752Y18192D01*
X739862Y18201D01*
X739964Y18210D01*
X740047Y18219D01*
X740130D01*
X740195Y18229D01*
X740260Y18238D01*
X740306Y18247D01*
X740343D01*
X740371Y18256D01*
X740389D01*
X740519Y18293D01*
X740639Y18340D01*
X740750Y18386D01*
X740852Y18441D01*
X740935Y18487D01*
X741000Y18524D01*
X741037Y18552D01*
X741055Y18561D01*
X741175Y18654D01*
X741277Y18756D01*
X741379Y18866D01*
X741453Y18959D01*
X741517Y19051D01*
X741564Y19125D01*
X741591Y19172D01*
X741601Y19190D01*
X741674Y19347D01*
X741730Y19514D01*
X741767Y19689D01*
X741795Y19847D01*
X741813Y19976D01*
Y20041D01*
X741823Y20087D01*
Y15760D01*
D02*
G37*
G36*
X754184Y21067D02*
X754387D01*
X754470Y21058D01*
X754526D01*
X754554Y21049D01*
X754563D01*
X754674Y21021D01*
X754776Y20984D01*
X754859Y20947D01*
X754923Y20900D01*
X754979Y20854D01*
X755025Y20827D01*
X755044Y20799D01*
X755053Y20790D01*
X755108Y20716D01*
X755155Y20623D01*
X755182Y20540D01*
X755210Y20457D01*
X755219Y20383D01*
X755229Y20327D01*
Y20290D01*
Y20272D01*
X755219Y20170D01*
X755210Y20078D01*
X755182Y19994D01*
X755164Y19921D01*
X755136Y19865D01*
X755108Y19828D01*
X755099Y19800D01*
X755090Y19791D01*
X755034Y19726D01*
X754979Y19671D01*
X754859Y19588D01*
X754812Y19560D01*
X754766Y19541D01*
X754739Y19523D01*
X754729D01*
X754683Y19514D01*
X754609Y19495D01*
X754535Y19486D01*
X754452Y19477D01*
X754258Y19468D01*
X754064Y19458D01*
X753879Y19449D01*
X752621D01*
Y21076D01*
X754101D01*
X754184Y21067D01*
D02*
G37*
G36*
X751096Y7962D02*
X748562D01*
X749838Y12742D01*
X751096Y7962D01*
D02*
G37*
G36*
X747157D02*
X745641D01*
Y14360D01*
X747157Y7962D01*
D02*
G37*
%LPC*%
G36*
X840296Y258199D02*
X838355D01*
X837217Y253826D01*
X836071Y258199D01*
X834139D01*
Y251801D01*
X835331D01*
D01*
X835594D01*
X835331D01*
Y256831D01*
X836589Y251801D01*
X837837D01*
X839094Y256831D01*
X839104Y251801D01*
X840296D01*
Y258199D01*
D02*
G37*
G36*
X830588D02*
X827704D01*
Y251801D01*
X828998D01*
Y254473D01*
X829414D01*
X829544Y254464D01*
X829655Y254454D01*
X829747Y254436D01*
X829821Y254427D01*
X829867Y254408D01*
X829895Y254399D01*
X829904D01*
X829978Y254362D01*
X830052Y254325D01*
X830117Y254279D01*
X830182Y254242D01*
X830228Y254196D01*
X830265Y254159D01*
X830283Y254140D01*
X830293Y254131D01*
X830330Y254085D01*
X830376Y254039D01*
X830477Y253900D01*
X830588Y253752D01*
X830709Y253585D01*
X830810Y253438D01*
X830856Y253363D01*
X830893Y253308D01*
X830930Y253262D01*
X830958Y253225D01*
X830967Y253197D01*
X830977Y253188D01*
X831901Y251801D01*
X833455D01*
X832669Y253049D01*
X832585Y253179D01*
X832502Y253308D01*
X832428Y253419D01*
X832354Y253521D01*
X832290Y253613D01*
X832234Y253706D01*
X832123Y253844D01*
X832040Y253955D01*
X831984Y254029D01*
X831938Y254075D01*
X831929Y254085D01*
X831827Y254196D01*
X831707Y254297D01*
X831596Y254380D01*
X831485Y254464D01*
X831393Y254529D01*
X831319Y254575D01*
X831263Y254612D01*
X831254Y254621D01*
X831245D01*
X831402Y254649D01*
X831541Y254686D01*
X831670Y254723D01*
X831800Y254769D01*
X831910Y254815D01*
X832012Y254861D01*
X832114Y254907D01*
X832197Y254963D01*
X832271Y255009D01*
X832336Y255056D01*
X832391Y255102D01*
X832428Y255139D01*
X832465Y255166D01*
X832493Y255194D01*
X832502Y255203D01*
X832512Y255213D01*
X832585Y255305D01*
X832650Y255398D01*
X832761Y255601D01*
X832835Y255795D01*
X832881Y255989D01*
X832918Y256156D01*
X832927Y256220D01*
Y256285D01*
X832937Y256331D01*
Y256378D01*
Y256396D01*
Y256405D01*
X832927Y256609D01*
X832890Y256803D01*
X832844Y256969D01*
X832798Y257117D01*
X832743Y257237D01*
X832696Y257330D01*
X832678Y257358D01*
X832659Y257385D01*
X832650Y257395D01*
Y257404D01*
X832539Y257561D01*
X832419Y257691D01*
X832299Y257792D01*
X832179Y257885D01*
X832068Y257940D01*
X831984Y257986D01*
X831929Y258014D01*
X831920Y258023D01*
X831910D01*
X831818Y258051D01*
X831716Y258079D01*
X831485Y258125D01*
X831236Y258153D01*
X830995Y258181D01*
X830875D01*
X830773Y258190D01*
X830672D01*
X830588Y258199D01*
D02*
G37*
%LPD*%
G36*
X830561Y257108D02*
X830764D01*
X830847Y257099D01*
X830903D01*
X830930Y257090D01*
X830940D01*
X831051Y257062D01*
X831152Y257025D01*
X831236Y256988D01*
X831300Y256942D01*
X831356Y256895D01*
X831402Y256868D01*
X831421Y256840D01*
X831430Y256831D01*
X831485Y256757D01*
X831531Y256664D01*
X831559Y256581D01*
X831587Y256498D01*
X831596Y256424D01*
X831605Y256368D01*
Y256331D01*
Y256313D01*
X831596Y256211D01*
X831587Y256119D01*
X831559Y256035D01*
X831541Y255961D01*
X831513Y255906D01*
X831485Y255869D01*
X831476Y255841D01*
X831467Y255832D01*
X831411Y255767D01*
X831356Y255712D01*
X831236Y255629D01*
X831189Y255601D01*
X831143Y255583D01*
X831115Y255564D01*
X831106D01*
X831060Y255555D01*
X830986Y255536D01*
X830912Y255527D01*
X830829Y255518D01*
X830635Y255508D01*
X830441Y255499D01*
X830256Y255490D01*
X828998D01*
Y257117D01*
X830477D01*
X830561Y257108D01*
D02*
G37*
%LPC*%
G36*
X432442Y417319D02*
X429290D01*
X432378D01*
X432100Y417310D01*
X431832Y417282D01*
X431601Y417236D01*
X431398Y417190D01*
X431314Y417162D01*
X431231Y417144D01*
X431166Y417125D01*
X431111Y417097D01*
X431065Y417088D01*
X431028Y417070D01*
X431009Y417060D01*
X431000D01*
X430834Y416986D01*
X430676Y416894D01*
X430538Y416792D01*
X430418Y416700D01*
X430316Y416617D01*
X430233Y416543D01*
X430186Y416496D01*
X430177Y416487D01*
X430168Y416478D01*
X430038Y416330D01*
X429918Y416173D01*
X429817Y416034D01*
X429733Y415895D01*
X429669Y415775D01*
X429613Y415683D01*
X429604Y415646D01*
X429585Y415618D01*
X429576Y415609D01*
Y415600D01*
X429484Y415341D01*
X429410Y415063D01*
X429364Y414786D01*
X429327Y414527D01*
X429317Y414407D01*
X429308Y414296D01*
X429299Y414203D01*
Y414120D01*
X429290Y414046D01*
Y414120D01*
Y410681D01*
Y413954D01*
X429299Y413676D01*
X429327Y413408D01*
X429364Y413159D01*
X429419Y412928D01*
X429484Y412715D01*
X429558Y412521D01*
X429632Y412336D01*
X429715Y412179D01*
X429789Y412031D01*
X429863Y411911D01*
X429937Y411800D01*
X430001Y411707D01*
X430057Y411642D01*
X430094Y411587D01*
X430122Y411559D01*
X430131Y411550D01*
X430297Y411393D01*
X430473Y411263D01*
X430649Y411143D01*
X430843Y411051D01*
X431028Y410967D01*
X431222Y410894D01*
X431398Y410838D01*
X431582Y410792D01*
X431749Y410755D01*
X431906Y410727D01*
X432045Y410709D01*
X432165Y410699D01*
X432257Y410690D01*
X432331Y410681D01*
X429290D01*
X432396D01*
X432655Y410690D01*
X432895Y410718D01*
X433126Y410764D01*
X433339Y410820D01*
X433543Y410884D01*
X433727Y410958D01*
X433894Y411032D01*
X434051Y411115D01*
X434180Y411199D01*
X434301Y411273D01*
X434402Y411347D01*
X434486Y411411D01*
X434560Y411467D01*
X434606Y411513D01*
X434633Y411541D01*
X434643Y411550D01*
X434791Y411726D01*
X434920Y411911D01*
X435040Y412105D01*
X435133Y412299D01*
X435216Y412502D01*
X435290Y412706D01*
X435345Y412909D01*
X435392Y413103D01*
X435419Y413279D01*
X435447Y413455D01*
X435466Y413602D01*
X435484Y413732D01*
Y413843D01*
X435493Y413926D01*
Y410967D01*
Y413991D01*
X435484Y414277D01*
X435456Y414546D01*
X435419Y414795D01*
X435364Y415036D01*
X435299Y415248D01*
X435225Y415452D01*
X435151Y415636D01*
X435068Y415794D01*
X434985Y415942D01*
X434911Y416071D01*
X434837Y416182D01*
X434772Y416274D01*
X434726Y416339D01*
X434680Y416395D01*
X434652Y416422D01*
X434643Y416432D01*
X434476Y416589D01*
X434301Y416727D01*
X434116Y416848D01*
X433931Y416949D01*
X433737Y417033D01*
X433552Y417107D01*
X433367Y417162D01*
X433191Y417208D01*
X433025Y417245D01*
X432868Y417273D01*
X432729Y417291D01*
X432609Y417310D01*
X432516D01*
X432442Y417319D01*
D02*
G37*
G36*
X425490D02*
X422337D01*
X425425D01*
X425148Y417310D01*
X424879Y417282D01*
X424648Y417236D01*
X424445Y417190D01*
X424362Y417162D01*
X424278Y417144D01*
X424214Y417125D01*
X424158Y417097D01*
X424112Y417088D01*
X424075Y417070D01*
X424057Y417060D01*
X424047D01*
X423881Y416986D01*
X423724Y416894D01*
X423585Y416792D01*
X423465Y416700D01*
X423363Y416617D01*
X423280Y416543D01*
X423234Y416496D01*
X423224Y416487D01*
X423215Y416478D01*
X423086Y416330D01*
X422966Y416173D01*
X422864Y416034D01*
X422781Y415895D01*
X422716Y415775D01*
X422660Y415683D01*
X422651Y415646D01*
X422633Y415618D01*
X422623Y415609D01*
Y415600D01*
X422531Y415341D01*
X422457Y415063D01*
X422411Y414786D01*
X422374Y414527D01*
X422365Y414407D01*
X422355Y414296D01*
X422346Y414203D01*
Y414120D01*
X422337Y414046D01*
Y413954D01*
X422346Y413676D01*
X422374Y413408D01*
X422411Y413159D01*
X422466Y412928D01*
X422531Y412715D01*
X422605Y412521D01*
X422679Y412336D01*
X422762Y412179D01*
X422836Y412031D01*
X422910Y411911D01*
X422984Y411800D01*
X423049Y411707D01*
X423104Y411642D01*
X423141Y411587D01*
X423169Y411559D01*
X423178Y411550D01*
X423345Y411393D01*
X423520Y411263D01*
X423696Y411143D01*
X423890Y411051D01*
X424075Y410967D01*
X424269Y410894D01*
X424445Y410838D01*
X424630Y410792D01*
X424796Y410755D01*
X424953Y410727D01*
X425092Y410709D01*
X425212Y410699D01*
X425305Y410690D01*
X425379Y410681D01*
X422337D01*
X425443D01*
X425702Y410690D01*
X425943Y410718D01*
X426174Y410764D01*
X426386Y410820D01*
X426590Y410884D01*
X426775Y410958D01*
X426941Y411032D01*
X427098Y411115D01*
X427228Y411199D01*
X427348Y411273D01*
X427450Y411347D01*
X427533Y411411D01*
X427607Y411467D01*
X427653Y411513D01*
X427681Y411541D01*
X427690Y411550D01*
X427838Y411726D01*
X427967Y411911D01*
X428088Y412105D01*
X428180Y412299D01*
X428263Y412502D01*
X428337Y412706D01*
X428393Y412909D01*
X428439Y413103D01*
X428467Y413279D01*
X428494Y413455D01*
X428513Y413602D01*
X428531Y413732D01*
Y413843D01*
X428541Y413926D01*
Y410810D01*
Y413991D01*
D01*
X428531Y414277D01*
X428504Y414546D01*
X428467Y414795D01*
X428411Y415036D01*
X428346Y415248D01*
X428273Y415452D01*
X428199Y415636D01*
X428115Y415794D01*
X428032Y415942D01*
X427958Y416071D01*
X427884Y416182D01*
X427820Y416274D01*
X427773Y416339D01*
X427727Y416395D01*
X427699Y416422D01*
X427690Y416432D01*
X427524Y416589D01*
X427348Y416727D01*
X427163Y416848D01*
X426978Y416949D01*
X426784Y417033D01*
X426599Y417107D01*
X426414Y417162D01*
X426239Y417208D01*
X426072Y417245D01*
X425915Y417273D01*
X425776Y417291D01*
X425656Y417310D01*
X425564D01*
X425490Y417319D01*
D02*
G37*
G36*
X441133Y417199D02*
X436057D01*
Y410801D01*
Y416117D01*
X437953D01*
Y410801D01*
X439247D01*
D01*
X441133D01*
X439247D01*
Y416117D01*
X441133D01*
Y417199D01*
D02*
G37*
G36*
X421505D02*
X416152D01*
Y410801D01*
X418925D01*
X419082Y410810D01*
X419360D01*
X419471Y410820D01*
X419646D01*
X419711Y410829D01*
X419804D01*
X419841Y410838D01*
X419878D01*
X420062Y410866D01*
X420229Y410912D01*
X420377Y410958D01*
X420506Y411014D01*
X420608Y411060D01*
X420682Y411106D01*
X420728Y411134D01*
X420747Y411143D01*
X420876Y411245D01*
X420978Y411356D01*
X421079Y411457D01*
X421153Y411568D01*
X421218Y411661D01*
X421264Y411735D01*
X421292Y411781D01*
X421301Y411800D01*
X421366Y411957D01*
X421422Y412105D01*
X421459Y412253D01*
X421477Y412382D01*
X421496Y412493D01*
X421505Y412576D01*
Y412650D01*
X421496Y412854D01*
X421459Y413038D01*
X421403Y413196D01*
X421348Y413344D01*
X421292Y413455D01*
X421237Y413538D01*
X421200Y413593D01*
X421190Y413612D01*
X421061Y413760D01*
X420922Y413880D01*
X420765Y413982D01*
X420626Y414055D01*
X420497Y414120D01*
X420386Y414166D01*
X420349Y414176D01*
X420321Y414185D01*
X420303Y414194D01*
X420294D01*
X420442Y414277D01*
X420571Y414361D01*
X420682Y414462D01*
X420774Y414546D01*
X420839Y414629D01*
X420895Y414693D01*
X420932Y414740D01*
X420941Y414758D01*
X421024Y414906D01*
X421089Y415045D01*
X421126Y415183D01*
X421163Y415313D01*
X421181Y415424D01*
X421190Y415507D01*
Y415563D01*
Y415572D01*
Y415581D01*
X421181Y415729D01*
X421163Y415877D01*
X421126Y415997D01*
X421089Y416108D01*
X421052Y416200D01*
X421015Y416274D01*
X420996Y416311D01*
X420987Y416330D01*
X420913Y416450D01*
X420830Y416552D01*
X420747Y416644D01*
X420673Y416727D01*
X420599Y416783D01*
X420543Y416829D01*
X420506Y416857D01*
X420497Y416866D01*
X420386Y416940D01*
X420266Y416996D01*
X420155Y417042D01*
X420053Y417079D01*
X419961Y417107D01*
X419896Y417125D01*
X419850Y417134D01*
X419831D01*
X419674Y417153D01*
X419498Y417171D01*
X419314Y417180D01*
X419129Y417190D01*
X418962Y417199D01*
X421505D01*
D02*
G37*
G36*
X445848Y417236D02*
X441697D01*
X443768D01*
X443602Y417227D01*
X443445Y417208D01*
X443287Y417171D01*
X443149Y417134D01*
X443019Y417079D01*
X442899Y417023D01*
X442797Y416968D01*
X442696Y416903D01*
X442612Y416838D01*
X442529Y416783D01*
X442464Y416727D01*
X442418Y416672D01*
X442372Y416635D01*
X442344Y416598D01*
X442326Y416580D01*
X442317Y416570D01*
X442206Y416413D01*
X442113Y416228D01*
X442030Y416034D01*
X441956Y415831D01*
X441901Y415618D01*
X441845Y415396D01*
X441808Y415183D01*
X441771Y414971D01*
X441753Y414767D01*
X441734Y414582D01*
X441716Y414407D01*
X441706Y414259D01*
X441697Y414139D01*
Y413963D01*
X441706Y413630D01*
X441725Y413325D01*
X441753Y413038D01*
X441790Y412780D01*
X441827Y412548D01*
X441873Y412336D01*
X441928Y412151D01*
X441984Y411984D01*
X442030Y411846D01*
X442085Y411716D01*
X442132Y411615D01*
X442178Y411531D01*
X442206Y411476D01*
X442233Y411430D01*
X442252Y411402D01*
X442261Y411393D01*
X442372Y411263D01*
X442492Y411162D01*
X442612Y411060D01*
X442742Y410986D01*
X442862Y410912D01*
X442991Y410857D01*
X443112Y410810D01*
X443232Y410773D01*
X443343Y410736D01*
X443445Y410718D01*
X443537Y410699D01*
X443611Y410690D01*
X443676D01*
X443731Y410681D01*
X441697D01*
X445848D01*
Y413991D01*
Y413954D01*
X445839Y414287D01*
X445821Y414592D01*
X445793Y414869D01*
X445747Y415128D01*
X445700Y415368D01*
X445654Y415581D01*
X445590Y415775D01*
X445534Y415942D01*
X445479Y416099D01*
X445423Y416219D01*
X445368Y416330D01*
X445321Y416422D01*
X445275Y416487D01*
X445247Y416533D01*
X445229Y416561D01*
X445220Y416570D01*
X445118Y416690D01*
X445007Y416792D01*
X444887Y416875D01*
X444767Y416959D01*
X444646Y417023D01*
X444526Y417070D01*
X444415Y417116D01*
X444295Y417153D01*
X444184Y417180D01*
X444092Y417199D01*
X443999Y417217D01*
X443925Y417227D01*
X443861Y417236D01*
X445848D01*
D02*
G37*
%LPD*%
G36*
X432544Y416210D02*
X432683Y416191D01*
X432812Y416173D01*
X432932Y416136D01*
X433145Y416043D01*
X433247Y415997D01*
X433330Y415951D01*
X433413Y415895D01*
X433478Y415849D01*
X433533Y415803D01*
X433589Y415757D01*
X433626Y415720D01*
X433653Y415701D01*
X433663Y415683D01*
X433672Y415673D01*
X433755Y415563D01*
X433838Y415442D01*
X433903Y415322D01*
X433959Y415183D01*
X434042Y414906D01*
X434097Y414638D01*
X434125Y414518D01*
X434134Y414398D01*
X434143Y414296D01*
X434153Y414203D01*
X434162Y414120D01*
Y414065D01*
Y414028D01*
Y414019D01*
X434153Y413815D01*
X434143Y413621D01*
X434116Y413445D01*
X434088Y413288D01*
X434051Y413131D01*
X434005Y412992D01*
X433959Y412872D01*
X433912Y412761D01*
X433866Y412659D01*
X433820Y412576D01*
X433783Y412502D01*
X433737Y412438D01*
X433709Y412391D01*
X433681Y412364D01*
X433672Y412345D01*
X433663Y412336D01*
X433570Y412234D01*
X433469Y412151D01*
X433358Y412077D01*
X433256Y412012D01*
X433145Y411966D01*
X433043Y411920D01*
X432840Y411855D01*
X432664Y411809D01*
X432590Y411800D01*
X432525Y411790D01*
X432470Y411781D01*
X432396D01*
X432257Y411790D01*
X432119Y411809D01*
X431989Y411837D01*
X431869Y411874D01*
X431647Y411957D01*
X431471Y412068D01*
X431388Y412114D01*
X431324Y412169D01*
X431259Y412216D01*
X431213Y412262D01*
X431176Y412290D01*
X431148Y412317D01*
X431129Y412336D01*
X431120Y412345D01*
X431037Y412456D01*
X430954Y412576D01*
X430889Y412706D01*
X430834Y412844D01*
X430741Y413112D01*
X430686Y413381D01*
X430667Y413510D01*
X430649Y413621D01*
X430639Y413732D01*
X430630Y413824D01*
X430621Y413898D01*
Y413954D01*
Y413991D01*
Y414000D01*
X430630Y414203D01*
X430639Y414388D01*
X430667Y414564D01*
X430695Y414730D01*
X430732Y414878D01*
X430769Y415017D01*
X430815Y415137D01*
X430861Y415248D01*
X430908Y415350D01*
X430954Y415433D01*
X430991Y415498D01*
X431028Y415563D01*
X431055Y415609D01*
X431083Y415636D01*
X431092Y415655D01*
X431102Y415664D01*
X431194Y415766D01*
X431296Y415849D01*
X431407Y415923D01*
X431508Y415988D01*
X431619Y416043D01*
X431730Y416080D01*
X431934Y416154D01*
X432119Y416191D01*
X432193Y416200D01*
X432267Y416210D01*
X432322Y416219D01*
X432396D01*
X432544Y416210D01*
D02*
G37*
G36*
X425591D02*
X425730Y416191D01*
X425859Y416173D01*
X425980Y416136D01*
X426192Y416043D01*
X426294Y415997D01*
X426377Y415951D01*
X426460Y415895D01*
X426525Y415849D01*
X426581Y415803D01*
X426636Y415757D01*
X426673Y415720D01*
X426701Y415701D01*
X426710Y415683D01*
X426719Y415673D01*
X426802Y415563D01*
X426886Y415442D01*
X426950Y415322D01*
X427006Y415183D01*
X427089Y414906D01*
X427145Y414638D01*
X427172Y414518D01*
X427182Y414398D01*
X427191Y414296D01*
X427200Y414203D01*
X427209Y414120D01*
Y414065D01*
Y414028D01*
Y414019D01*
X427200Y413815D01*
X427191Y413621D01*
X427163Y413445D01*
X427135Y413288D01*
X427098Y413131D01*
X427052Y412992D01*
X427006Y412872D01*
X426960Y412761D01*
X426913Y412659D01*
X426867Y412576D01*
X426830Y412502D01*
X426784Y412438D01*
X426756Y412391D01*
X426729Y412364D01*
X426719Y412345D01*
X426710Y412336D01*
X426618Y412234D01*
X426516Y412151D01*
X426405Y412077D01*
X426303Y412012D01*
X426192Y411966D01*
X426091Y411920D01*
X425887Y411855D01*
X425712Y411809D01*
X425638Y411800D01*
X425573Y411790D01*
X425517Y411781D01*
X425443D01*
X425305Y411790D01*
X425166Y411809D01*
X425037Y411837D01*
X424916Y411874D01*
X424695Y411957D01*
X424519Y412068D01*
X424436Y412114D01*
X424371Y412169D01*
X424306Y412216D01*
X424260Y412262D01*
X424223Y412290D01*
X424195Y412317D01*
X424177Y412336D01*
X424168Y412345D01*
X424084Y412456D01*
X424001Y412576D01*
X423936Y412706D01*
X423881Y412844D01*
X423788Y413112D01*
X423733Y413381D01*
X423714Y413510D01*
X423696Y413621D01*
X423687Y413732D01*
X423677Y413824D01*
X423668Y413898D01*
Y413954D01*
Y413991D01*
Y414000D01*
X423677Y414203D01*
X423687Y414388D01*
X423714Y414564D01*
X423742Y414730D01*
X423779Y414878D01*
X423816Y415017D01*
X423862Y415137D01*
X423909Y415248D01*
X423955Y415350D01*
X424001Y415433D01*
X424038Y415498D01*
X424075Y415563D01*
X424103Y415609D01*
X424131Y415636D01*
X424140Y415655D01*
X424149Y415664D01*
X424241Y415766D01*
X424343Y415849D01*
X424454Y415923D01*
X424556Y415988D01*
X424667Y416043D01*
X424778Y416080D01*
X424981Y416154D01*
X425166Y416191D01*
X425240Y416200D01*
X425314Y416210D01*
X425369Y416219D01*
X425443D01*
X425591Y416210D01*
D02*
G37*
G36*
X418833Y416127D02*
X419073D01*
X419129Y416117D01*
X419230D01*
X419267Y416108D01*
X419277D01*
X419388Y416090D01*
X419489Y416062D01*
X419572Y416025D01*
X419646Y415988D01*
X419693Y415951D01*
X419739Y415914D01*
X419757Y415895D01*
X419767Y415886D01*
X419822Y415812D01*
X419859Y415729D01*
X419896Y415655D01*
X419915Y415581D01*
X419924Y415507D01*
X419933Y415452D01*
Y415415D01*
Y415405D01*
X419924Y415294D01*
X419905Y415193D01*
X419868Y415109D01*
X419841Y415036D01*
X419804Y414971D01*
X419767Y414934D01*
X419748Y414906D01*
X419739Y414897D01*
X419665Y414832D01*
X419582Y414786D01*
X419498Y414749D01*
X419415Y414721D01*
X419332Y414693D01*
X419277Y414684D01*
X419240Y414675D01*
X419184D01*
X419129Y414666D01*
X418842D01*
X418685Y414656D01*
X417446D01*
Y416136D01*
X418731D01*
X418833Y416127D01*
D02*
G37*
G36*
X418916Y413584D02*
X419027Y413575D01*
X419138D01*
X419230Y413565D01*
X419314Y413556D01*
X419378Y413547D01*
X419443Y413538D01*
X419489Y413529D01*
X419563Y413519D01*
X419609Y413501D01*
X419619D01*
X419711Y413464D01*
X419794Y413418D01*
X419868Y413371D01*
X419924Y413316D01*
X419970Y413279D01*
X419998Y413242D01*
X420016Y413214D01*
X420025Y413205D01*
X420072Y413122D01*
X420109Y413038D01*
X420136Y412965D01*
X420155Y412881D01*
X420164Y412817D01*
X420173Y412761D01*
Y412724D01*
Y412715D01*
X420164Y412595D01*
X420146Y412484D01*
X420118Y412391D01*
X420081Y412317D01*
X420044Y412253D01*
X420016Y412206D01*
X419998Y412179D01*
X419989Y412169D01*
X419915Y412105D01*
X419841Y412049D01*
X419757Y412003D01*
X419683Y411966D01*
X419619Y411948D01*
X419563Y411929D01*
X419526Y411920D01*
X419517D01*
X419480Y411911D01*
X419425D01*
X419304Y411901D01*
X419156Y411892D01*
X419008D01*
X418870Y411883D01*
X417446D01*
Y413593D01*
X418787D01*
X418916Y413584D01*
D02*
G37*
G36*
X443851Y416210D02*
X443925Y416200D01*
X443990Y416173D01*
X444045Y416145D01*
X444092Y416117D01*
X444129Y416099D01*
X444147Y416080D01*
X444156Y416071D01*
X444212Y416006D01*
X444267Y415923D01*
X444314Y415831D01*
X444360Y415738D01*
X444388Y415646D01*
X444415Y415572D01*
X444425Y415526D01*
X444434Y415516D01*
Y415507D01*
X444452Y415424D01*
X444471Y415322D01*
X444489Y415202D01*
X444508Y415082D01*
X444526Y414832D01*
X444536Y414573D01*
X444545Y414453D01*
Y414333D01*
X444554Y414231D01*
Y414139D01*
Y414065D01*
Y414000D01*
Y413963D01*
Y413954D01*
Y413750D01*
X444545Y413556D01*
Y413381D01*
X444536Y413223D01*
X444526Y413075D01*
X444517Y412946D01*
X444499Y412826D01*
X444489Y412724D01*
X444480Y412632D01*
X444462Y412558D01*
X444452Y412493D01*
X444443Y412438D01*
X444434Y412401D01*
Y412364D01*
X444425Y412354D01*
Y412345D01*
X444388Y412216D01*
X444341Y412114D01*
X444295Y412021D01*
X444258Y411957D01*
X444221Y411901D01*
X444184Y411864D01*
X444166Y411846D01*
X444156Y411837D01*
X444092Y411790D01*
X444027Y411753D01*
X443962Y411735D01*
X443898Y411716D01*
X443851Y411707D01*
X443805Y411698D01*
X443768D01*
X443685Y411707D01*
X443611Y411716D01*
X443546Y411744D01*
X443491Y411772D01*
X443445Y411790D01*
X443408Y411818D01*
X443389Y411827D01*
X443380Y411837D01*
X443324Y411901D01*
X443269Y411984D01*
X443223Y412077D01*
X443176Y412169D01*
X443149Y412253D01*
X443121Y412327D01*
X443112Y412373D01*
X443102Y412391D01*
X443084Y412484D01*
X443065Y412585D01*
X443047Y412696D01*
X443038Y412817D01*
X443019Y413075D01*
X443010Y413334D01*
X443001Y413455D01*
Y413575D01*
X442991Y413676D01*
Y413769D01*
Y413843D01*
Y413908D01*
Y413945D01*
Y413954D01*
Y414157D01*
X443001Y414351D01*
Y414518D01*
X443010Y414684D01*
X443019Y414823D01*
X443028Y414962D01*
X443038Y415073D01*
X443056Y415183D01*
X443065Y415276D01*
X443075Y415350D01*
X443084Y415415D01*
X443093Y415470D01*
X443102Y415507D01*
Y415544D01*
X443112Y415553D01*
Y415563D01*
X443149Y415692D01*
X443195Y415803D01*
X443232Y415886D01*
X443278Y415960D01*
X443315Y416006D01*
X443343Y416043D01*
X443361Y416062D01*
X443371Y416071D01*
X443435Y416117D01*
X443509Y416154D01*
X443574Y416182D01*
X443639Y416200D01*
X443685Y416210D01*
X443731Y416219D01*
X443768D01*
X443851Y416210D01*
D02*
G37*
G36*
X445848Y410681D02*
X443768D01*
X443935Y410690D01*
X444092Y410709D01*
X444249Y410746D01*
X444388Y410783D01*
X444517Y410829D01*
X444637Y410884D01*
X444739Y410949D01*
X444841Y411014D01*
X444924Y411069D01*
X445007Y411134D01*
X445072Y411189D01*
X445127Y411236D01*
X445164Y411273D01*
X445192Y411310D01*
X445210Y411328D01*
X445220Y411337D01*
X445331Y411494D01*
X445423Y411679D01*
X445516Y411874D01*
X445580Y412086D01*
X445645Y412299D01*
X445691Y412511D01*
X445737Y412733D01*
X445774Y412946D01*
X445793Y413149D01*
X445812Y413334D01*
X445830Y413510D01*
X445839Y413658D01*
X445848Y413778D01*
Y410681D01*
D02*
G37*
%LPC*%
G36*
X739103Y543785D02*
X738522D01*
X737979Y541199D01*
X738483D01*
X738527Y541204D01*
X738621D01*
X738727Y541210D01*
X738826Y541221D01*
X738926Y541232D01*
X738970Y541237D01*
X739009Y541249D01*
X739020Y541254D01*
X739042Y541260D01*
X739081Y541276D01*
X739131Y541293D01*
X739186Y541321D01*
X739247Y541354D01*
X739308Y541398D01*
X739369Y541448D01*
X739374D01*
X739380Y541459D01*
X739408Y541487D01*
X739452Y541536D01*
X739507Y541597D01*
X739574Y541680D01*
X739640Y541780D01*
X739707Y541891D01*
X739768Y542013D01*
Y542018D01*
X739773Y542029D01*
X739784Y542052D01*
X739795Y542074D01*
X739806Y542112D01*
X739817Y542151D01*
X739834Y542195D01*
X739851Y542251D01*
X739862Y542306D01*
X739878Y542373D01*
X739906Y542517D01*
X739923Y542677D01*
X739928Y542849D01*
Y542854D01*
Y542865D01*
Y542888D01*
Y542915D01*
X739923Y542948D01*
Y542987D01*
X739911Y543081D01*
X739895Y543181D01*
X739873Y543281D01*
X739839Y543380D01*
X739795Y543464D01*
X739790Y543475D01*
X739773Y543497D01*
X739745Y543530D01*
X739707Y543574D01*
X739657Y543619D01*
X739601Y543663D01*
X739535Y543702D01*
X739463Y543735D01*
X739457D01*
X739435Y543740D01*
X739402Y543751D01*
X739352Y543763D01*
X739286Y543768D01*
X739203Y543779D01*
X739103Y543785D01*
D02*
G37*
G36*
X815155Y468319D02*
X809950D01*
D01*
X812520D01*
X812252Y468310D01*
X812012Y468282D01*
X811799Y468245D01*
X811614Y468208D01*
X811531Y468181D01*
X811457Y468162D01*
X811402Y468144D01*
X811346Y468125D01*
X811309Y468106D01*
X811281Y468097D01*
X811263Y468088D01*
X811254D01*
X811069Y467996D01*
X810912Y467894D01*
X810773Y467783D01*
X810662Y467681D01*
X810570Y467589D01*
X810514Y467515D01*
X810468Y467459D01*
X810459Y467450D01*
Y467441D01*
X810366Y467284D01*
X810301Y467117D01*
X810255Y466960D01*
X810227Y466821D01*
X810209Y466701D01*
X810190Y466609D01*
Y466572D01*
Y466544D01*
Y466535D01*
Y466525D01*
X810200Y466387D01*
X810218Y466248D01*
X810246Y466128D01*
X810283Y466008D01*
X810375Y465786D01*
X810486Y465592D01*
X810533Y465508D01*
X810588Y465444D01*
X810634Y465379D01*
X810680Y465324D01*
X810717Y465287D01*
X810745Y465259D01*
X810764Y465240D01*
X810773Y465231D01*
X810856Y465166D01*
X810958Y465102D01*
X811059Y465037D01*
X811180Y464981D01*
X811411Y464871D01*
X811651Y464778D01*
X811771Y464741D01*
X811873Y464704D01*
X811975Y464676D01*
X812058Y464649D01*
X812123Y464630D01*
X812178Y464612D01*
X812215Y464602D01*
X812225D01*
X812372Y464566D01*
X812502Y464529D01*
X812622Y464501D01*
X812733Y464473D01*
X812825Y464445D01*
X812909Y464427D01*
X812983Y464399D01*
X813047Y464381D01*
X813103Y464371D01*
X813149Y464353D01*
X813214Y464334D01*
X813251Y464316D01*
X813260D01*
X813380Y464270D01*
X813473Y464223D01*
X813556Y464177D01*
X813621Y464131D01*
X813667Y464094D01*
X813695Y464066D01*
X813713Y464048D01*
X813722Y464039D01*
X813768Y463974D01*
X813805Y463909D01*
X813824Y463844D01*
X813842Y463789D01*
X813852Y463733D01*
X813861Y463687D01*
Y463659D01*
Y463650D01*
X813852Y463521D01*
X813815Y463410D01*
X813759Y463299D01*
X813704Y463206D01*
X813639Y463132D01*
X813593Y463077D01*
X813556Y463040D01*
X813537Y463031D01*
X813408Y462948D01*
X813260Y462883D01*
X813103Y462836D01*
X812955Y462809D01*
X812816Y462790D01*
X812705Y462772D01*
X812604D01*
X812391Y462781D01*
X812206Y462818D01*
X812049Y462864D01*
X811910Y462920D01*
X811799Y462975D01*
X811725Y463022D01*
X811679Y463058D01*
X811661Y463068D01*
X811540Y463197D01*
X811448Y463336D01*
X811365Y463493D01*
X811309Y463650D01*
X811263Y463789D01*
X811226Y463900D01*
X811217Y463937D01*
Y463974D01*
X811207Y463992D01*
Y464002D01*
X809950Y463881D01*
X809978Y463687D01*
X810015Y463502D01*
X810070Y463327D01*
X810117Y463169D01*
X810181Y463022D01*
X810246Y462883D01*
X810311Y462763D01*
X810375Y462652D01*
X810440Y462559D01*
X810505Y462476D01*
X810560Y462402D01*
X810616Y462337D01*
X810653Y462291D01*
X810690Y462263D01*
X810708Y462245D01*
X810717Y462236D01*
X810847Y462134D01*
X810986Y462051D01*
X811133Y461977D01*
X811291Y461912D01*
X811439Y461866D01*
X811596Y461819D01*
X811901Y461755D01*
X812039Y461727D01*
X812169Y461709D01*
X812280Y461699D01*
X812382Y461690D01*
X812465Y461681D01*
X812585D01*
X812881Y461690D01*
X813149Y461718D01*
X813389Y461755D01*
X813491Y461773D01*
X813593Y461801D01*
X813676Y461819D01*
X813750Y461838D01*
X813815Y461856D01*
X813870Y461875D01*
X813916Y461894D01*
X813944Y461903D01*
X813963Y461912D01*
X813972D01*
X814175Y462014D01*
X814342Y462125D01*
X814499Y462236D01*
X814619Y462356D01*
X814712Y462458D01*
X814786Y462550D01*
X814822Y462605D01*
X814841Y462615D01*
Y462624D01*
X814943Y462809D01*
X815026Y462985D01*
X815081Y463160D01*
X815118Y463327D01*
X815137Y463456D01*
X815146Y463521D01*
X815155Y463567D01*
Y463659D01*
X815146Y463881D01*
X815118Y464075D01*
X815072Y464251D01*
X815026Y464399D01*
X814980Y464519D01*
X814933Y464602D01*
X814906Y464658D01*
X814896Y464676D01*
X814795Y464824D01*
X814675Y464954D01*
X814554Y465065D01*
X814443Y465157D01*
X814342Y465231D01*
X814258Y465287D01*
X814203Y465324D01*
X814194Y465333D01*
X814184D01*
X814092Y465379D01*
X814000Y465425D01*
X813778Y465508D01*
X813547Y465583D01*
X813325Y465656D01*
X813223Y465684D01*
X813121Y465712D01*
X813029Y465740D01*
X812955Y465758D01*
X812890Y465777D01*
X812844Y465786D01*
X812807Y465795D01*
X812798D01*
X812631Y465841D01*
X812483Y465878D01*
X812345Y465915D01*
X812215Y465952D01*
X812113Y465989D01*
X812012Y466026D01*
X811929Y466063D01*
X811855Y466091D01*
X811790Y466119D01*
X811744Y466147D01*
X811697Y466165D01*
X811670Y466183D01*
X811624Y466211D01*
X811614Y466220D01*
X811550Y466285D01*
X811503Y466350D01*
X811476Y466415D01*
X811457Y466479D01*
X811439Y466525D01*
X811429Y466572D01*
Y466600D01*
Y466609D01*
X811439Y466701D01*
X811457Y466775D01*
X811494Y466849D01*
X811531Y466905D01*
X811568Y466951D01*
X811605Y466979D01*
X811624Y466997D01*
X811633Y467006D01*
X811762Y467090D01*
X811901Y467145D01*
X812049Y467191D01*
X812188Y467219D01*
X812308Y467237D01*
X812409Y467247D01*
X812502D01*
X812696Y467237D01*
X812862Y467210D01*
X813001Y467173D01*
X813112Y467136D01*
X813204Y467099D01*
X813269Y467062D01*
X813306Y467034D01*
X813315Y467025D01*
X813408Y466932D01*
X813491Y466821D01*
X813556Y466710D01*
X813602Y466590D01*
X813639Y466489D01*
X813658Y466405D01*
X813676Y466341D01*
Y466331D01*
Y466322D01*
X814970Y466368D01*
X814961Y466535D01*
X814933Y466683D01*
X814896Y466831D01*
X814850Y466960D01*
X814804Y467090D01*
X814749Y467210D01*
X814693Y467311D01*
X814638Y467413D01*
X814573Y467496D01*
X814517Y467570D01*
X814462Y467635D01*
X814416Y467691D01*
X814379Y467728D01*
X814351Y467755D01*
X814333Y467774D01*
X814323Y467783D01*
X814203Y467875D01*
X814074Y467959D01*
X813935Y468033D01*
X813787Y468097D01*
X813639Y468144D01*
X813491Y468190D01*
X813195Y468255D01*
X813057Y468273D01*
X812936Y468291D01*
X812816Y468301D01*
X812714Y468310D01*
X812631Y468319D01*
X815155D01*
D02*
G37*
G36*
X830050Y468199D02*
X824697D01*
Y461801D01*
X827119D01*
X827369Y461810D01*
X827600Y461819D01*
X827794Y461838D01*
X827951Y461866D01*
X828081Y461894D01*
X828182Y461912D01*
X828210Y461921D01*
X828238D01*
X828247Y461931D01*
X828256D01*
X828460Y462004D01*
X828645Y462088D01*
X828793Y462171D01*
X828922Y462254D01*
X829024Y462328D01*
X829098Y462383D01*
X829144Y462421D01*
X829162Y462439D01*
X829320Y462615D01*
X829458Y462800D01*
X829578Y462994D01*
X829671Y463169D01*
X829745Y463336D01*
X829782Y463400D01*
X829800Y463456D01*
X829819Y463512D01*
X829837Y463549D01*
X829847Y463567D01*
Y463576D01*
X829911Y463798D01*
X829967Y464029D01*
X830004Y464251D01*
X830022Y464464D01*
X830032Y464566D01*
X830041Y464658D01*
Y464732D01*
X830050Y464806D01*
Y464935D01*
X830041Y465259D01*
X830013Y465546D01*
X830004Y465684D01*
X829985Y465804D01*
X829967Y465925D01*
X829948Y466026D01*
X829921Y466119D01*
X829902Y466202D01*
X829884Y466276D01*
X829874Y466331D01*
X829856Y466378D01*
X829847Y466415D01*
X829837Y466433D01*
Y466442D01*
X829754Y466664D01*
X829652Y466868D01*
X829551Y467043D01*
X829449Y467191D01*
X829366Y467311D01*
X829292Y467404D01*
X829246Y467459D01*
X829236Y467478D01*
X829227D01*
X829070Y467626D01*
X828913Y467746D01*
X828746Y467848D01*
X828598Y467931D01*
X828469Y467996D01*
X828358Y468042D01*
X828321Y468051D01*
X828293Y468060D01*
X828275Y468069D01*
X828266D01*
X828090Y468116D01*
X827896Y468144D01*
X827692Y468171D01*
X827498Y468181D01*
X827322Y468190D01*
X827249Y468199D01*
X830050D01*
D02*
G37*
G36*
X824022D02*
X815627D01*
X817143Y461801D01*
X818549D01*
X819824Y466581D01*
X821082Y461801D01*
X822478D01*
X824022Y468199D01*
D01*
D02*
G37*
%LPD*%
G36*
X826953Y467108D02*
X827064D01*
X827156Y467099D01*
X827239D01*
X827322Y467090D01*
X827387D01*
X827489Y467071D01*
X827563Y467062D01*
X827609Y467052D01*
X827618D01*
X827748Y467016D01*
X827859Y466969D01*
X827961Y466923D01*
X828053Y466868D01*
X828118Y466821D01*
X828173Y466784D01*
X828201Y466757D01*
X828210Y466747D01*
X828293Y466655D01*
X828367Y466553D01*
X828432Y466452D01*
X828487Y466359D01*
X828524Y466267D01*
X828552Y466193D01*
X828571Y466147D01*
X828580Y466137D01*
Y466128D01*
X828626Y465962D01*
X828663Y465786D01*
X828682Y465592D01*
X828700Y465407D01*
X828709Y465250D01*
X828719Y465176D01*
Y465111D01*
Y465065D01*
Y465028D01*
Y465000D01*
Y464991D01*
X828709Y464732D01*
X828700Y464492D01*
X828672Y464297D01*
X828654Y464131D01*
X828626Y463992D01*
X828617Y463937D01*
X828598Y463900D01*
X828589Y463863D01*
Y463835D01*
X828580Y463826D01*
Y463817D01*
X828524Y463669D01*
X828478Y463539D01*
X828413Y463438D01*
X828367Y463354D01*
X828321Y463290D01*
X828284Y463243D01*
X828256Y463216D01*
X828247Y463206D01*
X828164Y463142D01*
X828081Y463086D01*
X827998Y463040D01*
X827914Y463003D01*
X827840Y462975D01*
X827785Y462957D01*
X827748Y462938D01*
X827729D01*
X827628Y462920D01*
X827507Y462910D01*
X827378Y462892D01*
X827249D01*
X827128Y462883D01*
X825991D01*
Y467117D01*
X826833D01*
X826953Y467108D01*
D02*
G37*
G36*
X817911Y463798D02*
X816949Y468199D01*
X819075D01*
X817911Y463798D01*
D02*
G37*
G36*
X821738Y463724D02*
X820629Y468199D01*
X822718D01*
X821738Y463724D01*
D02*
G37*
%LPC*%
G36*
X711645Y543785D02*
X711063D01*
X710520Y541199D01*
X711024D01*
X711069Y541204D01*
X711163D01*
X711268Y541210D01*
X711368Y541221D01*
X711467Y541232D01*
X711512Y541237D01*
X711550Y541249D01*
X711562Y541254D01*
X711584Y541260D01*
X711622Y541276D01*
X711672Y541293D01*
X711728Y541321D01*
X711788Y541354D01*
X711849Y541398D01*
X711910Y541448D01*
X711916D01*
X711921Y541459D01*
X711949Y541487D01*
X711993Y541536D01*
X712049Y541597D01*
X712115Y541680D01*
X712182Y541780D01*
X712248Y541891D01*
X712309Y542013D01*
Y542018D01*
X712315Y542029D01*
X712326Y542052D01*
X712337Y542074D01*
X712348Y542112D01*
X712359Y542151D01*
X712375Y542195D01*
X712392Y542251D01*
X712403Y542306D01*
X712420Y542373D01*
X712447Y542517D01*
X712464Y542677D01*
X712470Y542849D01*
Y542854D01*
Y542865D01*
Y542888D01*
Y542915D01*
X712464Y542948D01*
Y542987D01*
X712453Y543081D01*
X712436Y543181D01*
X712414Y543281D01*
X712381Y543380D01*
X712337Y543464D01*
X712331Y543475D01*
X712315Y543497D01*
X712287Y543530D01*
X712248Y543574D01*
X712198Y543619D01*
X712143Y543663D01*
X712076Y543702D01*
X712004Y543735D01*
X711999D01*
X711977Y543740D01*
X711944Y543751D01*
X711894Y543763D01*
X711827Y543768D01*
X711744Y543779D01*
X711645Y543785D01*
D02*
G37*
G36*
X717348Y543829D02*
X717254D01*
X717226Y543823D01*
X717187D01*
X717138Y543812D01*
X717082Y543801D01*
X717016Y543785D01*
X716949Y543763D01*
X716877Y543735D01*
X716800Y543696D01*
X716722Y543652D01*
X716645Y543602D01*
X716567Y543535D01*
X716490Y543464D01*
X716418Y543380D01*
X716346Y543286D01*
X716340Y543281D01*
X716329Y543264D01*
X716312Y543231D01*
X716290Y543192D01*
X716263Y543142D01*
X716229Y543081D01*
X716202Y543009D01*
X716168Y542937D01*
X716130Y542849D01*
X716102Y542760D01*
X716069Y542661D01*
X716041Y542555D01*
X716019Y542450D01*
X716002Y542339D01*
X715991Y542223D01*
X715986Y542101D01*
Y542096D01*
Y542085D01*
Y542062D01*
X715991Y542035D01*
Y542002D01*
X715997Y541963D01*
X716013Y541869D01*
X716047Y541763D01*
X716085Y541653D01*
X716146Y541542D01*
X716180Y541487D01*
X716224Y541437D01*
X716229Y541431D01*
X716235Y541426D01*
X716268Y541398D01*
X716318Y541354D01*
X716390Y541304D01*
X716484Y541254D01*
X716589Y541215D01*
X716717Y541182D01*
X716783Y541177D01*
X716855Y541171D01*
X716888D01*
X716910Y541177D01*
X716971Y541182D01*
X717049Y541199D01*
X717143Y541221D01*
X717243Y541260D01*
X717353Y541310D01*
X717464Y541381D01*
X717470D01*
X717475Y541393D01*
X717492Y541404D01*
X717514Y541420D01*
X717569Y541470D01*
X717636Y541542D01*
X717713Y541631D01*
X717796Y541741D01*
X717874Y541869D01*
X717951Y542018D01*
Y542024D01*
X717962Y542040D01*
X717968Y542062D01*
X717985Y542090D01*
X717996Y542129D01*
X718012Y542179D01*
X718029Y542229D01*
X718051Y542284D01*
X718084Y542411D01*
X718118Y542555D01*
X718140Y542705D01*
X718145Y542854D01*
Y542860D01*
Y542877D01*
Y542899D01*
X718140Y542932D01*
Y542965D01*
X718134Y543009D01*
X718118Y543115D01*
X718084Y543231D01*
X718040Y543347D01*
X717985Y543464D01*
X717946Y543519D01*
X717902Y543569D01*
Y543574D01*
X717890Y543580D01*
X717857Y543607D01*
X717807Y543652D01*
X717736Y543702D01*
X717641Y543746D01*
X717536Y543790D01*
X717414Y543818D01*
X717348Y543829D01*
D02*
G37*
G36*
X733873Y553773D02*
X732888D01*
X732672Y552744D01*
X733248D01*
X733303Y552749D01*
X733436Y552755D01*
X733574Y552760D01*
X733713Y552777D01*
X733773Y552782D01*
X733834Y552794D01*
X733884Y552804D01*
X733929Y552816D01*
X733940Y552821D01*
X733962Y552832D01*
X734000Y552849D01*
X734050Y552877D01*
X734100Y552910D01*
X734156Y552948D01*
X734205Y552998D01*
X734255Y553054D01*
X734261Y553059D01*
X734272Y553081D01*
X734294Y553115D01*
X734316Y553159D01*
X734338Y553209D01*
X734361Y553264D01*
X734371Y553331D01*
X734377Y553397D01*
Y553408D01*
Y553430D01*
X734366Y553469D01*
X734355Y553513D01*
X734333Y553563D01*
X734305Y553613D01*
X734261Y553663D01*
X734205Y553707D01*
X734200Y553713D01*
X734183Y553718D01*
X734156Y553729D01*
X734111Y553740D01*
X734050Y553751D01*
X733967Y553763D01*
X733873Y553773D01*
D02*
G37*
%LPD*%
D10*
X696000Y674000D02*
G03*
X696000Y674000I-1000J0D01*
G01*
D11*
X615180Y621500D02*
G03*
X615180Y621500I-620J0D01*
G01*
D12*
X588500Y165000D02*
G03*
X588500Y165000I-1000J0D01*
G01*
D13*
X546281Y605750D02*
G03*
X546281Y605750I-1250J0D01*
G01*
X816281D02*
G03*
X816281Y605750I-1250J0D01*
G01*
X820700Y315750D02*
G03*
X820700Y315750I-1250J0D01*
G01*
X810250Y71950D02*
G03*
X810250Y71950I-1250J0D01*
G01*
X680850Y500255D02*
G03*
X680850Y500255I-1250J0D01*
G01*
X584000Y316531D02*
G03*
X584000Y316531I-1250J0D01*
G01*
X734000D02*
G03*
X734000Y316531I-1250J0D01*
G01*
X603750Y258500D02*
G03*
X603750Y258500I-1250J0D01*
G01*
X463150Y658469D02*
G03*
X463150Y658469I-1250J0D01*
G01*
X733150D02*
G03*
X733150Y658469I-1250J0D01*
G01*
X787750Y71000D02*
G03*
X787750Y71000I-1250J0D01*
G01*
X512250Y477500D02*
G03*
X512250Y477500I-1250J0D01*
G01*
X783250Y572000D02*
G03*
X783250Y572000I-1250J0D01*
G01*
X786250Y340000D02*
G03*
X786250Y340000I-1250J0D01*
G01*
X439950Y388780D02*
G03*
X439950Y388780I-1250J0D01*
G01*
D14*
X509977Y611500D02*
G03*
X509977Y611500I-2500J0D01*
G01*
X779977D02*
G03*
X779977Y611500I-2500J0D01*
G01*
X671500Y478000D02*
G03*
X671500Y478000I-2500J0D01*
G01*
D15*
X668000Y570000D02*
G03*
X668000Y570000I-8000J0D01*
G01*
X612000Y563000D02*
G03*
X612000Y563000I-8000J0D01*
G01*
X602000Y578000D02*
G03*
X602000Y578000I-8000J0D01*
G01*
X686000Y570000D02*
G03*
X686000Y570000I-8000J0D01*
G01*
Y588000D02*
G03*
X686000Y588000I-8000J0D01*
G01*
X695500Y188400D02*
G03*
X695500Y188400I-500J0D01*
G01*
X745000Y527500D02*
Y557500D01*
X697500Y527500D02*
X745000D01*
X697500Y557500D02*
X745000D01*
X722500Y527500D02*
Y557500D01*
X697500Y527500D02*
Y557500D01*
Y547500D02*
X745000D01*
X697500Y537500D02*
X745000D01*
D16*
X590000Y90500D02*
X680000D01*
X582500Y83000D02*
X590000Y90500D01*
X680000D02*
X687500Y83000D01*
Y18000D02*
Y83000D01*
X582500Y18000D02*
Y83000D01*
X622500Y96722D02*
Y105386D01*
D17*
X738000Y195000D02*
X754000D01*
Y202000D01*
X738000Y195000D02*
Y202000D01*
X786000Y148000D02*
X802000D01*
Y155000D01*
X786000Y148000D02*
Y155000D01*
X559000Y84000D02*
Y91000D01*
X575000Y84000D02*
Y91000D01*
X559000Y84000D02*
X575000D01*
X626693Y526072D02*
Y535000D01*
Y526072D02*
X639000D01*
X828000Y438250D02*
Y452000D01*
X898000Y438250D02*
Y452000D01*
X828000Y386000D02*
Y399750D01*
X898000Y386000D02*
Y399750D01*
X828000Y452000D02*
X898000D01*
X828000Y386000D02*
X898000D01*
X493500Y548500D02*
Y563500D01*
X468500D02*
X493500D01*
X468500Y548500D02*
Y563500D01*
Y548500D02*
X493500D01*
X589500Y167000D02*
X593750D01*
X589500D02*
Y171250D01*
Y196750D02*
Y201000D01*
X593750D01*
X619250D02*
X623500D01*
Y196750D02*
Y201000D01*
X619250Y167000D02*
X623500D01*
Y171250D01*
X514977Y604000D02*
Y654000D01*
X485023D02*
X514977D01*
X485023Y604000D02*
Y654000D01*
Y604000D02*
X514977D01*
X784977D02*
Y654000D01*
X755023D02*
X784977D01*
X755023Y604000D02*
Y654000D01*
Y604000D02*
X784977D01*
X872000Y327000D02*
Y359000D01*
X822000Y327000D02*
Y359000D01*
X872000D01*
X822000Y327000D02*
X872000D01*
X775000Y71500D02*
X782500D01*
Y138500D01*
X775000D02*
X782500D01*
X592500Y486500D02*
X677500D01*
X592500Y401500D02*
Y486500D01*
Y401500D02*
X677500D01*
Y486500D01*
X585000Y260023D02*
Y289977D01*
X535000Y260023D02*
X585000D01*
X535000D02*
Y289977D01*
X585000D01*
X735000Y260023D02*
Y289977D01*
X685000Y260023D02*
X735000D01*
X685000D02*
Y289977D01*
X735000D01*
X625042Y241000D02*
Y261000D01*
Y241000D02*
X630958D01*
Y261000D01*
X625042D02*
X630958D01*
X543250Y690960D02*
Y709040D01*
X456750Y690960D02*
Y709040D01*
X813250Y690960D02*
Y709040D01*
X726750Y690960D02*
Y709040D01*
X772500Y189500D02*
Y193000D01*
Y189500D02*
X779500Y182500D01*
X817500D01*
X772500Y217000D02*
Y220500D01*
X779500Y227500D01*
X817500D01*
Y182500D02*
Y193000D01*
Y217000D02*
Y227500D01*
X492500Y217000D02*
Y220500D01*
X485500Y227500D02*
X492500Y220500D01*
X447500Y227500D02*
X485500D01*
X492500Y189500D02*
Y193000D01*
X485500Y182500D02*
X492500Y189500D01*
X447500Y182500D02*
X485500D01*
X447500Y217000D02*
Y227500D01*
Y182500D02*
Y193000D01*
X843500Y213500D02*
Y217000D01*
Y213500D02*
X850500Y206500D01*
X888500D01*
X843500Y241000D02*
Y244500D01*
X850500Y251500D01*
X888500D01*
Y206500D02*
Y217000D01*
Y241000D02*
Y251500D01*
X775500Y18500D02*
X842500D01*
X793750Y49000D02*
X809250D01*
X823750D02*
X824250D01*
X842500Y8000D02*
Y18600D01*
Y34100D02*
Y37900D01*
X775500Y8000D02*
X842500D01*
X775500D02*
Y18600D01*
Y34100D02*
Y37900D01*
X458500Y421500D02*
Y488500D01*
X489000Y454750D02*
Y470250D01*
Y439750D02*
Y440250D01*
X448000Y421500D02*
X458600D01*
X474100D02*
X477900D01*
X448000D02*
Y488500D01*
X458600D01*
X474100D02*
X477900D01*
X699000Y156000D02*
X704500D01*
X727500D02*
X733000D01*
X727500Y190000D02*
X733000D01*
X699000D02*
X704500D01*
X699000Y188400D02*
Y190000D01*
Y156000D02*
Y157600D01*
X733000Y156000D02*
Y157600D01*
Y188400D02*
Y190000D01*
X455500Y9800D02*
X480500D01*
X480500D02*
Y166200D01*
X455500Y9800D02*
Y166200D01*
X480500D01*
X508000Y154000D02*
X513750D01*
X508000Y198000D02*
X513750D01*
X544250Y154000D02*
X550000D01*
X544250Y198000D02*
X550000D01*
X508000Y154000D02*
Y198000D01*
X550000Y154000D02*
Y198000D01*
X809000Y588500D02*
X815600D01*
Y580350D02*
Y588500D01*
X786400D02*
X793000D01*
X786400Y580350D02*
Y588500D01*
X753900Y351450D02*
Y422550D01*
X804750D02*
X816100D01*
X753900D02*
X765250D01*
X816100Y351450D02*
Y422550D01*
X804750Y351450D02*
X816100D01*
X753900D02*
X765250D01*
X755000Y372500D02*
X815000D01*
X459250Y356000D02*
Y386000D01*
X458750Y356000D02*
Y386000D01*
X459250D01*
X458750Y356000D02*
X459250D01*
X885000Y259666D02*
X884167Y260499D01*
X882501D01*
X881668Y259666D01*
Y256334D01*
X882501Y255501D01*
X884167D01*
X885000Y256334D01*
X886666Y255501D02*
X888332D01*
X887499D01*
Y260499D01*
X886666Y259666D01*
X430334Y218668D02*
X429501Y217835D01*
Y216169D01*
X430334Y215336D01*
X433666D01*
X434499Y216169D01*
Y217835D01*
X433666Y218668D01*
X430334Y220334D02*
X429501Y221167D01*
Y222833D01*
X430334Y223666D01*
X431167D01*
X432000Y222833D01*
Y222000D01*
Y222833D01*
X432833Y223666D01*
X433666D01*
X434499Y222833D01*
Y221167D01*
X433666Y220334D01*
X429501Y228664D02*
Y225332D01*
X432000D01*
X431167Y226998D01*
Y227831D01*
X432000Y228664D01*
X433666D01*
X434499Y227831D01*
Y226165D01*
X433666Y225332D01*
X832668Y186666D02*
X831835Y187499D01*
X830169D01*
X829335Y186666D01*
Y183334D01*
X830169Y182501D01*
X831835D01*
X832668Y183334D01*
X836833Y182501D02*
Y187499D01*
X834334Y185000D01*
X837666D01*
X842664Y182501D02*
X839332D01*
X842664Y185833D01*
Y186666D01*
X841831Y187499D01*
X840165D01*
X839332Y186666D01*
X831752Y749501D02*
Y754499D01*
X834251D01*
X835084Y753666D01*
Y752000D01*
X834251Y751167D01*
X831752D01*
X833418D02*
X835084Y749501D01*
X836750D02*
X838417D01*
X837583D01*
Y754499D01*
X836750Y753666D01*
X840916D02*
X841749Y754499D01*
X843415D01*
X844248Y753666D01*
Y752833D01*
X843415Y752000D01*
X844248Y751167D01*
Y750334D01*
X843415Y749501D01*
X841749D01*
X840916Y750334D01*
Y751167D01*
X841749Y752000D01*
X840916Y752833D01*
Y753666D01*
X841749Y752000D02*
X843415D01*
X590752Y731501D02*
Y736499D01*
X593251D01*
X594084Y735666D01*
Y734000D01*
X593251Y733167D01*
X590752D01*
X592418D02*
X594084Y731501D01*
X595750D02*
X597416D01*
X596584D01*
Y736499D01*
X595750Y735666D01*
X599916Y736499D02*
X603248D01*
Y735666D01*
X599916Y732334D01*
Y731501D01*
X817752Y741501D02*
Y746499D01*
X820251D01*
X821084Y745666D01*
Y744000D01*
X820251Y743167D01*
X817752D01*
X819418D02*
X821084Y741501D01*
X822750D02*
X824417D01*
X823584D01*
Y746499D01*
X822750Y745666D01*
X830248Y746499D02*
X828582Y745666D01*
X826916Y744000D01*
Y742334D01*
X827749Y741501D01*
X829415D01*
X830248Y742334D01*
Y743167D01*
X829415Y744000D01*
X826916D01*
X547752Y741501D02*
Y746499D01*
X550251D01*
X551084Y745666D01*
Y744000D01*
X550251Y743167D01*
X547752D01*
X549418D02*
X551084Y741501D01*
X552750D02*
X554417D01*
X553583D01*
Y746499D01*
X552750Y745666D01*
X560248Y746499D02*
X556916D01*
Y744000D01*
X558582Y744833D01*
X559415D01*
X560248Y744000D01*
Y742334D01*
X559415Y741501D01*
X557749D01*
X556916Y742334D01*
X483835Y165499D02*
X487167Y160501D01*
Y165499D02*
X483835Y160501D01*
X488833Y164666D02*
X489666Y165499D01*
X491332D01*
X492165Y164666D01*
Y163833D01*
X491332Y163000D01*
X490499D01*
X491332D01*
X492165Y162167D01*
Y161334D01*
X491332Y160501D01*
X489666D01*
X488833Y161334D01*
X682000Y100499D02*
X680334D01*
X681167D01*
Y96334D01*
X680334Y95501D01*
X679501D01*
X678668Y96334D01*
X683666Y95501D02*
X685332D01*
X684499D01*
Y100499D01*
X683666Y99666D01*
X757982Y550352D02*
X756316D01*
X757149D01*
Y546187D01*
X756316Y545354D01*
X755483D01*
X754650Y546187D01*
X759648Y550352D02*
X762981D01*
Y549519D01*
X759648Y546187D01*
Y545354D01*
X767668Y62666D02*
X766835Y63499D01*
X765169D01*
X764335Y62666D01*
Y61833D01*
X765169Y61000D01*
X766835D01*
X767668Y60167D01*
Y59334D01*
X766835Y58501D01*
X765169D01*
X764335Y59334D01*
X769334Y63499D02*
Y58501D01*
X771833D01*
X772666Y59334D01*
Y60167D01*
X771833Y61000D01*
X769334D01*
X771833D01*
X772666Y61833D01*
Y62666D01*
X771833Y63499D01*
X769334D01*
X774332Y62666D02*
X775165Y63499D01*
X776831D01*
X777664Y62666D01*
Y61833D01*
X776831Y61000D01*
X775998D01*
X776831D01*
X777664Y60167D01*
Y59334D01*
X776831Y58501D01*
X775165D01*
X774332Y59334D01*
X793668Y311666D02*
X792835Y312499D01*
X791169D01*
X790335Y311666D01*
Y310833D01*
X791169Y310000D01*
X792835D01*
X793668Y309167D01*
Y308334D01*
X792835Y307501D01*
X791169D01*
X790335Y308334D01*
X795334Y312499D02*
Y307501D01*
X797833D01*
X798666Y308334D01*
Y309167D01*
X797833Y310000D01*
X795334D01*
X797833D01*
X798666Y310833D01*
Y311666D01*
X797833Y312499D01*
X795334D01*
X803664Y307501D02*
X800332D01*
X803664Y310833D01*
Y311666D01*
X802831Y312499D01*
X801165D01*
X800332Y311666D01*
X859501Y261666D02*
X858668Y262499D01*
X857002D01*
X856169Y261666D01*
Y260833D01*
X857002Y260000D01*
X858668D01*
X859501Y259167D01*
Y258334D01*
X858668Y257501D01*
X857002D01*
X856169Y258334D01*
X861167Y262499D02*
Y257501D01*
X863666D01*
X864499Y258334D01*
Y259167D01*
X863666Y260000D01*
X861167D01*
X863666D01*
X864499Y260833D01*
Y261666D01*
X863666Y262499D01*
X861167D01*
X866165Y257501D02*
X867831D01*
X866998D01*
Y262499D01*
X866165Y261666D01*
X855335Y53501D02*
Y58499D01*
X857835D01*
X858668Y57666D01*
Y56000D01*
X857835Y55167D01*
X855335D01*
X857002D02*
X858668Y53501D01*
X863666D02*
X860334D01*
X863666Y56833D01*
Y57666D01*
X862833Y58499D01*
X861167D01*
X860334Y57666D01*
X868664Y53501D02*
X865332D01*
X868664Y56833D01*
Y57666D01*
X867831Y58499D01*
X866165D01*
X865332Y57666D01*
X706336Y46501D02*
Y51499D01*
X708835D01*
X709668Y50666D01*
Y49000D01*
X708835Y48167D01*
X706336D01*
X708002D02*
X709668Y46501D01*
X714666D02*
X711334D01*
X714666Y49833D01*
Y50666D01*
X713833Y51499D01*
X712167D01*
X711334Y50666D01*
X716332D02*
X717165Y51499D01*
X718831D01*
X719665Y50666D01*
Y47334D01*
X718831Y46501D01*
X717165D01*
X716332Y47334D01*
Y50666D01*
X695167Y133334D02*
Y136666D01*
X694334Y137499D01*
X692668D01*
X691835Y136666D01*
Y133334D01*
X692668Y132501D01*
X694334D01*
X693501Y134167D02*
X695167Y132501D01*
X694334D02*
X695167Y133334D01*
X696833Y136666D02*
X697666Y137499D01*
X699332D01*
X700165Y136666D01*
Y135833D01*
X699332Y135000D01*
X698499D01*
X699332D01*
X700165Y134167D01*
Y133334D01*
X699332Y132501D01*
X697666D01*
X696833Y133334D01*
X877668Y57666D02*
X876835Y58499D01*
X875169D01*
X874335Y57666D01*
Y54334D01*
X875169Y53501D01*
X876835D01*
X877668Y54334D01*
X882666Y58499D02*
X881000Y57666D01*
X879334Y56000D01*
Y54334D01*
X880167Y53501D01*
X881833D01*
X882666Y54334D01*
Y55167D01*
X881833Y56000D01*
X879334D01*
X884332Y57666D02*
X885165Y58499D01*
X886831D01*
X887664Y57666D01*
Y56833D01*
X886831Y56000D01*
X885998D01*
X886831D01*
X887664Y55167D01*
Y54334D01*
X886831Y53501D01*
X885165D01*
X884332Y54334D01*
X685668Y352666D02*
X684835Y353499D01*
X683169D01*
X682336Y352666D01*
Y349334D01*
X683169Y348501D01*
X684835D01*
X685668Y349334D01*
X690666Y353499D02*
X689000Y352666D01*
X687334Y351000D01*
Y349334D01*
X688167Y348501D01*
X689833D01*
X690666Y349334D01*
Y350167D01*
X689833Y351000D01*
X687334D01*
X695665Y348501D02*
X692332D01*
X695665Y351833D01*
Y352666D01*
X694831Y353499D01*
X693165D01*
X692332Y352666D01*
X534501Y353666D02*
X533668Y354499D01*
X532002D01*
X531169Y353666D01*
Y350334D01*
X532002Y349501D01*
X533668D01*
X534501Y350334D01*
X539499Y354499D02*
X537833Y353666D01*
X536167Y352000D01*
Y350334D01*
X537000Y349501D01*
X538666D01*
X539499Y350334D01*
Y351167D01*
X538666Y352000D01*
X536167D01*
X541165Y349501D02*
X542831D01*
X541998D01*
Y354499D01*
X541165Y353666D01*
X450167Y297499D02*
X448501D01*
X449334D01*
Y293334D01*
X448501Y292501D01*
X447668D01*
X446835Y293334D01*
X455165Y292501D02*
X451833D01*
X455165Y295833D01*
Y296666D01*
X454332Y297499D01*
X452666D01*
X451833Y296666D01*
X655835Y526499D02*
X659167Y521501D01*
Y526499D02*
X655835Y521501D01*
X664165D02*
X660833D01*
X664165Y524833D01*
Y525666D01*
X663332Y526499D01*
X661666D01*
X660833Y525666D01*
X579585Y494499D02*
Y490334D01*
X580418Y489501D01*
X582084D01*
X582917Y490334D01*
Y494499D01*
X584584Y489501D02*
X586250D01*
X585416D01*
Y494499D01*
X584584Y493666D01*
X588749Y489501D02*
X590415D01*
X589582D01*
Y494499D01*
X588749Y493666D01*
X494668Y504666D02*
X493835Y505499D01*
X492169D01*
X491335Y504666D01*
Y503833D01*
X492169Y503000D01*
X493835D01*
X494668Y502167D01*
Y501334D01*
X493835Y500501D01*
X492169D01*
X491335Y501334D01*
X496334Y505499D02*
Y500501D01*
X498000Y502167D01*
X499666Y500501D01*
Y505499D01*
X501332Y504666D02*
X502165Y505499D01*
X503831D01*
X504664Y504666D01*
Y503833D01*
X503831Y503000D01*
X502998D01*
X503831D01*
X504664Y502167D01*
Y501334D01*
X503831Y500501D01*
X502165D01*
X501332Y501334D01*
X450668Y577666D02*
X449835Y578499D01*
X448169D01*
X447336Y577666D01*
Y576833D01*
X448169Y576000D01*
X449835D01*
X450668Y575167D01*
Y574334D01*
X449835Y573501D01*
X448169D01*
X447336Y574334D01*
X452334Y578499D02*
Y573501D01*
X454000Y575167D01*
X455666Y573501D01*
Y578499D01*
X460664Y573501D02*
X457332D01*
X460664Y576833D01*
Y577666D01*
X459831Y578499D01*
X458165D01*
X457332Y577666D01*
X489336Y396501D02*
Y401499D01*
X491835D01*
X492668Y400666D01*
Y399000D01*
X491835Y398167D01*
X489336D01*
X491002D02*
X492668Y396501D01*
X496833D02*
Y401499D01*
X494334Y399000D01*
X497666D01*
X502664Y401499D02*
X499332D01*
Y399000D01*
X500998Y399833D01*
X501831D01*
X502664Y399000D01*
Y397334D01*
X501831Y396501D01*
X500165D01*
X499332Y397334D01*
X415336Y397501D02*
Y402499D01*
X417835D01*
X418668Y401666D01*
Y400000D01*
X417835Y399167D01*
X415336D01*
X417002D02*
X418668Y397501D01*
X422833D02*
Y402499D01*
X420334Y400000D01*
X423666D01*
X427831Y397501D02*
Y402499D01*
X425332Y400000D01*
X428665D01*
X488335Y350501D02*
Y355499D01*
X490835D01*
X491668Y354666D01*
Y353000D01*
X490835Y352167D01*
X488335D01*
X490002D02*
X491668Y350501D01*
X495833D02*
Y355499D01*
X493334Y353000D01*
X496666D01*
X498332Y354666D02*
X499165Y355499D01*
X500831D01*
X501665Y354666D01*
Y353833D01*
X500831Y353000D01*
X499998D01*
X500831D01*
X501665Y352167D01*
Y351334D01*
X500831Y350501D01*
X499165D01*
X498332Y351334D01*
X456499Y505336D02*
X451501D01*
Y507835D01*
X452334Y508668D01*
X454000D01*
X454833Y507835D01*
Y505336D01*
Y507002D02*
X456499Y508668D01*
Y512833D02*
X451501D01*
X454000Y510334D01*
Y513666D01*
X456499Y518665D02*
Y515332D01*
X453167Y518665D01*
X452334D01*
X451501Y517831D01*
Y516165D01*
X452334Y515332D01*
X611669Y515501D02*
Y520499D01*
X614168D01*
X615001Y519666D01*
Y518000D01*
X614168Y517167D01*
X611669D01*
X613335D02*
X615001Y515501D01*
X619166D02*
Y520499D01*
X616667Y518000D01*
X619999D01*
X621665Y515501D02*
X623331D01*
X622498D01*
Y520499D01*
X621665Y519666D01*
X517336Y513501D02*
Y518499D01*
X519835D01*
X520668Y517666D01*
Y516000D01*
X519835Y515167D01*
X517336D01*
X519002D02*
X520668Y513501D01*
X524833D02*
Y518499D01*
X522334Y516000D01*
X525666D01*
X527332Y517666D02*
X528165Y518499D01*
X529831D01*
X530664Y517666D01*
Y514334D01*
X529831Y513501D01*
X528165D01*
X527332Y514334D01*
Y517666D01*
X642499Y336335D02*
X637501D01*
Y338835D01*
X638334Y339668D01*
X640000D01*
X640833Y338835D01*
Y336335D01*
Y338002D02*
X642499Y339668D01*
X638334Y341334D02*
X637501Y342167D01*
Y343833D01*
X638334Y344666D01*
X639167D01*
X640000Y343833D01*
Y343000D01*
Y343833D01*
X640833Y344666D01*
X641666D01*
X642499Y343833D01*
Y342167D01*
X641666Y341334D01*
Y346332D02*
X642499Y347165D01*
Y348831D01*
X641666Y349664D01*
X638334D01*
X637501Y348831D01*
Y347165D01*
X638334Y346332D01*
X639167D01*
X640000Y347165D01*
Y349664D01*
X642499Y318335D02*
X637501D01*
Y320835D01*
X638334Y321668D01*
X640000D01*
X640833Y320835D01*
Y318335D01*
Y320002D02*
X642499Y321668D01*
X638334Y323334D02*
X637501Y324167D01*
Y325833D01*
X638334Y326666D01*
X639167D01*
X640000Y325833D01*
Y325000D01*
Y325833D01*
X640833Y326666D01*
X641666D01*
X642499Y325833D01*
Y324167D01*
X641666Y323334D01*
X638334Y328332D02*
X637501Y329165D01*
Y330831D01*
X638334Y331665D01*
X639167D01*
X640000Y330831D01*
X640833Y331665D01*
X641666D01*
X642499Y330831D01*
Y329165D01*
X641666Y328332D01*
X640833D01*
X640000Y329165D01*
X639167Y328332D01*
X638334D01*
X640000Y329165D02*
Y330831D01*
X712336Y491501D02*
Y496499D01*
X714835D01*
X715668Y495666D01*
Y494000D01*
X714835Y493167D01*
X712336D01*
X714002D02*
X715668Y491501D01*
X717334Y495666D02*
X718167Y496499D01*
X719833D01*
X720666Y495666D01*
Y494833D01*
X719833Y494000D01*
X719000D01*
X719833D01*
X720666Y493167D01*
Y492334D01*
X719833Y491501D01*
X718167D01*
X717334Y492334D01*
X722332Y496499D02*
X725665D01*
Y495666D01*
X722332Y492334D01*
Y491501D01*
X712336Y450501D02*
Y455499D01*
X714835D01*
X715668Y454666D01*
Y453000D01*
X714835Y452167D01*
X712336D01*
X714002D02*
X715668Y450501D01*
X717334Y454666D02*
X718167Y455499D01*
X719833D01*
X720666Y454666D01*
Y453833D01*
X719833Y453000D01*
X719000D01*
X719833D01*
X720666Y452167D01*
Y451334D01*
X719833Y450501D01*
X718167D01*
X717334Y451334D01*
X725665Y455499D02*
X723998Y454666D01*
X722332Y453000D01*
Y451334D01*
X723165Y450501D01*
X724831D01*
X725665Y451334D01*
Y452167D01*
X724831Y453000D01*
X722332D01*
X413669Y381499D02*
Y376501D01*
X417002D01*
X422000Y381499D02*
X418668D01*
Y376501D01*
X422000D01*
X418668Y379000D02*
X420334D01*
X423666Y381499D02*
Y376501D01*
X426165D01*
X426998Y377334D01*
Y380666D01*
X426165Y381499D01*
X423666D01*
X428665Y376501D02*
X430331D01*
X429498D01*
Y381499D01*
X428665Y380666D01*
X545892Y539430D02*
X542560D01*
Y536931D01*
X544226D01*
X542560D01*
Y534432D01*
X547558Y539430D02*
Y534432D01*
X550057D01*
X550891Y535265D01*
Y536098D01*
X550057Y536931D01*
X547558D01*
X550057D01*
X550891Y537764D01*
Y538597D01*
X550057Y539430D01*
X547558D01*
X552557Y538597D02*
X553390Y539430D01*
X555056D01*
X555889Y538597D01*
Y537764D01*
X555056Y536931D01*
X554223D01*
X555056D01*
X555889Y536098D01*
Y535265D01*
X555056Y534432D01*
X553390D01*
X552557Y535265D01*
X638334Y356668D02*
X637501Y355835D01*
Y354169D01*
X638334Y353335D01*
X641666D01*
X642499Y354169D01*
Y355835D01*
X641666Y356668D01*
X637501Y361666D02*
X638334Y360000D01*
X640000Y358334D01*
X641666D01*
X642499Y359167D01*
Y360833D01*
X641666Y361666D01*
X640833D01*
X640000Y360833D01*
Y358334D01*
X638334Y363332D02*
X637501Y364165D01*
Y365831D01*
X638334Y366665D01*
X641666D01*
X642499Y365831D01*
Y364165D01*
X641666Y363332D01*
X638334D01*
X519668Y429666D02*
X518835Y430499D01*
X517169D01*
X516335Y429666D01*
Y426334D01*
X517169Y425501D01*
X518835D01*
X519668Y426334D01*
X524666Y430499D02*
X521334D01*
Y428000D01*
X523000Y428833D01*
X523833D01*
X524666Y428000D01*
Y426334D01*
X523833Y425501D01*
X522167D01*
X521334Y426334D01*
X526332D02*
X527165Y425501D01*
X528831D01*
X529664Y426334D01*
Y429666D01*
X528831Y430499D01*
X527165D01*
X526332Y429666D01*
Y428833D01*
X527165Y428000D01*
X529664D01*
X676668Y530666D02*
X675835Y531499D01*
X674169D01*
X673335Y530666D01*
Y527334D01*
X674169Y526501D01*
X675835D01*
X676668Y527334D01*
X681666Y531499D02*
X678334D01*
Y529000D01*
X680000Y529833D01*
X680833D01*
X681666Y529000D01*
Y527334D01*
X680833Y526501D01*
X679167D01*
X678334Y527334D01*
X683332Y530666D02*
X684165Y531499D01*
X685831D01*
X686665Y530666D01*
Y529833D01*
X685831Y529000D01*
X686665Y528167D01*
Y527334D01*
X685831Y526501D01*
X684165D01*
X683332Y527334D01*
Y528167D01*
X684165Y529000D01*
X683332Y529833D01*
Y530666D01*
X684165Y529000D02*
X685831D01*
X582668Y560666D02*
X581835Y561499D01*
X580169D01*
X579336Y560666D01*
Y557334D01*
X580169Y556501D01*
X581835D01*
X582668Y557334D01*
X587666Y561499D02*
X584334D01*
Y559000D01*
X586000Y559833D01*
X586833D01*
X587666Y559000D01*
Y557334D01*
X586833Y556501D01*
X585167D01*
X584334Y557334D01*
X589332Y561499D02*
X592664D01*
Y560666D01*
X589332Y557334D01*
Y556501D01*
X598668Y525666D02*
X597835Y526499D01*
X596169D01*
X595336Y525666D01*
Y522334D01*
X596169Y521501D01*
X597835D01*
X598668Y522334D01*
X603666Y526499D02*
X600334D01*
Y524000D01*
X602000Y524833D01*
X602833D01*
X603666Y524000D01*
Y522334D01*
X602833Y521501D01*
X601167D01*
X600334Y522334D01*
X608665Y526499D02*
X606998Y525666D01*
X605332Y524000D01*
Y522334D01*
X606165Y521501D01*
X607831D01*
X608665Y522334D01*
Y523167D01*
X607831Y524000D01*
X605332D01*
X540668Y585666D02*
X539835Y586499D01*
X538169D01*
X537336Y585666D01*
Y582334D01*
X538169Y581501D01*
X539835D01*
X540668Y582334D01*
X545666Y586499D02*
X542334D01*
Y584000D01*
X544000Y584833D01*
X544833D01*
X545666Y584000D01*
Y582334D01*
X544833Y581501D01*
X543167D01*
X542334Y582334D01*
X550664Y586499D02*
X547332D01*
Y584000D01*
X548998Y584833D01*
X549831D01*
X550664Y584000D01*
Y582334D01*
X549831Y581501D01*
X548165D01*
X547332Y582334D01*
X716668Y504666D02*
X715835Y505499D01*
X714169D01*
X713335Y504666D01*
Y501334D01*
X714169Y500501D01*
X715835D01*
X716668Y501334D01*
X721666Y505499D02*
X718334D01*
Y503000D01*
X720000Y503833D01*
X720833D01*
X721666Y503000D01*
Y501334D01*
X720833Y500501D01*
X719167D01*
X718334Y501334D01*
X725831Y500501D02*
Y505499D01*
X723332Y503000D01*
X726665D01*
X683668Y376666D02*
X682835Y377499D01*
X681169D01*
X680335Y376666D01*
Y373334D01*
X681169Y372501D01*
X682835D01*
X683668Y373334D01*
X688666Y377499D02*
X685334D01*
Y375000D01*
X687000Y375833D01*
X687833D01*
X688666Y375000D01*
Y373334D01*
X687833Y372501D01*
X686167D01*
X685334Y373334D01*
X690332Y376666D02*
X691165Y377499D01*
X692831D01*
X693664Y376666D01*
Y375833D01*
X692831Y375000D01*
X691998D01*
X692831D01*
X693664Y374167D01*
Y373334D01*
X692831Y372501D01*
X691165D01*
X690332Y373334D01*
X519668Y419666D02*
X518835Y420499D01*
X517169D01*
X516335Y419666D01*
Y416334D01*
X517169Y415501D01*
X518835D01*
X519668Y416334D01*
X524666Y420499D02*
X521334D01*
Y418000D01*
X523000Y418833D01*
X523833D01*
X524666Y418000D01*
Y416334D01*
X523833Y415501D01*
X522167D01*
X521334Y416334D01*
X529664Y415501D02*
X526332D01*
X529664Y418833D01*
Y419666D01*
X528831Y420499D01*
X527165D01*
X526332Y419666D01*
X538501Y483666D02*
X537668Y484499D01*
X536002D01*
X535169Y483666D01*
Y480334D01*
X536002Y479501D01*
X537668D01*
X538501Y480334D01*
X543499Y484499D02*
X540167D01*
Y482000D01*
X541833Y482833D01*
X542666D01*
X543499Y482000D01*
Y480334D01*
X542666Y479501D01*
X541000D01*
X540167Y480334D01*
X545165Y479501D02*
X546831D01*
X545998D01*
Y484499D01*
X545165Y483666D01*
X509668Y406666D02*
X508835Y407499D01*
X507169D01*
X506335Y406666D01*
Y403334D01*
X507169Y402501D01*
X508835D01*
X509668Y403334D01*
X514666Y407499D02*
X511334D01*
Y405000D01*
X513000Y405833D01*
X513833D01*
X514666Y405000D01*
Y403334D01*
X513833Y402501D01*
X512167D01*
X511334Y403334D01*
X516332Y406666D02*
X517165Y407499D01*
X518831D01*
X519664Y406666D01*
Y403334D01*
X518831Y402501D01*
X517165D01*
X516332Y403334D01*
Y406666D01*
X686334Y543668D02*
X685501Y542835D01*
Y541169D01*
X686334Y540336D01*
X689666D01*
X690499Y541169D01*
Y542835D01*
X689666Y543668D01*
X690499Y547833D02*
X685501D01*
X688000Y545334D01*
Y548666D01*
X689666Y550332D02*
X690499Y551165D01*
Y552831D01*
X689666Y553665D01*
X686334D01*
X685501Y552831D01*
Y551165D01*
X686334Y550332D01*
X687167D01*
X688000Y551165D01*
Y553665D01*
X617668Y561666D02*
X616835Y562499D01*
X615169D01*
X614336Y561666D01*
Y558334D01*
X615169Y557501D01*
X616835D01*
X617668Y558334D01*
X621833Y557501D02*
Y562499D01*
X619334Y560000D01*
X622666D01*
X624332Y561666D02*
X625165Y562499D01*
X626831D01*
X627664Y561666D01*
Y560833D01*
X626831Y560000D01*
X627664Y559167D01*
Y558334D01*
X626831Y557501D01*
X625165D01*
X624332Y558334D01*
Y559167D01*
X625165Y560000D01*
X624332Y560833D01*
Y561666D01*
X625165Y560000D02*
X626831D01*
X520668Y531666D02*
X519835Y532499D01*
X518169D01*
X517336Y531666D01*
Y528334D01*
X518169Y527501D01*
X519835D01*
X520668Y528334D01*
X524833Y527501D02*
Y532499D01*
X522334Y530000D01*
X525666D01*
X527332Y532499D02*
X530664D01*
Y531666D01*
X527332Y528334D01*
Y527501D01*
X556835Y68501D02*
Y73499D01*
X559334D01*
X560167Y72666D01*
Y71000D01*
X559334Y70167D01*
X556835D01*
X558501D02*
X560167Y68501D01*
X561833Y73499D02*
X565165D01*
Y72666D01*
X561833Y69334D01*
Y68501D01*
X691835Y80501D02*
Y85499D01*
X694334D01*
X695167Y84666D01*
Y83000D01*
X694334Y82167D01*
X691835D01*
X693501D02*
X695167Y80501D01*
X700165Y85499D02*
X698499Y84666D01*
X696833Y83000D01*
Y81334D01*
X697666Y80501D01*
X699332D01*
X700165Y81334D01*
Y82167D01*
X699332Y83000D01*
X696833D01*
X591501Y126499D02*
X588169D01*
Y124000D01*
X589835D01*
X588169D01*
Y121501D01*
X593167Y126499D02*
Y121501D01*
X595666D01*
X596499Y122334D01*
Y123167D01*
X595666Y124000D01*
X593167D01*
X595666D01*
X596499Y124833D01*
Y125666D01*
X595666Y126499D01*
X593167D01*
X598165Y121501D02*
X599831D01*
X598998D01*
Y126499D01*
X598165Y125666D01*
X656835Y127499D02*
Y122501D01*
X659334D01*
X660167Y123334D01*
Y126666D01*
X659334Y127499D01*
X656835D01*
X664332Y122501D02*
Y127499D01*
X661833Y125000D01*
X665165D01*
X574084Y125666D02*
X573251Y126499D01*
X571585D01*
X570752Y125666D01*
Y122334D01*
X571585Y121501D01*
X573251D01*
X574084Y122334D01*
X575750Y121501D02*
X577416D01*
X576584D01*
Y126499D01*
X575750Y125666D01*
X579916D02*
X580749Y126499D01*
X582415D01*
X583248Y125666D01*
Y124833D01*
X582415Y124000D01*
X581582D01*
X582415D01*
X583248Y123167D01*
Y122334D01*
X582415Y121501D01*
X580749D01*
X579916Y122334D01*
X616084Y113666D02*
X615251Y114499D01*
X613585D01*
X612752Y113666D01*
Y110334D01*
X613585Y109501D01*
X615251D01*
X616084Y110334D01*
X617750Y109501D02*
X619417D01*
X618583D01*
Y114499D01*
X617750Y113666D01*
X625248Y109501D02*
X621916D01*
X625248Y112833D01*
Y113666D01*
X624415Y114499D01*
X622749D01*
X621916Y113666D01*
X572668Y692499D02*
X576000Y687501D01*
Y692499D02*
X572668Y687501D01*
X577666D02*
X579332D01*
X578499D01*
Y692499D01*
X577666Y691666D01*
X667752Y290499D02*
Y286334D01*
X668585Y285501D01*
X670251D01*
X671084Y286334D01*
Y290499D01*
X672750Y285501D02*
X674417D01*
X673584D01*
Y290499D01*
X672750Y289666D01*
X676916D02*
X677749Y290499D01*
X679415D01*
X680248Y289666D01*
Y286334D01*
X679415Y285501D01*
X677749D01*
X676916Y286334D01*
Y289666D01*
X612835Y271499D02*
Y267334D01*
X613668Y266501D01*
X615334D01*
X616167Y267334D01*
Y271499D01*
X617833Y267334D02*
X618666Y266501D01*
X620332D01*
X621165Y267334D01*
Y270666D01*
X620332Y271499D01*
X618666D01*
X617833Y270666D01*
Y269833D01*
X618666Y269000D01*
X621165D01*
X589835Y289499D02*
Y285334D01*
X590668Y284501D01*
X592334D01*
X593167Y285334D01*
Y289499D01*
X594833Y288666D02*
X595666Y289499D01*
X597332D01*
X598165Y288666D01*
Y287833D01*
X597332Y287000D01*
X598165Y286167D01*
Y285334D01*
X597332Y284501D01*
X595666D01*
X594833Y285334D01*
Y286167D01*
X595666Y287000D01*
X594833Y287833D01*
Y288666D01*
X595666Y287000D02*
X597332D01*
X657835Y625499D02*
Y621334D01*
X658668Y620501D01*
X660334D01*
X661167Y621334D01*
Y625499D01*
X662833D02*
X666165D01*
Y624666D01*
X662833Y621334D01*
Y620501D01*
X717835Y655499D02*
Y651334D01*
X718668Y650501D01*
X720334D01*
X721167Y651334D01*
Y655499D01*
X726165D02*
X724499Y654666D01*
X722833Y653000D01*
Y651334D01*
X723666Y650501D01*
X725332D01*
X726165Y651334D01*
Y652167D01*
X725332Y653000D01*
X722833D01*
X712835Y736499D02*
Y732334D01*
X713668Y731501D01*
X715334D01*
X716167Y732334D01*
Y736499D01*
X721165D02*
X717833D01*
Y734000D01*
X719499Y734833D01*
X720332D01*
X721165Y734000D01*
Y732334D01*
X720332Y731501D01*
X718666D01*
X717833Y732334D01*
X455184Y749996D02*
Y745831D01*
X456017Y744998D01*
X457683D01*
X458516Y745831D01*
Y749996D01*
X462682Y744998D02*
Y749996D01*
X460182Y747497D01*
X463515D01*
X447835Y651499D02*
Y647334D01*
X448668Y646501D01*
X450334D01*
X451167Y647334D01*
Y651499D01*
X452833Y650666D02*
X453666Y651499D01*
X455332D01*
X456165Y650666D01*
Y649833D01*
X455332Y649000D01*
X454499D01*
X455332D01*
X456165Y648167D01*
Y647334D01*
X455332Y646501D01*
X453666D01*
X452833Y647334D01*
X876835Y376499D02*
Y372334D01*
X877668Y371501D01*
X879334D01*
X880167Y372334D01*
Y376499D01*
X885165Y371501D02*
X881833D01*
X885165Y374833D01*
Y375666D01*
X884332Y376499D01*
X882666D01*
X881833Y375666D01*
X712668Y150499D02*
Y146334D01*
X713501Y145501D01*
X715167D01*
X716000Y146334D01*
Y150499D01*
X717666Y145501D02*
X719332D01*
X718499D01*
Y150499D01*
X717666Y149666D01*
X856501Y21666D02*
X855668Y22499D01*
X854002D01*
X853169Y21666D01*
Y20833D01*
X854002Y20000D01*
X855668D01*
X856501Y19167D01*
Y18334D01*
X855668Y17501D01*
X854002D01*
X853169Y18334D01*
X858167Y22499D02*
Y17501D01*
X859833Y19167D01*
X861499Y17501D01*
Y22499D01*
X863165Y17501D02*
X864831D01*
X863998D01*
Y22499D01*
X863165Y21666D01*
X693335Y356501D02*
Y361499D01*
X695835D01*
X696668Y360666D01*
Y359000D01*
X695835Y358167D01*
X693335D01*
X695002D02*
X696668Y356501D01*
X698334Y360666D02*
X699167Y361499D01*
X700833D01*
X701666Y360666D01*
Y359833D01*
X700833Y359000D01*
X700000D01*
X700833D01*
X701666Y358167D01*
Y357334D01*
X700833Y356501D01*
X699167D01*
X698334Y357334D01*
X705831Y356501D02*
Y361499D01*
X703332Y359000D01*
X706665D01*
X706336Y348501D02*
Y353499D01*
X708835D01*
X709668Y352666D01*
Y351000D01*
X708835Y350167D01*
X706336D01*
X708002D02*
X709668Y348501D01*
X711334Y352666D02*
X712167Y353499D01*
X713833D01*
X714666Y352666D01*
Y351833D01*
X713833Y351000D01*
X713000D01*
X713833D01*
X714666Y350167D01*
Y349334D01*
X713833Y348501D01*
X712167D01*
X711334Y349334D01*
X716332Y352666D02*
X717165Y353499D01*
X718831D01*
X719665Y352666D01*
Y351833D01*
X718831Y351000D01*
X717998D01*
X718831D01*
X719665Y350167D01*
Y349334D01*
X718831Y348501D01*
X717165D01*
X716332Y349334D01*
X667336Y311501D02*
Y316499D01*
X669835D01*
X670668Y315666D01*
Y314000D01*
X669835Y313167D01*
X667336D01*
X669002D02*
X670668Y311501D01*
X672334Y315666D02*
X673167Y316499D01*
X674833D01*
X675666Y315666D01*
Y314833D01*
X674833Y314000D01*
X674000D01*
X674833D01*
X675666Y313167D01*
Y312334D01*
X674833Y311501D01*
X673167D01*
X672334Y312334D01*
X680665Y311501D02*
X677332D01*
X680665Y314833D01*
Y315666D01*
X679831Y316499D01*
X678165D01*
X677332Y315666D01*
X720169Y356501D02*
Y361499D01*
X722668D01*
X723501Y360666D01*
Y359000D01*
X722668Y358167D01*
X720169D01*
X721835D02*
X723501Y356501D01*
X725167Y360666D02*
X726000Y361499D01*
X727666D01*
X728499Y360666D01*
Y359833D01*
X727666Y359000D01*
X726833D01*
X727666D01*
X728499Y358167D01*
Y357334D01*
X727666Y356501D01*
X726000D01*
X725167Y357334D01*
X730165Y356501D02*
X731831D01*
X730998D01*
Y361499D01*
X730165Y360666D01*
X732336Y348501D02*
Y353499D01*
X734835D01*
X735668Y352666D01*
Y351000D01*
X734835Y350167D01*
X732336D01*
X734002D02*
X735668Y348501D01*
X737334Y352666D02*
X738167Y353499D01*
X739833D01*
X740666Y352666D01*
Y351833D01*
X739833Y351000D01*
X739000D01*
X739833D01*
X740666Y350167D01*
Y349334D01*
X739833Y348501D01*
X738167D01*
X737334Y349334D01*
X742332Y352666D02*
X743165Y353499D01*
X744831D01*
X745665Y352666D01*
Y349334D01*
X744831Y348501D01*
X743165D01*
X742332Y349334D01*
Y352666D01*
X543335Y357501D02*
Y362499D01*
X545835D01*
X546668Y361666D01*
Y360000D01*
X545835Y359167D01*
X543335D01*
X545002D02*
X546668Y357501D01*
X551666D02*
X548334D01*
X551666Y360833D01*
Y361666D01*
X550833Y362499D01*
X549167D01*
X548334Y361666D01*
X553332D02*
X554165Y362499D01*
X555831D01*
X556665Y361666D01*
Y360833D01*
X555831Y360000D01*
X556665Y359167D01*
Y358334D01*
X555831Y357501D01*
X554165D01*
X553332Y358334D01*
Y359167D01*
X554165Y360000D01*
X553332Y360833D01*
Y361666D01*
X554165Y360000D02*
X555831D01*
X556335Y349501D02*
Y354499D01*
X558835D01*
X559668Y353666D01*
Y352000D01*
X558835Y351167D01*
X556335D01*
X558002D02*
X559668Y349501D01*
X564666D02*
X561334D01*
X564666Y352833D01*
Y353666D01*
X563833Y354499D01*
X562167D01*
X561334Y353666D01*
X566332Y354499D02*
X569664D01*
Y353666D01*
X566332Y350334D01*
Y349501D01*
X516335Y357501D02*
Y362499D01*
X518835D01*
X519668Y361666D01*
Y360000D01*
X518835Y359167D01*
X516335D01*
X518002D02*
X519668Y357501D01*
X524666D02*
X521334D01*
X524666Y360833D01*
Y361666D01*
X523833Y362499D01*
X522167D01*
X521334Y361666D01*
X528831Y357501D02*
Y362499D01*
X526332Y360000D01*
X529664D01*
X569336Y357501D02*
Y362499D01*
X571835D01*
X572668Y361666D01*
Y360000D01*
X571835Y359167D01*
X569336D01*
X571002D02*
X572668Y357501D01*
X577666D02*
X574334D01*
X577666Y360833D01*
Y361666D01*
X576833Y362499D01*
X575167D01*
X574334Y361666D01*
X579332D02*
X580165Y362499D01*
X581831D01*
X582664Y361666D01*
Y360833D01*
X581831Y360000D01*
X580998D01*
X581831D01*
X582664Y359167D01*
Y358334D01*
X581831Y357501D01*
X580165D01*
X579332Y358334D01*
X583169Y349501D02*
Y354499D01*
X585668D01*
X586501Y353666D01*
Y352000D01*
X585668Y351167D01*
X583169D01*
X584835D02*
X586501Y349501D01*
X591499D02*
X588167D01*
X591499Y352833D01*
Y353666D01*
X590666Y354499D01*
X589000D01*
X588167Y353666D01*
X593165Y349501D02*
X594831D01*
X593998D01*
Y354499D01*
X593165Y353666D01*
X773752Y556501D02*
Y561499D01*
X776251D01*
X777084Y560666D01*
Y559000D01*
X776251Y558167D01*
X773752D01*
X775418D02*
X777084Y556501D01*
X778750D02*
X780416D01*
X779584D01*
Y561499D01*
X778750Y560666D01*
X785415Y556501D02*
Y561499D01*
X782916Y559000D01*
X786248D01*
X815752Y543501D02*
Y548499D01*
X818251D01*
X819084Y547666D01*
Y546000D01*
X818251Y545167D01*
X815752D01*
X817418D02*
X819084Y543501D01*
X820750D02*
X822417D01*
X821583D01*
Y548499D01*
X820750Y547666D01*
X824916D02*
X825749Y548499D01*
X827415D01*
X828248Y547666D01*
Y546833D01*
X827415Y546000D01*
X826582D01*
X827415D01*
X828248Y545167D01*
Y544334D01*
X827415Y543501D01*
X825749D01*
X824916Y544334D01*
X593752Y226501D02*
Y231499D01*
X596251D01*
X597084Y230666D01*
Y229000D01*
X596251Y228167D01*
X593752D01*
X595418D02*
X597084Y226501D01*
X598750D02*
X600416D01*
X599584D01*
Y231499D01*
X598750Y230666D01*
X606248Y226501D02*
X602916D01*
X606248Y229833D01*
Y230666D01*
X605415Y231499D01*
X603749D01*
X602916Y230666D01*
X635585Y150501D02*
Y155499D01*
X638084D01*
X638917Y154666D01*
Y153000D01*
X638084Y152167D01*
X635585D01*
X637251D02*
X638917Y150501D01*
X640583D02*
X642250D01*
X641416D01*
Y155499D01*
X640583Y154666D01*
X644749Y150501D02*
X646415D01*
X645582D01*
Y155499D01*
X644749Y154666D01*
X629752Y225501D02*
Y230499D01*
X632251D01*
X633084Y229666D01*
Y228000D01*
X632251Y227167D01*
X629752D01*
X631418D02*
X633084Y225501D01*
X634750D02*
X636417D01*
X635583D01*
Y230499D01*
X634750Y229666D01*
X638916D02*
X639749Y230499D01*
X641415D01*
X642248Y229666D01*
Y226334D01*
X641415Y225501D01*
X639749D01*
X638916Y226334D01*
Y229666D01*
X530835Y104501D02*
Y109499D01*
X533334D01*
X534167Y108666D01*
Y107000D01*
X533334Y106167D01*
X530835D01*
X532501D02*
X534167Y104501D01*
X535833Y105334D02*
X536666Y104501D01*
X538332D01*
X539165Y105334D01*
Y108666D01*
X538332Y109499D01*
X536666D01*
X535833Y108666D01*
Y107833D01*
X536666Y107000D01*
X539165D01*
X631835Y215501D02*
Y220499D01*
X634334D01*
X635167Y219666D01*
Y218000D01*
X634334Y217167D01*
X631835D01*
X633501D02*
X635167Y215501D01*
X636833Y219666D02*
X637666Y220499D01*
X639332D01*
X640165Y219666D01*
Y218833D01*
X639332Y218000D01*
X640165Y217167D01*
Y216334D01*
X639332Y215501D01*
X637666D01*
X636833Y216334D01*
Y217167D01*
X637666Y218000D01*
X636833Y218833D01*
Y219666D01*
X637666Y218000D02*
X639332D01*
X875835Y279501D02*
Y284499D01*
X878334D01*
X879167Y283666D01*
Y282000D01*
X878334Y281167D01*
X875835D01*
X877501D02*
X879167Y279501D01*
X884165Y284499D02*
X880833D01*
Y282000D01*
X882499Y282833D01*
X883332D01*
X884165Y282000D01*
Y280334D01*
X883332Y279501D01*
X881666D01*
X880833Y280334D01*
X896835Y309501D02*
Y314499D01*
X899334D01*
X900167Y313666D01*
Y312000D01*
X899334Y311167D01*
X896835D01*
X898501D02*
X900167Y309501D01*
X904332D02*
Y314499D01*
X901833Y312000D01*
X905165D01*
X820835Y168501D02*
Y173499D01*
X823334D01*
X824167Y172666D01*
Y171000D01*
X823334Y170167D01*
X820835D01*
X822501D02*
X824167Y168501D01*
X825833Y172666D02*
X826666Y173499D01*
X828332D01*
X829165Y172666D01*
Y171833D01*
X828332Y171000D01*
X827499D01*
X828332D01*
X829165Y170167D01*
Y169334D01*
X828332Y168501D01*
X826666D01*
X825833Y169334D01*
X895835Y367501D02*
Y372499D01*
X898334D01*
X899167Y371666D01*
Y370000D01*
X898334Y369167D01*
X895835D01*
X897501D02*
X899167Y367501D01*
X904165D02*
X900833D01*
X904165Y370833D01*
Y371666D01*
X903332Y372499D01*
X901666D01*
X900833Y371666D01*
X754668Y184501D02*
Y189499D01*
X757167D01*
X758000Y188666D01*
Y187000D01*
X757167Y186167D01*
X754668D01*
X756334D02*
X758000Y184501D01*
X759666D02*
X761332D01*
X760499D01*
Y189499D01*
X759666Y188666D01*
X823167Y591334D02*
Y594666D01*
X822334Y595499D01*
X820668D01*
X819835Y594666D01*
Y591334D01*
X820668Y590501D01*
X822334D01*
X821501Y592167D02*
X823167Y590501D01*
X822334D02*
X823167Y591334D01*
X828165Y590501D02*
X824833D01*
X828165Y593833D01*
Y594666D01*
X827332Y595499D01*
X825666D01*
X824833Y594666D01*
X630000Y167334D02*
Y170666D01*
X629167Y171499D01*
X627501D01*
X626668Y170666D01*
Y167334D01*
X627501Y166501D01*
X629167D01*
X628334Y168167D02*
X630000Y166501D01*
X629167D02*
X630000Y167334D01*
X631666Y166501D02*
X633332D01*
X632499D01*
Y171499D01*
X631666Y170666D01*
X507835Y214499D02*
Y209501D01*
X511167D01*
X512833Y213666D02*
X513666Y214499D01*
X515332D01*
X516165Y213666D01*
Y212833D01*
X515332Y212000D01*
X514499D01*
X515332D01*
X516165Y211167D01*
Y210334D01*
X515332Y209501D01*
X513666D01*
X512833Y210334D01*
X887835Y462499D02*
Y457501D01*
X891167D01*
X896165D02*
X892833D01*
X896165Y460833D01*
Y461666D01*
X895332Y462499D01*
X893666D01*
X892833Y461666D01*
X687668Y153499D02*
Y148501D01*
X691000D01*
X692666D02*
X694332D01*
X693499D01*
Y153499D01*
X692666Y152666D01*
X749167Y297499D02*
X747501D01*
X748334D01*
Y293334D01*
X747501Y292501D01*
X746668D01*
X745835Y293334D01*
X750833Y296666D02*
X751666Y297499D01*
X753332D01*
X754165Y296666D01*
Y295833D01*
X753332Y295000D01*
X752499D01*
X753332D01*
X754165Y294167D01*
Y293334D01*
X753332Y292501D01*
X751666D01*
X750833Y293334D01*
X564942Y660334D02*
X561610D01*
Y657835D01*
X563276D01*
X561610D01*
Y655336D01*
X566608Y660334D02*
Y655336D01*
X569108D01*
X569941Y656169D01*
Y657002D01*
X569108Y657835D01*
X566608D01*
X569108D01*
X569941Y658668D01*
Y659501D01*
X569108Y660334D01*
X566608D01*
X574939Y655336D02*
X571607D01*
X574939Y658668D01*
Y659501D01*
X574106Y660334D01*
X572440D01*
X571607Y659501D01*
X576835Y109499D02*
Y104501D01*
X579334D01*
X580167Y105334D01*
Y108666D01*
X579334Y109499D01*
X576835D01*
X585165D02*
X581833D01*
Y107000D01*
X583499Y107833D01*
X584332D01*
X585165Y107000D01*
Y105334D01*
X584332Y104501D01*
X582666D01*
X581833Y105334D01*
X775835Y172499D02*
Y167501D01*
X778334D01*
X779167Y168334D01*
Y171666D01*
X778334Y172499D01*
X775835D01*
X780833Y171666D02*
X781666Y172499D01*
X783332D01*
X784165Y171666D01*
Y170833D01*
X783332Y170000D01*
X782499D01*
X783332D01*
X784165Y169167D01*
Y168334D01*
X783332Y167501D01*
X781666D01*
X780833Y168334D01*
X753888Y441640D02*
Y436642D01*
X756387D01*
X757220Y437475D01*
Y440807D01*
X756387Y441640D01*
X753888D01*
X762219Y436642D02*
X758886D01*
X762219Y439974D01*
Y440807D01*
X761385Y441640D01*
X759719D01*
X758886Y440807D01*
X754668Y220499D02*
Y215501D01*
X757167D01*
X758000Y216334D01*
Y219666D01*
X757167Y220499D01*
X754668D01*
X759666Y215501D02*
X761332D01*
X760499D01*
Y220499D01*
X759666Y219666D01*
X708668Y205666D02*
X707835Y206499D01*
X706169D01*
X705335Y205666D01*
Y202334D01*
X706169Y201501D01*
X707835D01*
X708668Y202334D01*
X712833Y201501D02*
Y206499D01*
X710334Y204000D01*
X713666D01*
X718664Y206499D02*
X716998Y205666D01*
X715332Y204000D01*
Y202334D01*
X716165Y201501D01*
X717831D01*
X718664Y202334D01*
Y203167D01*
X717831Y204000D01*
X715332D01*
X751334Y307668D02*
X750501Y306835D01*
Y305169D01*
X751334Y304335D01*
X754666D01*
X755499Y305169D01*
Y306835D01*
X754666Y307668D01*
X755499Y311833D02*
X750501D01*
X753000Y309334D01*
Y312666D01*
X755499Y316831D02*
X750501D01*
X753000Y314332D01*
Y317665D01*
X690668Y205666D02*
X689835Y206499D01*
X688169D01*
X687336Y205666D01*
Y202334D01*
X688169Y201501D01*
X689835D01*
X690668Y202334D01*
X694833Y201501D02*
Y206499D01*
X692334Y204000D01*
X695666D01*
X697332Y205666D02*
X698165Y206499D01*
X699831D01*
X700665Y205666D01*
Y204833D01*
X699831Y204000D01*
X698998D01*
X699831D01*
X700665Y203167D01*
Y202334D01*
X699831Y201501D01*
X698165D01*
X697332Y202334D01*
X732334Y213501D02*
X731501Y212668D01*
Y211002D01*
X732334Y210169D01*
X735666D01*
X736499Y211002D01*
Y212668D01*
X735666Y213501D01*
X736499Y217666D02*
X731501D01*
X734000Y215167D01*
Y218499D01*
X736499Y220165D02*
Y221831D01*
Y220998D01*
X731501D01*
X732334Y220165D01*
X618668Y287666D02*
X617835Y288499D01*
X616169D01*
X615336Y287666D01*
Y284334D01*
X616169Y283501D01*
X617835D01*
X618668Y284334D01*
X622833Y283501D02*
Y288499D01*
X620334Y286000D01*
X623666D01*
X625332Y287666D02*
X626165Y288499D01*
X627831D01*
X628665Y287666D01*
Y284334D01*
X627831Y283501D01*
X626165D01*
X625332Y284334D01*
Y287666D01*
X523668Y229666D02*
X522835Y230499D01*
X521169D01*
X520336Y229666D01*
Y226334D01*
X521169Y225501D01*
X522835D01*
X523668Y226334D01*
X525334Y229666D02*
X526167Y230499D01*
X527833D01*
X528666Y229666D01*
Y228833D01*
X527833Y228000D01*
X527000D01*
X527833D01*
X528666Y227167D01*
Y226334D01*
X527833Y225501D01*
X526167D01*
X525334Y226334D01*
X530332D02*
X531165Y225501D01*
X532831D01*
X533665Y226334D01*
Y229666D01*
X532831Y230499D01*
X531165D01*
X530332Y229666D01*
Y228833D01*
X531165Y228000D01*
X533665D01*
X417668Y264666D02*
X416835Y265499D01*
X415169D01*
X414336Y264666D01*
Y261334D01*
X415169Y260501D01*
X416835D01*
X417668Y261334D01*
X419334Y264666D02*
X420167Y265499D01*
X421833D01*
X422666Y264666D01*
Y263833D01*
X421833Y263000D01*
X421000D01*
X421833D01*
X422666Y262167D01*
Y261334D01*
X421833Y260501D01*
X420167D01*
X419334Y261334D01*
X424332Y265499D02*
X427664D01*
Y264666D01*
X424332Y261334D01*
Y260501D01*
X506668Y229666D02*
X505835Y230499D01*
X504169D01*
X503335Y229666D01*
Y226334D01*
X504169Y225501D01*
X505835D01*
X506668Y226334D01*
X508334Y229666D02*
X509167Y230499D01*
X510833D01*
X511666Y229666D01*
Y228833D01*
X510833Y228000D01*
X510000D01*
X510833D01*
X511666Y227167D01*
Y226334D01*
X510833Y225501D01*
X509167D01*
X508334Y226334D01*
X516665Y230499D02*
X514998Y229666D01*
X513332Y228000D01*
Y226334D01*
X514165Y225501D01*
X515831D01*
X516665Y226334D01*
Y227167D01*
X515831Y228000D01*
X513332D01*
X582334Y217668D02*
X581501Y216835D01*
Y215169D01*
X582334Y214335D01*
X585666D01*
X586499Y215169D01*
Y216835D01*
X585666Y217668D01*
X582334Y219334D02*
X581501Y220167D01*
Y221833D01*
X582334Y222666D01*
X583167D01*
X584000Y221833D01*
Y221000D01*
Y221833D01*
X584833Y222666D01*
X585666D01*
X586499Y221833D01*
Y220167D01*
X585666Y219334D01*
X586499Y226831D02*
X581501D01*
X584000Y224332D01*
Y227665D01*
X570668Y594666D02*
X569835Y595499D01*
X568169D01*
X567336Y594666D01*
Y591334D01*
X568169Y590501D01*
X569835D01*
X570668Y591334D01*
X572334Y594666D02*
X573167Y595499D01*
X574833D01*
X575666Y594666D01*
Y593833D01*
X574833Y593000D01*
X574000D01*
X574833D01*
X575666Y592167D01*
Y591334D01*
X574833Y590501D01*
X573167D01*
X572334Y591334D01*
X577332Y594666D02*
X578165Y595499D01*
X579831D01*
X580664Y594666D01*
Y593833D01*
X579831Y593000D01*
X578998D01*
X579831D01*
X580664Y592167D01*
Y591334D01*
X579831Y590501D01*
X578165D01*
X577332Y591334D01*
X570668Y606666D02*
X569835Y607499D01*
X568169D01*
X567336Y606666D01*
Y603334D01*
X568169Y602501D01*
X569835D01*
X570668Y603334D01*
X572334Y606666D02*
X573167Y607499D01*
X574833D01*
X575666Y606666D01*
Y605833D01*
X574833Y605000D01*
X574000D01*
X574833D01*
X575666Y604167D01*
Y603334D01*
X574833Y602501D01*
X573167D01*
X572334Y603334D01*
X580664Y602501D02*
X577332D01*
X580664Y605833D01*
Y606666D01*
X579831Y607499D01*
X578165D01*
X577332Y606666D01*
X572501Y620666D02*
X571668Y621499D01*
X570002D01*
X569169Y620666D01*
Y617334D01*
X570002Y616501D01*
X571668D01*
X572501Y617334D01*
X574167Y620666D02*
X575000Y621499D01*
X576666D01*
X577499Y620666D01*
Y619833D01*
X576666Y619000D01*
X575833D01*
X576666D01*
X577499Y618167D01*
Y617334D01*
X576666Y616501D01*
X575000D01*
X574167Y617334D01*
X579165Y616501D02*
X580831D01*
X579998D01*
Y621499D01*
X579165Y620666D01*
X602668Y658666D02*
X601835Y659499D01*
X600169D01*
X599336Y658666D01*
Y655334D01*
X600169Y654501D01*
X601835D01*
X602668Y655334D01*
X604334Y658666D02*
X605167Y659499D01*
X606833D01*
X607666Y658666D01*
Y657833D01*
X606833Y657000D01*
X606000D01*
X606833D01*
X607666Y656167D01*
Y655334D01*
X606833Y654501D01*
X605167D01*
X604334Y655334D01*
X609332Y658666D02*
X610165Y659499D01*
X611831D01*
X612664Y658666D01*
Y655334D01*
X611831Y654501D01*
X610165D01*
X609332Y655334D01*
Y658666D01*
X674668Y641666D02*
X673835Y642499D01*
X672169D01*
X671336Y641666D01*
Y638334D01*
X672169Y637501D01*
X673835D01*
X674668Y638334D01*
X679666Y637501D02*
X676334D01*
X679666Y640833D01*
Y641666D01*
X678833Y642499D01*
X677167D01*
X676334Y641666D01*
X681332Y638334D02*
X682165Y637501D01*
X683831D01*
X684665Y638334D01*
Y641666D01*
X683831Y642499D01*
X682165D01*
X681332Y641666D01*
Y640833D01*
X682165Y640000D01*
X684665D01*
X692668Y641666D02*
X691835Y642499D01*
X690169D01*
X689335Y641666D01*
Y638334D01*
X690169Y637501D01*
X691835D01*
X692668Y638334D01*
X697666Y637501D02*
X694334D01*
X697666Y640833D01*
Y641666D01*
X696833Y642499D01*
X695167D01*
X694334Y641666D01*
X699332D02*
X700165Y642499D01*
X701831D01*
X702664Y641666D01*
Y640833D01*
X701831Y640000D01*
X702664Y639167D01*
Y638334D01*
X701831Y637501D01*
X700165D01*
X699332Y638334D01*
Y639167D01*
X700165Y640000D01*
X699332Y640833D01*
Y641666D01*
X700165Y640000D02*
X701831D01*
X656668Y641666D02*
X655835Y642499D01*
X654169D01*
X653335Y641666D01*
Y638334D01*
X654169Y637501D01*
X655835D01*
X656668Y638334D01*
X661666Y637501D02*
X658334D01*
X661666Y640833D01*
Y641666D01*
X660833Y642499D01*
X659167D01*
X658334Y641666D01*
X663332Y642499D02*
X666665D01*
Y641666D01*
X663332Y638334D01*
Y637501D01*
X847668Y745666D02*
X846835Y746499D01*
X845169D01*
X844335Y745666D01*
Y742334D01*
X845169Y741501D01*
X846835D01*
X847668Y742334D01*
X852666Y741501D02*
X849334D01*
X852666Y744833D01*
Y745666D01*
X851833Y746499D01*
X850167D01*
X849334Y745666D01*
X857664Y746499D02*
X855998Y745666D01*
X854332Y744000D01*
Y742334D01*
X855165Y741501D01*
X856831D01*
X857664Y742334D01*
Y743167D01*
X856831Y744000D01*
X854332D01*
X564668Y753666D02*
X563835Y754499D01*
X562169D01*
X561335Y753666D01*
Y750334D01*
X562169Y749501D01*
X563835D01*
X564668Y750334D01*
X569666Y749501D02*
X566334D01*
X569666Y752833D01*
Y753666D01*
X568833Y754499D01*
X567167D01*
X566334Y753666D01*
X574664Y754499D02*
X571332D01*
Y752000D01*
X572998Y752833D01*
X573831D01*
X574664Y752000D01*
Y750334D01*
X573831Y749501D01*
X572165D01*
X571332Y750334D01*
X709668Y595666D02*
X708835Y596499D01*
X707169D01*
X706336Y595666D01*
Y592334D01*
X707169Y591501D01*
X708835D01*
X709668Y592334D01*
X714666Y591501D02*
X711334D01*
X714666Y594833D01*
Y595666D01*
X713833Y596499D01*
X712167D01*
X711334Y595666D01*
X718831Y591501D02*
Y596499D01*
X716332Y594000D01*
X719665D01*
X494668Y595666D02*
X493835Y596499D01*
X492169D01*
X491335Y595666D01*
Y592334D01*
X492169Y591501D01*
X493835D01*
X494668Y592334D01*
X499666Y591501D02*
X496334D01*
X499666Y594833D01*
Y595666D01*
X498833Y596499D01*
X497167D01*
X496334Y595666D01*
X501332D02*
X502165Y596499D01*
X503831D01*
X504664Y595666D01*
Y594833D01*
X503831Y594000D01*
X502998D01*
X503831D01*
X504664Y593167D01*
Y592334D01*
X503831Y591501D01*
X502165D01*
X501332Y592334D01*
X836214Y698109D02*
X835381Y698942D01*
X833715D01*
X832882Y698109D01*
Y694777D01*
X833715Y693944D01*
X835381D01*
X836214Y694777D01*
X841213Y693944D02*
X837880D01*
X841213Y697276D01*
Y698109D01*
X840379Y698942D01*
X838713D01*
X837880Y698109D01*
X846211Y693944D02*
X842879D01*
X846211Y697276D01*
Y698109D01*
X845378Y698942D01*
X843712D01*
X842879Y698109D01*
X433501Y687666D02*
X432668Y688499D01*
X431002D01*
X430169Y687666D01*
Y684334D01*
X431002Y683501D01*
X432668D01*
X433501Y684334D01*
X438499Y683501D02*
X435167D01*
X438499Y686833D01*
Y687666D01*
X437666Y688499D01*
X436000D01*
X435167Y687666D01*
X440165Y683501D02*
X441831D01*
X440998D01*
Y688499D01*
X440165Y687666D01*
X536668Y133666D02*
X535835Y134499D01*
X534169D01*
X533335Y133666D01*
Y130334D01*
X534169Y129501D01*
X535835D01*
X536668Y130334D01*
X541666Y129501D02*
X538334D01*
X541666Y132833D01*
Y133666D01*
X540833Y134499D01*
X539167D01*
X538334Y133666D01*
X543332D02*
X544165Y134499D01*
X545831D01*
X546665Y133666D01*
Y130334D01*
X545831Y129501D01*
X544165D01*
X543332Y130334D01*
Y133666D01*
X609084Y125666D02*
X608251Y126499D01*
X606585D01*
X605752Y125666D01*
Y122334D01*
X606585Y121501D01*
X608251D01*
X609084Y122334D01*
X610750Y121501D02*
X612416D01*
X611584D01*
Y126499D01*
X610750Y125666D01*
X614916Y122334D02*
X615749Y121501D01*
X617415D01*
X618248Y122334D01*
Y125666D01*
X617415Y126499D01*
X615749D01*
X614916Y125666D01*
Y124833D01*
X615749Y124000D01*
X618248D01*
X537084Y124666D02*
X536251Y125499D01*
X534585D01*
X533752Y124666D01*
Y121334D01*
X534585Y120501D01*
X536251D01*
X537084Y121334D01*
X538750Y120501D02*
X540416D01*
X539584D01*
Y125499D01*
X538750Y124666D01*
X542916D02*
X543749Y125499D01*
X545415D01*
X546248Y124666D01*
Y123833D01*
X545415Y123000D01*
X546248Y122167D01*
Y121334D01*
X545415Y120501D01*
X543749D01*
X542916Y121334D01*
Y122167D01*
X543749Y123000D01*
X542916Y123833D01*
Y124666D01*
X543749Y123000D02*
X545415D01*
X556084Y124666D02*
X555251Y125499D01*
X553585D01*
X552752Y124666D01*
Y121334D01*
X553585Y120501D01*
X555251D01*
X556084Y121334D01*
X557750Y120501D02*
X559417D01*
X558583D01*
Y125499D01*
X557750Y124666D01*
X561916Y125499D02*
X565248D01*
Y124666D01*
X561916Y121334D01*
Y120501D01*
X490084Y127666D02*
X489251Y128499D01*
X487585D01*
X486752Y127666D01*
Y124334D01*
X487585Y123501D01*
X489251D01*
X490084Y124334D01*
X491750Y123501D02*
X493416D01*
X492584D01*
Y128499D01*
X491750Y127666D01*
X499248Y128499D02*
X497582Y127666D01*
X495916Y126000D01*
Y124334D01*
X496749Y123501D01*
X498415D01*
X499248Y124334D01*
Y125167D01*
X498415Y126000D01*
X495916D01*
X490084Y139666D02*
X489251Y140499D01*
X487585D01*
X486752Y139666D01*
Y136334D01*
X487585Y135501D01*
X489251D01*
X490084Y136334D01*
X491750Y135501D02*
X493416D01*
X492584D01*
Y140499D01*
X491750Y139666D01*
X499248Y140499D02*
X495916D01*
Y138000D01*
X497582Y138833D01*
X498415D01*
X499248Y138000D01*
Y136334D01*
X498415Y135501D01*
X496749D01*
X495916Y136334D01*
X537084Y142666D02*
X536251Y143499D01*
X534585D01*
X533752Y142666D01*
Y139334D01*
X534585Y138501D01*
X536251D01*
X537084Y139334D01*
X538750Y138501D02*
X540416D01*
X539584D01*
Y143499D01*
X538750Y142666D01*
X545415Y138501D02*
Y143499D01*
X542916Y141000D01*
X546248D01*
X897917Y380666D02*
X897084Y381499D01*
X895418D01*
X894585Y380666D01*
Y377334D01*
X895418Y376501D01*
X897084D01*
X897917Y377334D01*
X899584Y376501D02*
X901250D01*
X900416D01*
Y381499D01*
X899584Y380666D01*
X903749Y376501D02*
X905415D01*
X904582D01*
Y381499D01*
X903749Y380666D01*
X779084Y335666D02*
X778251Y336499D01*
X776585D01*
X775752Y335666D01*
Y332334D01*
X776585Y331501D01*
X778251D01*
X779084Y332334D01*
X780750Y331501D02*
X782417D01*
X781583D01*
Y336499D01*
X780750Y335666D01*
X784916D02*
X785749Y336499D01*
X787415D01*
X788248Y335666D01*
Y332334D01*
X787415Y331501D01*
X785749D01*
X784916Y332334D01*
Y335666D01*
X783167Y323666D02*
X782334Y324499D01*
X780668D01*
X779835Y323666D01*
Y320334D01*
X780668Y319501D01*
X782334D01*
X783167Y320334D01*
X784833D02*
X785666Y319501D01*
X787332D01*
X788165Y320334D01*
Y323666D01*
X787332Y324499D01*
X785666D01*
X784833Y323666D01*
Y322833D01*
X785666Y322000D01*
X788165D01*
X898167Y283666D02*
X897334Y284499D01*
X895668D01*
X894835Y283666D01*
Y280334D01*
X895668Y279501D01*
X897334D01*
X898167Y280334D01*
X899833Y283666D02*
X900666Y284499D01*
X902332D01*
X903165Y283666D01*
Y282833D01*
X902332Y282000D01*
X903165Y281167D01*
Y280334D01*
X902332Y279501D01*
X900666D01*
X899833Y280334D01*
Y281167D01*
X900666Y282000D01*
X899833Y282833D01*
Y283666D01*
X900666Y282000D02*
X902332D01*
X889167Y295666D02*
X888334Y296499D01*
X886668D01*
X885835Y295666D01*
Y292334D01*
X886668Y291501D01*
X888334D01*
X889167Y292334D01*
X890833Y296499D02*
X894165D01*
Y295666D01*
X890833Y292334D01*
Y291501D01*
X654167Y235666D02*
X653334Y236499D01*
X651668D01*
X650835Y235666D01*
Y232334D01*
X651668Y231501D01*
X653334D01*
X654167Y232334D01*
X659165Y236499D02*
X655833D01*
Y234000D01*
X657499Y234833D01*
X658332D01*
X659165Y234000D01*
Y232334D01*
X658332Y231501D01*
X656666D01*
X655833Y232334D01*
X667167Y235666D02*
X666334Y236499D01*
X664668D01*
X663835Y235666D01*
Y232334D01*
X664668Y231501D01*
X666334D01*
X667167Y232334D01*
X671332Y231501D02*
Y236499D01*
X668833Y234000D01*
X672165D01*
X770167Y163666D02*
X769334Y164499D01*
X767668D01*
X766835Y163666D01*
Y160334D01*
X767668Y159501D01*
X769334D01*
X770167Y160334D01*
X771833Y163666D02*
X772666Y164499D01*
X774332D01*
X775165Y163666D01*
Y162833D01*
X774332Y162000D01*
X773499D01*
X774332D01*
X775165Y161167D01*
Y160334D01*
X774332Y159501D01*
X772666D01*
X771833Y160334D01*
X732167Y148666D02*
X731334Y149499D01*
X729668D01*
X728835Y148666D01*
Y145334D01*
X729668Y144501D01*
X731334D01*
X732167Y145334D01*
X737165Y144501D02*
X733833D01*
X737165Y147833D01*
Y148666D01*
X736332Y149499D01*
X734666D01*
X733833Y148666D01*
D18*
X582960Y663680D02*
Y692169D01*
Y663680D02*
X687037D01*
Y692169D01*
X592460Y704320D02*
X677539D01*
D19*
X562000Y377000D02*
Y395000D01*
X558000Y532000D02*
X576000D01*
D20*
X746500Y287700D02*
X822700D01*
X746500Y236900D02*
Y287700D01*
Y236900D02*
X822700D01*
Y287700D01*
X522700Y236900D02*
Y287700D01*
X446500Y236900D02*
X522700D01*
X446500D02*
Y287700D01*
X522700D01*
X804700Y460900D02*
Y537100D01*
X753900D02*
X804700D01*
X753900Y460900D02*
Y537100D01*
Y460900D02*
X804700D01*
M02*
