G04*
G04 #@! TF.GenerationSoftware,Altium Limited,Altium Designer,22.6.1 (34)*
G04*
G04 Layer_Color=16711935*
%FSLAX44Y44*%
%MOMM*%
G71*
G04*
G04 #@! TF.SameCoordinates,9900268D-5443-4670-A824-5D7C6AAB4451*
G04*
G04*
G04 #@! TF.FilePolarity,Positive*
G04*
G01*
G75*
G36*
X733373Y1000421D02*
X740317Y985530D01*
X835343Y950943D01*
X836004Y950000D01*
Y904569D01*
X835625Y903783D01*
X704088Y799214D01*
X703463Y798996D01*
X566537D01*
X565912Y799214D01*
X433996Y904569D01*
Y950000D01*
X434657Y950943D01*
X529683Y985530D01*
X536511Y1000174D01*
X536542Y1000348D01*
X536719Y1000655D01*
X536990Y1000883D01*
X537323Y1001004D01*
X732462D01*
X733373Y1000421D01*
D02*
G37*
G36*
X1031843Y744283D02*
X1036274Y743096D01*
X1040513Y741340D01*
X1044487Y739046D01*
X1048127Y736253D01*
X1051371Y733009D01*
X1054164Y729369D01*
X1056458Y725395D01*
X1058214Y721156D01*
X1059401Y716725D01*
X1060000Y712176D01*
Y709882D01*
Y707588D01*
X1059401Y703039D01*
X1058214Y698607D01*
X1056458Y694369D01*
X1054164Y690395D01*
X1051371Y686755D01*
X1048127Y683511D01*
X1044487Y680718D01*
X1040513Y678424D01*
X1036274Y676668D01*
X1031843Y675481D01*
X1027294Y674882D01*
X1022706D01*
X1018157Y675481D01*
X1013726Y676668D01*
X1009487Y678424D01*
X1005513Y680718D01*
X1001873Y683511D01*
X998629Y686755D01*
X995836Y690395D01*
X993542Y694369D01*
X991786Y698607D01*
X990599Y703039D01*
X990000Y707588D01*
Y709882D01*
Y712176D01*
X990599Y716725D01*
X991786Y721156D01*
X993542Y725395D01*
X995836Y729369D01*
X998629Y733009D01*
X1001873Y736253D01*
X1005513Y739046D01*
X1009487Y741340D01*
X1013726Y743096D01*
X1018157Y744283D01*
X1022706Y744882D01*
X1027294D01*
X1031843Y744283D01*
D02*
G37*
G36*
X251843D02*
X256275Y743096D01*
X260513Y741340D01*
X264487Y739046D01*
X268127Y736253D01*
X271371Y733009D01*
X274164Y729369D01*
X276458Y725395D01*
X278214Y721156D01*
X279401Y716725D01*
X280000Y712176D01*
Y709882D01*
Y707588D01*
X279401Y703039D01*
X278214Y698607D01*
X276458Y694369D01*
X274164Y690395D01*
X271371Y686755D01*
X268127Y683511D01*
X264487Y680718D01*
X260513Y678424D01*
X256275Y676668D01*
X251843Y675481D01*
X247294Y674882D01*
X242706D01*
X238157Y675481D01*
X233725Y676668D01*
X229487Y678424D01*
X225513Y680718D01*
X221873Y683511D01*
X218629Y686755D01*
X215836Y690395D01*
X213542Y694369D01*
X211786Y698607D01*
X210599Y703039D01*
X210000Y707588D01*
Y709882D01*
Y712176D01*
X210599Y716725D01*
X211786Y721156D01*
X213542Y725395D01*
X215836Y729369D01*
X218629Y733009D01*
X221873Y736253D01*
X225513Y739046D01*
X229487Y741340D01*
X233725Y743096D01*
X238157Y744283D01*
X242706Y744882D01*
X247294D01*
X251843Y744283D01*
D02*
G37*
G36*
X866843Y621283D02*
X871274Y620096D01*
X875513Y618340D01*
X879487Y616046D01*
X883127Y613253D01*
X886371Y610009D01*
X889164Y606369D01*
X891458Y602395D01*
X893214Y598157D01*
X894401Y593725D01*
X895000Y589176D01*
Y586882D01*
Y584588D01*
X894401Y580039D01*
X893214Y575607D01*
X891458Y571369D01*
X889164Y567395D01*
X886371Y563755D01*
X883127Y560511D01*
X879487Y557718D01*
X875513Y555424D01*
X871790Y553882D01*
X875513Y552340D01*
X879487Y550046D01*
X883127Y547253D01*
X886371Y544009D01*
X889164Y540369D01*
X891458Y536395D01*
X893214Y532156D01*
X894401Y527725D01*
X895000Y523176D01*
Y520882D01*
Y518588D01*
X894401Y514039D01*
X893214Y509608D01*
X891458Y505369D01*
X889164Y501395D01*
X886371Y497755D01*
X883127Y494511D01*
X879487Y491718D01*
X875513Y489424D01*
X871274Y487668D01*
X866843Y486481D01*
X862294Y485882D01*
X857706D01*
X853157Y486481D01*
X848726Y487668D01*
X844487Y489424D01*
X840513Y491718D01*
X836873Y494511D01*
X833629Y497755D01*
X830836Y501395D01*
X828542Y505369D01*
X826786Y509608D01*
X825599Y514039D01*
X825000Y518588D01*
Y520882D01*
Y523176D01*
X825599Y527725D01*
X826786Y532156D01*
X828542Y536395D01*
X830836Y540369D01*
X833629Y544009D01*
X836873Y547253D01*
X840513Y550046D01*
X844487Y552340D01*
X848210Y553882D01*
X844487Y555424D01*
X840513Y557718D01*
X836873Y560511D01*
X833629Y563755D01*
X830836Y567395D01*
X828542Y571369D01*
X826786Y575607D01*
X825599Y580039D01*
X825000Y584588D01*
Y586882D01*
Y589176D01*
X825599Y593725D01*
X826786Y598157D01*
X828542Y602395D01*
X830836Y606369D01*
X833629Y610009D01*
X836873Y613253D01*
X840513Y616046D01*
X844487Y618340D01*
X848726Y620096D01*
X853157Y621283D01*
X857706Y621882D01*
X862294D01*
X866843Y621283D01*
D02*
G37*
G36*
X417843Y620283D02*
X422275Y619096D01*
X426513Y617340D01*
X430487Y615046D01*
X434127Y612253D01*
X437371Y609009D01*
X440164Y605369D01*
X442458Y601395D01*
X444214Y597156D01*
X445401Y592725D01*
X446000Y588176D01*
Y585882D01*
Y583588D01*
X445401Y579039D01*
X444214Y574608D01*
X442458Y570369D01*
X440164Y566395D01*
X437371Y562755D01*
X434127Y559511D01*
X430487Y556718D01*
X426513Y554424D01*
X424497Y553589D01*
X427513Y552340D01*
X431487Y550046D01*
X435127Y547253D01*
X438371Y544009D01*
X441164Y540369D01*
X443458Y536395D01*
X445214Y532156D01*
X446401Y527725D01*
X447000Y523176D01*
Y520882D01*
Y518588D01*
X446401Y514039D01*
X445214Y509608D01*
X443458Y505369D01*
X441164Y501395D01*
X438371Y497755D01*
X435127Y494511D01*
X431487Y491718D01*
X427513Y489424D01*
X423274Y487668D01*
X418843Y486481D01*
X414294Y485882D01*
X409706D01*
X405157Y486481D01*
X400726Y487668D01*
X396487Y489424D01*
X392513Y491718D01*
X388873Y494511D01*
X385629Y497755D01*
X382836Y501395D01*
X380542Y505369D01*
X378786Y509608D01*
X377599Y514039D01*
X377000Y518588D01*
Y520882D01*
Y523176D01*
X377599Y527725D01*
X378786Y532156D01*
X380542Y536395D01*
X382836Y540369D01*
X385629Y544009D01*
X388873Y547253D01*
X392513Y550046D01*
X396487Y552340D01*
X398503Y553175D01*
X395487Y554424D01*
X391513Y556718D01*
X387873Y559511D01*
X384629Y562755D01*
X381836Y566395D01*
X379542Y570369D01*
X377786Y574608D01*
X376599Y579039D01*
X376000Y583588D01*
Y585882D01*
Y588176D01*
X376599Y592725D01*
X377786Y597156D01*
X379542Y601395D01*
X381836Y605369D01*
X384629Y609009D01*
X387873Y612253D01*
X391513Y615046D01*
X395487Y617340D01*
X399725Y619096D01*
X404157Y620283D01*
X408706Y620882D01*
X413294D01*
X417843Y620283D01*
D02*
G37*
G36*
X867843Y196283D02*
X872274Y195096D01*
X876513Y193340D01*
X880487Y191046D01*
X884127Y188253D01*
X887371Y185009D01*
X890164Y181369D01*
X892458Y177395D01*
X894214Y173157D01*
X895401Y168725D01*
X896000Y164176D01*
Y161882D01*
Y159588D01*
X895401Y155039D01*
X894214Y150608D01*
X892458Y146369D01*
X890164Y142395D01*
X887371Y138755D01*
X884127Y135511D01*
X880487Y132718D01*
X876513Y130424D01*
X872790Y128882D01*
X876513Y127340D01*
X880487Y125046D01*
X884127Y122253D01*
X887371Y119009D01*
X890164Y115369D01*
X892458Y111395D01*
X894214Y107156D01*
X895401Y102725D01*
X896000Y98176D01*
Y95882D01*
Y93588D01*
X895401Y89039D01*
X894214Y84607D01*
X892458Y80369D01*
X890164Y76395D01*
X887371Y72755D01*
X884127Y69511D01*
X880487Y66718D01*
X876513Y64424D01*
X872274Y62668D01*
X867843Y61481D01*
X863294Y60882D01*
X858706D01*
X854157Y61481D01*
X849725Y62668D01*
X845487Y64424D01*
X841513Y66718D01*
X837873Y69511D01*
X834629Y72755D01*
X831836Y76395D01*
X829542Y80369D01*
X827786Y84607D01*
X826599Y89039D01*
X826000Y93588D01*
Y95882D01*
Y98176D01*
X826599Y102725D01*
X827786Y107156D01*
X829542Y111395D01*
X831836Y115369D01*
X834629Y119009D01*
X837873Y122253D01*
X841513Y125046D01*
X845487Y127340D01*
X849210Y128882D01*
X845487Y130424D01*
X841513Y132718D01*
X837873Y135511D01*
X834629Y138755D01*
X831836Y142395D01*
X829542Y146369D01*
X827786Y150608D01*
X826599Y155039D01*
X826000Y159588D01*
Y161882D01*
Y164176D01*
X826599Y168725D01*
X827786Y173157D01*
X829542Y177395D01*
X831836Y181369D01*
X834629Y185009D01*
X837873Y188253D01*
X841513Y191046D01*
X845487Y193340D01*
X849725Y195096D01*
X854157Y196283D01*
X858706Y196882D01*
X863294D01*
X867843Y196283D01*
D02*
G37*
G36*
X417843Y195283D02*
X422275Y194096D01*
X426513Y192340D01*
X430487Y190046D01*
X434127Y187253D01*
X437371Y184009D01*
X440164Y180369D01*
X442458Y176395D01*
X444214Y172157D01*
X445401Y167725D01*
X446000Y163176D01*
Y160882D01*
Y158588D01*
X445401Y154039D01*
X444214Y149607D01*
X442458Y145369D01*
X440164Y141395D01*
X437371Y137755D01*
X434127Y134511D01*
X430487Y131718D01*
X426513Y129424D01*
X423997Y128382D01*
X426513Y127340D01*
X430487Y125046D01*
X434127Y122253D01*
X437371Y119009D01*
X440164Y115369D01*
X442458Y111395D01*
X444214Y107156D01*
X445401Y102725D01*
X446000Y98176D01*
Y95882D01*
Y93588D01*
X445401Y89039D01*
X444214Y84607D01*
X442458Y80369D01*
X440164Y76395D01*
X437371Y72755D01*
X434127Y69511D01*
X430487Y66718D01*
X426513Y64424D01*
X422275Y62668D01*
X417843Y61481D01*
X413294Y60882D01*
X408706D01*
X404157Y61481D01*
X399725Y62668D01*
X395487Y64424D01*
X391513Y66718D01*
X387873Y69511D01*
X384629Y72755D01*
X381836Y76395D01*
X379542Y80369D01*
X377786Y84607D01*
X376599Y89039D01*
X376000Y93588D01*
Y95882D01*
Y98176D01*
X376599Y102725D01*
X377786Y107156D01*
X379542Y111395D01*
X381836Y115369D01*
X384629Y119009D01*
X387873Y122253D01*
X391513Y125046D01*
X395487Y127340D01*
X398003Y128382D01*
X395487Y129424D01*
X391513Y131718D01*
X387873Y134511D01*
X384629Y137755D01*
X381836Y141395D01*
X379542Y145369D01*
X377786Y149607D01*
X376599Y154039D01*
X376000Y158588D01*
Y160882D01*
Y163176D01*
X376599Y167725D01*
X377786Y172157D01*
X379542Y176395D01*
X381836Y180369D01*
X384629Y184009D01*
X387873Y187253D01*
X391513Y190046D01*
X395487Y192340D01*
X399725Y194096D01*
X404157Y195283D01*
X408706Y195882D01*
X413294D01*
X417843Y195283D01*
D02*
G37*
M02*
