G04*
G04 #@! TF.GenerationSoftware,Altium Limited,Altium Designer,22.6.1 (34)*
G04*
G04 Layer_Color=65535*
%FSLAX44Y44*%
%MOMM*%
G71*
G04*
G04 #@! TF.SameCoordinates,9900268D-5443-4670-A824-5D7C6AAB4451*
G04*
G04*
G04 #@! TF.FilePolarity,Positive*
G04*
G01*
G75*
%ADD15C,0.1000*%
%ADD17C,0.2000*%
D15*
X540000Y795000D02*
G03*
X540000Y785000I0J-5000D01*
G01*
X730000D02*
G03*
X730000Y795000I0J5000D01*
G01*
X540000Y795000D02*
X730000Y795000D01*
X540000Y785000D02*
X730000Y785000D01*
D17*
X411576Y112219D02*
X414667Y111604D01*
X417579Y110398D01*
X420199Y108647D01*
X422428Y106419D01*
X424179Y103798D01*
X425385Y100886D01*
X426000Y97795D01*
Y96219D02*
Y97795D01*
Y94643D02*
Y96219D01*
X425385Y91552D02*
X426000Y94643D01*
X424179Y88640D02*
X425385Y91552D01*
X422428Y86020D02*
X424179Y88640D01*
X420199Y83791D02*
X422428Y86020D01*
X417579Y82040D02*
X420199Y83791D01*
X414667Y80834D02*
X417579Y82040D01*
X411576Y80219D02*
X414667Y80834D01*
X408424Y80219D02*
X411576D01*
X405333Y80834D02*
X408424Y80219D01*
X402421Y82040D02*
X405333Y80834D01*
X399801Y83791D02*
X402421Y82040D01*
X397572Y86020D02*
X399801Y83791D01*
X395821Y88640D02*
X397572Y86020D01*
X394615Y91552D02*
X395821Y88640D01*
X394000Y94643D02*
X394615Y91552D01*
X394000Y94643D02*
Y96219D01*
Y97795D01*
X394615Y100886D01*
X395821Y103798D01*
X397572Y106419D01*
X399801Y108647D01*
X402421Y110398D01*
X405333Y111604D01*
X408424Y112219D01*
X411576D01*
X861576D02*
X864667Y111604D01*
X867579Y110398D01*
X870199Y108647D01*
X872428Y106419D01*
X874179Y103798D01*
X875385Y100886D01*
X876000Y97795D01*
Y96219D02*
Y97795D01*
Y94643D02*
Y96219D01*
X875385Y91552D02*
X876000Y94643D01*
X874179Y88640D02*
X875385Y91552D01*
X872428Y86020D02*
X874179Y88640D01*
X870199Y83791D02*
X872428Y86020D01*
X867579Y82040D02*
X870199Y83791D01*
X864667Y80834D02*
X867579Y82040D01*
X861576Y80219D02*
X864667Y80834D01*
X858424Y80219D02*
X861576D01*
X855333Y80834D02*
X858424Y80219D01*
X852421Y82040D02*
X855333Y80834D01*
X849801Y83791D02*
X852421Y82040D01*
X847572Y86020D02*
X849801Y83791D01*
X845821Y88640D02*
X847572Y86020D01*
X844615Y91552D02*
X845821Y88640D01*
X844000Y94643D02*
X844615Y91552D01*
X844000Y94643D02*
Y96219D01*
Y97795D01*
X844615Y100886D01*
X845821Y103798D01*
X847572Y106419D01*
X849801Y108647D01*
X852421Y110398D01*
X855333Y111604D01*
X858424Y112219D01*
X861576D01*
X411576Y177219D02*
X414667Y176604D01*
X417579Y175398D01*
X420199Y173647D01*
X422428Y171418D01*
X424179Y168798D01*
X425385Y165886D01*
X426000Y162795D01*
Y161219D02*
Y162795D01*
Y159643D02*
Y161219D01*
X425385Y156552D02*
X426000Y159643D01*
X424179Y153640D02*
X425385Y156552D01*
X422428Y151020D02*
X424179Y153640D01*
X420199Y148791D02*
X422428Y151020D01*
X417579Y147040D02*
X420199Y148791D01*
X414667Y145834D02*
X417579Y147040D01*
X411576Y145219D02*
X414667Y145834D01*
X408424Y145219D02*
X411576D01*
X405333Y145834D02*
X408424Y145219D01*
X402421Y147040D02*
X405333Y145834D01*
X399801Y148791D02*
X402421Y147040D01*
X397572Y151020D02*
X399801Y148791D01*
X395821Y153640D02*
X397572Y151020D01*
X394615Y156552D02*
X395821Y153640D01*
X394000Y159643D02*
X394615Y156552D01*
X394000Y159643D02*
Y161219D01*
Y162795D01*
X394615Y165886D01*
X395821Y168798D01*
X397572Y171418D01*
X399801Y173647D01*
X402421Y175398D01*
X405333Y176604D01*
X408424Y177219D01*
X411576D01*
X861576D02*
X864667Y176604D01*
X867579Y175398D01*
X870199Y173647D01*
X872428Y171418D01*
X874179Y168798D01*
X875385Y165886D01*
X876000Y162795D01*
Y161219D02*
Y162795D01*
Y159643D02*
Y161219D01*
X875385Y156552D02*
X876000Y159643D01*
X874179Y153640D02*
X875385Y156552D01*
X872428Y151020D02*
X874179Y153640D01*
X870199Y148791D02*
X872428Y151020D01*
X867579Y147040D02*
X870199Y148791D01*
X864667Y145834D02*
X867579Y147040D01*
X861576Y145219D02*
X864667Y145834D01*
X858424Y145219D02*
X861576D01*
X855333Y145834D02*
X858424Y145219D01*
X852421Y147040D02*
X855333Y145834D01*
X849801Y148791D02*
X852421Y147040D01*
X847572Y151020D02*
X849801Y148791D01*
X845821Y153640D02*
X847572Y151020D01*
X844615Y156552D02*
X845821Y153640D01*
X844000Y159643D02*
X844615Y156552D01*
X844000Y159643D02*
Y161219D01*
Y162795D01*
X844615Y165886D01*
X845821Y168798D01*
X847572Y171418D01*
X849801Y173647D01*
X852421Y175398D01*
X855333Y176604D01*
X858424Y177219D01*
X861576D01*
X413183Y537219D02*
X419063Y534783D01*
X423564Y530282D01*
X426000Y524402D01*
Y521219D02*
Y524402D01*
Y518036D02*
Y521219D01*
X423564Y512156D02*
X426000Y518036D01*
X419063Y507655D02*
X423564Y512156D01*
X413183Y505219D02*
X419063Y507655D01*
X406817Y505219D02*
X413183D01*
X400937Y507655D02*
X406817Y505219D01*
X396436Y512156D02*
X400937Y507655D01*
X394000Y518036D02*
X396436Y512156D01*
X394000Y518036D02*
Y521219D01*
Y524402D01*
X396436Y530282D01*
X400937Y534783D01*
X406817Y537219D01*
X413183D01*
X861576D02*
X864667Y536604D01*
X867579Y535398D01*
X870199Y533647D01*
X872428Y531418D01*
X874179Y528798D01*
X875385Y525886D01*
X876000Y522795D01*
Y521219D02*
Y522795D01*
Y519643D02*
Y521219D01*
X875385Y516552D02*
X876000Y519643D01*
X874179Y513640D02*
X875385Y516552D01*
X872428Y511020D02*
X874179Y513640D01*
X870199Y508791D02*
X872428Y511020D01*
X867579Y507040D02*
X870199Y508791D01*
X864667Y505834D02*
X867579Y507040D01*
X861576Y505219D02*
X864667Y505834D01*
X858424Y505219D02*
X861576D01*
X855333Y505834D02*
X858424Y505219D01*
X852421Y507040D02*
X855333Y505834D01*
X849801Y508791D02*
X852421Y507040D01*
X847572Y511020D02*
X849801Y508791D01*
X845821Y513640D02*
X847572Y511020D01*
X844615Y516552D02*
X845821Y513640D01*
X844000Y519643D02*
X844615Y516552D01*
X844000Y519643D02*
Y521219D01*
Y522795D01*
X844615Y525886D01*
X845821Y528798D01*
X847572Y531418D01*
X849801Y533647D01*
X852421Y535398D01*
X855333Y536604D01*
X858424Y537219D01*
X861576D01*
X411576Y602219D02*
X414667Y601604D01*
X417579Y600398D01*
X420199Y598647D01*
X422428Y596418D01*
X424179Y593798D01*
X425385Y590886D01*
X426000Y587795D01*
Y586219D02*
Y587795D01*
Y584643D02*
Y586219D01*
X425385Y581552D02*
X426000Y584643D01*
X424179Y578640D02*
X425385Y581552D01*
X422428Y576020D02*
X424179Y578640D01*
X420199Y573791D02*
X422428Y576020D01*
X417579Y572040D02*
X420199Y573791D01*
X414667Y570834D02*
X417579Y572040D01*
X411576Y570219D02*
X414667Y570834D01*
X408424Y570219D02*
X411576D01*
X405333Y570834D02*
X408424Y570219D01*
X402421Y572040D02*
X405333Y570834D01*
X399801Y573791D02*
X402421Y572040D01*
X397572Y576020D02*
X399801Y573791D01*
X395821Y578640D02*
X397572Y576020D01*
X394615Y581552D02*
X395821Y578640D01*
X394000Y584643D02*
X394615Y581552D01*
X394000Y584643D02*
Y586219D01*
Y587795D01*
X394615Y590886D01*
X395821Y593798D01*
X397572Y596418D01*
X399801Y598647D01*
X402421Y600398D01*
X405333Y601604D01*
X408424Y602219D01*
X411576D01*
X861576D02*
X864667Y601604D01*
X867579Y600398D01*
X870199Y598647D01*
X872428Y596418D01*
X874179Y593798D01*
X875385Y590886D01*
X876000Y587795D01*
Y586219D02*
Y587795D01*
Y584643D02*
Y586219D01*
X875385Y581552D02*
X876000Y584643D01*
X874179Y578640D02*
X875385Y581552D01*
X872428Y576020D02*
X874179Y578640D01*
X870199Y573791D02*
X872428Y576020D01*
X867579Y572040D02*
X870199Y573791D01*
X864667Y570834D02*
X867579Y572040D01*
X861576Y570219D02*
X864667Y570834D01*
X858424Y570219D02*
X861576D01*
X855333Y570834D02*
X858424Y570219D01*
X852421Y572040D02*
X855333Y570834D01*
X849801Y573791D02*
X852421Y572040D01*
X847572Y576020D02*
X849801Y573791D01*
X845821Y578640D02*
X847572Y576020D01*
X844615Y581552D02*
X845821Y578640D01*
X844000Y584643D02*
X844615Y581552D01*
X844000Y584643D02*
Y586219D01*
Y587795D01*
X844615Y590886D01*
X845821Y593798D01*
X847572Y596418D01*
X849801Y598647D01*
X852421Y600398D01*
X855333Y601604D01*
X858424Y602219D01*
X861576D01*
X246576Y725882D02*
X249667Y725267D01*
X252579Y724061D01*
X255199Y722310D01*
X257428Y720081D01*
X259179Y717461D01*
X260385Y714549D01*
X261000Y711458D01*
Y709882D02*
Y711458D01*
Y708306D02*
Y709882D01*
X260385Y705215D02*
X261000Y708306D01*
X259179Y702303D02*
X260385Y705215D01*
X257428Y699683D02*
X259179Y702303D01*
X255199Y697454D02*
X257428Y699683D01*
X252579Y695703D02*
X255199Y697454D01*
X249667Y694497D02*
X252579Y695703D01*
X246576Y693882D02*
X249667Y694497D01*
X243424Y693882D02*
X246576D01*
X240333Y694497D02*
X243424Y693882D01*
X237421Y695703D02*
X240333Y694497D01*
X234801Y697454D02*
X237421Y695703D01*
X232572Y699683D02*
X234801Y697454D01*
X230821Y702303D02*
X232572Y699683D01*
X229615Y705215D02*
X230821Y702303D01*
X229000Y708306D02*
X229615Y705215D01*
X229000Y708306D02*
Y709882D01*
Y711458D01*
X229615Y714549D01*
X230821Y717461D01*
X232572Y720081D01*
X234801Y722310D01*
X237421Y724061D01*
X240333Y725267D01*
X243424Y725882D01*
X246576D01*
X1026576D02*
X1029667Y725267D01*
X1032579Y724061D01*
X1035199Y722310D01*
X1037428Y720081D01*
X1039179Y717461D01*
X1040385Y714549D01*
X1041000Y711458D01*
Y709882D02*
Y711458D01*
Y708306D02*
Y709882D01*
X1040385Y705215D02*
X1041000Y708306D01*
X1039179Y702303D02*
X1040385Y705215D01*
X1037428Y699683D02*
X1039179Y702303D01*
X1035199Y697454D02*
X1037428Y699683D01*
X1032579Y695703D02*
X1035199Y697454D01*
X1029667Y694497D02*
X1032579Y695703D01*
X1026576Y693882D02*
X1029667Y694497D01*
X1023424Y693882D02*
X1026576D01*
X1020333Y694497D02*
X1023424Y693882D01*
X1017421Y695703D02*
X1020333Y694497D01*
X1014801Y697454D02*
X1017421Y695703D01*
X1012572Y699683D02*
X1014801Y697454D01*
X1010821Y702303D02*
X1012572Y699683D01*
X1009615Y705215D02*
X1010821Y702303D01*
X1009000Y708306D02*
X1009615Y705215D01*
X1009000Y708306D02*
Y709882D01*
Y711458D01*
X1009615Y714549D01*
X1010821Y717461D01*
X1012572Y720081D01*
X1014801Y722310D01*
X1017421Y724061D01*
X1020333Y725267D01*
X1023424Y725882D01*
X1026576D01*
X730995Y795000D02*
X732832Y794239D01*
X734239Y792832D01*
X735000Y790995D01*
Y789005D02*
Y790995D01*
X734239Y787168D02*
X735000Y789005D01*
X732832Y785761D02*
X734239Y787168D01*
X730995Y785000D02*
X732832Y785761D01*
X539005Y785000D02*
X730995D01*
X537168Y785761D02*
X539005Y785000D01*
X535761Y787168D02*
X537168Y785761D01*
X535000Y789005D02*
X535761Y787168D01*
X535000Y789005D02*
Y790995D01*
X535761Y792832D01*
X537168Y794239D01*
X539005Y795000D01*
X730995D01*
X596576Y866000D02*
X599667Y865385D01*
X602579Y864179D01*
X605199Y862428D01*
X607428Y860199D01*
X609179Y857579D01*
X610385Y854667D01*
X611000Y851576D01*
Y850000D02*
Y851576D01*
Y848424D02*
Y850000D01*
X610385Y845333D02*
X611000Y848424D01*
X609179Y842421D02*
X610385Y845333D01*
X607428Y839801D02*
X609179Y842421D01*
X605199Y837572D02*
X607428Y839801D01*
X602579Y835821D02*
X605199Y837572D01*
X599667Y834615D02*
X602579Y835821D01*
X596576Y834000D02*
X599667Y834615D01*
X593424Y834000D02*
X596576D01*
X590333Y834615D02*
X593424Y834000D01*
X587421Y835821D02*
X590333Y834615D01*
X584801Y837572D02*
X587421Y835821D01*
X582572Y839801D02*
X584801Y837572D01*
X580821Y842421D02*
X582572Y839801D01*
X579615Y845333D02*
X580821Y842421D01*
X579000Y848424D02*
X579615Y845333D01*
X579000Y848424D02*
Y850000D01*
Y851576D01*
X579615Y854667D01*
X580821Y857579D01*
X582572Y860199D01*
X584801Y862428D01*
X587421Y864179D01*
X590333Y865385D01*
X593424Y866000D01*
X596576D01*
X676576D02*
X679667Y865385D01*
X682579Y864179D01*
X685199Y862428D01*
X687428Y860199D01*
X689179Y857579D01*
X690385Y854667D01*
X691000Y851576D01*
Y850000D02*
Y851576D01*
Y848424D02*
Y850000D01*
X690385Y845333D02*
X691000Y848424D01*
X689179Y842421D02*
X690385Y845333D01*
X687428Y839801D02*
X689179Y842421D01*
X685199Y837572D02*
X687428Y839801D01*
X682579Y835821D02*
X685199Y837572D01*
X679667Y834615D02*
X682579Y835821D01*
X676576Y834000D02*
X679667Y834615D01*
X673424Y834000D02*
X676576D01*
X670333Y834615D02*
X673424Y834000D01*
X667421Y835821D02*
X670333Y834615D01*
X664801Y837572D02*
X667421Y835821D01*
X662572Y839801D02*
X664801Y837572D01*
X660821Y842421D02*
X662572Y839801D01*
X659615Y845333D02*
X660821Y842421D01*
X659000Y848424D02*
X659615Y845333D01*
X659000Y848424D02*
Y850000D01*
Y851576D01*
X659615Y854667D01*
X660821Y857579D01*
X662572Y860199D01*
X664801Y862428D01*
X667421Y864179D01*
X670333Y865385D01*
X673424Y866000D01*
X676576D01*
X636576Y935282D02*
X639667Y934667D01*
X642579Y933461D01*
X645199Y931710D01*
X647428Y929481D01*
X649179Y926861D01*
X650385Y923949D01*
X651000Y920858D01*
Y919282D02*
Y920858D01*
Y917706D02*
Y919282D01*
X650385Y914615D02*
X651000Y917706D01*
X649179Y911703D02*
X650385Y914615D01*
X647428Y909083D02*
X649179Y911703D01*
X645199Y906854D02*
X647428Y909083D01*
X642579Y905103D02*
X645199Y906854D01*
X639667Y903897D02*
X642579Y905103D01*
X636576Y903282D02*
X639667Y903897D01*
X633424Y903282D02*
X636576D01*
X630333Y903897D02*
X633424Y903282D01*
X627421Y905103D02*
X630333Y903897D01*
X624801Y906854D02*
X627421Y905103D01*
X622572Y909083D02*
X624801Y906854D01*
X620821Y911703D02*
X622572Y909083D01*
X619615Y914615D02*
X620821Y911703D01*
X619000Y917706D02*
X619615Y914615D01*
X619000Y917706D02*
Y919282D01*
Y920858D01*
X619615Y923949D01*
X620821Y926861D01*
X622572Y929481D01*
X624801Y931710D01*
X627421Y933461D01*
X630333Y934667D01*
X633424Y935282D01*
X636576D01*
X910000Y1000000D02*
X917799Y998369D01*
X360000Y1000000D02*
X910000Y1000000D01*
X352201Y998369D02*
X360000Y1000000D01*
X336779Y994351D02*
X352201Y998369D01*
X321572Y989586D02*
X336779Y994351D01*
X306614Y984086D02*
X321572Y989586D01*
X291943Y977863D02*
X306614Y984086D01*
X277592Y970934D02*
X291943Y977863D01*
X263596Y963313D02*
X277592Y970934D01*
X249988Y955020D02*
X263596Y963313D01*
X236799Y946074D02*
X249988Y955020D01*
X224062Y936495D02*
X236799Y946074D01*
X211808Y926308D02*
X224062Y936495D01*
X200063Y915535D02*
X211808Y926308D01*
X188858Y904204D02*
X200063Y915535D01*
X178218Y892339D02*
X188858Y904204D01*
X168169Y879971D02*
X178218Y892339D01*
X158734Y867128D02*
X168169Y879971D01*
X149936Y853840D02*
X158734Y867128D01*
X141796Y840139D02*
X149936Y853840D01*
X134333Y826059D02*
X141796Y840139D01*
X127565Y811631D02*
X134333Y826059D01*
X121507Y796890D02*
X127565Y811631D01*
X116175Y781873D02*
X121507Y796890D01*
X111581Y766613D02*
X116175Y781873D01*
X107736Y751147D02*
X111581Y766613D01*
X104649Y735513D02*
X107736Y751147D01*
X102327Y719746D02*
X104649Y735513D01*
X100776Y703886D02*
X102327Y719746D01*
X100000Y687968D02*
X100776Y703886D01*
X100000Y687968D02*
X100000Y680000D01*
X330000Y680000D01*
X331962Y679936D01*
X335853Y679424D01*
X339643Y678408D01*
X343269Y676906D01*
X346667Y674944D01*
X349780Y672555D01*
X352555Y669780D01*
X354944Y666667D01*
X356906Y663269D01*
X358408Y659643D01*
X359423Y655853D01*
X359936Y651962D01*
X360000Y650000D01*
X360000Y48304D01*
Y46009D02*
Y48304D01*
Y46009D02*
X360698Y41472D01*
X362079Y37094D01*
X364109Y32977D01*
X366742Y29217D01*
X369916Y25901D01*
X373558Y23106D01*
X377583Y20898D01*
X379739Y20113D01*
X430029Y1809D01*
X431260Y1361D01*
X433790Y683D01*
X436370Y228D01*
X438980Y-0D01*
X440290Y0D01*
X831020D01*
X833630Y228D01*
X836210Y683D01*
X838740Y1361D01*
X839971Y1809D01*
X890261Y20113D01*
X892417Y20898D01*
X896442Y23106D01*
X900084Y25901D01*
X903258Y29217D01*
X905891Y32977D01*
X907921Y37094D01*
X909302Y41472D01*
X910000Y46009D01*
X910000Y48304D01*
X910000Y650000D01*
X910064Y651962D01*
X910576Y655853D01*
X911592Y659643D01*
X913094Y663269D01*
X915056Y666667D01*
X917445Y669780D01*
X920220Y672555D01*
X923333Y674944D01*
X926731Y676906D01*
X930357Y678408D01*
X934147Y679424D01*
X938038Y679936D01*
X940000Y680000D01*
X1170000D01*
X1170000Y687968D01*
X1169224Y703886D02*
X1170000Y687968D01*
X1167673Y719746D02*
X1169224Y703886D01*
X1165351Y735513D02*
X1167673Y719746D01*
X1162264Y751147D02*
X1165351Y735513D01*
X1158419Y766613D02*
X1162264Y751147D01*
X1153825Y781873D02*
X1158419Y766613D01*
X1148493Y796890D02*
X1153825Y781873D01*
X1142435Y811631D02*
X1148493Y796890D01*
X1135667Y826059D02*
X1142435Y811631D01*
X1128204Y840139D02*
X1135667Y826059D01*
X1120064Y853840D02*
X1128204Y840139D01*
X1111266Y867128D02*
X1120064Y853840D01*
X1101831Y879971D02*
X1111266Y867128D01*
X1091782Y892339D02*
X1101831Y879971D01*
X1081142Y904204D02*
X1091782Y892339D01*
X1069937Y915535D02*
X1081142Y904204D01*
X1058192Y926308D02*
X1069937Y915535D01*
X1045937Y936495D02*
X1058192Y926308D01*
X1033201Y946074D02*
X1045937Y936495D01*
X1020013Y955020D02*
X1033201Y946074D01*
X1006404Y963313D02*
X1020013Y955020D01*
X992408Y970934D02*
X1006404Y963313D01*
X978057Y977863D02*
X992408Y970934D01*
X963385Y984086D02*
X978057Y977863D01*
X948428Y989586D02*
X963385Y984086D01*
X933221Y994351D02*
X948428Y989586D01*
X917799Y998369D02*
X933221Y994351D01*
M02*
