G04*
G04 #@! TF.GenerationSoftware,Altium Limited,Altium Designer,22.6.1 (34)*
G04*
G04 Layer_Color=32896*
%FSLAX44Y44*%
%MOMM*%
G71*
G04*
G04 #@! TF.SameCoordinates,9900268D-5443-4670-A824-5D7C6AAB4451*
G04*
G04*
G04 #@! TF.FilePolarity,Positive*
G04*
G01*
G75*
%ADD13C,0.2500*%
%ADD15C,0.1000*%
%ADD17C,0.2000*%
G36*
X891000Y199000D02*
X871000D01*
Y209000D01*
X891000D01*
Y199000D01*
D02*
G37*
G36*
X754000Y536000D02*
X734000D01*
Y546000D01*
X754000D01*
Y536000D01*
D02*
G37*
G36*
X702050Y4681D02*
X677950D01*
Y15319D01*
X702050D01*
Y4681D01*
D02*
G37*
G36*
X603116Y15319D02*
Y4681D01*
X568883D01*
Y15319D01*
X603116D01*
D02*
G37*
G36*
X891000Y184000D02*
X871000D01*
Y194000D01*
X891000D01*
Y184000D01*
D02*
G37*
G36*
X723000Y525000D02*
X703000D01*
Y535000D01*
X723000D01*
Y525000D01*
D02*
G37*
G36*
X890000Y279000D02*
X870000D01*
Y289000D01*
X890000D01*
Y279000D01*
D02*
G37*
G36*
Y300000D02*
X870000D01*
Y310000D01*
X890000D01*
Y300000D01*
D02*
G37*
G36*
X566000Y115000D02*
X546000D01*
Y125000D01*
X566000D01*
Y115000D01*
D02*
G37*
%LPC*%
G36*
X881986Y205916D02*
X881260D01*
X880219Y203352D01*
X879677Y205916D01*
X878951D01*
X879754Y202084D01*
X880480D01*
X881520Y204659D01*
X882063Y202084D01*
X882788D01*
X881986Y205916D01*
D02*
G37*
G36*
X884588Y205988D02*
X884522D01*
X884477Y205982D01*
X884422Y205977D01*
X884355Y205971D01*
X884284Y205960D01*
X884206Y205949D01*
X884034Y205910D01*
X883857Y205855D01*
X883769Y205822D01*
X883686Y205783D01*
X883603Y205733D01*
X883525Y205678D01*
X883519Y205672D01*
X883508Y205661D01*
X883486Y205644D01*
X883458Y205622D01*
X883425Y205589D01*
X883392Y205550D01*
X883348Y205501D01*
X883304Y205451D01*
X883259Y205390D01*
X883215Y205323D01*
X883171Y205251D01*
X883126Y205168D01*
X883087Y205080D01*
X883049Y204986D01*
X883016Y204886D01*
X882988Y204781D01*
X883724Y204698D01*
Y204703D01*
X883730Y204714D01*
X883735Y204731D01*
X883741Y204753D01*
X883769Y204808D01*
X883802Y204880D01*
X883846Y204958D01*
X883902Y205041D01*
X883962Y205119D01*
X884040Y205185D01*
X884051Y205191D01*
X884079Y205213D01*
X884123Y205240D01*
X884189Y205268D01*
X884267Y205301D01*
X884361Y205323D01*
X884466Y205345D01*
X884583Y205351D01*
X884621D01*
X884643Y205345D01*
X884682D01*
X884721Y205340D01*
X884810Y205323D01*
X884920Y205301D01*
X885037Y205263D01*
X885158Y205213D01*
X885280Y205146D01*
X885286D01*
X885291Y205135D01*
X885308Y205124D01*
X885330Y205107D01*
X885391Y205063D01*
X885463Y204997D01*
X885540Y204908D01*
X885624Y204803D01*
X885707Y204676D01*
X885779Y204526D01*
Y204520D01*
X885784Y204509D01*
X885795Y204487D01*
X885806Y204454D01*
X885817Y204415D01*
X885834Y204371D01*
X885851Y204316D01*
X885867Y204255D01*
X885884Y204194D01*
X885900Y204122D01*
X885928Y203967D01*
X885950Y203801D01*
X885956Y203618D01*
Y203612D01*
Y203596D01*
Y203574D01*
X885950Y203540D01*
Y203496D01*
X885945Y203452D01*
X885928Y203347D01*
X885900Y203230D01*
X885867Y203109D01*
X885812Y202998D01*
X885779Y202942D01*
X885740Y202898D01*
X885729Y202887D01*
X885701Y202865D01*
X885646Y202826D01*
X885574Y202787D01*
X885485Y202743D01*
X885374Y202704D01*
X885241Y202682D01*
X885092Y202671D01*
X885048D01*
X884998Y202677D01*
X884931Y202682D01*
X884854Y202688D01*
X884765Y202704D01*
X884671Y202721D01*
X884572Y202743D01*
X884566D01*
X884560Y202749D01*
X884527Y202754D01*
X884477Y202771D01*
X884416Y202793D01*
X884344Y202815D01*
X884267Y202848D01*
X884189Y202882D01*
X884112Y202915D01*
X883990Y203491D01*
X884970D01*
X884837Y204133D01*
X883126D01*
X883470Y202477D01*
X883475D01*
X883481Y202466D01*
X883503Y202461D01*
X883525Y202444D01*
X883553Y202427D01*
X883591Y202411D01*
X883630Y202389D01*
X883674Y202361D01*
X883785Y202311D01*
X883913Y202256D01*
X884056Y202200D01*
X884217Y202145D01*
X884223D01*
X884239Y202139D01*
X884261Y202134D01*
X884295Y202123D01*
X884333Y202112D01*
X884378Y202101D01*
X884433Y202090D01*
X884494Y202079D01*
X884627Y202056D01*
X884782Y202034D01*
X884942Y202018D01*
X885114Y202012D01*
X885181D01*
X885230Y202018D01*
X885291Y202023D01*
X885358Y202029D01*
X885435Y202040D01*
X885518Y202051D01*
X885690Y202090D01*
X885784Y202117D01*
X885873Y202151D01*
X885961Y202184D01*
X886050Y202228D01*
X886127Y202278D01*
X886205Y202333D01*
X886210Y202339D01*
X886227Y202355D01*
X886255Y202378D01*
X886283Y202416D01*
X886327Y202461D01*
X886366Y202516D01*
X886415Y202582D01*
X886460Y202654D01*
X886509Y202743D01*
X886559Y202837D01*
X886598Y202942D01*
X886637Y203053D01*
X886670Y203181D01*
X886698Y203313D01*
X886714Y203457D01*
X886720Y203607D01*
Y203662D01*
X886714Y203701D01*
Y203756D01*
X886709Y203812D01*
X886703Y203878D01*
X886692Y203956D01*
X886681Y204033D01*
X886665Y204116D01*
X886626Y204299D01*
X886570Y204493D01*
X886498Y204687D01*
X886493Y204692D01*
X886487Y204714D01*
X886471Y204748D01*
X886449Y204786D01*
X886421Y204842D01*
X886388Y204897D01*
X886349Y204963D01*
X886305Y205035D01*
X886255Y205113D01*
X886199Y205191D01*
X886139Y205268D01*
X886067Y205351D01*
X885917Y205506D01*
X885834Y205578D01*
X885745Y205644D01*
X885740Y205650D01*
X885723Y205661D01*
X885695Y205678D01*
X885657Y205700D01*
X885612Y205722D01*
X885552Y205755D01*
X885491Y205783D01*
X885413Y205816D01*
X885336Y205849D01*
X885247Y205877D01*
X885153Y205910D01*
X885048Y205933D01*
X884942Y205955D01*
X884826Y205971D01*
X884710Y205982D01*
X884588Y205988D01*
D02*
G37*
G36*
X878132Y205916D02*
X876869D01*
X876775Y205910D01*
X876681D01*
X876603Y205905D01*
X876576D01*
X876548Y205899D01*
X876537D01*
X876509Y205894D01*
X876465Y205888D01*
X876404Y205877D01*
X876338Y205866D01*
X876266Y205849D01*
X876122Y205800D01*
X876111Y205794D01*
X876088Y205788D01*
X876055Y205772D01*
X876005Y205750D01*
X875956Y205716D01*
X875895Y205683D01*
X875839Y205644D01*
X875778Y205595D01*
X875773Y205589D01*
X875751Y205573D01*
X875723Y205545D01*
X875684Y205506D01*
X875646Y205462D01*
X875601Y205406D01*
X875557Y205345D01*
X875513Y205279D01*
X875507Y205274D01*
X875496Y205246D01*
X875474Y205207D01*
X875452Y205157D01*
X875424Y205096D01*
X875391Y205024D01*
X875363Y204941D01*
X875341Y204853D01*
X875335Y204842D01*
X875330Y204808D01*
X875319Y204759D01*
X875308Y204698D01*
X875297Y204620D01*
X875291Y204526D01*
X875280Y204432D01*
Y204266D01*
X875286Y204221D01*
Y204166D01*
X875291Y204105D01*
X875302Y204033D01*
X875308Y203956D01*
X875324Y203873D01*
X875335Y203784D01*
X875380Y203601D01*
X875441Y203413D01*
X875474Y203319D01*
X875518Y203225D01*
Y203219D01*
X875529Y203203D01*
X875540Y203181D01*
X875563Y203147D01*
X875585Y203103D01*
X875612Y203059D01*
X875684Y202948D01*
X875767Y202826D01*
X875872Y202699D01*
X875989Y202577D01*
X876116Y202461D01*
X876122D01*
X876127Y202450D01*
X876144Y202439D01*
X876166Y202427D01*
X876194Y202405D01*
X876227Y202389D01*
X876310Y202339D01*
X876410Y202289D01*
X876532Y202234D01*
X876670Y202184D01*
X876825Y202139D01*
X876836D01*
X876853Y202134D01*
X876869Y202128D01*
X876897D01*
X876930Y202123D01*
X876969Y202117D01*
X877013Y202112D01*
X877063Y202106D01*
X877118Y202101D01*
X877179Y202095D01*
X877251D01*
X877323Y202090D01*
X877406Y202084D01*
X878935D01*
X878132Y205916D01*
D02*
G37*
%LPD*%
G36*
X878021Y202699D02*
X877517D01*
X877473Y202704D01*
X877379D01*
X877273Y202710D01*
X877174Y202721D01*
X877074Y202732D01*
X877030Y202738D01*
X876991Y202749D01*
X876980Y202754D01*
X876958Y202760D01*
X876919Y202776D01*
X876869Y202793D01*
X876814Y202821D01*
X876753Y202854D01*
X876692Y202898D01*
X876631Y202948D01*
X876626D01*
X876620Y202959D01*
X876592Y202987D01*
X876548Y203036D01*
X876493Y203097D01*
X876426Y203181D01*
X876360Y203280D01*
X876293Y203391D01*
X876233Y203513D01*
Y203518D01*
X876227Y203529D01*
X876216Y203552D01*
X876205Y203574D01*
X876194Y203612D01*
X876183Y203651D01*
X876166Y203696D01*
X876149Y203751D01*
X876138Y203806D01*
X876122Y203873D01*
X876094Y204017D01*
X876077Y204177D01*
X876072Y204349D01*
Y204354D01*
Y204366D01*
Y204388D01*
Y204415D01*
X876077Y204449D01*
Y204487D01*
X876088Y204581D01*
X876105Y204681D01*
X876127Y204781D01*
X876161Y204880D01*
X876205Y204963D01*
X876210Y204974D01*
X876227Y204997D01*
X876255Y205030D01*
X876293Y205074D01*
X876343Y205119D01*
X876399Y205163D01*
X876465Y205202D01*
X876537Y205235D01*
X876543D01*
X876565Y205240D01*
X876598Y205251D01*
X876648Y205263D01*
X876714Y205268D01*
X876797Y205279D01*
X876897Y205285D01*
X877478D01*
X878021Y202699D01*
D02*
G37*
%LPC*%
G36*
X745077Y542916D02*
X743814D01*
X743720Y542910D01*
X743626D01*
X743549Y542905D01*
X743521D01*
X743493Y542899D01*
X743482D01*
X743455Y542894D01*
X743410Y542888D01*
X743349Y542877D01*
X743283Y542866D01*
X743211Y542849D01*
X743067Y542800D01*
X743056Y542794D01*
X743034Y542789D01*
X743000Y542772D01*
X742951Y542750D01*
X742901Y542716D01*
X742840Y542683D01*
X742785Y542645D01*
X742724Y542595D01*
X742718Y542589D01*
X742696Y542573D01*
X742668Y542545D01*
X742630Y542506D01*
X742591Y542462D01*
X742546Y542407D01*
X742502Y542346D01*
X742458Y542279D01*
X742452Y542274D01*
X742441Y542246D01*
X742419Y542207D01*
X742397Y542157D01*
X742369Y542096D01*
X742336Y542024D01*
X742308Y541941D01*
X742286Y541853D01*
X742281Y541842D01*
X742275Y541808D01*
X742264Y541759D01*
X742253Y541698D01*
X742242Y541620D01*
X742236Y541526D01*
X742225Y541432D01*
Y541327D01*
Y541321D01*
Y541299D01*
Y541266D01*
X742231Y541222D01*
Y541166D01*
X742236Y541105D01*
X742247Y541033D01*
X742253Y540956D01*
X742270Y540873D01*
X742281Y540784D01*
X742325Y540601D01*
X742386Y540413D01*
X742419Y540319D01*
X742463Y540225D01*
Y540219D01*
X742475Y540203D01*
X742486Y540181D01*
X742508Y540147D01*
X742530Y540103D01*
X742558Y540059D01*
X742630Y539948D01*
X742713Y539826D01*
X742818Y539699D01*
X742934Y539577D01*
X743062Y539461D01*
X743067D01*
X743073Y539450D01*
X743089Y539439D01*
X743111Y539427D01*
X743139Y539405D01*
X743172Y539389D01*
X743255Y539339D01*
X743355Y539289D01*
X743477Y539234D01*
X743615Y539184D01*
X743770Y539140D01*
X743781D01*
X743798Y539134D01*
X743814Y539128D01*
X743842D01*
X743875Y539123D01*
X743914Y539117D01*
X743959Y539112D01*
X744008Y539106D01*
X744064Y539101D01*
X744125Y539095D01*
X744197D01*
X744269Y539090D01*
X744352Y539084D01*
X745880D01*
X745077Y542916D01*
D02*
G37*
G36*
X740143D02*
X739252D01*
X738637Y539084D01*
X739385D01*
X739512Y539931D01*
X741029D01*
X741489Y539084D01*
X742297D01*
X740143Y542916D01*
D02*
G37*
G36*
X747513Y542988D02*
X747447D01*
X747403Y542982D01*
X747347Y542977D01*
X747281Y542971D01*
X747209Y542960D01*
X747131Y542949D01*
X746960Y542910D01*
X746871Y542883D01*
X746788Y542855D01*
X746699Y542816D01*
X746616Y542772D01*
X746539Y542722D01*
X746467Y542667D01*
X746461Y542661D01*
X746450Y542650D01*
X746434Y542634D01*
X746406Y542611D01*
X746378Y542578D01*
X746345Y542539D01*
X746312Y542495D01*
X746279Y542445D01*
X746240Y542384D01*
X746201Y542323D01*
X746168Y542251D01*
X746135Y542179D01*
X746107Y542096D01*
X746085Y542013D01*
X746068Y541919D01*
X746057Y541825D01*
X746810Y541792D01*
Y541797D01*
Y541803D01*
X746816Y541836D01*
X746832Y541886D01*
X746849Y541947D01*
X746877Y542013D01*
X746910Y542085D01*
X746954Y542152D01*
X747015Y542213D01*
X747021Y542218D01*
X747048Y542235D01*
X747087Y542262D01*
X747142Y542290D01*
X747209Y542312D01*
X747297Y542340D01*
X747403Y542357D01*
X747519Y542362D01*
X747574D01*
X747630Y542357D01*
X747702Y542346D01*
X747774Y542335D01*
X747851Y542312D01*
X747923Y542285D01*
X747984Y542246D01*
X747990Y542240D01*
X748006Y542224D01*
X748028Y542202D01*
X748051Y542168D01*
X748078Y542124D01*
X748100Y542074D01*
X748117Y542013D01*
X748122Y541952D01*
Y541947D01*
Y541925D01*
X748117Y541897D01*
X748106Y541858D01*
X748089Y541814D01*
X748067Y541770D01*
X748039Y541725D01*
X747995Y541681D01*
X747990Y541675D01*
X747967Y541659D01*
X747934Y541637D01*
X747879Y541604D01*
X747840Y541581D01*
X747801Y541559D01*
X747757Y541532D01*
X747702Y541504D01*
X747646Y541476D01*
X747580Y541443D01*
X747508Y541410D01*
X747430Y541376D01*
X747425Y541371D01*
X747403Y541366D01*
X747369Y541349D01*
X747325Y541332D01*
X747270Y541305D01*
X747209Y541277D01*
X747076Y541210D01*
X746932Y541138D01*
X746794Y541061D01*
X746727Y541022D01*
X746672Y540983D01*
X746622Y540945D01*
X746583Y540911D01*
X746578Y540906D01*
X746572Y540900D01*
X746555Y540884D01*
X746539Y540867D01*
X746495Y540806D01*
X746445Y540729D01*
X746395Y540635D01*
X746356Y540518D01*
X746323Y540385D01*
X746317Y540319D01*
X746312Y540241D01*
Y540236D01*
Y540219D01*
Y540192D01*
X746317Y540158D01*
X746323Y540114D01*
X746334Y540059D01*
X746345Y540003D01*
X746362Y539942D01*
X746384Y539876D01*
X746412Y539804D01*
X746445Y539732D01*
X746483Y539660D01*
X746528Y539588D01*
X746583Y539510D01*
X746644Y539444D01*
X746716Y539372D01*
X746721Y539366D01*
X746733Y539356D01*
X746760Y539339D01*
X746788Y539317D01*
X746832Y539289D01*
X746882Y539256D01*
X746937Y539228D01*
X747010Y539195D01*
X747082Y539156D01*
X747165Y539128D01*
X747259Y539095D01*
X747358Y539067D01*
X747464Y539045D01*
X747580Y539029D01*
X747702Y539018D01*
X747834Y539012D01*
X747918D01*
X747962Y539018D01*
X748012Y539023D01*
X748067D01*
X748128Y539034D01*
X748261Y539051D01*
X748405Y539079D01*
X748554Y539117D01*
X748693Y539173D01*
X748698D01*
X748709Y539178D01*
X748726Y539189D01*
X748754Y539206D01*
X748815Y539239D01*
X748892Y539295D01*
X748975Y539356D01*
X749058Y539439D01*
X749136Y539527D01*
X749202Y539632D01*
Y539638D01*
X749208Y539643D01*
X749213Y539660D01*
X749224Y539688D01*
X749235Y539715D01*
X749247Y539749D01*
X749274Y539832D01*
X749302Y539931D01*
X749324Y540048D01*
X749335Y540175D01*
X749341Y540313D01*
X748588Y540358D01*
Y540352D01*
Y540341D01*
Y540325D01*
X748582Y540302D01*
X748577Y540236D01*
X748565Y540164D01*
X748554Y540081D01*
X748532Y539998D01*
X748504Y539926D01*
X748466Y539870D01*
X748455Y539859D01*
X748432Y539837D01*
X748388Y539809D01*
X748322Y539771D01*
X748283Y539754D01*
X748233Y539732D01*
X748183Y539715D01*
X748122Y539704D01*
X748062Y539688D01*
X747990Y539682D01*
X747912Y539671D01*
X747768D01*
X747735Y539677D01*
X747696D01*
X747613Y539688D01*
X747524Y539704D01*
X747430Y539732D01*
X747342Y539765D01*
X747270Y539809D01*
X747264Y539815D01*
X747242Y539832D01*
X747214Y539865D01*
X747181Y539904D01*
X747148Y539953D01*
X747120Y540009D01*
X747098Y540070D01*
X747093Y540142D01*
Y540147D01*
Y540169D01*
X747098Y540203D01*
X747109Y540241D01*
X747126Y540286D01*
X747153Y540336D01*
X747187Y540385D01*
X747236Y540430D01*
X747242Y540435D01*
X747259Y540446D01*
X747292Y540468D01*
X747342Y540496D01*
X747375Y540518D01*
X747414Y540540D01*
X747458Y540563D01*
X747508Y540585D01*
X747569Y540612D01*
X747630Y540646D01*
X747707Y540679D01*
X747785Y540712D01*
X747790D01*
X747807Y540723D01*
X747829Y540729D01*
X747857Y540745D01*
X747895Y540762D01*
X747940Y540779D01*
X748034Y540823D01*
X748139Y540878D01*
X748250Y540928D01*
X748350Y540983D01*
X748399Y541011D01*
X748438Y541033D01*
X748449Y541039D01*
X748471Y541055D01*
X748510Y541089D01*
X748554Y541127D01*
X748604Y541172D01*
X748660Y541233D01*
X748709Y541299D01*
X748759Y541371D01*
X748765Y541382D01*
X748776Y541410D01*
X748798Y541454D01*
X748815Y541509D01*
X748837Y541581D01*
X748859Y541665D01*
X748870Y541759D01*
X748876Y541858D01*
Y541864D01*
Y541880D01*
Y541908D01*
X748870Y541941D01*
X748864Y541980D01*
X748859Y542030D01*
X748848Y542085D01*
X748831Y542141D01*
X748792Y542268D01*
X748759Y542335D01*
X748726Y542407D01*
X748687Y542473D01*
X748643Y542539D01*
X748588Y542606D01*
X748527Y542667D01*
X748521Y542672D01*
X748510Y542683D01*
X748488Y542694D01*
X748460Y542716D01*
X748427Y542739D01*
X748383Y542766D01*
X748327Y542800D01*
X748266Y542827D01*
X748200Y542855D01*
X748128Y542888D01*
X748045Y542916D01*
X747951Y542938D01*
X747851Y542960D01*
X747746Y542977D01*
X747635Y542982D01*
X747513Y542988D01*
D02*
G37*
%LPD*%
G36*
X744966Y539699D02*
X744462D01*
X744418Y539704D01*
X744324D01*
X744219Y539710D01*
X744119Y539721D01*
X744019Y539732D01*
X743975Y539738D01*
X743936Y539749D01*
X743925Y539754D01*
X743903Y539760D01*
X743864Y539776D01*
X743814Y539793D01*
X743759Y539821D01*
X743698Y539854D01*
X743637Y539898D01*
X743576Y539948D01*
X743571D01*
X743565Y539959D01*
X743538Y539987D01*
X743493Y540037D01*
X743438Y540097D01*
X743372Y540181D01*
X743305Y540280D01*
X743239Y540391D01*
X743178Y540513D01*
Y540518D01*
X743172Y540529D01*
X743161Y540551D01*
X743150Y540574D01*
X743139Y540612D01*
X743128Y540651D01*
X743111Y540695D01*
X743095Y540751D01*
X743084Y540806D01*
X743067Y540873D01*
X743039Y541017D01*
X743023Y541177D01*
X743017Y541349D01*
Y541354D01*
Y541366D01*
Y541388D01*
Y541415D01*
X743023Y541449D01*
Y541487D01*
X743034Y541581D01*
X743050Y541681D01*
X743073Y541781D01*
X743106Y541880D01*
X743150Y541964D01*
X743156Y541975D01*
X743172Y541997D01*
X743200Y542030D01*
X743239Y542074D01*
X743288Y542118D01*
X743344Y542163D01*
X743410Y542202D01*
X743482Y542235D01*
X743488D01*
X743510Y542240D01*
X743543Y542251D01*
X743593Y542262D01*
X743660Y542268D01*
X743743Y542279D01*
X743842Y542285D01*
X744424D01*
X744966Y539699D01*
D02*
G37*
G36*
X740675Y540574D02*
X739606D01*
X739833Y542113D01*
X740675Y540574D01*
D02*
G37*
%LPC*%
G36*
X698765Y13199D02*
X695954D01*
X695788Y13190D01*
X695603Y13181D01*
X695418Y13171D01*
X695242Y13153D01*
X695085Y13134D01*
X695067D01*
X695020Y13125D01*
X694956Y13106D01*
X694863Y13079D01*
X694762Y13042D01*
X694650Y12996D01*
X694530Y12940D01*
X694419Y12866D01*
X694410Y12857D01*
X694373Y12829D01*
X694318Y12783D01*
X694244Y12728D01*
X694170Y12644D01*
X694087Y12552D01*
X694003Y12450D01*
X693929Y12330D01*
X693920Y12311D01*
X693902Y12274D01*
X693865Y12200D01*
X693828Y12108D01*
X693791Y11997D01*
X693754Y11877D01*
X693735Y11729D01*
X693726Y11581D01*
Y11572D01*
Y11562D01*
Y11507D01*
X693735Y11424D01*
X693754Y11313D01*
X693791Y11183D01*
X693828Y11045D01*
X693892Y10906D01*
X693976Y10758D01*
X693985Y10740D01*
X694022Y10693D01*
X694077Y10629D01*
X694142Y10546D01*
X694234Y10462D01*
X694345Y10361D01*
X694475Y10277D01*
X694623Y10194D01*
X694613D01*
X694595Y10185D01*
X694567Y10176D01*
X694530Y10166D01*
X694419Y10120D01*
X694290Y10056D01*
X694151Y9981D01*
X693994Y9880D01*
X693855Y9760D01*
X693726Y9612D01*
X693717Y9593D01*
X693680Y9538D01*
X693624Y9455D01*
X693569Y9344D01*
X693513Y9196D01*
X693458Y9039D01*
X693421Y8854D01*
X693412Y8650D01*
Y8576D01*
X693421Y8493D01*
X693439Y8382D01*
X693458Y8253D01*
X693495Y8105D01*
X693550Y7957D01*
X693615Y7800D01*
X693624Y7781D01*
X693652Y7735D01*
X693698Y7661D01*
X693763Y7568D01*
X693837Y7458D01*
X693939Y7356D01*
X694040Y7245D01*
X694170Y7143D01*
X694188Y7134D01*
X694234Y7106D01*
X694308Y7060D01*
X694410Y7014D01*
X694540Y6958D01*
X694688Y6912D01*
X694854Y6866D01*
X695039Y6838D01*
X695076D01*
X695113Y6829D01*
X695205D01*
X695270Y6819D01*
X695446D01*
X695557Y6810D01*
X695834D01*
X695991Y6801D01*
X698765D01*
Y13199D01*
D02*
G37*
G36*
X690490D02*
X689122D01*
X686551Y6801D01*
D01*
X692968D01*
X690490Y13199D01*
D02*
G37*
G36*
X686311D02*
X681235D01*
Y6801D01*
Y12117D01*
X683121D01*
Y6801D01*
X684416D01*
Y12117D01*
X686311D01*
Y13199D01*
D02*
G37*
%LPD*%
G36*
X697470Y10656D02*
X696232D01*
X696074Y10666D01*
X695788D01*
X695732Y10675D01*
X695677D01*
X695640Y10684D01*
X695584Y10693D01*
X695501Y10721D01*
X695418Y10749D01*
X695335Y10786D01*
X695251Y10832D01*
X695178Y10897D01*
X695168Y10906D01*
X695150Y10934D01*
X695113Y10971D01*
X695076Y11035D01*
X695048Y11109D01*
X695011Y11193D01*
X694993Y11294D01*
X694983Y11405D01*
Y11415D01*
Y11452D01*
X694993Y11507D01*
X695002Y11581D01*
X695020Y11655D01*
X695057Y11729D01*
X695094Y11812D01*
X695150Y11886D01*
X695159Y11895D01*
X695178Y11914D01*
X695224Y11951D01*
X695270Y11988D01*
X695344Y12025D01*
X695427Y12062D01*
X695529Y12090D01*
X695640Y12108D01*
X695649D01*
X695686Y12117D01*
X695788D01*
X695843Y12126D01*
X696084D01*
X696185Y12136D01*
X697470D01*
Y10656D01*
D02*
G37*
G36*
Y7883D02*
X696047D01*
X695908Y7892D01*
X695760D01*
X695612Y7901D01*
X695492Y7911D01*
X695436D01*
X695399Y7920D01*
X695390D01*
X695353Y7929D01*
X695298Y7947D01*
X695233Y7966D01*
X695159Y8003D01*
X695076Y8049D01*
X695002Y8105D01*
X694928Y8169D01*
X694919Y8179D01*
X694900Y8206D01*
X694872Y8253D01*
X694835Y8317D01*
X694799Y8391D01*
X694771Y8484D01*
X694752Y8595D01*
X694743Y8715D01*
Y8724D01*
Y8761D01*
X694752Y8817D01*
X694762Y8881D01*
X694780Y8964D01*
X694808Y9039D01*
X694845Y9122D01*
X694891Y9205D01*
X694900Y9214D01*
X694919Y9242D01*
X694946Y9279D01*
X694993Y9316D01*
X695048Y9371D01*
X695122Y9417D01*
X695205Y9464D01*
X695298Y9501D01*
X695307D01*
X695353Y9519D01*
X695427Y9528D01*
X695473Y9538D01*
X695538Y9547D01*
X695603Y9556D01*
X695686Y9566D01*
X695779Y9575D01*
X695889D01*
X696000Y9584D01*
X696130Y9593D01*
X697470D01*
Y7883D01*
D02*
G37*
G36*
X690684Y9334D02*
X688918D01*
X689815Y11710D01*
X690684Y9334D01*
D02*
G37*
G36*
X691600Y6801D02*
X687947D01*
X688502Y8253D01*
X691072D01*
X691600Y6801D01*
D02*
G37*
%LPC*%
G36*
X601117Y13199D02*
X598306D01*
D01*
X597970D01*
X598306D01*
X598139Y13190D01*
X597955Y13181D01*
X597770Y13171D01*
X597594Y13153D01*
X597437Y13134D01*
X597418D01*
X597372Y13125D01*
X597307Y13106D01*
X597215Y13079D01*
X597113Y13042D01*
X597002Y12996D01*
X596882Y12940D01*
X596771Y12866D01*
X596762Y12857D01*
X596725Y12829D01*
X596669Y12783D01*
X596595Y12728D01*
X596521Y12644D01*
X596438Y12552D01*
X596355Y12450D01*
X596281Y12330D01*
X596272Y12311D01*
X596253Y12274D01*
X596216Y12200D01*
X596179Y12108D01*
X596142Y11997D01*
X596105Y11877D01*
X596087Y11729D01*
X596078Y11581D01*
Y11572D01*
Y11562D01*
Y11507D01*
X596087Y11424D01*
X596105Y11313D01*
X596142Y11183D01*
X596179Y11045D01*
X596244Y10906D01*
X596327Y10758D01*
X596337Y10740D01*
X596374Y10693D01*
X596429Y10629D01*
X596494Y10546D01*
X596586Y10462D01*
X596697Y10361D01*
X596827Y10277D01*
X596974Y10194D01*
X596965D01*
X596947Y10185D01*
X596919Y10176D01*
X596882Y10166D01*
X596771Y10120D01*
X596642Y10056D01*
X596503Y9981D01*
X596346Y9880D01*
X596207Y9760D01*
X596078Y9612D01*
X596068Y9593D01*
X596031Y9538D01*
X595976Y9455D01*
X595920Y9344D01*
X595865Y9196D01*
X595810Y9039D01*
X595773Y8854D01*
X595763Y8650D01*
Y8576D01*
X595773Y8493D01*
X595791Y8382D01*
X595810Y8253D01*
X595847Y8105D01*
X595902Y7957D01*
X595967Y7800D01*
X595976Y7781D01*
X596004Y7735D01*
X596050Y7661D01*
X596115Y7568D01*
X596189Y7458D01*
X596290Y7356D01*
X596392Y7245D01*
X596521Y7143D01*
X596540Y7134D01*
X596586Y7106D01*
X596660Y7060D01*
X596762Y7014D01*
X596891Y6958D01*
X597039Y6912D01*
X597206Y6866D01*
X597391Y6838D01*
X597428D01*
X597464Y6829D01*
X597557D01*
X597622Y6819D01*
X597797D01*
X597908Y6810D01*
X598186D01*
X598343Y6801D01*
X601117D01*
Y13199D01*
D02*
G37*
G36*
X583254D02*
X581322D01*
X580175Y8826D01*
X579038Y13199D01*
X577096D01*
Y6801D01*
X578289D01*
X578298Y11831D01*
X579556Y6801D01*
X580804D01*
X582061Y11831D01*
Y6801D01*
X583254D01*
Y13199D01*
D02*
G37*
G36*
X589199D02*
X584456D01*
Y12117D01*
X587905D01*
Y10703D01*
X584696D01*
Y9621D01*
X587905D01*
Y7883D01*
X584336D01*
D01*
Y6801D01*
X589199D01*
Y13199D01*
D02*
G37*
G36*
X595116D02*
X590040D01*
Y6801D01*
Y12117D01*
X591926D01*
Y6801D01*
X593221D01*
Y12117D01*
X595116D01*
Y13199D01*
D02*
G37*
G36*
X575784D02*
X570883D01*
X573426D01*
X573324Y13190D01*
X573084D01*
X572825Y13171D01*
X572566Y13153D01*
X572455Y13144D01*
X572344Y13134D01*
X572252Y13116D01*
X572178Y13097D01*
X572169D01*
X572150Y13088D01*
X572122Y13079D01*
X572085Y13069D01*
X571984Y13023D01*
X571854Y12968D01*
X571716Y12885D01*
X571558Y12774D01*
X571410Y12635D01*
X571263Y12469D01*
Y12459D01*
X571244Y12450D01*
X571226Y12422D01*
X571207Y12385D01*
X571170Y12330D01*
X571142Y12274D01*
X571105Y12210D01*
X571068Y12136D01*
X571004Y11951D01*
X570939Y11747D01*
X570902Y11498D01*
X570883Y11230D01*
Y11128D01*
X570893Y11082D01*
Y11017D01*
X570911Y10888D01*
X570939Y10730D01*
X570976Y10555D01*
X571031Y10388D01*
X571105Y10231D01*
X571115Y10213D01*
X571142Y10166D01*
X571189Y10093D01*
X571253Y10000D01*
X571327Y9908D01*
X571429Y9797D01*
X571531Y9695D01*
X571651Y9602D01*
X571669Y9593D01*
X571706Y9566D01*
X571771Y9528D01*
X571854Y9482D01*
X571956Y9427D01*
X572067Y9381D01*
X572187Y9334D01*
X572317Y9297D01*
X572335D01*
X572363Y9288D01*
X572400D01*
X572446Y9279D01*
X572511Y9270D01*
X572575Y9260D01*
X572659D01*
X572742Y9251D01*
X572844Y9242D01*
X572954Y9233D01*
X573075Y9223D01*
X573204D01*
X573343Y9214D01*
X574489D01*
Y6801D01*
X575784D01*
Y13199D01*
D02*
G37*
%LPD*%
G36*
X599822Y10656D02*
X598583D01*
X598426Y10666D01*
X598139D01*
X598084Y10675D01*
X598028D01*
X597991Y10684D01*
X597936Y10693D01*
X597853Y10721D01*
X597770Y10749D01*
X597686Y10786D01*
X597603Y10832D01*
X597529Y10897D01*
X597520Y10906D01*
X597501Y10934D01*
X597464Y10971D01*
X597428Y11035D01*
X597400Y11109D01*
X597363Y11193D01*
X597344Y11294D01*
X597335Y11405D01*
Y11415D01*
Y11452D01*
X597344Y11507D01*
X597354Y11581D01*
X597372Y11655D01*
X597409Y11729D01*
X597446Y11812D01*
X597501Y11886D01*
X597511Y11895D01*
X597529Y11914D01*
X597575Y11951D01*
X597622Y11988D01*
X597696Y12025D01*
X597779Y12062D01*
X597881Y12090D01*
X597991Y12108D01*
X598001D01*
X598038Y12117D01*
X598139D01*
X598195Y12126D01*
X598435D01*
X598537Y12136D01*
X599822D01*
Y10656D01*
D02*
G37*
G36*
Y7883D02*
X598398D01*
X598260Y7892D01*
X598112D01*
X597964Y7901D01*
X597844Y7911D01*
X597788D01*
X597751Y7920D01*
X597742D01*
X597705Y7929D01*
X597649Y7947D01*
X597585Y7966D01*
X597511Y8003D01*
X597428Y8049D01*
X597354Y8105D01*
X597280Y8169D01*
X597270Y8179D01*
X597252Y8206D01*
X597224Y8253D01*
X597187Y8317D01*
X597150Y8391D01*
X597122Y8484D01*
X597104Y8595D01*
X597095Y8715D01*
Y8724D01*
Y8761D01*
X597104Y8817D01*
X597113Y8881D01*
X597132Y8964D01*
X597159Y9039D01*
X597196Y9122D01*
X597243Y9205D01*
X597252Y9214D01*
X597270Y9242D01*
X597298Y9279D01*
X597344Y9316D01*
X597400Y9371D01*
X597474Y9417D01*
X597557Y9464D01*
X597649Y9501D01*
X597659D01*
X597705Y9519D01*
X597779Y9528D01*
X597825Y9538D01*
X597890Y9547D01*
X597955Y9556D01*
X598038Y9566D01*
X598130Y9575D01*
X598241D01*
X598352Y9584D01*
X598482Y9593D01*
X599822D01*
Y7883D01*
D02*
G37*
G36*
X574489Y10296D02*
X573602D01*
X573537Y10305D01*
X573371D01*
X573204Y10314D01*
X573038Y10333D01*
X572890Y10361D01*
X572825Y10370D01*
X572770Y10388D01*
X572760Y10398D01*
X572723Y10407D01*
X572677Y10434D01*
X572622Y10462D01*
X572557Y10509D01*
X572492Y10564D01*
X572418Y10629D01*
X572363Y10703D01*
X572354Y10712D01*
X572335Y10740D01*
X572317Y10786D01*
X572289Y10851D01*
X572261Y10925D01*
X572233Y11008D01*
X572224Y11100D01*
X572215Y11202D01*
Y11220D01*
Y11257D01*
X572224Y11322D01*
X572243Y11405D01*
X572270Y11498D01*
X572307Y11600D01*
X572354Y11692D01*
X572427Y11784D01*
X572437Y11794D01*
X572464Y11821D01*
X572511Y11858D01*
X572566Y11905D01*
X572640Y11960D01*
X572733Y12006D01*
X572834Y12043D01*
X572945Y12071D01*
X572954D01*
X572991Y12080D01*
X573056Y12090D01*
X573149Y12099D01*
X573269D01*
X573352Y12108D01*
X573435D01*
X573528Y12117D01*
X574489D01*
Y10296D01*
D02*
G37*
%LPC*%
G36*
X883990Y190963D02*
X883940D01*
X883902Y190957D01*
X883857Y190952D01*
X883807Y190946D01*
X883691Y190924D01*
X883564Y190891D01*
X883431Y190836D01*
X883364Y190802D01*
X883304Y190764D01*
X883243Y190719D01*
X883187Y190664D01*
X883182Y190658D01*
X883176Y190653D01*
X883159Y190636D01*
X883143Y190614D01*
X883121Y190581D01*
X883099Y190548D01*
X883049Y190465D01*
X882999Y190365D01*
X882955Y190243D01*
X882921Y190110D01*
X882916Y190038D01*
X882910Y189961D01*
Y189911D01*
X882921Y189855D01*
X882933Y189783D01*
X882955Y189695D01*
X882982Y189606D01*
X883027Y189512D01*
X883087Y189418D01*
X883093Y189407D01*
X883121Y189379D01*
X883159Y189335D01*
X883215Y189285D01*
X883281Y189224D01*
X883364Y189163D01*
X883458Y189114D01*
X883569Y189064D01*
X883564D01*
X883558Y189058D01*
X883531Y189042D01*
X883486Y189014D01*
X883431Y188975D01*
X883375Y188925D01*
X883315Y188870D01*
X883259Y188803D01*
X883209Y188731D01*
X883204Y188720D01*
X883193Y188698D01*
X883171Y188654D01*
X883148Y188604D01*
X883132Y188538D01*
X883110Y188466D01*
X883099Y188388D01*
X883093Y188305D01*
Y188300D01*
Y188288D01*
Y188266D01*
X883099Y188233D01*
X883104Y188194D01*
X883110Y188150D01*
X883121Y188100D01*
X883132Y188050D01*
X883165Y187929D01*
X883220Y187796D01*
X883254Y187729D01*
X883298Y187657D01*
X883342Y187591D01*
X883398Y187524D01*
X883403Y187519D01*
X883414Y187502D01*
X883442Y187480D01*
X883470Y187447D01*
X883514Y187414D01*
X883564Y187369D01*
X883619Y187325D01*
X883686Y187281D01*
X883757Y187236D01*
X883835Y187192D01*
X883924Y187148D01*
X884018Y187115D01*
X884117Y187081D01*
X884223Y187059D01*
X884339Y187043D01*
X884455Y187037D01*
X884500D01*
X884538Y187043D01*
X884577Y187048D01*
X884627Y187054D01*
X884682Y187059D01*
X884738Y187070D01*
X884865Y187104D01*
X884998Y187153D01*
X885064Y187187D01*
X885131Y187225D01*
X885197Y187264D01*
X885258Y187314D01*
X885264Y187320D01*
X885269Y187325D01*
X885286Y187342D01*
X885308Y187364D01*
X885336Y187391D01*
X885363Y187430D01*
X885391Y187469D01*
X885424Y187519D01*
X885457Y187569D01*
X885491Y187630D01*
X885524Y187691D01*
X885552Y187762D01*
X885579Y187840D01*
X885607Y187923D01*
X885624Y188006D01*
X885640Y188100D01*
X884920Y188189D01*
Y188183D01*
Y188178D01*
X884915Y188161D01*
X884909Y188139D01*
X884898Y188084D01*
X884882Y188017D01*
X884859Y187951D01*
X884832Y187879D01*
X884799Y187812D01*
X884760Y187762D01*
X884754Y187757D01*
X884738Y187746D01*
X884710Y187724D01*
X884677Y187707D01*
X884632Y187685D01*
X884577Y187663D01*
X884516Y187652D01*
X884450Y187646D01*
X884439D01*
X884405Y187652D01*
X884361Y187657D01*
X884300Y187668D01*
X884234Y187691D01*
X884162Y187718D01*
X884090Y187762D01*
X884023Y187818D01*
X884018Y187823D01*
X883996Y187851D01*
X883968Y187884D01*
X883935Y187940D01*
X883907Y188001D01*
X883879Y188078D01*
X883857Y188167D01*
X883852Y188261D01*
Y188266D01*
Y188272D01*
Y188300D01*
X883857Y188344D01*
X883868Y188399D01*
X883885Y188460D01*
X883913Y188521D01*
X883946Y188582D01*
X883990Y188637D01*
X883996Y188643D01*
X884018Y188659D01*
X884045Y188682D01*
X884090Y188709D01*
X884140Y188731D01*
X884206Y188754D01*
X884278Y188770D01*
X884361Y188776D01*
X884394D01*
X884433Y188770D01*
X884477Y188765D01*
X884350Y189385D01*
X884223D01*
X884167Y189390D01*
X884101Y189401D01*
X884029Y189424D01*
X883957Y189446D01*
X883885Y189485D01*
X883818Y189534D01*
X883813Y189540D01*
X883791Y189562D01*
X883769Y189595D01*
X883735Y189645D01*
X883708Y189706D01*
X883680Y189778D01*
X883663Y189861D01*
X883658Y189955D01*
Y189966D01*
Y189988D01*
X883663Y190022D01*
X883669Y190066D01*
X883686Y190110D01*
X883702Y190160D01*
X883730Y190210D01*
X883769Y190254D01*
X883774Y190260D01*
X883785Y190271D01*
X883813Y190287D01*
X883841Y190310D01*
X883885Y190332D01*
X883929Y190348D01*
X883985Y190359D01*
X884045Y190365D01*
X884073D01*
X884101Y190359D01*
X884140Y190348D01*
X884184Y190337D01*
X884234Y190315D01*
X884284Y190282D01*
X884333Y190243D01*
X884339Y190238D01*
X884355Y190221D01*
X884378Y190188D01*
X884405Y190149D01*
X884439Y190094D01*
X884472Y190022D01*
X884505Y189939D01*
X884533Y189839D01*
X885219Y189972D01*
Y189977D01*
X885214Y189988D01*
X885208Y190011D01*
X885197Y190044D01*
X885181Y190077D01*
X885164Y190116D01*
X885125Y190210D01*
X885075Y190315D01*
X885014Y190420D01*
X884942Y190525D01*
X884859Y190620D01*
X884854Y190625D01*
X884843Y190636D01*
X884821Y190653D01*
X884799Y190675D01*
X884760Y190697D01*
X884721Y190730D01*
X884671Y190758D01*
X884616Y190791D01*
X884555Y190825D01*
X884494Y190852D01*
X884344Y190908D01*
X884261Y190930D01*
X884173Y190946D01*
X884084Y190957D01*
X883990Y190963D01*
D02*
G37*
G36*
X877440D02*
X877390D01*
X877351Y190957D01*
X877307Y190952D01*
X877257Y190946D01*
X877141Y190924D01*
X877013Y190891D01*
X876880Y190836D01*
X876814Y190802D01*
X876753Y190764D01*
X876692Y190719D01*
X876637Y190664D01*
X876631Y190658D01*
X876626Y190653D01*
X876609Y190636D01*
X876592Y190614D01*
X876570Y190581D01*
X876548Y190548D01*
X876498Y190465D01*
X876448Y190365D01*
X876404Y190243D01*
X876371Y190110D01*
X876365Y190038D01*
X876360Y189961D01*
Y189911D01*
X876371Y189855D01*
X876382Y189783D01*
X876404Y189695D01*
X876432Y189606D01*
X876476Y189512D01*
X876537Y189418D01*
X876543Y189407D01*
X876570Y189379D01*
X876609Y189335D01*
X876664Y189285D01*
X876731Y189224D01*
X876814Y189163D01*
X876908Y189114D01*
X877019Y189064D01*
X877013D01*
X877008Y189058D01*
X876980Y189042D01*
X876936Y189014D01*
X876880Y188975D01*
X876825Y188925D01*
X876764Y188870D01*
X876709Y188803D01*
X876659Y188731D01*
X876653Y188720D01*
X876642Y188698D01*
X876620Y188654D01*
X876598Y188604D01*
X876581Y188538D01*
X876559Y188466D01*
X876548Y188388D01*
X876543Y188305D01*
Y188300D01*
Y188288D01*
Y188266D01*
X876548Y188233D01*
X876554Y188194D01*
X876559Y188150D01*
X876570Y188100D01*
X876581Y188050D01*
X876615Y187929D01*
X876670Y187796D01*
X876703Y187729D01*
X876747Y187657D01*
X876792Y187591D01*
X876847Y187524D01*
X876853Y187519D01*
X876864Y187502D01*
X876891Y187480D01*
X876919Y187447D01*
X876963Y187414D01*
X877013Y187369D01*
X877069Y187325D01*
X877135Y187281D01*
X877207Y187236D01*
X877284Y187192D01*
X877373Y187148D01*
X877467Y187115D01*
X877567Y187081D01*
X877672Y187059D01*
X877788Y187043D01*
X877905Y187037D01*
X877949D01*
X877988Y187043D01*
X878027Y187048D01*
X878076Y187054D01*
X878132Y187059D01*
X878187Y187070D01*
X878314Y187104D01*
X878447Y187153D01*
X878514Y187187D01*
X878580Y187225D01*
X878647Y187264D01*
X878708Y187314D01*
X878713Y187320D01*
X878719Y187325D01*
X878735Y187342D01*
X878757Y187364D01*
X878785Y187391D01*
X878813Y187430D01*
X878840Y187469D01*
X878874Y187519D01*
X878907Y187569D01*
X878940Y187630D01*
X878973Y187691D01*
X879001Y187762D01*
X879029Y187840D01*
X879056Y187923D01*
X879073Y188006D01*
X879090Y188100D01*
X878370Y188189D01*
Y188183D01*
Y188178D01*
X878364Y188161D01*
X878359Y188139D01*
X878348Y188084D01*
X878331Y188017D01*
X878309Y187951D01*
X878281Y187879D01*
X878248Y187812D01*
X878209Y187762D01*
X878204Y187757D01*
X878187Y187746D01*
X878159Y187724D01*
X878126Y187707D01*
X878082Y187685D01*
X878027Y187663D01*
X877966Y187652D01*
X877899Y187646D01*
X877888D01*
X877855Y187652D01*
X877811Y187657D01*
X877750Y187668D01*
X877683Y187691D01*
X877611Y187718D01*
X877539Y187762D01*
X877473Y187818D01*
X877467Y187823D01*
X877445Y187851D01*
X877417Y187884D01*
X877384Y187940D01*
X877356Y188001D01*
X877329Y188078D01*
X877307Y188167D01*
X877301Y188261D01*
Y188266D01*
Y188272D01*
Y188300D01*
X877307Y188344D01*
X877318Y188399D01*
X877334Y188460D01*
X877362Y188521D01*
X877395Y188582D01*
X877440Y188637D01*
X877445Y188643D01*
X877467Y188659D01*
X877495Y188682D01*
X877539Y188709D01*
X877589Y188731D01*
X877655Y188754D01*
X877728Y188770D01*
X877811Y188776D01*
X877844D01*
X877883Y188770D01*
X877927Y188765D01*
X877800Y189385D01*
X877672D01*
X877617Y189390D01*
X877550Y189401D01*
X877478Y189424D01*
X877406Y189446D01*
X877334Y189485D01*
X877268Y189534D01*
X877262Y189540D01*
X877240Y189562D01*
X877218Y189595D01*
X877185Y189645D01*
X877157Y189706D01*
X877130Y189778D01*
X877113Y189861D01*
X877107Y189955D01*
Y189966D01*
Y189988D01*
X877113Y190022D01*
X877118Y190066D01*
X877135Y190110D01*
X877152Y190160D01*
X877179Y190210D01*
X877218Y190254D01*
X877224Y190260D01*
X877235Y190271D01*
X877262Y190287D01*
X877290Y190310D01*
X877334Y190332D01*
X877379Y190348D01*
X877434Y190359D01*
X877495Y190365D01*
X877523D01*
X877550Y190359D01*
X877589Y190348D01*
X877633Y190337D01*
X877683Y190315D01*
X877733Y190282D01*
X877783Y190243D01*
X877788Y190238D01*
X877805Y190221D01*
X877827Y190188D01*
X877855Y190149D01*
X877888Y190094D01*
X877921Y190022D01*
X877954Y189939D01*
X877982Y189839D01*
X878669Y189972D01*
Y189977D01*
X878663Y189988D01*
X878658Y190011D01*
X878647Y190044D01*
X878630Y190077D01*
X878614Y190116D01*
X878575Y190210D01*
X878525Y190315D01*
X878464Y190420D01*
X878392Y190525D01*
X878309Y190620D01*
X878303Y190625D01*
X878292Y190636D01*
X878270Y190653D01*
X878248Y190675D01*
X878209Y190697D01*
X878170Y190730D01*
X878121Y190758D01*
X878065Y190791D01*
X878004Y190825D01*
X877943Y190852D01*
X877794Y190908D01*
X877711Y190930D01*
X877622Y190946D01*
X877534Y190957D01*
X877440Y190963D01*
D02*
G37*
G36*
X882318Y190941D02*
X881537D01*
X881055Y188045D01*
X879466Y190941D01*
X878685D01*
X879019Y190337D01*
X880801Y187109D01*
X881637D01*
X882318Y190941D01*
D02*
G37*
G36*
X712333Y531988D02*
X712272D01*
X712228Y531982D01*
X712178Y531977D01*
X712117Y531971D01*
X712045Y531960D01*
X711973Y531944D01*
X711812Y531905D01*
X711729Y531877D01*
X711646Y531844D01*
X711558Y531805D01*
X711480Y531761D01*
X711397Y531711D01*
X711325Y531650D01*
X711320Y531645D01*
X711308Y531633D01*
X711292Y531617D01*
X711264Y531589D01*
X711236Y531556D01*
X711198Y531517D01*
X711164Y531467D01*
X711126Y531412D01*
X711087Y531351D01*
X711048Y531285D01*
X711009Y531207D01*
X710971Y531130D01*
X710937Y531041D01*
X710910Y530947D01*
X710888Y530847D01*
X710871Y530742D01*
X711624Y530670D01*
Y530676D01*
X711629Y530687D01*
Y530703D01*
X711635Y530725D01*
X711652Y530781D01*
X711679Y530853D01*
X711713Y530936D01*
X711757Y531013D01*
X711807Y531091D01*
X711868Y531152D01*
X711873Y531157D01*
X711901Y531174D01*
X711940Y531202D01*
X711995Y531229D01*
X712061Y531257D01*
X712144Y531285D01*
X712239Y531301D01*
X712344Y531307D01*
X712377D01*
X712399Y531301D01*
X712460Y531296D01*
X712543Y531279D01*
X712637Y531257D01*
X712737Y531218D01*
X712848Y531168D01*
X712953Y531102D01*
X712959D01*
X712964Y531091D01*
X712997Y531063D01*
X713053Y531019D01*
X713113Y530947D01*
X713186Y530864D01*
X713263Y530753D01*
X713341Y530626D01*
X713407Y530476D01*
Y530471D01*
X713412Y530460D01*
X713424Y530437D01*
X713435Y530404D01*
X713446Y530365D01*
X713457Y530321D01*
X713473Y530271D01*
X713490Y530216D01*
X713518Y530089D01*
X713545Y529945D01*
X713568Y529790D01*
X713573Y529635D01*
Y529629D01*
Y529612D01*
Y529590D01*
X713568Y529557D01*
Y529518D01*
X713562Y529474D01*
X713545Y529374D01*
X713518Y529258D01*
X713484Y529142D01*
X713429Y529025D01*
X713357Y528920D01*
X713346Y528909D01*
X713318Y528881D01*
X713269Y528843D01*
X713208Y528798D01*
X713125Y528749D01*
X713030Y528710D01*
X712925Y528682D01*
X712870Y528677D01*
X712809Y528671D01*
X712781D01*
X712759Y528677D01*
X712698Y528682D01*
X712626Y528693D01*
X712538Y528721D01*
X712443Y528754D01*
X712349Y528798D01*
X712250Y528865D01*
X712244D01*
X712239Y528876D01*
X712205Y528904D01*
X712161Y528948D01*
X712106Y529014D01*
X712045Y529097D01*
X711978Y529197D01*
X711923Y529319D01*
X711868Y529457D01*
X711070Y529336D01*
Y529330D01*
X711081Y529308D01*
X711092Y529275D01*
X711115Y529230D01*
X711142Y529175D01*
X711170Y529114D01*
X711203Y529042D01*
X711247Y528970D01*
X711347Y528810D01*
X711469Y528649D01*
X711607Y528488D01*
X711690Y528416D01*
X711774Y528350D01*
X711779Y528344D01*
X711796Y528333D01*
X711818Y528317D01*
X711857Y528300D01*
X711901Y528272D01*
X711951Y528245D01*
X712017Y528212D01*
X712084Y528184D01*
X712161Y528151D01*
X712244Y528117D01*
X712333Y528090D01*
X712427Y528068D01*
X712527Y528045D01*
X712632Y528029D01*
X712742Y528018D01*
X712859Y528012D01*
X712892D01*
X712925Y528018D01*
X712975D01*
X713036Y528023D01*
X713102Y528034D01*
X713180Y528045D01*
X713258Y528068D01*
X713346Y528090D01*
X713435Y528117D01*
X713529Y528151D01*
X713617Y528189D01*
X713711Y528239D01*
X713800Y528294D01*
X713883Y528361D01*
X713961Y528433D01*
X713966Y528438D01*
X713977Y528455D01*
X713999Y528477D01*
X714022Y528511D01*
X714049Y528555D01*
X714082Y528610D01*
X714121Y528677D01*
X714155Y528749D01*
X714193Y528832D01*
X714232Y528920D01*
X714265Y529025D01*
X714293Y529136D01*
X714315Y529253D01*
X714337Y529385D01*
X714348Y529518D01*
X714354Y529668D01*
Y529734D01*
X714348Y529779D01*
Y529834D01*
X714337Y529906D01*
X714332Y529978D01*
X714321Y530061D01*
X714309Y530149D01*
X714287Y530249D01*
X714243Y530448D01*
X714177Y530659D01*
X714138Y530759D01*
X714094Y530864D01*
X714088Y530869D01*
X714082Y530886D01*
X714066Y530914D01*
X714044Y530952D01*
X714016Y530997D01*
X713983Y531052D01*
X713944Y531107D01*
X713900Y531174D01*
X713795Y531307D01*
X713673Y531445D01*
X713523Y531578D01*
X713440Y531639D01*
X713357Y531694D01*
X713352Y531700D01*
X713335Y531706D01*
X713307Y531722D01*
X713274Y531739D01*
X713230Y531761D01*
X713180Y531788D01*
X713119Y531816D01*
X713053Y531844D01*
X712981Y531866D01*
X712898Y531894D01*
X712726Y531944D01*
X712538Y531977D01*
X712438Y531982D01*
X712333Y531988D01*
D02*
G37*
G36*
X709957Y531916D02*
X709171D01*
X709841Y528727D01*
X707881D01*
X708014Y528084D01*
X710760D01*
X709957Y531916D01*
D02*
G37*
G36*
X716270Y531988D02*
X716203D01*
X716159Y531982D01*
X716104Y531977D01*
X716037Y531971D01*
X715965Y531960D01*
X715888Y531949D01*
X715716Y531910D01*
X715627Y531883D01*
X715544Y531855D01*
X715456Y531816D01*
X715373Y531772D01*
X715295Y531722D01*
X715223Y531667D01*
X715218Y531661D01*
X715207Y531650D01*
X715190Y531633D01*
X715162Y531611D01*
X715135Y531578D01*
X715101Y531539D01*
X715068Y531495D01*
X715035Y531445D01*
X714996Y531384D01*
X714957Y531323D01*
X714924Y531251D01*
X714891Y531179D01*
X714863Y531096D01*
X714841Y531013D01*
X714825Y530919D01*
X714813Y530825D01*
X715566Y530792D01*
Y530797D01*
Y530803D01*
X715572Y530836D01*
X715589Y530886D01*
X715605Y530947D01*
X715633Y531013D01*
X715666Y531085D01*
X715711Y531152D01*
X715771Y531213D01*
X715777Y531218D01*
X715805Y531235D01*
X715843Y531263D01*
X715899Y531290D01*
X715965Y531312D01*
X716054Y531340D01*
X716159Y531357D01*
X716275Y531362D01*
X716331D01*
X716386Y531357D01*
X716458Y531345D01*
X716530Y531334D01*
X716608Y531312D01*
X716680Y531285D01*
X716740Y531246D01*
X716746Y531240D01*
X716762Y531224D01*
X716785Y531202D01*
X716807Y531168D01*
X716834Y531124D01*
X716857Y531074D01*
X716873Y531013D01*
X716879Y530952D01*
Y530947D01*
Y530925D01*
X716873Y530897D01*
X716862Y530858D01*
X716846Y530814D01*
X716823Y530770D01*
X716796Y530725D01*
X716751Y530681D01*
X716746Y530676D01*
X716724Y530659D01*
X716691Y530637D01*
X716635Y530604D01*
X716596Y530581D01*
X716558Y530559D01*
X716513Y530532D01*
X716458Y530504D01*
X716403Y530476D01*
X716336Y530443D01*
X716264Y530410D01*
X716187Y530377D01*
X716181Y530371D01*
X716159Y530365D01*
X716126Y530349D01*
X716081Y530332D01*
X716026Y530305D01*
X715965Y530277D01*
X715832Y530210D01*
X715688Y530138D01*
X715550Y530061D01*
X715483Y530022D01*
X715428Y529983D01*
X715378Y529945D01*
X715340Y529911D01*
X715334Y529906D01*
X715328Y529900D01*
X715312Y529884D01*
X715295Y529867D01*
X715251Y529806D01*
X715201Y529729D01*
X715151Y529635D01*
X715112Y529518D01*
X715079Y529385D01*
X715074Y529319D01*
X715068Y529241D01*
Y529236D01*
Y529219D01*
Y529192D01*
X715074Y529158D01*
X715079Y529114D01*
X715090Y529059D01*
X715101Y529003D01*
X715118Y528942D01*
X715140Y528876D01*
X715168Y528804D01*
X715201Y528732D01*
X715240Y528660D01*
X715284Y528588D01*
X715340Y528511D01*
X715400Y528444D01*
X715472Y528372D01*
X715478Y528367D01*
X715489Y528355D01*
X715517Y528339D01*
X715544Y528317D01*
X715589Y528289D01*
X715639Y528256D01*
X715694Y528228D01*
X715766Y528195D01*
X715838Y528156D01*
X715921Y528128D01*
X716015Y528095D01*
X716115Y528068D01*
X716220Y528045D01*
X716336Y528029D01*
X716458Y528018D01*
X716591Y528012D01*
X716674D01*
X716718Y528018D01*
X716768Y528023D01*
X716823D01*
X716884Y528034D01*
X717017Y528051D01*
X717161Y528079D01*
X717311Y528117D01*
X717449Y528173D01*
X717455D01*
X717466Y528178D01*
X717482Y528189D01*
X717510Y528206D01*
X717571Y528239D01*
X717648Y528294D01*
X717731Y528355D01*
X717815Y528438D01*
X717892Y528527D01*
X717959Y528632D01*
Y528638D01*
X717964Y528643D01*
X717970Y528660D01*
X717981Y528688D01*
X717992Y528715D01*
X718003Y528749D01*
X718030Y528832D01*
X718058Y528931D01*
X718080Y529048D01*
X718092Y529175D01*
X718097Y529313D01*
X717344Y529358D01*
Y529352D01*
Y529341D01*
Y529324D01*
X717338Y529302D01*
X717333Y529236D01*
X717322Y529164D01*
X717311Y529081D01*
X717289Y528998D01*
X717261Y528926D01*
X717222Y528870D01*
X717211Y528859D01*
X717189Y528837D01*
X717145Y528810D01*
X717078Y528771D01*
X717039Y528754D01*
X716990Y528732D01*
X716940Y528715D01*
X716879Y528704D01*
X716818Y528688D01*
X716746Y528682D01*
X716668Y528671D01*
X716524D01*
X716491Y528677D01*
X716452D01*
X716369Y528688D01*
X716281Y528704D01*
X716187Y528732D01*
X716098Y528765D01*
X716026Y528810D01*
X716021Y528815D01*
X715998Y528832D01*
X715971Y528865D01*
X715938Y528904D01*
X715904Y528954D01*
X715877Y529009D01*
X715854Y529070D01*
X715849Y529142D01*
Y529147D01*
Y529169D01*
X715854Y529203D01*
X715865Y529241D01*
X715882Y529286D01*
X715910Y529336D01*
X715943Y529385D01*
X715993Y529430D01*
X715998Y529435D01*
X716015Y529446D01*
X716048Y529468D01*
X716098Y529496D01*
X716131Y529518D01*
X716170Y529540D01*
X716214Y529563D01*
X716264Y529585D01*
X716325Y529612D01*
X716386Y529646D01*
X716463Y529679D01*
X716541Y529712D01*
X716547D01*
X716563Y529723D01*
X716585Y529729D01*
X716613Y529745D01*
X716652Y529762D01*
X716696Y529779D01*
X716790Y529823D01*
X716895Y529878D01*
X717006Y529928D01*
X717106Y529983D01*
X717156Y530011D01*
X717194Y530033D01*
X717206Y530039D01*
X717228Y530055D01*
X717266Y530089D01*
X717311Y530127D01*
X717361Y530172D01*
X717416Y530233D01*
X717466Y530299D01*
X717516Y530371D01*
X717521Y530382D01*
X717532Y530410D01*
X717554Y530454D01*
X717571Y530509D01*
X717593Y530581D01*
X717615Y530664D01*
X717626Y530759D01*
X717632Y530858D01*
Y530864D01*
Y530880D01*
Y530908D01*
X717626Y530941D01*
X717621Y530980D01*
X717615Y531030D01*
X717604Y531085D01*
X717588Y531141D01*
X717549Y531268D01*
X717516Y531334D01*
X717482Y531407D01*
X717444Y531473D01*
X717399Y531539D01*
X717344Y531606D01*
X717283Y531667D01*
X717278Y531672D01*
X717266Y531683D01*
X717244Y531694D01*
X717217Y531716D01*
X717183Y531739D01*
X717139Y531766D01*
X717084Y531800D01*
X717023Y531827D01*
X716956Y531855D01*
X716884Y531888D01*
X716801Y531916D01*
X716707Y531938D01*
X716608Y531960D01*
X716502Y531977D01*
X716392Y531982D01*
X716270Y531988D01*
D02*
G37*
G36*
X880986Y285916D02*
X880260D01*
X879219Y283352D01*
X878677Y285916D01*
X877951D01*
X878754Y282084D01*
X879480D01*
X880520Y284659D01*
X881063Y282084D01*
X881788D01*
X880986Y285916D01*
D02*
G37*
G36*
X883588Y285988D02*
X883522D01*
X883477Y285982D01*
X883422Y285977D01*
X883355Y285971D01*
X883284Y285960D01*
X883206Y285949D01*
X883034Y285910D01*
X882857Y285855D01*
X882769Y285822D01*
X882685Y285783D01*
X882602Y285733D01*
X882525Y285678D01*
X882519Y285672D01*
X882508Y285661D01*
X882486Y285644D01*
X882458Y285622D01*
X882425Y285589D01*
X882392Y285550D01*
X882348Y285501D01*
X882303Y285451D01*
X882259Y285390D01*
X882215Y285323D01*
X882171Y285251D01*
X882126Y285168D01*
X882087Y285080D01*
X882049Y284986D01*
X882016Y284886D01*
X881988Y284781D01*
X882724Y284698D01*
Y284703D01*
X882730Y284714D01*
X882735Y284731D01*
X882741Y284753D01*
X882769Y284808D01*
X882802Y284880D01*
X882846Y284958D01*
X882902Y285041D01*
X882962Y285119D01*
X883040Y285185D01*
X883051Y285191D01*
X883079Y285213D01*
X883123Y285240D01*
X883189Y285268D01*
X883267Y285301D01*
X883361Y285323D01*
X883466Y285345D01*
X883583Y285351D01*
X883621D01*
X883643Y285345D01*
X883682D01*
X883721Y285340D01*
X883810Y285323D01*
X883920Y285301D01*
X884037Y285263D01*
X884158Y285213D01*
X884280Y285146D01*
X884286D01*
X884291Y285135D01*
X884308Y285124D01*
X884330Y285107D01*
X884391Y285063D01*
X884463Y284997D01*
X884540Y284908D01*
X884624Y284803D01*
X884707Y284676D01*
X884779Y284526D01*
Y284520D01*
X884784Y284509D01*
X884795Y284487D01*
X884806Y284454D01*
X884817Y284415D01*
X884834Y284371D01*
X884851Y284316D01*
X884867Y284255D01*
X884884Y284194D01*
X884900Y284122D01*
X884928Y283967D01*
X884950Y283801D01*
X884956Y283618D01*
Y283612D01*
Y283596D01*
Y283574D01*
X884950Y283540D01*
Y283496D01*
X884945Y283452D01*
X884928Y283347D01*
X884900Y283230D01*
X884867Y283109D01*
X884812Y282998D01*
X884779Y282942D01*
X884740Y282898D01*
X884729Y282887D01*
X884701Y282865D01*
X884646Y282826D01*
X884574Y282787D01*
X884485Y282743D01*
X884374Y282704D01*
X884241Y282682D01*
X884092Y282671D01*
X884048D01*
X883998Y282677D01*
X883931Y282682D01*
X883854Y282688D01*
X883765Y282704D01*
X883671Y282721D01*
X883571Y282743D01*
X883566D01*
X883560Y282749D01*
X883527Y282754D01*
X883477Y282771D01*
X883416Y282793D01*
X883344Y282815D01*
X883267Y282848D01*
X883189Y282882D01*
X883112Y282915D01*
X882990Y283491D01*
X883970D01*
X883837Y284133D01*
X882126D01*
X882470Y282477D01*
X882475D01*
X882481Y282466D01*
X882503Y282461D01*
X882525Y282444D01*
X882553Y282427D01*
X882591Y282411D01*
X882630Y282389D01*
X882674Y282361D01*
X882785Y282311D01*
X882913Y282256D01*
X883056Y282200D01*
X883217Y282145D01*
X883223D01*
X883239Y282139D01*
X883261Y282134D01*
X883295Y282123D01*
X883333Y282112D01*
X883378Y282101D01*
X883433Y282090D01*
X883494Y282079D01*
X883627Y282056D01*
X883782Y282034D01*
X883942Y282018D01*
X884114Y282012D01*
X884181D01*
X884230Y282018D01*
X884291Y282023D01*
X884358Y282029D01*
X884435Y282040D01*
X884518Y282051D01*
X884690Y282090D01*
X884784Y282117D01*
X884873Y282151D01*
X884961Y282184D01*
X885050Y282228D01*
X885127Y282278D01*
X885205Y282333D01*
X885210Y282339D01*
X885227Y282355D01*
X885255Y282378D01*
X885283Y282416D01*
X885327Y282461D01*
X885366Y282516D01*
X885415Y282582D01*
X885460Y282654D01*
X885509Y282743D01*
X885559Y282837D01*
X885598Y282942D01*
X885637Y283053D01*
X885670Y283181D01*
X885698Y283313D01*
X885714Y283457D01*
X885720Y283607D01*
Y283662D01*
X885714Y283701D01*
Y283756D01*
X885709Y283812D01*
X885703Y283878D01*
X885692Y283956D01*
X885681Y284033D01*
X885665Y284116D01*
X885626Y284299D01*
X885570Y284493D01*
X885498Y284687D01*
X885493Y284692D01*
X885487Y284714D01*
X885471Y284748D01*
X885449Y284786D01*
X885421Y284842D01*
X885388Y284897D01*
X885349Y284963D01*
X885305Y285035D01*
X885255Y285113D01*
X885199Y285191D01*
X885138Y285268D01*
X885067Y285351D01*
X884917Y285506D01*
X884834Y285578D01*
X884745Y285644D01*
X884740Y285650D01*
X884723Y285661D01*
X884696Y285678D01*
X884657Y285700D01*
X884613Y285722D01*
X884552Y285755D01*
X884491Y285783D01*
X884413Y285816D01*
X884336Y285849D01*
X884247Y285877D01*
X884153Y285910D01*
X884048Y285933D01*
X883942Y285955D01*
X883826Y285971D01*
X883710Y285982D01*
X883588Y285988D01*
D02*
G37*
G36*
X877132Y285916D02*
X875869D01*
X875775Y285910D01*
X875681D01*
X875603Y285905D01*
X875576D01*
X875548Y285899D01*
X875537D01*
X875509Y285894D01*
X875465Y285888D01*
X875404Y285877D01*
X875338Y285866D01*
X875266Y285849D01*
X875122Y285800D01*
X875111Y285794D01*
X875089Y285788D01*
X875055Y285772D01*
X875005Y285750D01*
X874956Y285716D01*
X874895Y285683D01*
X874839Y285644D01*
X874778Y285595D01*
X874773Y285589D01*
X874751Y285573D01*
X874723Y285545D01*
X874684Y285506D01*
X874645Y285462D01*
X874601Y285406D01*
X874557Y285345D01*
X874513Y285279D01*
X874507Y285273D01*
X874496Y285246D01*
X874474Y285207D01*
X874452Y285157D01*
X874424Y285096D01*
X874391Y285024D01*
X874363Y284941D01*
X874341Y284853D01*
X874335Y284842D01*
X874330Y284808D01*
X874319Y284759D01*
X874308Y284698D01*
X874297Y284620D01*
X874291Y284526D01*
X874280Y284432D01*
Y284266D01*
X874286Y284221D01*
Y284166D01*
X874291Y284105D01*
X874302Y284033D01*
X874308Y283956D01*
X874324Y283873D01*
X874335Y283784D01*
X874380Y283601D01*
X874441Y283413D01*
X874474Y283319D01*
X874518Y283225D01*
Y283219D01*
X874529Y283203D01*
X874540Y283181D01*
X874563Y283147D01*
X874585Y283103D01*
X874612Y283059D01*
X874684Y282948D01*
X874767Y282826D01*
X874873Y282699D01*
X874989Y282577D01*
X875116Y282461D01*
X875122D01*
X875127Y282450D01*
X875144Y282439D01*
X875166Y282427D01*
X875194Y282405D01*
X875227Y282389D01*
X875310Y282339D01*
X875410Y282289D01*
X875531Y282234D01*
X875670Y282184D01*
X875825Y282139D01*
X875836D01*
X875853Y282134D01*
X875869Y282128D01*
X875897D01*
X875930Y282123D01*
X875969Y282117D01*
X876013Y282112D01*
X876063Y282106D01*
X876118Y282101D01*
X876179Y282095D01*
X876251D01*
X876323Y282090D01*
X876406Y282084D01*
X877935D01*
X877132Y285916D01*
D02*
G37*
%LPD*%
G36*
X877021Y282699D02*
X876517D01*
X876473Y282704D01*
X876379D01*
X876273Y282710D01*
X876174Y282721D01*
X876074Y282732D01*
X876030Y282738D01*
X875991Y282749D01*
X875980Y282754D01*
X875958Y282760D01*
X875919Y282776D01*
X875869Y282793D01*
X875814Y282821D01*
X875753Y282854D01*
X875692Y282898D01*
X875631Y282948D01*
X875626D01*
X875620Y282959D01*
X875592Y282987D01*
X875548Y283036D01*
X875493Y283097D01*
X875426Y283181D01*
X875360Y283280D01*
X875293Y283391D01*
X875232Y283513D01*
Y283518D01*
X875227Y283529D01*
X875216Y283552D01*
X875205Y283574D01*
X875194Y283612D01*
X875183Y283651D01*
X875166Y283695D01*
X875149Y283751D01*
X875138Y283806D01*
X875122Y283873D01*
X875094Y284017D01*
X875077Y284177D01*
X875072Y284349D01*
Y284354D01*
Y284365D01*
Y284388D01*
Y284415D01*
X875077Y284449D01*
Y284487D01*
X875089Y284581D01*
X875105Y284681D01*
X875127Y284781D01*
X875161Y284880D01*
X875205Y284963D01*
X875210Y284974D01*
X875227Y284997D01*
X875255Y285030D01*
X875293Y285074D01*
X875343Y285119D01*
X875399Y285163D01*
X875465Y285202D01*
X875537Y285235D01*
X875543D01*
X875565Y285240D01*
X875598Y285251D01*
X875648Y285263D01*
X875714Y285268D01*
X875797Y285279D01*
X875897Y285285D01*
X876478D01*
X877021Y282699D01*
D02*
G37*
%LPC*%
G36*
X880537Y306927D02*
X880487D01*
X880449Y306921D01*
X880404Y306916D01*
X880349Y306910D01*
X880294Y306905D01*
X880233Y306888D01*
X880094Y306855D01*
X879956Y306805D01*
X879884Y306772D01*
X879817Y306733D01*
X879756Y306683D01*
X879695Y306633D01*
X879690Y306628D01*
X879684Y306622D01*
X879668Y306606D01*
X879646Y306584D01*
X879623Y306550D01*
X879596Y306517D01*
X879568Y306478D01*
X879540Y306434D01*
X879485Y306329D01*
X879435Y306202D01*
X879396Y306058D01*
X879391Y305980D01*
X879385Y305897D01*
Y305858D01*
X879391Y305814D01*
X879396Y305753D01*
X879408Y305687D01*
X879424Y305609D01*
X879446Y305526D01*
X879480Y305437D01*
X879485Y305426D01*
X879496Y305399D01*
X879518Y305354D01*
X879551Y305294D01*
X879596Y305222D01*
X879651Y305138D01*
X879712Y305050D01*
X879790Y304956D01*
X879795Y304950D01*
X879817Y304923D01*
X879856Y304884D01*
X879911Y304828D01*
X879983Y304756D01*
X880072Y304668D01*
X880177Y304568D01*
X880299Y304452D01*
X880304Y304446D01*
X880316Y304435D01*
X880332Y304424D01*
X880354Y304402D01*
X880415Y304347D01*
X880487Y304275D01*
X880565Y304203D01*
X880642Y304131D01*
X880709Y304064D01*
X880764Y304009D01*
X880770Y304003D01*
X880781Y303987D01*
X880803Y303965D01*
X880831Y303937D01*
X880864Y303898D01*
X880897Y303854D01*
X880975Y303760D01*
X879646D01*
X879790Y303073D01*
X882115D01*
Y303084D01*
X882110Y303101D01*
Y303123D01*
X882099Y303178D01*
X882082Y303245D01*
X882060Y303328D01*
X882032Y303416D01*
X881999Y303516D01*
X881955Y303610D01*
Y303616D01*
X881949Y303621D01*
X881933Y303654D01*
X881905Y303704D01*
X881866Y303765D01*
X881816Y303837D01*
X881761Y303915D01*
X881700Y303998D01*
X881634Y304081D01*
X881622Y304092D01*
X881595Y304125D01*
X881573Y304147D01*
X881545Y304175D01*
X881512Y304214D01*
X881473Y304252D01*
X881429Y304302D01*
X881373Y304352D01*
X881318Y304413D01*
X881251Y304474D01*
X881179Y304546D01*
X881102Y304624D01*
X881019Y304706D01*
X880925Y304795D01*
X880919Y304801D01*
X880908Y304812D01*
X880886Y304828D01*
X880864Y304856D01*
X880797Y304917D01*
X880720Y304995D01*
X880637Y305077D01*
X880554Y305155D01*
X880487Y305227D01*
X880460Y305255D01*
X880437Y305277D01*
X880432Y305288D01*
X880410Y305310D01*
X880377Y305349D01*
X880338Y305399D01*
X880294Y305454D01*
X880255Y305515D01*
X880216Y305576D01*
X880188Y305631D01*
X880183Y305637D01*
X880177Y305659D01*
X880166Y305687D01*
X880150Y305720D01*
X880138Y305764D01*
X880127Y305808D01*
X880122Y305858D01*
X880116Y305903D01*
Y305914D01*
Y305936D01*
X880122Y305969D01*
X880133Y306013D01*
X880144Y306063D01*
X880166Y306119D01*
X880194Y306168D01*
X880233Y306218D01*
X880238Y306224D01*
X880255Y306235D01*
X880277Y306257D01*
X880310Y306279D01*
X880354Y306301D01*
X880404Y306323D01*
X880460Y306334D01*
X880520Y306340D01*
X880548D01*
X880581Y306334D01*
X880626Y306323D01*
X880676Y306307D01*
X880725Y306279D01*
X880781Y306246D01*
X880831Y306202D01*
X880836Y306196D01*
X880853Y306174D01*
X880875Y306141D01*
X880903Y306091D01*
X880936Y306024D01*
X880969Y305941D01*
X881002Y305842D01*
X881030Y305720D01*
X881761Y305825D01*
Y305831D01*
X881755Y305847D01*
X881750Y305875D01*
X881744Y305914D01*
X881728Y305958D01*
X881717Y306008D01*
X881700Y306063D01*
X881678Y306124D01*
X881622Y306257D01*
X881550Y306395D01*
X881462Y306523D01*
X881406Y306584D01*
X881351Y306639D01*
X881346Y306644D01*
X881335Y306650D01*
X881318Y306667D01*
X881290Y306683D01*
X881263Y306705D01*
X881224Y306728D01*
X881179Y306755D01*
X881124Y306783D01*
X881069Y306811D01*
X881008Y306838D01*
X880869Y306883D01*
X880714Y306916D01*
X880626Y306921D01*
X880537Y306927D01*
D02*
G37*
G36*
X883145D02*
X882691D01*
X883500Y303073D01*
X884253D01*
X883699Y305725D01*
X883710Y305720D01*
X883738Y305698D01*
X883787Y305670D01*
X883854Y305631D01*
X883931Y305587D01*
X884025Y305543D01*
X884131Y305493D01*
X884241Y305443D01*
X884247D01*
X884253Y305437D01*
X884269Y305432D01*
X884291Y305421D01*
X884352Y305404D01*
X884424Y305376D01*
X884507Y305349D01*
X884601Y305321D01*
X884690Y305294D01*
X884784Y305271D01*
X884640Y305941D01*
X884635D01*
X884629Y305947D01*
X884596Y305958D01*
X884546Y305986D01*
X884480Y306019D01*
X884402Y306058D01*
X884308Y306102D01*
X884203Y306157D01*
X884092Y306224D01*
X883976Y306290D01*
X883854Y306368D01*
X883727Y306451D01*
X883605Y306534D01*
X883483Y306628D01*
X883361Y306722D01*
X883250Y306822D01*
X883145Y306927D01*
D02*
G37*
G36*
X878848Y306905D02*
X878067D01*
X877586Y304009D01*
X875997Y306905D01*
X875216D01*
X877331Y303073D01*
X878167D01*
X878848Y306905D01*
D02*
G37*
G36*
X556986Y121916D02*
X556260D01*
X555219Y119352D01*
X554677Y121916D01*
X553951D01*
X554754Y118084D01*
X555480D01*
X556521Y120659D01*
X557063Y118084D01*
X557789D01*
X556986Y121916D01*
D02*
G37*
G36*
X559588Y121988D02*
X559522D01*
X559477Y121982D01*
X559422Y121977D01*
X559356Y121971D01*
X559284Y121960D01*
X559206Y121949D01*
X559034Y121910D01*
X558857Y121855D01*
X558769Y121822D01*
X558685Y121783D01*
X558602Y121733D01*
X558525Y121678D01*
X558519Y121672D01*
X558508Y121661D01*
X558486Y121644D01*
X558459Y121622D01*
X558425Y121589D01*
X558392Y121550D01*
X558348Y121501D01*
X558303Y121451D01*
X558259Y121390D01*
X558215Y121323D01*
X558171Y121251D01*
X558126Y121168D01*
X558088Y121080D01*
X558049Y120986D01*
X558016Y120886D01*
X557988Y120781D01*
X558724Y120698D01*
Y120703D01*
X558730Y120714D01*
X558735Y120731D01*
X558741Y120753D01*
X558769Y120808D01*
X558802Y120880D01*
X558846Y120958D01*
X558901Y121041D01*
X558962Y121118D01*
X559040Y121185D01*
X559051Y121191D01*
X559079Y121213D01*
X559123Y121240D01*
X559189Y121268D01*
X559267Y121301D01*
X559361Y121323D01*
X559466Y121346D01*
X559583Y121351D01*
X559621D01*
X559644Y121346D01*
X559682D01*
X559721Y121340D01*
X559810Y121323D01*
X559920Y121301D01*
X560037Y121263D01*
X560158Y121213D01*
X560280Y121146D01*
X560286D01*
X560291Y121135D01*
X560308Y121124D01*
X560330Y121107D01*
X560391Y121063D01*
X560463Y120997D01*
X560541Y120908D01*
X560624Y120803D01*
X560707Y120675D01*
X560779Y120526D01*
Y120520D01*
X560784Y120509D01*
X560795Y120487D01*
X560806Y120454D01*
X560817Y120415D01*
X560834Y120371D01*
X560851Y120316D01*
X560867Y120255D01*
X560884Y120194D01*
X560900Y120122D01*
X560928Y119967D01*
X560950Y119801D01*
X560956Y119618D01*
Y119612D01*
Y119596D01*
Y119574D01*
X560950Y119540D01*
Y119496D01*
X560945Y119452D01*
X560928Y119347D01*
X560900Y119230D01*
X560867Y119108D01*
X560812Y118998D01*
X560779Y118942D01*
X560740Y118898D01*
X560729Y118887D01*
X560701Y118865D01*
X560646Y118826D01*
X560574Y118787D01*
X560485Y118743D01*
X560374Y118704D01*
X560242Y118682D01*
X560092Y118671D01*
X560048D01*
X559998Y118677D01*
X559931Y118682D01*
X559854Y118688D01*
X559765Y118704D01*
X559671Y118721D01*
X559571Y118743D01*
X559566D01*
X559560Y118749D01*
X559527Y118754D01*
X559477Y118771D01*
X559417Y118793D01*
X559344Y118815D01*
X559267Y118848D01*
X559189Y118882D01*
X559112Y118915D01*
X558990Y119491D01*
X559970D01*
X559837Y120133D01*
X558126D01*
X558470Y118477D01*
X558475D01*
X558481Y118466D01*
X558503Y118461D01*
X558525Y118444D01*
X558553Y118427D01*
X558591Y118411D01*
X558630Y118389D01*
X558675Y118361D01*
X558785Y118311D01*
X558913Y118256D01*
X559057Y118200D01*
X559217Y118145D01*
X559223D01*
X559239Y118139D01*
X559261Y118134D01*
X559295Y118123D01*
X559333Y118112D01*
X559378Y118101D01*
X559433Y118090D01*
X559494Y118079D01*
X559627Y118056D01*
X559782Y118034D01*
X559943Y118018D01*
X560114Y118012D01*
X560181D01*
X560230Y118018D01*
X560291Y118023D01*
X560358Y118029D01*
X560435Y118040D01*
X560518Y118051D01*
X560690Y118090D01*
X560784Y118117D01*
X560873Y118151D01*
X560961Y118184D01*
X561050Y118228D01*
X561128Y118278D01*
X561205Y118333D01*
X561211Y118339D01*
X561227Y118355D01*
X561255Y118378D01*
X561283Y118416D01*
X561327Y118461D01*
X561366Y118516D01*
X561415Y118582D01*
X561460Y118654D01*
X561510Y118743D01*
X561559Y118837D01*
X561598Y118942D01*
X561637Y119053D01*
X561670Y119180D01*
X561698Y119313D01*
X561714Y119457D01*
X561720Y119607D01*
Y119662D01*
X561714Y119701D01*
Y119756D01*
X561709Y119812D01*
X561703Y119878D01*
X561692Y119956D01*
X561681Y120033D01*
X561665Y120116D01*
X561626Y120299D01*
X561570Y120493D01*
X561498Y120687D01*
X561493Y120692D01*
X561487Y120714D01*
X561471Y120747D01*
X561449Y120786D01*
X561421Y120842D01*
X561388Y120897D01*
X561349Y120963D01*
X561305Y121035D01*
X561255Y121113D01*
X561199Y121191D01*
X561138Y121268D01*
X561067Y121351D01*
X560917Y121506D01*
X560834Y121578D01*
X560745Y121644D01*
X560740Y121650D01*
X560723Y121661D01*
X560696Y121678D01*
X560657Y121700D01*
X560612Y121722D01*
X560552Y121755D01*
X560491Y121783D01*
X560413Y121816D01*
X560336Y121849D01*
X560247Y121877D01*
X560153Y121910D01*
X560048Y121932D01*
X559943Y121955D01*
X559826Y121971D01*
X559710Y121982D01*
X559588Y121988D01*
D02*
G37*
G36*
X553132Y121916D02*
X551869D01*
X551775Y121910D01*
X551681D01*
X551604Y121905D01*
X551576D01*
X551548Y121899D01*
X551537D01*
X551509Y121894D01*
X551465Y121888D01*
X551404Y121877D01*
X551338Y121866D01*
X551266Y121849D01*
X551122Y121800D01*
X551111Y121794D01*
X551088Y121789D01*
X551055Y121772D01*
X551006Y121750D01*
X550956Y121716D01*
X550895Y121683D01*
X550839Y121644D01*
X550778Y121595D01*
X550773Y121589D01*
X550751Y121573D01*
X550723Y121545D01*
X550684Y121506D01*
X550645Y121462D01*
X550601Y121406D01*
X550557Y121346D01*
X550513Y121279D01*
X550507Y121273D01*
X550496Y121246D01*
X550474Y121207D01*
X550452Y121157D01*
X550424Y121096D01*
X550391Y121024D01*
X550363Y120941D01*
X550341Y120853D01*
X550335Y120842D01*
X550330Y120808D01*
X550319Y120759D01*
X550308Y120698D01*
X550297Y120620D01*
X550291Y120526D01*
X550280Y120432D01*
Y120266D01*
X550286Y120222D01*
Y120166D01*
X550291Y120105D01*
X550302Y120033D01*
X550308Y119956D01*
X550324Y119873D01*
X550335Y119784D01*
X550380Y119601D01*
X550441Y119413D01*
X550474Y119319D01*
X550518Y119225D01*
Y119219D01*
X550529Y119203D01*
X550540Y119180D01*
X550563Y119147D01*
X550585Y119103D01*
X550612Y119059D01*
X550684Y118948D01*
X550767Y118826D01*
X550873Y118699D01*
X550989Y118577D01*
X551116Y118461D01*
X551122D01*
X551127Y118450D01*
X551144Y118439D01*
X551166Y118427D01*
X551194Y118405D01*
X551227Y118389D01*
X551310Y118339D01*
X551410Y118289D01*
X551531Y118234D01*
X551670Y118184D01*
X551825Y118139D01*
X551836D01*
X551853Y118134D01*
X551869Y118128D01*
X551897D01*
X551930Y118123D01*
X551969Y118117D01*
X552013Y118112D01*
X552063Y118106D01*
X552118Y118101D01*
X552179Y118095D01*
X552251D01*
X552323Y118090D01*
X552406Y118084D01*
X553935D01*
X553132Y121916D01*
D02*
G37*
%LPD*%
G36*
X553021Y118699D02*
X552517D01*
X552473Y118704D01*
X552379D01*
X552273Y118710D01*
X552174Y118721D01*
X552074Y118732D01*
X552030Y118737D01*
X551991Y118749D01*
X551980Y118754D01*
X551958Y118760D01*
X551919Y118776D01*
X551869Y118793D01*
X551814Y118821D01*
X551753Y118854D01*
X551692Y118898D01*
X551631Y118948D01*
X551626D01*
X551620Y118959D01*
X551592Y118987D01*
X551548Y119037D01*
X551493Y119097D01*
X551426Y119180D01*
X551360Y119280D01*
X551293Y119391D01*
X551232Y119513D01*
Y119518D01*
X551227Y119529D01*
X551216Y119551D01*
X551205Y119574D01*
X551194Y119612D01*
X551183Y119651D01*
X551166Y119695D01*
X551149Y119751D01*
X551138Y119806D01*
X551122Y119873D01*
X551094Y120017D01*
X551077Y120177D01*
X551072Y120349D01*
Y120354D01*
Y120365D01*
Y120388D01*
Y120415D01*
X551077Y120449D01*
Y120487D01*
X551088Y120581D01*
X551105Y120681D01*
X551127Y120781D01*
X551161Y120880D01*
X551205Y120963D01*
X551210Y120975D01*
X551227Y120997D01*
X551255Y121030D01*
X551293Y121074D01*
X551343Y121118D01*
X551399Y121163D01*
X551465Y121202D01*
X551537Y121235D01*
X551543D01*
X551565Y121240D01*
X551598Y121251D01*
X551648Y121263D01*
X551714Y121268D01*
X551797Y121279D01*
X551897Y121285D01*
X552478D01*
X553021Y118699D01*
D02*
G37*
D13*
X787000Y39250D02*
G03*
X787000Y39250I-1250J0D01*
G01*
X574000D02*
G03*
X574000Y39250I-1250J0D01*
G01*
D15*
X906000Y182000D02*
G03*
X906000Y182000I-8000J0D01*
G01*
X907000Y305000D02*
G03*
X907000Y305000I-8000J0D01*
G01*
X546000Y137000D02*
G03*
X546000Y137000I-8000J0D01*
G01*
X906000Y204000D02*
G03*
X906000Y204000I-8000J0D01*
G01*
X721000Y517000D02*
G03*
X721000Y517000I-8000J0D01*
G01*
X752000Y528000D02*
G03*
X752000Y528000I-8000J0D01*
G01*
X546000Y120000D02*
G03*
X546000Y120000I-8000J0D01*
G01*
X907365Y284365D02*
G03*
X907365Y284365I-8000J0D01*
G01*
D17*
X779000Y5250D02*
Y62750D01*
X705000Y5250D02*
X779000D01*
X705000D02*
Y62750D01*
X779000D01*
X566000Y5250D02*
Y62750D01*
X492000Y5250D02*
X566000D01*
X492000D02*
Y62750D01*
X566000D01*
X569962Y76896D02*
X571628D01*
X570795D01*
Y72731D01*
X571628Y71898D01*
X572461D01*
X573294Y72731D01*
X564963Y76896D02*
X566629Y76063D01*
X568296Y74397D01*
Y72731D01*
X567463Y71898D01*
X565797D01*
X564963Y72731D01*
Y73564D01*
X565797Y74397D01*
X568296D01*
X782814Y76896D02*
X784480D01*
X783647D01*
Y72731D01*
X784480Y71898D01*
X785313D01*
X786146Y72731D01*
X777815Y76896D02*
X781148D01*
Y74397D01*
X779482Y75230D01*
X778649D01*
X777815Y74397D01*
Y72731D01*
X778649Y71898D01*
X780315D01*
X781148Y72731D01*
X747762Y289169D02*
X748595Y290002D01*
X750261D01*
X751094Y289169D01*
Y285837D01*
X750261Y285004D01*
X748595D01*
X747762Y285837D01*
X743596Y285004D02*
Y290002D01*
X746096Y287503D01*
X742763D01*
X737765Y290002D02*
X741097D01*
Y287503D01*
X739431Y288336D01*
X738598D01*
X737765Y287503D01*
Y285837D01*
X738598Y285004D01*
X740264D01*
X741097Y285837D01*
X528814Y289169D02*
X529647Y290002D01*
X531313D01*
X532146Y289169D01*
Y285837D01*
X531313Y285004D01*
X529647D01*
X528814Y285837D01*
X527148Y289169D02*
X526315Y290002D01*
X524649D01*
X523815Y289169D01*
Y288336D01*
X524649Y287503D01*
X525481D01*
X524649D01*
X523815Y286670D01*
Y285837D01*
X524649Y285004D01*
X526315D01*
X527148Y285837D01*
X522149Y289169D02*
X521316Y290002D01*
X519650D01*
X518817Y289169D01*
Y288336D01*
X519650Y287503D01*
X518817Y286670D01*
Y285837D01*
X519650Y285004D01*
X521316D01*
X522149Y285837D01*
Y286670D01*
X521316Y287503D01*
X522149Y288336D01*
Y289169D01*
X521316Y287503D02*
X519650D01*
M02*
