G04*
G04 #@! TF.GenerationSoftware,Altium Limited,Altium Designer,22.6.1 (34)*
G04*
G04 Layer_Color=255*
%FSLAX44Y44*%
%MOMM*%
G71*
G04*
G04 #@! TF.SameCoordinates,9900268D-5443-4670-A824-5D7C6AAB4451*
G04*
G04*
G04 #@! TF.FilePolarity,Positive*
G04*
G01*
G75*
%ADD26R,1.0000X0.8000*%
%ADD106C,1.5500*%
%ADD107R,1.5500X1.5500*%
%ADD108C,0.9000*%
%ADD114C,1.0000*%
%ADD119C,0.6000*%
%ADD120O,1.0000X2.2000*%
%ADD121O,1.0000X1.9000*%
%ADD122C,1.8000*%
%ADD123O,1.5000X2.0000*%
%ADD124O,2.0000X1.5000*%
D26*
X525000Y269500D02*
D03*
Y254500D02*
D03*
X744000Y269500D02*
D03*
Y254500D02*
D03*
D106*
X729500Y39250D02*
D03*
X516500D02*
D03*
D107*
X754500D02*
D03*
X541500D02*
D03*
D108*
X794000Y36000D02*
D03*
X824000D02*
D03*
X476000Y470000D02*
D03*
Y440000D02*
D03*
D114*
X898000Y182000D02*
D03*
X899000Y305000D02*
D03*
X538000Y137000D02*
D03*
X898000Y204000D02*
D03*
X713000Y517000D02*
D03*
X744000Y528000D02*
D03*
X538000Y120000D02*
D03*
X899365Y284365D02*
D03*
D119*
X664000Y66500D02*
D03*
X606000D02*
D03*
D120*
X591750Y71500D02*
D03*
X678250D02*
D03*
D121*
Y29500D02*
D03*
X591750D02*
D03*
D122*
X468000Y75300D02*
D03*
Y49900D02*
D03*
Y24500D02*
D03*
Y100700D02*
D03*
Y126100D02*
D03*
Y151500D02*
D03*
D123*
X784600Y275000D02*
D03*
X810000D02*
D03*
Y249600D02*
D03*
X784600D02*
D03*
X759200Y275000D02*
D03*
Y249600D02*
D03*
X459200D02*
D03*
Y275000D02*
D03*
X484600Y249600D02*
D03*
X510000D02*
D03*
Y275000D02*
D03*
X484600D02*
D03*
D124*
X792000Y499000D02*
D03*
Y473600D02*
D03*
X766600D02*
D03*
Y499000D02*
D03*
X792000Y524400D02*
D03*
X766600D02*
D03*
M02*
