M48
;Layer_Color=9474304
;FILE_FORMAT=4:4
METRIC,TZ
;TYPE=PLATED
T1F00S00C0.3000
T3F00S00C0.9000
T4F00S00C1.0000
;TYPE=NON_PLATED
T5F00S00C0.6000
T6F00S00C0.9000
%
T01
X538000Y92000
X527000Y115000
X517000
X551000Y134000
X549000Y147000
X548000Y158000
X552000Y177000
X531250Y213750
X530000Y226000
X521000
X531000Y236000
X601000Y237750
X600000Y251000
Y260000
X605000Y275000
X587000Y268000
X592000Y308000
X637500Y300000
X671000Y301000
X665000Y310000
X664000Y325000
Y341000
X646144Y346443
X646000Y361000
X664000Y373000
X685000Y361000
X694000Y366000
X698000Y348000
X713000Y358000
X747000Y374000
X768000Y338000
Y329000
X792000Y302000
X787000Y219000
X780000
X734750Y229000
X677000Y226000
X668541
X661271
X653000
Y218000
X644000Y217000
X627000Y209000
X601000
Y217000
X594000Y200000
X631000Y178000
X622000Y159000
Y150000
X627000Y140000
X636000
X644000
X653000
X660000Y134000
Y113000
X650000
X659000Y102000
Y95000
X670000Y97000
X611000Y112000
X604000
X586000Y100000
Y91000
X574000Y119000
X489000Y175000
X470000
X462000Y347000
X522000Y373000
X569625Y369625
X573000Y388000
X591000Y369000
X688000Y386000
X682000Y393000
X696000
X678000Y256000
X677000Y242000
Y236000
X691000Y197000
X700000
X711000Y180500
X721000
X716000Y173000
X721000Y165500
X711000
X689000Y172000
X757000Y173000
X769000Y147000
X778000Y146000
Y155000
X712000Y59000
X714000Y39000
Y30000
X725000Y25000
X650000Y263000
Y272000
X799000Y302000
X812000Y311000
X820000Y320000
X828000Y301000
X841000Y271000
X856000
X869000Y269000
Y246000
X903000Y240000
Y229000
Y218000
X892000Y192000
X855000Y214000
X841000
X821000Y155000
X807000Y62000
X802000Y48000
X845000Y57000
X835000Y24000
X885000Y29000
X879000Y301000
X890000Y314000
X899000Y320000
X893000Y368000
X866000Y382000
X858000Y348500
X847000
X836000
Y337500
X847000
X858000
X811000Y356000
Y363000
X876000Y412000
Y422000
X825000Y561000
X814000Y584000
X818000Y609000
X819000Y618000
X812250Y632250
X801000Y661000
X815000Y708000
X836000Y709000
X836500Y698500
X838000Y687000
X850000Y703000
X859000Y708000
X866000Y720000
X838000Y744000
X795000Y740000
X743000
X698000Y729000
X679500
X661000
X629000
X617000
X623000Y757000
X575000Y760000
X577000Y771000
X582000Y743000
X568000
X561000Y707000
X596000Y699000
X587000Y655000
X566000Y653000
X570000Y620000
X547000Y619000
X544250Y632250
X544000Y603000
X533000Y590000
X484000Y584000
X489000Y606000
X488000Y620000
X477000Y660000
X453000
X450000Y695000
X447000Y722000
X436000Y711000
X425000Y732000
X473000Y740000
X475424Y752927
X503000Y746000
X525000Y740000
X531000Y660000
X502000Y657000
X619000
X632000
X654000Y663000
X648000Y684000
X667000
X668000Y618000
X659000
Y596000
X642000Y589000
X638000Y582000
X631000Y570000
X616000
X618000Y582000
X607000Y581000
X648000Y564000
X690000Y562000
X711000Y547000
X705000Y540000
X697000Y522000
X698000Y490000
X707000Y468000
Y443000
X711000Y423000
Y415000
X739000Y426000
X677000Y408000
X668000Y410000
X658000Y407000
X659000Y430000
X670000Y443000
Y456000
X652576Y451763
X650000Y486000
X676000Y473000
X606000Y476000
X592000Y459000
X600000Y429000
X608000Y413000
X598000Y406000
X592000Y412000
X622000Y407000
X619000Y420000
X635000
X563000Y429000
X555000Y430000
X538000
X528000Y406000
X547000Y398000
X476000Y419000
Y491000
X499000Y487000
X528000Y483000
X525000Y472000
X560000Y478000
X508000Y542000
X489000Y541000
X466000Y528000
X454000Y542000
X737000Y515000
X746000Y504000
X783000Y549000
X787000Y594000
X753000
X734000Y581000
X724000Y583000
X747000Y660000
X777000
T03
X459200Y249600
Y275000
X484600
Y249600
X510000
Y275000
X759200
X784600
Y249600
X759200
X810000
Y275000
X792000Y473600
Y499000
X766600
Y473600
Y524400
X792000
T04
X468000Y24500
Y49900
Y75300
Y100700
Y126100
Y151500
X516500Y39250
X541500
X729500
X754500
T05
X606000Y66500
X664000
T06
X794000Y36000
X824000
X476000Y440000
Y470000
M30
